G04 #@! TF.FileFunction,Copper,L2,Bot,Signal*
%FSLAX46Y46*%
G04 Gerber Fmt 4.6, Leading zero omitted, Abs format (unit mm)*
G04 Created by KiCad (PCBNEW 4.0.6) date 08/04/17 15:07:46*
%MOMM*%
%LPD*%
G01*
G04 APERTURE LIST*
%ADD10C,0.100000*%
%ADD11R,1.250000X1.500000*%
%ADD12R,1.500000X1.250000*%
%ADD13R,1.300000X1.500000*%
%ADD14R,0.650000X1.560000*%
%ADD15R,1.500000X1.300000*%
%ADD16C,1.500000*%
%ADD17R,1.100000X2.250000*%
%ADD18R,1.050000X1.100000*%
%ADD19R,2.250000X1.100000*%
%ADD20R,1.100000X1.050000*%
%ADD21R,0.280000X1.200000*%
%ADD22R,1.200000X0.280000*%
%ADD23R,1.700000X1.700000*%
%ADD24O,1.700000X1.700000*%
%ADD25C,0.600000*%
%ADD26C,0.250000*%
%ADD27C,0.500000*%
%ADD28C,0.254000*%
G04 APERTURE END LIST*
D10*
D11*
X161925000Y-120670000D03*
X161925000Y-123170000D03*
D12*
X164485000Y-127000000D03*
X166985000Y-127000000D03*
D13*
X161290000Y-133270000D03*
X161290000Y-135970000D03*
X156210000Y-138985000D03*
X156210000Y-141685000D03*
D14*
X149545000Y-99615000D03*
X150495000Y-99615000D03*
X151445000Y-99615000D03*
X151445000Y-102315000D03*
X149545000Y-102315000D03*
D15*
X150575000Y-121920000D03*
X147875000Y-121920000D03*
D13*
X156210000Y-133905000D03*
X156210000Y-136605000D03*
D12*
X158730000Y-130810000D03*
X156230000Y-130810000D03*
D16*
X164338000Y-102616000D03*
X159458000Y-102616000D03*
D15*
X163750000Y-112014000D03*
X166450000Y-112014000D03*
D13*
X158750000Y-119935000D03*
X158750000Y-122635000D03*
D12*
X150475000Y-127000000D03*
X147975000Y-127000000D03*
D11*
X153035000Y-120670000D03*
X153035000Y-123170000D03*
D12*
X151999000Y-104521000D03*
X149499000Y-104521000D03*
X151999000Y-97282000D03*
X149499000Y-97282000D03*
X150475000Y-107315000D03*
X147975000Y-107315000D03*
D11*
X164719000Y-105176000D03*
X164719000Y-107676000D03*
D12*
X147975000Y-109855000D03*
X150475000Y-109855000D03*
X163469000Y-98933000D03*
X165969000Y-98933000D03*
X160254000Y-98933000D03*
X157754000Y-98933000D03*
D17*
X147750000Y-140970000D03*
X150700000Y-140970000D03*
D18*
X149225000Y-139420000D03*
D17*
X164260000Y-140970000D03*
X167210000Y-140970000D03*
D18*
X165735000Y-139420000D03*
D19*
X148590000Y-116635000D03*
X148590000Y-119585000D03*
D20*
X150140000Y-118110000D03*
D15*
X164385000Y-121920000D03*
X167085000Y-121920000D03*
X167085000Y-124460000D03*
X164385000Y-124460000D03*
X147875000Y-124460000D03*
X150575000Y-124460000D03*
X164385000Y-129540000D03*
X167085000Y-129540000D03*
X150575000Y-129540000D03*
X147875000Y-129540000D03*
D13*
X158750000Y-133905000D03*
X158750000Y-136605000D03*
X158750000Y-128350000D03*
X158750000Y-125650000D03*
X156210000Y-128350000D03*
X156210000Y-125650000D03*
X156210000Y-119935000D03*
X156210000Y-122635000D03*
X154305000Y-133270000D03*
X154305000Y-135970000D03*
D15*
X164385000Y-132080000D03*
X167085000Y-132080000D03*
X150575000Y-132080000D03*
X147875000Y-132080000D03*
X167085000Y-134620000D03*
X164385000Y-134620000D03*
X147875000Y-134620000D03*
X150575000Y-134620000D03*
D13*
X161290000Y-138985000D03*
X161290000Y-141685000D03*
X153670000Y-138985000D03*
X153670000Y-141685000D03*
X158750000Y-138985000D03*
X158750000Y-141685000D03*
D15*
X167085000Y-137160000D03*
X164385000Y-137160000D03*
X147875000Y-137160000D03*
X150575000Y-137160000D03*
D13*
X154432000Y-100123000D03*
X154432000Y-102823000D03*
D15*
X163750000Y-114173000D03*
X166450000Y-114173000D03*
X163750000Y-109855000D03*
X166450000Y-109855000D03*
X163750000Y-116205000D03*
X166450000Y-116205000D03*
X147875000Y-112395000D03*
X150575000Y-112395000D03*
X160702000Y-100965000D03*
X163402000Y-100965000D03*
X150575000Y-114935000D03*
X147875000Y-114935000D03*
D21*
X159992000Y-111835000D03*
X159492000Y-111835000D03*
X158992000Y-111835000D03*
X158492000Y-111835000D03*
X157992000Y-111835000D03*
X157492000Y-111835000D03*
X156992000Y-111835000D03*
X156492000Y-111835000D03*
D22*
X154992000Y-110335000D03*
X154992000Y-109835000D03*
X154992000Y-109335000D03*
X154992000Y-108835000D03*
X154992000Y-108335000D03*
X154992000Y-107835000D03*
X154992000Y-107335000D03*
X154992000Y-106835000D03*
D21*
X156492000Y-105335000D03*
X156992000Y-105335000D03*
X157492000Y-105335000D03*
X157992000Y-105335000D03*
X158492000Y-105335000D03*
X158992000Y-105335000D03*
X159492000Y-105335000D03*
X159992000Y-105335000D03*
D22*
X161492000Y-106835000D03*
X161492000Y-107335000D03*
X161492000Y-107835000D03*
X161492000Y-108335000D03*
X161492000Y-108835000D03*
X161492000Y-109335000D03*
X161492000Y-109835000D03*
X161492000Y-110335000D03*
D23*
X170053000Y-96012000D03*
D24*
X172593000Y-96012000D03*
X170053000Y-98552000D03*
X172593000Y-98552000D03*
X170053000Y-101092000D03*
X172593000Y-101092000D03*
X170053000Y-103632000D03*
X172593000Y-103632000D03*
X170053000Y-106172000D03*
X172593000Y-106172000D03*
X170053000Y-108712000D03*
X172593000Y-108712000D03*
X170053000Y-111252000D03*
X172593000Y-111252000D03*
X170053000Y-113792000D03*
X172593000Y-113792000D03*
X170053000Y-116332000D03*
X172593000Y-116332000D03*
X170053000Y-118872000D03*
X172593000Y-118872000D03*
X170053000Y-121412000D03*
X172593000Y-121412000D03*
X170053000Y-123952000D03*
X172593000Y-123952000D03*
X170053000Y-126492000D03*
X172593000Y-126492000D03*
X170053000Y-129032000D03*
X172593000Y-129032000D03*
X170053000Y-131572000D03*
X172593000Y-131572000D03*
X170053000Y-134112000D03*
X172593000Y-134112000D03*
X170053000Y-136652000D03*
X172593000Y-136652000D03*
X170053000Y-139192000D03*
X172593000Y-139192000D03*
X170053000Y-141732000D03*
X172593000Y-141732000D03*
D25*
X150622000Y-120396000D03*
X163195000Y-139065000D03*
X168402000Y-99822000D03*
X147066000Y-99314000D03*
X162560000Y-135255000D03*
X161290000Y-136525000D03*
X160274000Y-127508000D03*
X162560000Y-127254000D03*
X163195000Y-122809000D03*
X161925000Y-128905000D03*
X154559000Y-127254000D03*
X152527000Y-127254000D03*
X151892000Y-122809000D03*
X153035000Y-128905000D03*
X154432000Y-135255000D03*
X152400000Y-134620000D03*
X155067000Y-110896400D03*
X157505400Y-109778800D03*
X156362400Y-109829600D03*
X156946600Y-109347000D03*
X151765000Y-108585000D03*
X160020000Y-131445000D03*
X162306000Y-99949000D03*
X164846000Y-100584000D03*
X150495000Y-102315000D03*
X159492000Y-109352400D03*
X158851600Y-108788200D03*
X159131000Y-107188000D03*
X166116000Y-107442000D03*
X155702000Y-97282000D03*
X153670000Y-97282000D03*
X156210000Y-99060000D03*
X160020000Y-107188000D03*
X156845000Y-132080000D03*
X157480000Y-138985000D03*
X154940000Y-131445000D03*
X149499000Y-97282000D03*
X149499000Y-104521000D03*
X160020000Y-116459000D03*
X159004000Y-132334000D03*
X162560000Y-133477000D03*
X147875000Y-121920000D03*
X146812000Y-120650000D03*
X150876000Y-105664000D03*
X147066000Y-104775000D03*
X160655000Y-113030000D03*
X155829000Y-111683800D03*
X160020000Y-140335000D03*
X154940000Y-140462000D03*
X153035000Y-125476000D03*
X149225000Y-137160000D03*
X159893000Y-117983000D03*
X157480000Y-117856000D03*
X167085000Y-137160000D03*
X147875000Y-137160000D03*
X152654000Y-132969000D03*
X149225000Y-133350000D03*
X158750000Y-124206000D03*
X155956000Y-124206000D03*
X152400000Y-106426000D03*
X152146000Y-113284000D03*
X152400000Y-110236000D03*
X152908000Y-108712000D03*
X155575000Y-116840000D03*
X168275000Y-123190000D03*
X165735000Y-121285000D03*
X151892000Y-117856000D03*
X161925000Y-125730000D03*
X165735000Y-133350000D03*
X155956000Y-132334000D03*
X155956000Y-115824000D03*
X148590000Y-100838000D03*
X157353000Y-107442000D03*
X156591000Y-106807000D03*
X156591000Y-107442000D03*
X157353000Y-106807000D03*
X160147000Y-108331000D03*
X153924000Y-108839000D03*
X147875000Y-109540000D03*
X149352000Y-111506000D03*
X166243000Y-100584000D03*
X158877000Y-96901000D03*
X164719000Y-97663000D03*
X156972000Y-102743000D03*
X165227000Y-117983000D03*
X157861000Y-102743000D03*
X167005000Y-118872000D03*
X160782000Y-103505000D03*
X166370000Y-117856000D03*
X160782000Y-104394000D03*
X151765000Y-119380000D03*
X161925000Y-130175000D03*
X153035000Y-130175000D03*
X156083000Y-102743000D03*
X162306000Y-97790000D03*
D26*
X150622000Y-120396000D02*
X150702000Y-120396000D01*
X163195000Y-139700000D02*
X163195000Y-139065000D01*
X146939000Y-99187000D02*
X146939000Y-98806000D01*
X147066000Y-99314000D02*
X146939000Y-99187000D01*
X162560000Y-135255000D02*
X161845000Y-135970000D01*
X161845000Y-135970000D02*
X161290000Y-135970000D01*
X161845000Y-135970000D02*
X161290000Y-135970000D01*
X161290000Y-136525000D02*
X161290000Y-135970000D01*
X161290000Y-135970000D02*
X161290000Y-136525000D01*
X161290000Y-136525000D02*
X161290000Y-135970000D01*
X158750000Y-135970000D02*
X161290000Y-135970000D01*
X158750000Y-125650000D02*
X158750000Y-125222000D01*
X158750000Y-125222000D02*
X158115000Y-124587000D01*
X158115000Y-124587000D02*
X158115000Y-123270000D01*
X158115000Y-123270000D02*
X158750000Y-122635000D01*
X161290000Y-138985000D02*
X161290000Y-138303000D01*
X161290000Y-138303000D02*
X162433000Y-137160000D01*
X161671000Y-128143000D02*
X162560000Y-127254000D01*
X161544000Y-128143000D02*
X161671000Y-128143000D01*
X161290000Y-128397000D02*
X161544000Y-128143000D01*
X161290000Y-130429000D02*
X161290000Y-128397000D01*
X163195000Y-132334000D02*
X161290000Y-130429000D01*
X163195000Y-135509000D02*
X163195000Y-132334000D01*
X162433000Y-136271000D02*
X163195000Y-135509000D01*
X162433000Y-137160000D02*
X162433000Y-136271000D01*
X158750000Y-125650000D02*
X158750000Y-125984000D01*
X158750000Y-125984000D02*
X160274000Y-127508000D01*
X164485000Y-127000000D02*
X162814000Y-127000000D01*
X162814000Y-127000000D02*
X162560000Y-127254000D01*
X161290000Y-138985000D02*
X161290000Y-138430000D01*
X158750000Y-125650000D02*
X158750000Y-125730000D01*
X164385000Y-124460000D02*
X164385000Y-126900000D01*
X164385000Y-126900000D02*
X164485000Y-127000000D01*
X164385000Y-129540000D02*
X164973000Y-129540000D01*
X164973000Y-129540000D02*
X166985000Y-127528000D01*
X166985000Y-127528000D02*
X166985000Y-127000000D01*
X164385000Y-121920000D02*
X164846000Y-121920000D01*
X164846000Y-121920000D02*
X167085000Y-124159000D01*
X167085000Y-124159000D02*
X167085000Y-124460000D01*
X163195000Y-122809000D02*
X164084000Y-121920000D01*
X164084000Y-121920000D02*
X164385000Y-121920000D01*
X167085000Y-124460000D02*
X166925000Y-124460000D01*
X166985000Y-127000000D02*
X166985000Y-124560000D01*
X166985000Y-124560000D02*
X167085000Y-124460000D01*
X164385000Y-122127000D02*
X164385000Y-121920000D01*
X164385000Y-129540000D02*
X162560000Y-129540000D01*
X162560000Y-129540000D02*
X161925000Y-128905000D01*
X164385000Y-129540000D02*
X164445000Y-129540000D01*
X156210000Y-122635000D02*
X156210000Y-122809000D01*
X156210000Y-122809000D02*
X156845000Y-123444000D01*
X156845000Y-123444000D02*
X156845000Y-125015000D01*
X156845000Y-125015000D02*
X156210000Y-125650000D01*
X153670000Y-138985000D02*
X153670000Y-138938000D01*
X153670000Y-138938000D02*
X151765000Y-137033000D01*
X153670000Y-128397000D02*
X152527000Y-127254000D01*
X153670000Y-130556000D02*
X153670000Y-128397000D01*
X151765000Y-132461000D02*
X153670000Y-130556000D01*
X151765000Y-137033000D02*
X151765000Y-132461000D01*
X153670000Y-138985000D02*
X153670000Y-138430000D01*
X154559000Y-127254000D02*
X156163000Y-125650000D01*
X156163000Y-125650000D02*
X156210000Y-125650000D01*
X152273000Y-127000000D02*
X150475000Y-127000000D01*
X152527000Y-127254000D02*
X152273000Y-127000000D01*
X156210000Y-125650000D02*
X155655000Y-125650000D01*
X156210000Y-125730000D02*
X156210000Y-125650000D01*
X150729000Y-126619000D02*
X150729000Y-124687000D01*
X150729000Y-124687000D02*
X150829000Y-124587000D01*
X151892000Y-122809000D02*
X151003000Y-121920000D01*
X151003000Y-121920000D02*
X150575000Y-121920000D01*
X147875000Y-124460000D02*
X147875000Y-126900000D01*
X147875000Y-126900000D02*
X147975000Y-127000000D01*
X150575000Y-129540000D02*
X149860000Y-129540000D01*
X149860000Y-129540000D02*
X147975000Y-127655000D01*
X147975000Y-127655000D02*
X147975000Y-127000000D01*
X152400000Y-129540000D02*
X150575000Y-129540000D01*
X153035000Y-128905000D02*
X152400000Y-129540000D01*
X150575000Y-121920000D02*
X150575000Y-122000000D01*
X150575000Y-121920000D02*
X151130000Y-121920000D01*
X150575000Y-121920000D02*
X150415000Y-121920000D01*
X150415000Y-121920000D02*
X147875000Y-124460000D01*
X150575000Y-129540000D02*
X150515000Y-129540000D01*
X148129000Y-124587000D02*
X148209000Y-124587000D01*
X150241000Y-122555000D02*
X150829000Y-122555000D01*
X148229000Y-124687000D02*
X148129000Y-124587000D01*
X154432000Y-135255000D02*
X154305000Y-135382000D01*
X154305000Y-135382000D02*
X154305000Y-135970000D01*
X154305000Y-135970000D02*
X155575000Y-135970000D01*
X155575000Y-135970000D02*
X156210000Y-136605000D01*
X152400000Y-134620000D02*
X153750000Y-135970000D01*
X153750000Y-135970000D02*
X154305000Y-135970000D01*
X156130000Y-135970000D02*
X156210000Y-135970000D01*
X153670000Y-136525000D02*
X153670000Y-135970000D01*
X147975000Y-107315000D02*
X147975000Y-107295000D01*
X147975000Y-107295000D02*
X148971000Y-106299000D01*
X151999000Y-105811000D02*
X151999000Y-104521000D01*
X151511000Y-106299000D02*
X151999000Y-105811000D01*
X148971000Y-106299000D02*
X151511000Y-106299000D01*
D27*
X151765000Y-108585000D02*
X151765000Y-109093000D01*
D26*
X153896000Y-110335000D02*
X154992000Y-110335000D01*
D27*
X153035000Y-109474000D02*
X153896000Y-110335000D01*
X152146000Y-109474000D02*
X153035000Y-109474000D01*
X151765000Y-109093000D02*
X152146000Y-109474000D01*
X147975000Y-107315000D02*
X147975000Y-107335000D01*
X147975000Y-107335000D02*
X149225000Y-108585000D01*
D26*
X149225000Y-108585000D02*
X151765000Y-108585000D01*
D27*
X151765000Y-108585000D02*
X149225000Y-108585000D01*
X155067000Y-110896400D02*
X155067000Y-110540800D01*
D26*
X156946600Y-109347000D02*
X157073600Y-109347000D01*
X157073600Y-109347000D02*
X157505400Y-109778800D01*
X156946600Y-109347000D02*
X156845000Y-109347000D01*
X156845000Y-109347000D02*
X156362400Y-109829600D01*
X154992000Y-110335000D02*
X155780800Y-110335000D01*
X155780800Y-110335000D02*
X156768800Y-109347000D01*
X156768800Y-109347000D02*
X156946600Y-109347000D01*
X151999000Y-104521000D02*
X151999000Y-104501000D01*
X151999000Y-104501000D02*
X151003000Y-103505000D01*
X149545000Y-103190000D02*
X149545000Y-102315000D01*
X149860000Y-103505000D02*
X149545000Y-103190000D01*
X151003000Y-103505000D02*
X149860000Y-103505000D01*
X147975000Y-107335000D02*
X149225000Y-108585000D01*
X149225000Y-108585000D02*
X151765000Y-108585000D01*
X158730000Y-130810000D02*
X159385000Y-130810000D01*
X159385000Y-130810000D02*
X160020000Y-131445000D01*
X158730000Y-131318000D02*
X159258000Y-131318000D01*
X151999000Y-104521000D02*
X151511000Y-104521000D01*
X165481000Y-100076000D02*
X165354000Y-100076000D01*
X162179000Y-99822000D02*
X162179000Y-99060000D01*
X162306000Y-99949000D02*
X162179000Y-99822000D01*
X165354000Y-100076000D02*
X164846000Y-100584000D01*
X172593000Y-111252000D02*
X172466000Y-111252000D01*
X172466000Y-111252000D02*
X171196000Y-112522000D01*
X150495000Y-102315000D02*
X150495000Y-99615000D01*
D27*
X172593000Y-101092000D02*
X171323000Y-102362000D01*
D26*
X159492000Y-109352400D02*
X159486600Y-109347000D01*
X158927800Y-108864400D02*
X159004000Y-108864400D01*
X158851600Y-108788200D02*
X158927800Y-108864400D01*
X159004000Y-108839000D02*
X159004000Y-108864400D01*
X158559500Y-108394500D02*
X159004000Y-108839000D01*
X157924500Y-108394500D02*
X158559500Y-108394500D01*
D27*
X160020000Y-107188000D02*
X159131000Y-107188000D01*
D26*
X150495000Y-99615000D02*
X150495000Y-98278000D01*
X150495000Y-98278000D02*
X149499000Y-97282000D01*
X149499000Y-104521000D02*
X149499000Y-104414000D01*
X149499000Y-104414000D02*
X147955000Y-102870000D01*
X147955000Y-102870000D02*
X147955000Y-102235000D01*
X166116000Y-105664000D02*
X166116000Y-107442000D01*
X165628000Y-105176000D02*
X166116000Y-105664000D01*
X164719000Y-105176000D02*
X165628000Y-105176000D01*
X157627000Y-99060000D02*
X156210000Y-99060000D01*
X157627000Y-99060000D02*
X157754000Y-98933000D01*
X170053000Y-106172000D02*
X169672000Y-106172000D01*
X169672000Y-106172000D02*
X167894000Y-104394000D01*
X167894000Y-100858000D02*
X165969000Y-98933000D01*
X167894000Y-104394000D02*
X167894000Y-100858000D01*
X164719000Y-105176000D02*
X164719000Y-104521000D01*
X164719000Y-104521000D02*
X165481000Y-103759000D01*
X165481000Y-103759000D02*
X165481000Y-100076000D01*
X165481000Y-100076000D02*
X165481000Y-99421000D01*
X165481000Y-99421000D02*
X165969000Y-98933000D01*
X161492000Y-107835000D02*
X162802000Y-107835000D01*
X163322000Y-106573000D02*
X164719000Y-105176000D01*
X163322000Y-107315000D02*
X163322000Y-106573000D01*
X162802000Y-107835000D02*
X163322000Y-107315000D01*
X156337000Y-108394500D02*
X157924500Y-108394500D01*
X157924500Y-108394500D02*
X159131000Y-107188000D01*
X161492000Y-107835000D02*
X160667000Y-107835000D01*
X160667000Y-107835000D02*
X160020000Y-107188000D01*
X156230000Y-130810000D02*
X156230000Y-131465000D01*
X156230000Y-131465000D02*
X156845000Y-132080000D01*
X170053000Y-106172000D02*
X170053000Y-105918000D01*
X170053000Y-105918000D02*
X171323000Y-104648000D01*
X171323000Y-104648000D02*
X171323000Y-102362000D01*
X158750000Y-138985000D02*
X156210000Y-138985000D01*
X157480000Y-138985000D02*
X158750000Y-138985000D01*
X156230000Y-130810000D02*
X155575000Y-130810000D01*
X155575000Y-130810000D02*
X154940000Y-131445000D01*
X154992000Y-109835000D02*
X154992000Y-109335000D01*
X156337000Y-108458000D02*
X156337000Y-108394500D01*
X156337000Y-108394500D02*
X156337000Y-108839000D01*
X155841000Y-109335000D02*
X154992000Y-109335000D01*
X156337000Y-108839000D02*
X155841000Y-109335000D01*
X154992000Y-108335000D02*
X156214000Y-108335000D01*
X156214000Y-108335000D02*
X156337000Y-108458000D01*
X149499000Y-97282000D02*
X149499000Y-97429000D01*
X159492000Y-111835000D02*
X159492000Y-115931000D01*
X159492000Y-115931000D02*
X160020000Y-116459000D01*
X161290000Y-133270000D02*
X160448000Y-133270000D01*
X159512000Y-132334000D02*
X159004000Y-132334000D01*
X160448000Y-133270000D02*
X159512000Y-132334000D01*
X161290000Y-133270000D02*
X160956000Y-133270000D01*
X157480000Y-135255000D02*
X159639000Y-135255000D01*
X162560000Y-134493000D02*
X162560000Y-133477000D01*
X160401000Y-134493000D02*
X162560000Y-134493000D01*
X159639000Y-135255000D02*
X160401000Y-134493000D01*
X148590000Y-119585000D02*
X147877000Y-119585000D01*
X147877000Y-119585000D02*
X146812000Y-120650000D01*
X150876000Y-105664000D02*
X148082000Y-105664000D01*
X159992000Y-112367000D02*
X160655000Y-113030000D01*
D27*
X155803600Y-111709200D02*
X155803600Y-112293400D01*
X155829000Y-111683800D02*
X155803600Y-111709200D01*
D26*
X157992000Y-110494000D02*
X159000000Y-110494000D01*
X156992000Y-111835000D02*
X156992000Y-110637000D01*
X156992000Y-110637000D02*
X157139000Y-110490000D01*
X157139000Y-110490000D02*
X157988000Y-110490000D01*
X157988000Y-110490000D02*
X157992000Y-110494000D01*
X157992000Y-110494000D02*
X157992000Y-111835000D01*
X159000000Y-110494000D02*
X159768602Y-110494000D01*
X159000000Y-110494000D02*
X158992000Y-110502000D01*
X158992000Y-110502000D02*
X158992000Y-111835000D01*
X159768602Y-110494000D02*
X159992000Y-110717398D01*
X159992000Y-110717398D02*
X159992000Y-111835000D01*
X157416500Y-137795000D02*
X160020000Y-137795000D01*
X160020000Y-137795000D02*
X160020000Y-140335000D01*
X152654000Y-132969000D02*
X152654000Y-133985000D01*
X154940000Y-137922000D02*
X154940000Y-140462000D01*
X155067000Y-137795000D02*
X154940000Y-137922000D01*
X157353000Y-137795000D02*
X157416500Y-137795000D01*
X157416500Y-137795000D02*
X155067000Y-137795000D01*
X157480000Y-137922000D02*
X157353000Y-137795000D01*
X157480000Y-135255000D02*
X157480000Y-137922000D01*
X155575000Y-135255000D02*
X157480000Y-135255000D01*
X154940000Y-134620000D02*
X155575000Y-135255000D01*
X153289000Y-134620000D02*
X154940000Y-134620000D01*
X152654000Y-133985000D02*
X153289000Y-134620000D01*
X153035000Y-125476000D02*
X153035000Y-126619000D01*
X153035000Y-123170000D02*
X153035000Y-125476000D01*
X152654000Y-132588000D02*
X152654000Y-132969000D01*
X154432000Y-130810000D02*
X152654000Y-132588000D01*
X154432000Y-128016000D02*
X154432000Y-130810000D01*
X153035000Y-126619000D02*
X154432000Y-128016000D01*
X149098000Y-137033000D02*
X149098000Y-136652000D01*
X149225000Y-137160000D02*
X149098000Y-137033000D01*
X158992000Y-111835000D02*
X158992000Y-117082000D01*
X158992000Y-117082000D02*
X159893000Y-117983000D01*
X157734000Y-117348000D02*
X157734000Y-117602000D01*
X157734000Y-117602000D02*
X157480000Y-117856000D01*
X157992000Y-111835000D02*
X157992000Y-117090000D01*
X157992000Y-117090000D02*
X157734000Y-117348000D01*
X147875000Y-134620000D02*
X148463000Y-134620000D01*
X148463000Y-134620000D02*
X149225000Y-133858000D01*
X149225000Y-133858000D02*
X149225000Y-133350000D01*
X152654000Y-132969000D02*
X152781000Y-132842000D01*
X152781000Y-132842000D02*
X152781000Y-132461000D01*
X154198000Y-124333000D02*
X153035000Y-123170000D01*
X155829000Y-124333000D02*
X154198000Y-124333000D01*
X155956000Y-124206000D02*
X155829000Y-124333000D01*
X152400000Y-106426000D02*
X152400000Y-106934000D01*
X152146000Y-113284000D02*
X152400000Y-113030000D01*
X152400000Y-113030000D02*
X152400000Y-110236000D01*
X159992000Y-111835000D02*
X159992000Y-112367000D01*
X156845000Y-116205000D02*
X155575000Y-117475000D01*
X155575000Y-117475000D02*
X155575000Y-116840000D01*
X168275000Y-123190000D02*
X167085000Y-122000000D01*
X167085000Y-122000000D02*
X167085000Y-121920000D01*
X167085000Y-121920000D02*
X166370000Y-121920000D01*
X166370000Y-121920000D02*
X165735000Y-121285000D01*
X148639000Y-119634000D02*
X151130000Y-119634000D01*
X151892000Y-117856000D02*
X151130000Y-118618000D01*
X151130000Y-118618000D02*
X151130000Y-119634000D01*
X148639000Y-119634000D02*
X148590000Y-119585000D01*
X161925000Y-123170000D02*
X161925000Y-125730000D01*
X167085000Y-134620000D02*
X167005000Y-134620000D01*
X167005000Y-134620000D02*
X165735000Y-133350000D01*
X156992000Y-111835000D02*
X156992000Y-116058000D01*
X156992000Y-116058000D02*
X156845000Y-116205000D01*
X156845000Y-116205000D02*
X156718000Y-116332000D01*
X158750000Y-119935000D02*
X159305000Y-119935000D01*
X159305000Y-119935000D02*
X160040000Y-120670000D01*
X160040000Y-120670000D02*
X161925000Y-120670000D01*
X158492000Y-111835000D02*
X158492000Y-120312000D01*
X158492000Y-120312000D02*
X158750000Y-120570000D01*
X158850000Y-120670000D02*
X158750000Y-120570000D01*
X156210000Y-119935000D02*
X155020000Y-119935000D01*
X154285000Y-120670000D02*
X153035000Y-120670000D01*
X155020000Y-119935000D02*
X154285000Y-120670000D01*
X157492000Y-111835000D02*
X157492000Y-116574000D01*
X156210000Y-117856000D02*
X156210000Y-120570000D01*
X157492000Y-116574000D02*
X156210000Y-117856000D01*
X153135000Y-120570000D02*
X153035000Y-120670000D01*
X156110000Y-120670000D02*
X156210000Y-120570000D01*
X154305000Y-132969000D02*
X154940000Y-132334000D01*
X154940000Y-132334000D02*
X155956000Y-132334000D01*
X156492000Y-111835000D02*
X156492000Y-115288000D01*
X156492000Y-115288000D02*
X155956000Y-115824000D01*
X154305000Y-133270000D02*
X154305000Y-132969000D01*
X153670000Y-133270000D02*
X154098000Y-133270000D01*
X156492000Y-111859000D02*
X156492000Y-111835000D01*
D27*
X149545000Y-99615000D02*
X149145000Y-99615000D01*
X149145000Y-99615000D02*
X147828000Y-98298000D01*
X147828000Y-98298000D02*
X147828000Y-96012000D01*
X147828000Y-96012000D02*
X150876000Y-96012000D01*
X150876000Y-96012000D02*
X151999000Y-97135000D01*
X151999000Y-97135000D02*
X151999000Y-97282000D01*
X148590000Y-100838000D02*
X148590000Y-100570000D01*
X148590000Y-100570000D02*
X149545000Y-99615000D01*
X148590000Y-100570000D02*
X149545000Y-99615000D01*
D26*
X151999000Y-97282000D02*
X151999000Y-97135000D01*
X151999000Y-97135000D02*
X150876000Y-96012000D01*
X149018000Y-99488000D02*
X149545000Y-99488000D01*
X147828000Y-98298000D02*
X149018000Y-99488000D01*
X147828000Y-96012000D02*
X147828000Y-98298000D01*
X150876000Y-96012000D02*
X147828000Y-96012000D01*
X148590000Y-100838000D02*
X149545000Y-99883000D01*
X149545000Y-99883000D02*
X149545000Y-99488000D01*
X151999000Y-97282000D02*
X151999000Y-98934000D01*
X151999000Y-98934000D02*
X151445000Y-99488000D01*
X154992000Y-106835000D02*
X154992000Y-107335000D01*
D27*
X156591000Y-107442000D02*
X157353000Y-107442000D01*
X156591000Y-106807000D02*
X156591000Y-107442000D01*
X156591000Y-106807000D02*
X157353000Y-106807000D01*
X156563000Y-106835000D02*
X156591000Y-106807000D01*
X154992000Y-106835000D02*
X156563000Y-106835000D01*
X154992000Y-106835000D02*
X154992000Y-107136000D01*
X154992000Y-107136000D02*
X154940000Y-107188000D01*
X154992000Y-106835000D02*
X154968000Y-106835000D01*
X154968000Y-106835000D02*
X153289000Y-105156000D01*
X153289000Y-101266000D02*
X154432000Y-100123000D01*
X153289000Y-105156000D02*
X153289000Y-101266000D01*
X170053000Y-96012000D02*
X167005000Y-96012000D01*
X154432000Y-96774000D02*
X154432000Y-100123000D01*
X155829000Y-95377000D02*
X154432000Y-96774000D01*
X166370000Y-95377000D02*
X155829000Y-95377000D01*
X167005000Y-96012000D02*
X166370000Y-95377000D01*
D26*
X154432000Y-100123000D02*
X154432000Y-100330000D01*
X162941000Y-116205000D02*
X163750000Y-116205000D01*
X162433000Y-115697000D02*
X162941000Y-116205000D01*
X162433000Y-113919000D02*
X162433000Y-115697000D01*
X160651000Y-108835000D02*
X160651000Y-108970000D01*
X162052000Y-113538000D02*
X162433000Y-113919000D01*
X162052000Y-112141000D02*
X162052000Y-113538000D01*
X160274000Y-110363000D02*
X162052000Y-112141000D01*
X160274000Y-109347000D02*
X160274000Y-110363000D01*
X160651000Y-108970000D02*
X160274000Y-109347000D01*
X160651000Y-108835000D02*
X160528000Y-108712000D01*
X160528000Y-108712000D02*
X160147000Y-108331000D01*
X161492000Y-108835000D02*
X160651000Y-108835000D01*
X154992000Y-107835000D02*
X150487000Y-107835000D01*
X150487000Y-107835000D02*
X150475000Y-107823000D01*
X153928000Y-108835000D02*
X154992000Y-108835000D01*
X153924000Y-108839000D02*
X153928000Y-108835000D01*
X161492000Y-108335000D02*
X164060000Y-108335000D01*
X164060000Y-108335000D02*
X164719000Y-107676000D01*
X147975000Y-109855000D02*
X147975000Y-112295000D01*
X147975000Y-112295000D02*
X147875000Y-112395000D01*
X147875000Y-109220000D02*
X147875000Y-111760000D01*
X147875000Y-114935000D02*
X147875000Y-112395000D01*
X147875000Y-109540000D02*
X147975000Y-109640000D01*
X147975000Y-109640000D02*
X147975000Y-109855000D01*
X149733000Y-111125000D02*
X150495000Y-111125000D01*
X149352000Y-111506000D02*
X149733000Y-111125000D01*
X150575000Y-112395000D02*
X150575000Y-111205000D01*
X150575000Y-111205000D02*
X150495000Y-111125000D01*
X150495000Y-111125000D02*
X150475000Y-111105000D01*
X150475000Y-111105000D02*
X150475000Y-109855000D01*
X161492000Y-107335000D02*
X162413000Y-107335000D01*
X162560000Y-104394000D02*
X164338000Y-102616000D01*
X162560000Y-107188000D02*
X162560000Y-104394000D01*
X162413000Y-107335000D02*
X162560000Y-107188000D01*
X163402000Y-100965000D02*
X163402000Y-98993000D01*
X163402000Y-98993000D02*
X163342000Y-98933000D01*
X164338000Y-102489000D02*
X164338000Y-101901000D01*
X164338000Y-101901000D02*
X163402000Y-100965000D01*
X163402000Y-100457000D02*
X163402000Y-101045000D01*
X161290000Y-102616000D02*
X159458000Y-102616000D01*
X161798000Y-103124000D02*
X161290000Y-102616000D01*
X161798000Y-106426000D02*
X161798000Y-103124000D01*
X161492000Y-106732000D02*
X161798000Y-106426000D01*
X161492000Y-106835000D02*
X161492000Y-106732000D01*
X160702000Y-100965000D02*
X160702000Y-99381000D01*
X160702000Y-99381000D02*
X160254000Y-98933000D01*
X159458000Y-102489000D02*
X159458000Y-102209000D01*
X159458000Y-102209000D02*
X160702000Y-100965000D01*
X160702000Y-100457000D02*
X160702000Y-100737000D01*
X147750000Y-140970000D02*
X147750000Y-141400000D01*
X147750000Y-141400000D02*
X148844000Y-142494000D01*
X148844000Y-142494000D02*
X150114000Y-142494000D01*
X150114000Y-142494000D02*
X150700000Y-141908000D01*
X150700000Y-141908000D02*
X150700000Y-140970000D01*
X150700000Y-140970000D02*
X150700000Y-137285000D01*
X150700000Y-137285000D02*
X150575000Y-137160000D01*
X153670000Y-141685000D02*
X151415000Y-141685000D01*
X151415000Y-141685000D02*
X150700000Y-140970000D01*
X156337000Y-141558000D02*
X154305000Y-141558000D01*
X147875000Y-132080000D02*
X147875000Y-129540000D01*
X149225000Y-139420000D02*
X147675000Y-139420000D01*
X146685000Y-133270000D02*
X147875000Y-132080000D01*
X146685000Y-138430000D02*
X146685000Y-133270000D01*
X147675000Y-139420000D02*
X146685000Y-138430000D01*
X164260000Y-140970000D02*
X164260000Y-141781000D01*
X164260000Y-141781000D02*
X165227000Y-142748000D01*
X166370000Y-142748000D02*
X167210000Y-141908000D01*
X165227000Y-142748000D02*
X166370000Y-142748000D01*
X167210000Y-141908000D02*
X167210000Y-140970000D01*
X164385000Y-137160000D02*
X164385000Y-138510000D01*
X164260000Y-138635000D02*
X164260000Y-140970000D01*
X164385000Y-138510000D02*
X164260000Y-138635000D01*
X161290000Y-141685000D02*
X163545000Y-141685000D01*
X163545000Y-141685000D02*
X164260000Y-140970000D01*
X158750000Y-141685000D02*
X161290000Y-141685000D01*
X167085000Y-129540000D02*
X167085000Y-132080000D01*
X168275000Y-132715000D02*
X168275000Y-130810000D01*
X168275000Y-130810000D02*
X167085000Y-129620000D01*
X167085000Y-129620000D02*
X167085000Y-129540000D01*
X165735000Y-139420000D02*
X167285000Y-139420000D01*
X168275000Y-132715000D02*
X167640000Y-132080000D01*
X168275000Y-138430000D02*
X168275000Y-132715000D01*
X167285000Y-139420000D02*
X168275000Y-138430000D01*
X167640000Y-132080000D02*
X167085000Y-132080000D01*
X166450000Y-109855000D02*
X167386000Y-109855000D01*
X168529000Y-108712000D02*
X170053000Y-108712000D01*
X167386000Y-109855000D02*
X168529000Y-108712000D01*
X170053000Y-108712000D02*
X169291000Y-108712000D01*
X169164000Y-109982000D02*
X168021000Y-111125000D01*
X171196000Y-109982000D02*
X169164000Y-109982000D01*
X172466000Y-108712000D02*
X171196000Y-109982000D01*
X168021000Y-111125000D02*
X168021000Y-111760000D01*
X172593000Y-108712000D02*
X172466000Y-108712000D01*
X167767000Y-112014000D02*
X166450000Y-112014000D01*
X168021000Y-111760000D02*
X167767000Y-112014000D01*
X166450000Y-112014000D02*
X166450000Y-111934000D01*
X166450000Y-114173000D02*
X167132000Y-114173000D01*
X167132000Y-114173000D02*
X170053000Y-111252000D01*
X166450000Y-114173000D02*
X166624000Y-114173000D01*
X170053000Y-113792000D02*
X170180000Y-113792000D01*
X172593000Y-113792000D02*
X172720000Y-113792000D01*
X172720000Y-113792000D02*
X174117000Y-112395000D01*
X166243000Y-104775000D02*
X166243000Y-100584000D01*
X168910000Y-107442000D02*
X166243000Y-104775000D01*
X173228000Y-107442000D02*
X168910000Y-107442000D01*
X174117000Y-108331000D02*
X173228000Y-107442000D01*
X174117000Y-112395000D02*
X174117000Y-108331000D01*
X163957000Y-96901000D02*
X158877000Y-96901000D01*
X164719000Y-97663000D02*
X163957000Y-96901000D01*
X157992000Y-103763000D02*
X156972000Y-102743000D01*
X157992000Y-103763000D02*
X157992000Y-105335000D01*
X165481000Y-117174000D02*
X166450000Y-116205000D01*
X165481000Y-117729000D02*
X165481000Y-117174000D01*
X165227000Y-117983000D02*
X165481000Y-117729000D01*
X158492000Y-105335000D02*
X158492000Y-103374000D01*
X158492000Y-103374000D02*
X157861000Y-102743000D01*
X170053000Y-121412000D02*
X169926000Y-121412000D01*
X171323000Y-122682000D02*
X170053000Y-123952000D01*
X171323000Y-120650000D02*
X171323000Y-122682000D01*
X170815000Y-120142000D02*
X171323000Y-120650000D01*
X168275000Y-120142000D02*
X170815000Y-120142000D01*
X167005000Y-118872000D02*
X168275000Y-120142000D01*
X158992000Y-105335000D02*
X158992000Y-104279000D01*
X160470002Y-103816998D02*
X160782000Y-103505000D01*
X159454002Y-103816998D02*
X160470002Y-103816998D01*
X158992000Y-104279000D02*
X159454002Y-103816998D01*
X159492000Y-105335000D02*
X159492000Y-104541000D01*
X173990000Y-122555000D02*
X173990000Y-117983000D01*
X173990000Y-117983000D02*
X173609000Y-117602000D01*
X173609000Y-117602000D02*
X166624000Y-117602000D01*
X166624000Y-117602000D02*
X166370000Y-117856000D01*
X173355000Y-123190000D02*
X173990000Y-122555000D01*
X173355000Y-123190000D02*
X172593000Y-123952000D01*
X159639000Y-104394000D02*
X160782000Y-104394000D01*
X159492000Y-104541000D02*
X159639000Y-104394000D01*
X150140000Y-118110000D02*
X150495000Y-118110000D01*
X150495000Y-118110000D02*
X150575000Y-118030000D01*
X150575000Y-118030000D02*
X150575000Y-114935000D01*
X157480000Y-128397000D02*
X157480000Y-121285000D01*
X151765000Y-121666000D02*
X151765000Y-119380000D01*
X151892000Y-121793000D02*
X151765000Y-121666000D01*
X154432000Y-121793000D02*
X151892000Y-121793000D01*
X154940000Y-121285000D02*
X154432000Y-121793000D01*
X157480000Y-121285000D02*
X154940000Y-121285000D01*
X157734000Y-133905000D02*
X157734000Y-131826000D01*
X157480000Y-131572000D02*
X157480000Y-128397000D01*
X157480000Y-128397000D02*
X157480000Y-128350000D01*
X157734000Y-131826000D02*
X157480000Y-131572000D01*
X157734000Y-128350000D02*
X157734000Y-128270000D01*
X157734000Y-128270000D02*
X157734000Y-128350000D01*
X156210000Y-133905000D02*
X157480000Y-133905000D01*
X157480000Y-133905000D02*
X157734000Y-133905000D01*
X157734000Y-133905000D02*
X158750000Y-133905000D01*
X157480000Y-128350000D02*
X157480000Y-128270000D01*
X157480000Y-128270000D02*
X157480000Y-128350000D01*
X156210000Y-128350000D02*
X157480000Y-128350000D01*
X157480000Y-128350000D02*
X157734000Y-128350000D01*
X157734000Y-128350000D02*
X158750000Y-128350000D01*
X164385000Y-132080000D02*
X164385000Y-134620000D01*
X164385000Y-132080000D02*
X163830000Y-132080000D01*
X163830000Y-132080000D02*
X161925000Y-130175000D01*
X153035000Y-130175000D02*
X151130000Y-132080000D01*
X151130000Y-132080000D02*
X150575000Y-132080000D01*
X150575000Y-132080000D02*
X151130000Y-132080000D01*
X150575000Y-132080000D02*
X150575000Y-134620000D01*
X156492000Y-105335000D02*
X156492000Y-104883000D01*
X156492000Y-104883000D02*
X154432000Y-102823000D01*
X156492000Y-105335000D02*
X156492000Y-104803000D01*
X161492000Y-110335000D02*
X161492000Y-110692000D01*
X162560000Y-112983000D02*
X163750000Y-114173000D01*
X162560000Y-111760000D02*
X162560000Y-112983000D01*
X161492000Y-110692000D02*
X162560000Y-111760000D01*
X161492000Y-109835000D02*
X162540000Y-109835000D01*
X162560000Y-110824000D02*
X163750000Y-112014000D01*
X162560000Y-109855000D02*
X162560000Y-110824000D01*
X162540000Y-109835000D02*
X162560000Y-109855000D01*
X161492000Y-109335000D02*
X163230000Y-109335000D01*
X163230000Y-109335000D02*
X163750000Y-109855000D01*
X157492000Y-104152000D02*
X156083000Y-102743000D01*
X157492000Y-105335000D02*
X157492000Y-104152000D01*
X155448000Y-102997000D02*
X155448000Y-98806000D01*
X156992000Y-105335000D02*
X156992000Y-104541000D01*
X156992000Y-104541000D02*
X155448000Y-102997000D01*
X156464000Y-97790000D02*
X162306000Y-97790000D01*
X155448000Y-98806000D02*
X156464000Y-97790000D01*
D28*
G36*
X159682204Y-121027796D02*
X159846362Y-121137483D01*
X160040000Y-121176000D01*
X160911536Y-121176000D01*
X160911536Y-121420000D01*
X160938103Y-121561190D01*
X161021546Y-121690865D01*
X161148866Y-121777859D01*
X161184130Y-121785000D01*
X161173690Y-121785000D01*
X160940301Y-121881673D01*
X160761673Y-122060302D01*
X160665000Y-122293691D01*
X160665000Y-122884250D01*
X160823750Y-123043000D01*
X161798000Y-123043000D01*
X161798000Y-123023000D01*
X162052000Y-123023000D01*
X162052000Y-123043000D01*
X162072000Y-123043000D01*
X162072000Y-123297000D01*
X162052000Y-123297000D01*
X162052000Y-124396250D01*
X162210750Y-124555000D01*
X162676310Y-124555000D01*
X162909699Y-124458327D01*
X163088327Y-124279698D01*
X163185000Y-124046309D01*
X163185000Y-123489992D01*
X163329865Y-123490118D01*
X163580252Y-123386661D01*
X163771987Y-123195259D01*
X163870314Y-122958464D01*
X165135000Y-122958464D01*
X165163508Y-122953100D01*
X165958976Y-123748568D01*
X165946536Y-123810000D01*
X165946536Y-125110000D01*
X165973103Y-125251190D01*
X166056546Y-125380865D01*
X166183866Y-125467859D01*
X166335000Y-125498464D01*
X166479000Y-125498464D01*
X166479000Y-125986536D01*
X166235000Y-125986536D01*
X166093810Y-126013103D01*
X165964135Y-126096546D01*
X165877141Y-126223866D01*
X165846536Y-126375000D01*
X165846536Y-127625000D01*
X165873103Y-127766190D01*
X165935010Y-127862398D01*
X165268781Y-128528627D01*
X165135000Y-128501536D01*
X163635000Y-128501536D01*
X163493810Y-128528103D01*
X163364135Y-128611546D01*
X163277141Y-128738866D01*
X163246536Y-128890000D01*
X163246536Y-129034000D01*
X162769592Y-129034000D01*
X162606031Y-128870439D01*
X162606118Y-128770135D01*
X162502661Y-128519748D01*
X162311259Y-128328013D01*
X162233760Y-128295832D01*
X162594561Y-127935031D01*
X162694865Y-127935118D01*
X162945252Y-127831661D01*
X163136987Y-127640259D01*
X163192737Y-127506000D01*
X163346536Y-127506000D01*
X163346536Y-127625000D01*
X163373103Y-127766190D01*
X163456546Y-127895865D01*
X163583866Y-127982859D01*
X163735000Y-128013464D01*
X165235000Y-128013464D01*
X165376190Y-127986897D01*
X165505865Y-127903454D01*
X165592859Y-127776134D01*
X165623464Y-127625000D01*
X165623464Y-126375000D01*
X165596897Y-126233810D01*
X165513454Y-126104135D01*
X165386134Y-126017141D01*
X165235000Y-125986536D01*
X164891000Y-125986536D01*
X164891000Y-125498464D01*
X165135000Y-125498464D01*
X165276190Y-125471897D01*
X165405865Y-125388454D01*
X165492859Y-125261134D01*
X165523464Y-125110000D01*
X165523464Y-123810000D01*
X165496897Y-123668810D01*
X165413454Y-123539135D01*
X165286134Y-123452141D01*
X165135000Y-123421536D01*
X163635000Y-123421536D01*
X163493810Y-123448103D01*
X163364135Y-123531546D01*
X163277141Y-123658866D01*
X163246536Y-123810000D01*
X163246536Y-125110000D01*
X163273103Y-125251190D01*
X163356546Y-125380865D01*
X163483866Y-125467859D01*
X163635000Y-125498464D01*
X163879000Y-125498464D01*
X163879000Y-125986536D01*
X163735000Y-125986536D01*
X163593810Y-126013103D01*
X163464135Y-126096546D01*
X163377141Y-126223866D01*
X163346536Y-126375000D01*
X163346536Y-126494000D01*
X162814000Y-126494000D01*
X162620362Y-126532517D01*
X162559776Y-126572999D01*
X162425135Y-126572882D01*
X162174748Y-126676339D01*
X161983013Y-126867741D01*
X161879118Y-127117946D01*
X161879030Y-127219378D01*
X161440900Y-127657508D01*
X161350362Y-127675517D01*
X161186204Y-127785204D01*
X160932204Y-128039204D01*
X160822517Y-128203362D01*
X160784000Y-128397000D01*
X160784000Y-130429000D01*
X160822517Y-130622638D01*
X160932204Y-130786796D01*
X162689000Y-132543592D01*
X162689000Y-134574112D01*
X162425135Y-134573882D01*
X162174748Y-134677339D01*
X162006743Y-134845052D01*
X161940000Y-134831536D01*
X160640000Y-134831536D01*
X160498810Y-134858103D01*
X160369135Y-134941546D01*
X160282141Y-135068866D01*
X160251536Y-135220000D01*
X160251536Y-135464000D01*
X158750000Y-135464000D01*
X158737251Y-135466536D01*
X158100000Y-135466536D01*
X157958810Y-135493103D01*
X157829135Y-135576546D01*
X157742141Y-135703866D01*
X157711536Y-135855000D01*
X157711536Y-137355000D01*
X157738103Y-137496190D01*
X157821546Y-137625865D01*
X157948866Y-137712859D01*
X158100000Y-137743464D01*
X159400000Y-137743464D01*
X159541190Y-137716897D01*
X159670865Y-137633454D01*
X159757859Y-137506134D01*
X159788464Y-137355000D01*
X159788464Y-136476000D01*
X160251536Y-136476000D01*
X160251536Y-136720000D01*
X160278103Y-136861190D01*
X160361546Y-136990865D01*
X160488866Y-137077859D01*
X160640000Y-137108464D01*
X160919339Y-137108464D01*
X161153946Y-137205882D01*
X161424865Y-137206118D01*
X161661208Y-137108464D01*
X161768944Y-137108464D01*
X161030872Y-137846536D01*
X160640000Y-137846536D01*
X160498810Y-137873103D01*
X160369135Y-137956546D01*
X160282141Y-138083866D01*
X160251536Y-138235000D01*
X160251536Y-139735000D01*
X160278103Y-139876190D01*
X160361546Y-140005865D01*
X160488866Y-140092859D01*
X160640000Y-140123464D01*
X161940000Y-140123464D01*
X162081190Y-140096897D01*
X162210865Y-140013454D01*
X162297859Y-139886134D01*
X162328464Y-139735000D01*
X162328464Y-138235000D01*
X162301897Y-138093810D01*
X162267788Y-138040804D01*
X162790796Y-137517796D01*
X162900483Y-137353638D01*
X162939000Y-137160000D01*
X162939000Y-136480592D01*
X163552796Y-135866796D01*
X163591864Y-135808327D01*
X163662483Y-135702638D01*
X163671270Y-135658464D01*
X165135000Y-135658464D01*
X165276190Y-135631897D01*
X165405865Y-135548454D01*
X165492859Y-135421134D01*
X165523464Y-135270000D01*
X165523464Y-134905750D01*
X165700000Y-134905750D01*
X165700000Y-135396310D01*
X165796673Y-135629699D01*
X165975302Y-135808327D01*
X166172478Y-135890000D01*
X165975302Y-135971673D01*
X165796673Y-136150301D01*
X165700000Y-136383690D01*
X165700000Y-136874250D01*
X165858750Y-137033000D01*
X166958000Y-137033000D01*
X166958000Y-136033750D01*
X166814250Y-135890000D01*
X166958000Y-135746250D01*
X166958000Y-134747000D01*
X165858750Y-134747000D01*
X165700000Y-134905750D01*
X165523464Y-134905750D01*
X165523464Y-133970000D01*
X165499697Y-133843690D01*
X165700000Y-133843690D01*
X165700000Y-134334250D01*
X165858750Y-134493000D01*
X166958000Y-134493000D01*
X166958000Y-133493750D01*
X166799250Y-133335000D01*
X166208691Y-133335000D01*
X165975302Y-133431673D01*
X165796673Y-133610301D01*
X165700000Y-133843690D01*
X165499697Y-133843690D01*
X165496897Y-133828810D01*
X165413454Y-133699135D01*
X165286134Y-133612141D01*
X165135000Y-133581536D01*
X164891000Y-133581536D01*
X164891000Y-133118464D01*
X165135000Y-133118464D01*
X165276190Y-133091897D01*
X165405865Y-133008454D01*
X165492859Y-132881134D01*
X165523464Y-132730000D01*
X165523464Y-131430000D01*
X165496897Y-131288810D01*
X165413454Y-131159135D01*
X165286134Y-131072141D01*
X165135000Y-131041536D01*
X163635000Y-131041536D01*
X163527379Y-131061787D01*
X162606031Y-130140439D01*
X162606113Y-130046000D01*
X163246536Y-130046000D01*
X163246536Y-130190000D01*
X163273103Y-130331190D01*
X163356546Y-130460865D01*
X163483866Y-130547859D01*
X163635000Y-130578464D01*
X165135000Y-130578464D01*
X165276190Y-130551897D01*
X165405865Y-130468454D01*
X165492859Y-130341134D01*
X165523464Y-130190000D01*
X165523464Y-129705128D01*
X165946536Y-129282056D01*
X165946536Y-130190000D01*
X165973103Y-130331190D01*
X166056546Y-130460865D01*
X166183866Y-130547859D01*
X166335000Y-130578464D01*
X166579000Y-130578464D01*
X166579000Y-131041536D01*
X166335000Y-131041536D01*
X166193810Y-131068103D01*
X166064135Y-131151546D01*
X165977141Y-131278866D01*
X165946536Y-131430000D01*
X165946536Y-132730000D01*
X165973103Y-132871190D01*
X166056546Y-133000865D01*
X166183866Y-133087859D01*
X166335000Y-133118464D01*
X167769000Y-133118464D01*
X167769000Y-133335000D01*
X167370750Y-133335000D01*
X167212000Y-133493750D01*
X167212000Y-134493000D01*
X167232000Y-134493000D01*
X167232000Y-134747000D01*
X167212000Y-134747000D01*
X167212000Y-135746250D01*
X167355750Y-135890000D01*
X167212000Y-136033750D01*
X167212000Y-137033000D01*
X167232000Y-137033000D01*
X167232000Y-137287000D01*
X167212000Y-137287000D01*
X167212000Y-138286250D01*
X167370750Y-138445000D01*
X167544408Y-138445000D01*
X167075408Y-138914000D01*
X166648464Y-138914000D01*
X166648464Y-138870000D01*
X166621897Y-138728810D01*
X166538454Y-138599135D01*
X166411134Y-138512141D01*
X166260000Y-138481536D01*
X165210000Y-138481536D01*
X165068810Y-138508103D01*
X164939135Y-138591546D01*
X164852141Y-138718866D01*
X164821536Y-138870000D01*
X164821536Y-139458872D01*
X164810000Y-139456536D01*
X164766000Y-139456536D01*
X164766000Y-138833069D01*
X164852483Y-138703638D01*
X164891000Y-138510000D01*
X164891000Y-138198464D01*
X165135000Y-138198464D01*
X165276190Y-138171897D01*
X165405865Y-138088454D01*
X165492859Y-137961134D01*
X165523464Y-137810000D01*
X165523464Y-137445750D01*
X165700000Y-137445750D01*
X165700000Y-137936310D01*
X165796673Y-138169699D01*
X165975302Y-138348327D01*
X166208691Y-138445000D01*
X166799250Y-138445000D01*
X166958000Y-138286250D01*
X166958000Y-137287000D01*
X165858750Y-137287000D01*
X165700000Y-137445750D01*
X165523464Y-137445750D01*
X165523464Y-136510000D01*
X165496897Y-136368810D01*
X165413454Y-136239135D01*
X165286134Y-136152141D01*
X165135000Y-136121536D01*
X163635000Y-136121536D01*
X163493810Y-136148103D01*
X163364135Y-136231546D01*
X163277141Y-136358866D01*
X163246536Y-136510000D01*
X163246536Y-137810000D01*
X163273103Y-137951190D01*
X163356546Y-138080865D01*
X163483866Y-138167859D01*
X163635000Y-138198464D01*
X163879000Y-138198464D01*
X163879000Y-138311931D01*
X163792517Y-138441362D01*
X163754000Y-138635000D01*
X163754000Y-138661055D01*
X163581259Y-138488013D01*
X163331054Y-138384118D01*
X163060135Y-138383882D01*
X162809748Y-138487339D01*
X162618013Y-138678741D01*
X162514118Y-138928946D01*
X162513882Y-139199865D01*
X162617339Y-139450252D01*
X162689000Y-139522038D01*
X162689000Y-139700000D01*
X162727517Y-139893638D01*
X162837204Y-140057796D01*
X163001362Y-140167483D01*
X163195000Y-140206000D01*
X163321536Y-140180830D01*
X163321536Y-141179000D01*
X162328464Y-141179000D01*
X162328464Y-140935000D01*
X162301897Y-140793810D01*
X162218454Y-140664135D01*
X162091134Y-140577141D01*
X161940000Y-140546536D01*
X160640000Y-140546536D01*
X160498810Y-140573103D01*
X160369135Y-140656546D01*
X160282141Y-140783866D01*
X160251536Y-140935000D01*
X160251536Y-141179000D01*
X159788464Y-141179000D01*
X159788464Y-140935000D01*
X159761897Y-140793810D01*
X159678454Y-140664135D01*
X159551134Y-140577141D01*
X159400000Y-140546536D01*
X158100000Y-140546536D01*
X157958810Y-140573103D01*
X157829135Y-140656546D01*
X157742141Y-140783866D01*
X157711536Y-140935000D01*
X157711536Y-142435000D01*
X157738103Y-142576190D01*
X157821546Y-142705865D01*
X157948866Y-142792859D01*
X158100000Y-142823464D01*
X159400000Y-142823464D01*
X159541190Y-142796897D01*
X159670865Y-142713454D01*
X159757859Y-142586134D01*
X159788464Y-142435000D01*
X159788464Y-142191000D01*
X160251536Y-142191000D01*
X160251536Y-142435000D01*
X160278103Y-142576190D01*
X160361546Y-142705865D01*
X160488866Y-142792859D01*
X160640000Y-142823464D01*
X161940000Y-142823464D01*
X162081190Y-142796897D01*
X162210865Y-142713454D01*
X162297859Y-142586134D01*
X162328464Y-142435000D01*
X162328464Y-142191000D01*
X163339600Y-142191000D01*
X163348103Y-142236190D01*
X163431546Y-142365865D01*
X163558866Y-142452859D01*
X163710000Y-142483464D01*
X164246872Y-142483464D01*
X164817408Y-143054000D01*
X146506000Y-143054000D01*
X146506000Y-138966592D01*
X147036723Y-139497315D01*
X146929135Y-139566546D01*
X146842141Y-139693866D01*
X146811536Y-139845000D01*
X146811536Y-142095000D01*
X146838103Y-142236190D01*
X146921546Y-142365865D01*
X147048866Y-142452859D01*
X147200000Y-142483464D01*
X148117872Y-142483464D01*
X148486204Y-142851796D01*
X148650362Y-142961483D01*
X148844000Y-143000000D01*
X150114000Y-143000000D01*
X150307638Y-142961483D01*
X150471796Y-142851796D01*
X150840128Y-142483464D01*
X151250000Y-142483464D01*
X151391190Y-142456897D01*
X151520865Y-142373454D01*
X151607859Y-142246134D01*
X151619024Y-142191000D01*
X152631536Y-142191000D01*
X152631536Y-142435000D01*
X152658103Y-142576190D01*
X152741546Y-142705865D01*
X152868866Y-142792859D01*
X153020000Y-142823464D01*
X154320000Y-142823464D01*
X154461190Y-142796897D01*
X154590865Y-142713454D01*
X154677859Y-142586134D01*
X154708464Y-142435000D01*
X154708464Y-142064000D01*
X155171536Y-142064000D01*
X155171536Y-142435000D01*
X155198103Y-142576190D01*
X155281546Y-142705865D01*
X155408866Y-142792859D01*
X155560000Y-142823464D01*
X156860000Y-142823464D01*
X157001190Y-142796897D01*
X157130865Y-142713454D01*
X157217859Y-142586134D01*
X157248464Y-142435000D01*
X157248464Y-140935000D01*
X157221897Y-140793810D01*
X157138454Y-140664135D01*
X157011134Y-140577141D01*
X156860000Y-140546536D01*
X155560000Y-140546536D01*
X155418810Y-140573103D01*
X155289135Y-140656546D01*
X155202141Y-140783866D01*
X155171536Y-140935000D01*
X155171536Y-141052000D01*
X154708464Y-141052000D01*
X154708464Y-140935000D01*
X154681897Y-140793810D01*
X154598454Y-140664135D01*
X154471134Y-140577141D01*
X154320000Y-140546536D01*
X153020000Y-140546536D01*
X152878810Y-140573103D01*
X152749135Y-140656546D01*
X152662141Y-140783866D01*
X152631536Y-140935000D01*
X152631536Y-141179000D01*
X151638464Y-141179000D01*
X151638464Y-139845000D01*
X151611897Y-139703810D01*
X151528454Y-139574135D01*
X151401134Y-139487141D01*
X151250000Y-139456536D01*
X151206000Y-139456536D01*
X151206000Y-138198464D01*
X151325000Y-138198464D01*
X151466190Y-138171897D01*
X151595865Y-138088454D01*
X151682859Y-137961134D01*
X151713464Y-137810000D01*
X151713464Y-137697056D01*
X152631536Y-138615128D01*
X152631536Y-139735000D01*
X152658103Y-139876190D01*
X152741546Y-140005865D01*
X152868866Y-140092859D01*
X153020000Y-140123464D01*
X154320000Y-140123464D01*
X154461190Y-140096897D01*
X154590865Y-140013454D01*
X154677859Y-139886134D01*
X154708464Y-139735000D01*
X154708464Y-138235000D01*
X155171536Y-138235000D01*
X155171536Y-139735000D01*
X155198103Y-139876190D01*
X155281546Y-140005865D01*
X155408866Y-140092859D01*
X155560000Y-140123464D01*
X156860000Y-140123464D01*
X157001190Y-140096897D01*
X157130865Y-140013454D01*
X157217859Y-139886134D01*
X157248464Y-139735000D01*
X157248464Y-139626234D01*
X157343946Y-139665882D01*
X157614865Y-139666118D01*
X157711536Y-139626175D01*
X157711536Y-139735000D01*
X157738103Y-139876190D01*
X157821546Y-140005865D01*
X157948866Y-140092859D01*
X158100000Y-140123464D01*
X159400000Y-140123464D01*
X159541190Y-140096897D01*
X159670865Y-140013454D01*
X159757859Y-139886134D01*
X159788464Y-139735000D01*
X159788464Y-138235000D01*
X159761897Y-138093810D01*
X159678454Y-137964135D01*
X159551134Y-137877141D01*
X159400000Y-137846536D01*
X158100000Y-137846536D01*
X157958810Y-137873103D01*
X157829135Y-137956546D01*
X157742141Y-138083866D01*
X157711536Y-138235000D01*
X157711536Y-138343766D01*
X157616054Y-138304118D01*
X157345135Y-138303882D01*
X157248464Y-138343825D01*
X157248464Y-138235000D01*
X157221897Y-138093810D01*
X157138454Y-137964135D01*
X157011134Y-137877141D01*
X156860000Y-137846536D01*
X155560000Y-137846536D01*
X155418810Y-137873103D01*
X155289135Y-137956546D01*
X155202141Y-138083866D01*
X155171536Y-138235000D01*
X154708464Y-138235000D01*
X154681897Y-138093810D01*
X154598454Y-137964135D01*
X154471134Y-137877141D01*
X154320000Y-137846536D01*
X153294128Y-137846536D01*
X152271000Y-136823408D01*
X152271000Y-135300888D01*
X152365378Y-135300970D01*
X153164000Y-136099592D01*
X153164000Y-136525000D01*
X153202517Y-136718638D01*
X153291275Y-136851473D01*
X153293103Y-136861190D01*
X153376546Y-136990865D01*
X153503866Y-137077859D01*
X153655000Y-137108464D01*
X154955000Y-137108464D01*
X155096190Y-137081897D01*
X155171536Y-137033414D01*
X155171536Y-137355000D01*
X155198103Y-137496190D01*
X155281546Y-137625865D01*
X155408866Y-137712859D01*
X155560000Y-137743464D01*
X156860000Y-137743464D01*
X157001190Y-137716897D01*
X157130865Y-137633454D01*
X157217859Y-137506134D01*
X157248464Y-137355000D01*
X157248464Y-135855000D01*
X157221897Y-135713810D01*
X157138454Y-135584135D01*
X157011134Y-135497141D01*
X156860000Y-135466536D01*
X156222749Y-135466536D01*
X156210000Y-135464000D01*
X156130000Y-135464000D01*
X156117251Y-135466536D01*
X155587749Y-135466536D01*
X155575000Y-135464000D01*
X155343464Y-135464000D01*
X155343464Y-135220000D01*
X155316897Y-135078810D01*
X155233454Y-134949135D01*
X155106134Y-134862141D01*
X154975700Y-134835728D01*
X154818259Y-134678013D01*
X154568054Y-134574118D01*
X154297135Y-134573882D01*
X154046748Y-134677339D01*
X153892283Y-134831536D01*
X153655000Y-134831536D01*
X153513810Y-134858103D01*
X153416386Y-134920794D01*
X153081031Y-134585439D01*
X153081118Y-134485135D01*
X152977661Y-134234748D01*
X152786259Y-134043013D01*
X152536054Y-133939118D01*
X152271000Y-133938887D01*
X152271000Y-132670592D01*
X154027796Y-130913796D01*
X154137483Y-130749638D01*
X154176000Y-130556000D01*
X154176000Y-128397000D01*
X154137483Y-128203362D01*
X154027796Y-128039204D01*
X153208031Y-127219439D01*
X153208118Y-127119135D01*
X153104661Y-126868748D01*
X152913259Y-126677013D01*
X152663054Y-126573118D01*
X152527225Y-126573000D01*
X152466638Y-126532517D01*
X152273000Y-126494000D01*
X151613464Y-126494000D01*
X151613464Y-126375000D01*
X151586897Y-126233810D01*
X151503454Y-126104135D01*
X151376134Y-126017141D01*
X151235000Y-125988561D01*
X151235000Y-125498464D01*
X151325000Y-125498464D01*
X151466190Y-125471897D01*
X151595865Y-125388454D01*
X151682859Y-125261134D01*
X151713464Y-125110000D01*
X151713464Y-123810000D01*
X151686897Y-123668810D01*
X151603454Y-123539135D01*
X151476134Y-123452141D01*
X151325000Y-123421536D01*
X149825000Y-123421536D01*
X149683810Y-123448103D01*
X149554135Y-123531546D01*
X149467141Y-123658866D01*
X149436536Y-123810000D01*
X149436536Y-125110000D01*
X149463103Y-125251190D01*
X149546546Y-125380865D01*
X149673866Y-125467859D01*
X149825000Y-125498464D01*
X150223000Y-125498464D01*
X150223000Y-125986536D01*
X149725000Y-125986536D01*
X149583810Y-126013103D01*
X149454135Y-126096546D01*
X149367141Y-126223866D01*
X149336536Y-126375000D01*
X149336536Y-127625000D01*
X149363103Y-127766190D01*
X149446546Y-127895865D01*
X149573866Y-127982859D01*
X149725000Y-128013464D01*
X151225000Y-128013464D01*
X151366190Y-127986897D01*
X151495865Y-127903454D01*
X151582859Y-127776134D01*
X151613464Y-127625000D01*
X151613464Y-127506000D01*
X151894281Y-127506000D01*
X151949339Y-127639252D01*
X152140741Y-127830987D01*
X152390946Y-127934882D01*
X152492378Y-127934970D01*
X152816038Y-128258630D01*
X152649748Y-128327339D01*
X152458013Y-128518741D01*
X152354118Y-128768946D01*
X152354030Y-128870378D01*
X152190408Y-129034000D01*
X151713464Y-129034000D01*
X151713464Y-128890000D01*
X151686897Y-128748810D01*
X151603454Y-128619135D01*
X151476134Y-128532141D01*
X151325000Y-128501536D01*
X149825000Y-128501536D01*
X149683810Y-128528103D01*
X149610724Y-128575132D01*
X148961293Y-127925701D01*
X148995865Y-127903454D01*
X149082859Y-127776134D01*
X149113464Y-127625000D01*
X149113464Y-126375000D01*
X149086897Y-126233810D01*
X149003454Y-126104135D01*
X148876134Y-126017141D01*
X148725000Y-125986536D01*
X148381000Y-125986536D01*
X148381000Y-125498464D01*
X148625000Y-125498464D01*
X148766190Y-125471897D01*
X148895865Y-125388454D01*
X148982859Y-125261134D01*
X149013464Y-125110000D01*
X149013464Y-124037128D01*
X150035821Y-123014771D01*
X150047362Y-123022483D01*
X150241000Y-123061000D01*
X150829000Y-123061000D01*
X151022638Y-123022483D01*
X151118449Y-122958464D01*
X151216914Y-122958464D01*
X151314339Y-123194252D01*
X151505741Y-123385987D01*
X151755946Y-123489882D01*
X151775000Y-123489899D01*
X151775000Y-124046309D01*
X151871673Y-124279698D01*
X152050301Y-124458327D01*
X152283690Y-124555000D01*
X152749250Y-124555000D01*
X152908000Y-124396250D01*
X152908000Y-123297000D01*
X153162000Y-123297000D01*
X153162000Y-124396250D01*
X153320750Y-124555000D01*
X153786310Y-124555000D01*
X154019699Y-124458327D01*
X154198327Y-124279698D01*
X154295000Y-124046309D01*
X154295000Y-123455750D01*
X154136250Y-123297000D01*
X153162000Y-123297000D01*
X152908000Y-123297000D01*
X152888000Y-123297000D01*
X152888000Y-123043000D01*
X152908000Y-123043000D01*
X152908000Y-123023000D01*
X153162000Y-123023000D01*
X153162000Y-123043000D01*
X154136250Y-123043000D01*
X154295000Y-122884250D01*
X154295000Y-122299000D01*
X154432000Y-122299000D01*
X154625638Y-122260483D01*
X154789796Y-122150796D01*
X155149592Y-121791000D01*
X155190571Y-121791000D01*
X155171536Y-121885000D01*
X155171536Y-123385000D01*
X155198103Y-123526190D01*
X155281546Y-123655865D01*
X155408866Y-123742859D01*
X155560000Y-123773464D01*
X156339000Y-123773464D01*
X156339000Y-124511536D01*
X155560000Y-124511536D01*
X155418810Y-124538103D01*
X155289135Y-124621546D01*
X155202141Y-124748866D01*
X155171536Y-124900000D01*
X155171536Y-125536704D01*
X155149000Y-125650000D01*
X155171536Y-125763296D01*
X155171536Y-125925872D01*
X154524439Y-126572969D01*
X154424135Y-126572882D01*
X154173748Y-126676339D01*
X153982013Y-126867741D01*
X153878118Y-127117946D01*
X153877882Y-127388865D01*
X153981339Y-127639252D01*
X154172741Y-127830987D01*
X154422946Y-127934882D01*
X154693865Y-127935118D01*
X154944252Y-127831661D01*
X155135987Y-127640259D01*
X155189462Y-127511478D01*
X155171536Y-127600000D01*
X155171536Y-129100000D01*
X155198103Y-129241190D01*
X155281546Y-129370865D01*
X155408866Y-129457859D01*
X155560000Y-129488464D01*
X156860000Y-129488464D01*
X156974000Y-129467013D01*
X156974000Y-129796536D01*
X155480000Y-129796536D01*
X155338810Y-129823103D01*
X155209135Y-129906546D01*
X155122141Y-130033866D01*
X155091536Y-130185000D01*
X155091536Y-130577872D01*
X154905439Y-130763969D01*
X154805135Y-130763882D01*
X154554748Y-130867339D01*
X154363013Y-131058741D01*
X154259118Y-131308946D01*
X154258882Y-131579865D01*
X154362339Y-131830252D01*
X154545089Y-132013319D01*
X154426872Y-132131536D01*
X153655000Y-132131536D01*
X153513810Y-132158103D01*
X153384135Y-132241546D01*
X153297141Y-132368866D01*
X153266536Y-132520000D01*
X153266536Y-132980551D01*
X153202517Y-133076362D01*
X153164000Y-133270000D01*
X153202517Y-133463638D01*
X153266536Y-133559449D01*
X153266536Y-134020000D01*
X153293103Y-134161190D01*
X153376546Y-134290865D01*
X153503866Y-134377859D01*
X153655000Y-134408464D01*
X154955000Y-134408464D01*
X155096190Y-134381897D01*
X155171536Y-134333414D01*
X155171536Y-134655000D01*
X155198103Y-134796190D01*
X155281546Y-134925865D01*
X155408866Y-135012859D01*
X155560000Y-135043464D01*
X156860000Y-135043464D01*
X157001190Y-135016897D01*
X157130865Y-134933454D01*
X157217859Y-134806134D01*
X157248464Y-134655000D01*
X157248464Y-134411000D01*
X157711536Y-134411000D01*
X157711536Y-134655000D01*
X157738103Y-134796190D01*
X157821546Y-134925865D01*
X157948866Y-135012859D01*
X158100000Y-135043464D01*
X159400000Y-135043464D01*
X159541190Y-135016897D01*
X159670865Y-134933454D01*
X159757859Y-134806134D01*
X159788464Y-134655000D01*
X159788464Y-133326056D01*
X160090204Y-133627796D01*
X160251536Y-133735595D01*
X160251536Y-134020000D01*
X160278103Y-134161190D01*
X160361546Y-134290865D01*
X160488866Y-134377859D01*
X160640000Y-134408464D01*
X161940000Y-134408464D01*
X162081190Y-134381897D01*
X162210865Y-134298454D01*
X162297859Y-134171134D01*
X162328464Y-134020000D01*
X162328464Y-132520000D01*
X162301897Y-132378810D01*
X162218454Y-132249135D01*
X162091134Y-132162141D01*
X161940000Y-132131536D01*
X160640000Y-132131536D01*
X160498810Y-132158103D01*
X160369135Y-132241546D01*
X160282141Y-132368866D01*
X160278826Y-132385234D01*
X160019592Y-132126000D01*
X160154865Y-132126118D01*
X160405252Y-132022661D01*
X160596987Y-131831259D01*
X160700882Y-131581054D01*
X160701118Y-131310135D01*
X160597661Y-131059748D01*
X160406259Y-130868013D01*
X160156054Y-130764118D01*
X160054622Y-130764030D01*
X159868464Y-130577872D01*
X159868464Y-130185000D01*
X159841897Y-130043810D01*
X159758454Y-129914135D01*
X159631134Y-129827141D01*
X159480000Y-129796536D01*
X157986000Y-129796536D01*
X157986000Y-129465379D01*
X158100000Y-129488464D01*
X159400000Y-129488464D01*
X159541190Y-129461897D01*
X159670865Y-129378454D01*
X159757859Y-129251134D01*
X159788464Y-129100000D01*
X159788464Y-127985537D01*
X159887741Y-128084987D01*
X160137946Y-128188882D01*
X160408865Y-128189118D01*
X160659252Y-128085661D01*
X160850987Y-127894259D01*
X160954882Y-127644054D01*
X160955118Y-127373135D01*
X160851661Y-127122748D01*
X160660259Y-126931013D01*
X160410054Y-126827118D01*
X160308622Y-126827030D01*
X159788464Y-126306872D01*
X159788464Y-124900000D01*
X159761897Y-124758810D01*
X159678454Y-124629135D01*
X159551134Y-124542141D01*
X159400000Y-124511536D01*
X158755128Y-124511536D01*
X158621000Y-124377408D01*
X158621000Y-123773464D01*
X159400000Y-123773464D01*
X159541190Y-123746897D01*
X159670865Y-123663454D01*
X159757859Y-123536134D01*
X159774136Y-123455750D01*
X160665000Y-123455750D01*
X160665000Y-124046309D01*
X160761673Y-124279698D01*
X160940301Y-124458327D01*
X161173690Y-124555000D01*
X161639250Y-124555000D01*
X161798000Y-124396250D01*
X161798000Y-123297000D01*
X160823750Y-123297000D01*
X160665000Y-123455750D01*
X159774136Y-123455750D01*
X159788464Y-123385000D01*
X159788464Y-121885000D01*
X159761897Y-121743810D01*
X159678454Y-121614135D01*
X159551134Y-121527141D01*
X159400000Y-121496536D01*
X158100000Y-121496536D01*
X157986000Y-121517987D01*
X157986000Y-121285000D01*
X157947483Y-121091362D01*
X157886686Y-121000373D01*
X157948866Y-121042859D01*
X158100000Y-121073464D01*
X158560551Y-121073464D01*
X158656362Y-121137483D01*
X158850000Y-121176000D01*
X159043637Y-121137483D01*
X159139449Y-121073464D01*
X159400000Y-121073464D01*
X159541190Y-121046897D01*
X159638614Y-120984206D01*
X159682204Y-121027796D01*
X159682204Y-121027796D01*
G37*
X159682204Y-121027796D02*
X159846362Y-121137483D01*
X160040000Y-121176000D01*
X160911536Y-121176000D01*
X160911536Y-121420000D01*
X160938103Y-121561190D01*
X161021546Y-121690865D01*
X161148866Y-121777859D01*
X161184130Y-121785000D01*
X161173690Y-121785000D01*
X160940301Y-121881673D01*
X160761673Y-122060302D01*
X160665000Y-122293691D01*
X160665000Y-122884250D01*
X160823750Y-123043000D01*
X161798000Y-123043000D01*
X161798000Y-123023000D01*
X162052000Y-123023000D01*
X162052000Y-123043000D01*
X162072000Y-123043000D01*
X162072000Y-123297000D01*
X162052000Y-123297000D01*
X162052000Y-124396250D01*
X162210750Y-124555000D01*
X162676310Y-124555000D01*
X162909699Y-124458327D01*
X163088327Y-124279698D01*
X163185000Y-124046309D01*
X163185000Y-123489992D01*
X163329865Y-123490118D01*
X163580252Y-123386661D01*
X163771987Y-123195259D01*
X163870314Y-122958464D01*
X165135000Y-122958464D01*
X165163508Y-122953100D01*
X165958976Y-123748568D01*
X165946536Y-123810000D01*
X165946536Y-125110000D01*
X165973103Y-125251190D01*
X166056546Y-125380865D01*
X166183866Y-125467859D01*
X166335000Y-125498464D01*
X166479000Y-125498464D01*
X166479000Y-125986536D01*
X166235000Y-125986536D01*
X166093810Y-126013103D01*
X165964135Y-126096546D01*
X165877141Y-126223866D01*
X165846536Y-126375000D01*
X165846536Y-127625000D01*
X165873103Y-127766190D01*
X165935010Y-127862398D01*
X165268781Y-128528627D01*
X165135000Y-128501536D01*
X163635000Y-128501536D01*
X163493810Y-128528103D01*
X163364135Y-128611546D01*
X163277141Y-128738866D01*
X163246536Y-128890000D01*
X163246536Y-129034000D01*
X162769592Y-129034000D01*
X162606031Y-128870439D01*
X162606118Y-128770135D01*
X162502661Y-128519748D01*
X162311259Y-128328013D01*
X162233760Y-128295832D01*
X162594561Y-127935031D01*
X162694865Y-127935118D01*
X162945252Y-127831661D01*
X163136987Y-127640259D01*
X163192737Y-127506000D01*
X163346536Y-127506000D01*
X163346536Y-127625000D01*
X163373103Y-127766190D01*
X163456546Y-127895865D01*
X163583866Y-127982859D01*
X163735000Y-128013464D01*
X165235000Y-128013464D01*
X165376190Y-127986897D01*
X165505865Y-127903454D01*
X165592859Y-127776134D01*
X165623464Y-127625000D01*
X165623464Y-126375000D01*
X165596897Y-126233810D01*
X165513454Y-126104135D01*
X165386134Y-126017141D01*
X165235000Y-125986536D01*
X164891000Y-125986536D01*
X164891000Y-125498464D01*
X165135000Y-125498464D01*
X165276190Y-125471897D01*
X165405865Y-125388454D01*
X165492859Y-125261134D01*
X165523464Y-125110000D01*
X165523464Y-123810000D01*
X165496897Y-123668810D01*
X165413454Y-123539135D01*
X165286134Y-123452141D01*
X165135000Y-123421536D01*
X163635000Y-123421536D01*
X163493810Y-123448103D01*
X163364135Y-123531546D01*
X163277141Y-123658866D01*
X163246536Y-123810000D01*
X163246536Y-125110000D01*
X163273103Y-125251190D01*
X163356546Y-125380865D01*
X163483866Y-125467859D01*
X163635000Y-125498464D01*
X163879000Y-125498464D01*
X163879000Y-125986536D01*
X163735000Y-125986536D01*
X163593810Y-126013103D01*
X163464135Y-126096546D01*
X163377141Y-126223866D01*
X163346536Y-126375000D01*
X163346536Y-126494000D01*
X162814000Y-126494000D01*
X162620362Y-126532517D01*
X162559776Y-126572999D01*
X162425135Y-126572882D01*
X162174748Y-126676339D01*
X161983013Y-126867741D01*
X161879118Y-127117946D01*
X161879030Y-127219378D01*
X161440900Y-127657508D01*
X161350362Y-127675517D01*
X161186204Y-127785204D01*
X160932204Y-128039204D01*
X160822517Y-128203362D01*
X160784000Y-128397000D01*
X160784000Y-130429000D01*
X160822517Y-130622638D01*
X160932204Y-130786796D01*
X162689000Y-132543592D01*
X162689000Y-134574112D01*
X162425135Y-134573882D01*
X162174748Y-134677339D01*
X162006743Y-134845052D01*
X161940000Y-134831536D01*
X160640000Y-134831536D01*
X160498810Y-134858103D01*
X160369135Y-134941546D01*
X160282141Y-135068866D01*
X160251536Y-135220000D01*
X160251536Y-135464000D01*
X158750000Y-135464000D01*
X158737251Y-135466536D01*
X158100000Y-135466536D01*
X157958810Y-135493103D01*
X157829135Y-135576546D01*
X157742141Y-135703866D01*
X157711536Y-135855000D01*
X157711536Y-137355000D01*
X157738103Y-137496190D01*
X157821546Y-137625865D01*
X157948866Y-137712859D01*
X158100000Y-137743464D01*
X159400000Y-137743464D01*
X159541190Y-137716897D01*
X159670865Y-137633454D01*
X159757859Y-137506134D01*
X159788464Y-137355000D01*
X159788464Y-136476000D01*
X160251536Y-136476000D01*
X160251536Y-136720000D01*
X160278103Y-136861190D01*
X160361546Y-136990865D01*
X160488866Y-137077859D01*
X160640000Y-137108464D01*
X160919339Y-137108464D01*
X161153946Y-137205882D01*
X161424865Y-137206118D01*
X161661208Y-137108464D01*
X161768944Y-137108464D01*
X161030872Y-137846536D01*
X160640000Y-137846536D01*
X160498810Y-137873103D01*
X160369135Y-137956546D01*
X160282141Y-138083866D01*
X160251536Y-138235000D01*
X160251536Y-139735000D01*
X160278103Y-139876190D01*
X160361546Y-140005865D01*
X160488866Y-140092859D01*
X160640000Y-140123464D01*
X161940000Y-140123464D01*
X162081190Y-140096897D01*
X162210865Y-140013454D01*
X162297859Y-139886134D01*
X162328464Y-139735000D01*
X162328464Y-138235000D01*
X162301897Y-138093810D01*
X162267788Y-138040804D01*
X162790796Y-137517796D01*
X162900483Y-137353638D01*
X162939000Y-137160000D01*
X162939000Y-136480592D01*
X163552796Y-135866796D01*
X163591864Y-135808327D01*
X163662483Y-135702638D01*
X163671270Y-135658464D01*
X165135000Y-135658464D01*
X165276190Y-135631897D01*
X165405865Y-135548454D01*
X165492859Y-135421134D01*
X165523464Y-135270000D01*
X165523464Y-134905750D01*
X165700000Y-134905750D01*
X165700000Y-135396310D01*
X165796673Y-135629699D01*
X165975302Y-135808327D01*
X166172478Y-135890000D01*
X165975302Y-135971673D01*
X165796673Y-136150301D01*
X165700000Y-136383690D01*
X165700000Y-136874250D01*
X165858750Y-137033000D01*
X166958000Y-137033000D01*
X166958000Y-136033750D01*
X166814250Y-135890000D01*
X166958000Y-135746250D01*
X166958000Y-134747000D01*
X165858750Y-134747000D01*
X165700000Y-134905750D01*
X165523464Y-134905750D01*
X165523464Y-133970000D01*
X165499697Y-133843690D01*
X165700000Y-133843690D01*
X165700000Y-134334250D01*
X165858750Y-134493000D01*
X166958000Y-134493000D01*
X166958000Y-133493750D01*
X166799250Y-133335000D01*
X166208691Y-133335000D01*
X165975302Y-133431673D01*
X165796673Y-133610301D01*
X165700000Y-133843690D01*
X165499697Y-133843690D01*
X165496897Y-133828810D01*
X165413454Y-133699135D01*
X165286134Y-133612141D01*
X165135000Y-133581536D01*
X164891000Y-133581536D01*
X164891000Y-133118464D01*
X165135000Y-133118464D01*
X165276190Y-133091897D01*
X165405865Y-133008454D01*
X165492859Y-132881134D01*
X165523464Y-132730000D01*
X165523464Y-131430000D01*
X165496897Y-131288810D01*
X165413454Y-131159135D01*
X165286134Y-131072141D01*
X165135000Y-131041536D01*
X163635000Y-131041536D01*
X163527379Y-131061787D01*
X162606031Y-130140439D01*
X162606113Y-130046000D01*
X163246536Y-130046000D01*
X163246536Y-130190000D01*
X163273103Y-130331190D01*
X163356546Y-130460865D01*
X163483866Y-130547859D01*
X163635000Y-130578464D01*
X165135000Y-130578464D01*
X165276190Y-130551897D01*
X165405865Y-130468454D01*
X165492859Y-130341134D01*
X165523464Y-130190000D01*
X165523464Y-129705128D01*
X165946536Y-129282056D01*
X165946536Y-130190000D01*
X165973103Y-130331190D01*
X166056546Y-130460865D01*
X166183866Y-130547859D01*
X166335000Y-130578464D01*
X166579000Y-130578464D01*
X166579000Y-131041536D01*
X166335000Y-131041536D01*
X166193810Y-131068103D01*
X166064135Y-131151546D01*
X165977141Y-131278866D01*
X165946536Y-131430000D01*
X165946536Y-132730000D01*
X165973103Y-132871190D01*
X166056546Y-133000865D01*
X166183866Y-133087859D01*
X166335000Y-133118464D01*
X167769000Y-133118464D01*
X167769000Y-133335000D01*
X167370750Y-133335000D01*
X167212000Y-133493750D01*
X167212000Y-134493000D01*
X167232000Y-134493000D01*
X167232000Y-134747000D01*
X167212000Y-134747000D01*
X167212000Y-135746250D01*
X167355750Y-135890000D01*
X167212000Y-136033750D01*
X167212000Y-137033000D01*
X167232000Y-137033000D01*
X167232000Y-137287000D01*
X167212000Y-137287000D01*
X167212000Y-138286250D01*
X167370750Y-138445000D01*
X167544408Y-138445000D01*
X167075408Y-138914000D01*
X166648464Y-138914000D01*
X166648464Y-138870000D01*
X166621897Y-138728810D01*
X166538454Y-138599135D01*
X166411134Y-138512141D01*
X166260000Y-138481536D01*
X165210000Y-138481536D01*
X165068810Y-138508103D01*
X164939135Y-138591546D01*
X164852141Y-138718866D01*
X164821536Y-138870000D01*
X164821536Y-139458872D01*
X164810000Y-139456536D01*
X164766000Y-139456536D01*
X164766000Y-138833069D01*
X164852483Y-138703638D01*
X164891000Y-138510000D01*
X164891000Y-138198464D01*
X165135000Y-138198464D01*
X165276190Y-138171897D01*
X165405865Y-138088454D01*
X165492859Y-137961134D01*
X165523464Y-137810000D01*
X165523464Y-137445750D01*
X165700000Y-137445750D01*
X165700000Y-137936310D01*
X165796673Y-138169699D01*
X165975302Y-138348327D01*
X166208691Y-138445000D01*
X166799250Y-138445000D01*
X166958000Y-138286250D01*
X166958000Y-137287000D01*
X165858750Y-137287000D01*
X165700000Y-137445750D01*
X165523464Y-137445750D01*
X165523464Y-136510000D01*
X165496897Y-136368810D01*
X165413454Y-136239135D01*
X165286134Y-136152141D01*
X165135000Y-136121536D01*
X163635000Y-136121536D01*
X163493810Y-136148103D01*
X163364135Y-136231546D01*
X163277141Y-136358866D01*
X163246536Y-136510000D01*
X163246536Y-137810000D01*
X163273103Y-137951190D01*
X163356546Y-138080865D01*
X163483866Y-138167859D01*
X163635000Y-138198464D01*
X163879000Y-138198464D01*
X163879000Y-138311931D01*
X163792517Y-138441362D01*
X163754000Y-138635000D01*
X163754000Y-138661055D01*
X163581259Y-138488013D01*
X163331054Y-138384118D01*
X163060135Y-138383882D01*
X162809748Y-138487339D01*
X162618013Y-138678741D01*
X162514118Y-138928946D01*
X162513882Y-139199865D01*
X162617339Y-139450252D01*
X162689000Y-139522038D01*
X162689000Y-139700000D01*
X162727517Y-139893638D01*
X162837204Y-140057796D01*
X163001362Y-140167483D01*
X163195000Y-140206000D01*
X163321536Y-140180830D01*
X163321536Y-141179000D01*
X162328464Y-141179000D01*
X162328464Y-140935000D01*
X162301897Y-140793810D01*
X162218454Y-140664135D01*
X162091134Y-140577141D01*
X161940000Y-140546536D01*
X160640000Y-140546536D01*
X160498810Y-140573103D01*
X160369135Y-140656546D01*
X160282141Y-140783866D01*
X160251536Y-140935000D01*
X160251536Y-141179000D01*
X159788464Y-141179000D01*
X159788464Y-140935000D01*
X159761897Y-140793810D01*
X159678454Y-140664135D01*
X159551134Y-140577141D01*
X159400000Y-140546536D01*
X158100000Y-140546536D01*
X157958810Y-140573103D01*
X157829135Y-140656546D01*
X157742141Y-140783866D01*
X157711536Y-140935000D01*
X157711536Y-142435000D01*
X157738103Y-142576190D01*
X157821546Y-142705865D01*
X157948866Y-142792859D01*
X158100000Y-142823464D01*
X159400000Y-142823464D01*
X159541190Y-142796897D01*
X159670865Y-142713454D01*
X159757859Y-142586134D01*
X159788464Y-142435000D01*
X159788464Y-142191000D01*
X160251536Y-142191000D01*
X160251536Y-142435000D01*
X160278103Y-142576190D01*
X160361546Y-142705865D01*
X160488866Y-142792859D01*
X160640000Y-142823464D01*
X161940000Y-142823464D01*
X162081190Y-142796897D01*
X162210865Y-142713454D01*
X162297859Y-142586134D01*
X162328464Y-142435000D01*
X162328464Y-142191000D01*
X163339600Y-142191000D01*
X163348103Y-142236190D01*
X163431546Y-142365865D01*
X163558866Y-142452859D01*
X163710000Y-142483464D01*
X164246872Y-142483464D01*
X164817408Y-143054000D01*
X146506000Y-143054000D01*
X146506000Y-138966592D01*
X147036723Y-139497315D01*
X146929135Y-139566546D01*
X146842141Y-139693866D01*
X146811536Y-139845000D01*
X146811536Y-142095000D01*
X146838103Y-142236190D01*
X146921546Y-142365865D01*
X147048866Y-142452859D01*
X147200000Y-142483464D01*
X148117872Y-142483464D01*
X148486204Y-142851796D01*
X148650362Y-142961483D01*
X148844000Y-143000000D01*
X150114000Y-143000000D01*
X150307638Y-142961483D01*
X150471796Y-142851796D01*
X150840128Y-142483464D01*
X151250000Y-142483464D01*
X151391190Y-142456897D01*
X151520865Y-142373454D01*
X151607859Y-142246134D01*
X151619024Y-142191000D01*
X152631536Y-142191000D01*
X152631536Y-142435000D01*
X152658103Y-142576190D01*
X152741546Y-142705865D01*
X152868866Y-142792859D01*
X153020000Y-142823464D01*
X154320000Y-142823464D01*
X154461190Y-142796897D01*
X154590865Y-142713454D01*
X154677859Y-142586134D01*
X154708464Y-142435000D01*
X154708464Y-142064000D01*
X155171536Y-142064000D01*
X155171536Y-142435000D01*
X155198103Y-142576190D01*
X155281546Y-142705865D01*
X155408866Y-142792859D01*
X155560000Y-142823464D01*
X156860000Y-142823464D01*
X157001190Y-142796897D01*
X157130865Y-142713454D01*
X157217859Y-142586134D01*
X157248464Y-142435000D01*
X157248464Y-140935000D01*
X157221897Y-140793810D01*
X157138454Y-140664135D01*
X157011134Y-140577141D01*
X156860000Y-140546536D01*
X155560000Y-140546536D01*
X155418810Y-140573103D01*
X155289135Y-140656546D01*
X155202141Y-140783866D01*
X155171536Y-140935000D01*
X155171536Y-141052000D01*
X154708464Y-141052000D01*
X154708464Y-140935000D01*
X154681897Y-140793810D01*
X154598454Y-140664135D01*
X154471134Y-140577141D01*
X154320000Y-140546536D01*
X153020000Y-140546536D01*
X152878810Y-140573103D01*
X152749135Y-140656546D01*
X152662141Y-140783866D01*
X152631536Y-140935000D01*
X152631536Y-141179000D01*
X151638464Y-141179000D01*
X151638464Y-139845000D01*
X151611897Y-139703810D01*
X151528454Y-139574135D01*
X151401134Y-139487141D01*
X151250000Y-139456536D01*
X151206000Y-139456536D01*
X151206000Y-138198464D01*
X151325000Y-138198464D01*
X151466190Y-138171897D01*
X151595865Y-138088454D01*
X151682859Y-137961134D01*
X151713464Y-137810000D01*
X151713464Y-137697056D01*
X152631536Y-138615128D01*
X152631536Y-139735000D01*
X152658103Y-139876190D01*
X152741546Y-140005865D01*
X152868866Y-140092859D01*
X153020000Y-140123464D01*
X154320000Y-140123464D01*
X154461190Y-140096897D01*
X154590865Y-140013454D01*
X154677859Y-139886134D01*
X154708464Y-139735000D01*
X154708464Y-138235000D01*
X155171536Y-138235000D01*
X155171536Y-139735000D01*
X155198103Y-139876190D01*
X155281546Y-140005865D01*
X155408866Y-140092859D01*
X155560000Y-140123464D01*
X156860000Y-140123464D01*
X157001190Y-140096897D01*
X157130865Y-140013454D01*
X157217859Y-139886134D01*
X157248464Y-139735000D01*
X157248464Y-139626234D01*
X157343946Y-139665882D01*
X157614865Y-139666118D01*
X157711536Y-139626175D01*
X157711536Y-139735000D01*
X157738103Y-139876190D01*
X157821546Y-140005865D01*
X157948866Y-140092859D01*
X158100000Y-140123464D01*
X159400000Y-140123464D01*
X159541190Y-140096897D01*
X159670865Y-140013454D01*
X159757859Y-139886134D01*
X159788464Y-139735000D01*
X159788464Y-138235000D01*
X159761897Y-138093810D01*
X159678454Y-137964135D01*
X159551134Y-137877141D01*
X159400000Y-137846536D01*
X158100000Y-137846536D01*
X157958810Y-137873103D01*
X157829135Y-137956546D01*
X157742141Y-138083866D01*
X157711536Y-138235000D01*
X157711536Y-138343766D01*
X157616054Y-138304118D01*
X157345135Y-138303882D01*
X157248464Y-138343825D01*
X157248464Y-138235000D01*
X157221897Y-138093810D01*
X157138454Y-137964135D01*
X157011134Y-137877141D01*
X156860000Y-137846536D01*
X155560000Y-137846536D01*
X155418810Y-137873103D01*
X155289135Y-137956546D01*
X155202141Y-138083866D01*
X155171536Y-138235000D01*
X154708464Y-138235000D01*
X154681897Y-138093810D01*
X154598454Y-137964135D01*
X154471134Y-137877141D01*
X154320000Y-137846536D01*
X153294128Y-137846536D01*
X152271000Y-136823408D01*
X152271000Y-135300888D01*
X152365378Y-135300970D01*
X153164000Y-136099592D01*
X153164000Y-136525000D01*
X153202517Y-136718638D01*
X153291275Y-136851473D01*
X153293103Y-136861190D01*
X153376546Y-136990865D01*
X153503866Y-137077859D01*
X153655000Y-137108464D01*
X154955000Y-137108464D01*
X155096190Y-137081897D01*
X155171536Y-137033414D01*
X155171536Y-137355000D01*
X155198103Y-137496190D01*
X155281546Y-137625865D01*
X155408866Y-137712859D01*
X155560000Y-137743464D01*
X156860000Y-137743464D01*
X157001190Y-137716897D01*
X157130865Y-137633454D01*
X157217859Y-137506134D01*
X157248464Y-137355000D01*
X157248464Y-135855000D01*
X157221897Y-135713810D01*
X157138454Y-135584135D01*
X157011134Y-135497141D01*
X156860000Y-135466536D01*
X156222749Y-135466536D01*
X156210000Y-135464000D01*
X156130000Y-135464000D01*
X156117251Y-135466536D01*
X155587749Y-135466536D01*
X155575000Y-135464000D01*
X155343464Y-135464000D01*
X155343464Y-135220000D01*
X155316897Y-135078810D01*
X155233454Y-134949135D01*
X155106134Y-134862141D01*
X154975700Y-134835728D01*
X154818259Y-134678013D01*
X154568054Y-134574118D01*
X154297135Y-134573882D01*
X154046748Y-134677339D01*
X153892283Y-134831536D01*
X153655000Y-134831536D01*
X153513810Y-134858103D01*
X153416386Y-134920794D01*
X153081031Y-134585439D01*
X153081118Y-134485135D01*
X152977661Y-134234748D01*
X152786259Y-134043013D01*
X152536054Y-133939118D01*
X152271000Y-133938887D01*
X152271000Y-132670592D01*
X154027796Y-130913796D01*
X154137483Y-130749638D01*
X154176000Y-130556000D01*
X154176000Y-128397000D01*
X154137483Y-128203362D01*
X154027796Y-128039204D01*
X153208031Y-127219439D01*
X153208118Y-127119135D01*
X153104661Y-126868748D01*
X152913259Y-126677013D01*
X152663054Y-126573118D01*
X152527225Y-126573000D01*
X152466638Y-126532517D01*
X152273000Y-126494000D01*
X151613464Y-126494000D01*
X151613464Y-126375000D01*
X151586897Y-126233810D01*
X151503454Y-126104135D01*
X151376134Y-126017141D01*
X151235000Y-125988561D01*
X151235000Y-125498464D01*
X151325000Y-125498464D01*
X151466190Y-125471897D01*
X151595865Y-125388454D01*
X151682859Y-125261134D01*
X151713464Y-125110000D01*
X151713464Y-123810000D01*
X151686897Y-123668810D01*
X151603454Y-123539135D01*
X151476134Y-123452141D01*
X151325000Y-123421536D01*
X149825000Y-123421536D01*
X149683810Y-123448103D01*
X149554135Y-123531546D01*
X149467141Y-123658866D01*
X149436536Y-123810000D01*
X149436536Y-125110000D01*
X149463103Y-125251190D01*
X149546546Y-125380865D01*
X149673866Y-125467859D01*
X149825000Y-125498464D01*
X150223000Y-125498464D01*
X150223000Y-125986536D01*
X149725000Y-125986536D01*
X149583810Y-126013103D01*
X149454135Y-126096546D01*
X149367141Y-126223866D01*
X149336536Y-126375000D01*
X149336536Y-127625000D01*
X149363103Y-127766190D01*
X149446546Y-127895865D01*
X149573866Y-127982859D01*
X149725000Y-128013464D01*
X151225000Y-128013464D01*
X151366190Y-127986897D01*
X151495865Y-127903454D01*
X151582859Y-127776134D01*
X151613464Y-127625000D01*
X151613464Y-127506000D01*
X151894281Y-127506000D01*
X151949339Y-127639252D01*
X152140741Y-127830987D01*
X152390946Y-127934882D01*
X152492378Y-127934970D01*
X152816038Y-128258630D01*
X152649748Y-128327339D01*
X152458013Y-128518741D01*
X152354118Y-128768946D01*
X152354030Y-128870378D01*
X152190408Y-129034000D01*
X151713464Y-129034000D01*
X151713464Y-128890000D01*
X151686897Y-128748810D01*
X151603454Y-128619135D01*
X151476134Y-128532141D01*
X151325000Y-128501536D01*
X149825000Y-128501536D01*
X149683810Y-128528103D01*
X149610724Y-128575132D01*
X148961293Y-127925701D01*
X148995865Y-127903454D01*
X149082859Y-127776134D01*
X149113464Y-127625000D01*
X149113464Y-126375000D01*
X149086897Y-126233810D01*
X149003454Y-126104135D01*
X148876134Y-126017141D01*
X148725000Y-125986536D01*
X148381000Y-125986536D01*
X148381000Y-125498464D01*
X148625000Y-125498464D01*
X148766190Y-125471897D01*
X148895865Y-125388454D01*
X148982859Y-125261134D01*
X149013464Y-125110000D01*
X149013464Y-124037128D01*
X150035821Y-123014771D01*
X150047362Y-123022483D01*
X150241000Y-123061000D01*
X150829000Y-123061000D01*
X151022638Y-123022483D01*
X151118449Y-122958464D01*
X151216914Y-122958464D01*
X151314339Y-123194252D01*
X151505741Y-123385987D01*
X151755946Y-123489882D01*
X151775000Y-123489899D01*
X151775000Y-124046309D01*
X151871673Y-124279698D01*
X152050301Y-124458327D01*
X152283690Y-124555000D01*
X152749250Y-124555000D01*
X152908000Y-124396250D01*
X152908000Y-123297000D01*
X153162000Y-123297000D01*
X153162000Y-124396250D01*
X153320750Y-124555000D01*
X153786310Y-124555000D01*
X154019699Y-124458327D01*
X154198327Y-124279698D01*
X154295000Y-124046309D01*
X154295000Y-123455750D01*
X154136250Y-123297000D01*
X153162000Y-123297000D01*
X152908000Y-123297000D01*
X152888000Y-123297000D01*
X152888000Y-123043000D01*
X152908000Y-123043000D01*
X152908000Y-123023000D01*
X153162000Y-123023000D01*
X153162000Y-123043000D01*
X154136250Y-123043000D01*
X154295000Y-122884250D01*
X154295000Y-122299000D01*
X154432000Y-122299000D01*
X154625638Y-122260483D01*
X154789796Y-122150796D01*
X155149592Y-121791000D01*
X155190571Y-121791000D01*
X155171536Y-121885000D01*
X155171536Y-123385000D01*
X155198103Y-123526190D01*
X155281546Y-123655865D01*
X155408866Y-123742859D01*
X155560000Y-123773464D01*
X156339000Y-123773464D01*
X156339000Y-124511536D01*
X155560000Y-124511536D01*
X155418810Y-124538103D01*
X155289135Y-124621546D01*
X155202141Y-124748866D01*
X155171536Y-124900000D01*
X155171536Y-125536704D01*
X155149000Y-125650000D01*
X155171536Y-125763296D01*
X155171536Y-125925872D01*
X154524439Y-126572969D01*
X154424135Y-126572882D01*
X154173748Y-126676339D01*
X153982013Y-126867741D01*
X153878118Y-127117946D01*
X153877882Y-127388865D01*
X153981339Y-127639252D01*
X154172741Y-127830987D01*
X154422946Y-127934882D01*
X154693865Y-127935118D01*
X154944252Y-127831661D01*
X155135987Y-127640259D01*
X155189462Y-127511478D01*
X155171536Y-127600000D01*
X155171536Y-129100000D01*
X155198103Y-129241190D01*
X155281546Y-129370865D01*
X155408866Y-129457859D01*
X155560000Y-129488464D01*
X156860000Y-129488464D01*
X156974000Y-129467013D01*
X156974000Y-129796536D01*
X155480000Y-129796536D01*
X155338810Y-129823103D01*
X155209135Y-129906546D01*
X155122141Y-130033866D01*
X155091536Y-130185000D01*
X155091536Y-130577872D01*
X154905439Y-130763969D01*
X154805135Y-130763882D01*
X154554748Y-130867339D01*
X154363013Y-131058741D01*
X154259118Y-131308946D01*
X154258882Y-131579865D01*
X154362339Y-131830252D01*
X154545089Y-132013319D01*
X154426872Y-132131536D01*
X153655000Y-132131536D01*
X153513810Y-132158103D01*
X153384135Y-132241546D01*
X153297141Y-132368866D01*
X153266536Y-132520000D01*
X153266536Y-132980551D01*
X153202517Y-133076362D01*
X153164000Y-133270000D01*
X153202517Y-133463638D01*
X153266536Y-133559449D01*
X153266536Y-134020000D01*
X153293103Y-134161190D01*
X153376546Y-134290865D01*
X153503866Y-134377859D01*
X153655000Y-134408464D01*
X154955000Y-134408464D01*
X155096190Y-134381897D01*
X155171536Y-134333414D01*
X155171536Y-134655000D01*
X155198103Y-134796190D01*
X155281546Y-134925865D01*
X155408866Y-135012859D01*
X155560000Y-135043464D01*
X156860000Y-135043464D01*
X157001190Y-135016897D01*
X157130865Y-134933454D01*
X157217859Y-134806134D01*
X157248464Y-134655000D01*
X157248464Y-134411000D01*
X157711536Y-134411000D01*
X157711536Y-134655000D01*
X157738103Y-134796190D01*
X157821546Y-134925865D01*
X157948866Y-135012859D01*
X158100000Y-135043464D01*
X159400000Y-135043464D01*
X159541190Y-135016897D01*
X159670865Y-134933454D01*
X159757859Y-134806134D01*
X159788464Y-134655000D01*
X159788464Y-133326056D01*
X160090204Y-133627796D01*
X160251536Y-133735595D01*
X160251536Y-134020000D01*
X160278103Y-134161190D01*
X160361546Y-134290865D01*
X160488866Y-134377859D01*
X160640000Y-134408464D01*
X161940000Y-134408464D01*
X162081190Y-134381897D01*
X162210865Y-134298454D01*
X162297859Y-134171134D01*
X162328464Y-134020000D01*
X162328464Y-132520000D01*
X162301897Y-132378810D01*
X162218454Y-132249135D01*
X162091134Y-132162141D01*
X161940000Y-132131536D01*
X160640000Y-132131536D01*
X160498810Y-132158103D01*
X160369135Y-132241546D01*
X160282141Y-132368866D01*
X160278826Y-132385234D01*
X160019592Y-132126000D01*
X160154865Y-132126118D01*
X160405252Y-132022661D01*
X160596987Y-131831259D01*
X160700882Y-131581054D01*
X160701118Y-131310135D01*
X160597661Y-131059748D01*
X160406259Y-130868013D01*
X160156054Y-130764118D01*
X160054622Y-130764030D01*
X159868464Y-130577872D01*
X159868464Y-130185000D01*
X159841897Y-130043810D01*
X159758454Y-129914135D01*
X159631134Y-129827141D01*
X159480000Y-129796536D01*
X157986000Y-129796536D01*
X157986000Y-129465379D01*
X158100000Y-129488464D01*
X159400000Y-129488464D01*
X159541190Y-129461897D01*
X159670865Y-129378454D01*
X159757859Y-129251134D01*
X159788464Y-129100000D01*
X159788464Y-127985537D01*
X159887741Y-128084987D01*
X160137946Y-128188882D01*
X160408865Y-128189118D01*
X160659252Y-128085661D01*
X160850987Y-127894259D01*
X160954882Y-127644054D01*
X160955118Y-127373135D01*
X160851661Y-127122748D01*
X160660259Y-126931013D01*
X160410054Y-126827118D01*
X160308622Y-126827030D01*
X159788464Y-126306872D01*
X159788464Y-124900000D01*
X159761897Y-124758810D01*
X159678454Y-124629135D01*
X159551134Y-124542141D01*
X159400000Y-124511536D01*
X158755128Y-124511536D01*
X158621000Y-124377408D01*
X158621000Y-123773464D01*
X159400000Y-123773464D01*
X159541190Y-123746897D01*
X159670865Y-123663454D01*
X159757859Y-123536134D01*
X159774136Y-123455750D01*
X160665000Y-123455750D01*
X160665000Y-124046309D01*
X160761673Y-124279698D01*
X160940301Y-124458327D01*
X161173690Y-124555000D01*
X161639250Y-124555000D01*
X161798000Y-124396250D01*
X161798000Y-123297000D01*
X160823750Y-123297000D01*
X160665000Y-123455750D01*
X159774136Y-123455750D01*
X159788464Y-123385000D01*
X159788464Y-121885000D01*
X159761897Y-121743810D01*
X159678454Y-121614135D01*
X159551134Y-121527141D01*
X159400000Y-121496536D01*
X158100000Y-121496536D01*
X157986000Y-121517987D01*
X157986000Y-121285000D01*
X157947483Y-121091362D01*
X157886686Y-121000373D01*
X157948866Y-121042859D01*
X158100000Y-121073464D01*
X158560551Y-121073464D01*
X158656362Y-121137483D01*
X158850000Y-121176000D01*
X159043637Y-121137483D01*
X159139449Y-121073464D01*
X159400000Y-121073464D01*
X159541190Y-121046897D01*
X159638614Y-120984206D01*
X159682204Y-121027796D01*
G36*
X149436536Y-129832128D02*
X149436536Y-130190000D01*
X149463103Y-130331190D01*
X149546546Y-130460865D01*
X149673866Y-130547859D01*
X149825000Y-130578464D01*
X151325000Y-130578464D01*
X151466190Y-130551897D01*
X151595865Y-130468454D01*
X151682859Y-130341134D01*
X151713464Y-130190000D01*
X151713464Y-130046000D01*
X152354112Y-130046000D01*
X152354030Y-130140378D01*
X151431338Y-131063070D01*
X151325000Y-131041536D01*
X149825000Y-131041536D01*
X149683810Y-131068103D01*
X149554135Y-131151546D01*
X149467141Y-131278866D01*
X149436536Y-131430000D01*
X149436536Y-132730000D01*
X149463103Y-132871190D01*
X149546546Y-133000865D01*
X149673866Y-133087859D01*
X149825000Y-133118464D01*
X150069000Y-133118464D01*
X150069000Y-133581536D01*
X149825000Y-133581536D01*
X149683810Y-133608103D01*
X149554135Y-133691546D01*
X149467141Y-133818866D01*
X149436536Y-133970000D01*
X149436536Y-135270000D01*
X149463103Y-135411190D01*
X149546546Y-135540865D01*
X149673866Y-135627859D01*
X149825000Y-135658464D01*
X151259000Y-135658464D01*
X151259000Y-136121536D01*
X149825000Y-136121536D01*
X149683810Y-136148103D01*
X149554135Y-136231546D01*
X149467141Y-136358866D01*
X149436536Y-136510000D01*
X149436536Y-137810000D01*
X149463103Y-137951190D01*
X149546546Y-138080865D01*
X149673866Y-138167859D01*
X149825000Y-138198464D01*
X150194000Y-138198464D01*
X150194000Y-139456536D01*
X150150000Y-139456536D01*
X150138464Y-139458707D01*
X150138464Y-138870000D01*
X150111897Y-138728810D01*
X150028454Y-138599135D01*
X149901134Y-138512141D01*
X149750000Y-138481536D01*
X148700000Y-138481536D01*
X148558810Y-138508103D01*
X148429135Y-138591546D01*
X148342141Y-138718866D01*
X148311536Y-138870000D01*
X148311536Y-138914000D01*
X147884592Y-138914000D01*
X147415592Y-138445000D01*
X147589250Y-138445000D01*
X147748000Y-138286250D01*
X147748000Y-137287000D01*
X148002000Y-137287000D01*
X148002000Y-138286250D01*
X148160750Y-138445000D01*
X148751309Y-138445000D01*
X148984698Y-138348327D01*
X149163327Y-138169699D01*
X149260000Y-137936310D01*
X149260000Y-137445750D01*
X149101250Y-137287000D01*
X148002000Y-137287000D01*
X147748000Y-137287000D01*
X147728000Y-137287000D01*
X147728000Y-137033000D01*
X147748000Y-137033000D01*
X147748000Y-136033750D01*
X147604250Y-135890000D01*
X147748000Y-135746250D01*
X147748000Y-134747000D01*
X148002000Y-134747000D01*
X148002000Y-135746250D01*
X148145750Y-135890000D01*
X148002000Y-136033750D01*
X148002000Y-137033000D01*
X149101250Y-137033000D01*
X149260000Y-136874250D01*
X149260000Y-136383690D01*
X149163327Y-136150301D01*
X148984698Y-135971673D01*
X148787522Y-135890000D01*
X148984698Y-135808327D01*
X149163327Y-135629699D01*
X149260000Y-135396310D01*
X149260000Y-134905750D01*
X149101250Y-134747000D01*
X148002000Y-134747000D01*
X147748000Y-134747000D01*
X147728000Y-134747000D01*
X147728000Y-134493000D01*
X147748000Y-134493000D01*
X147748000Y-133493750D01*
X148002000Y-133493750D01*
X148002000Y-134493000D01*
X149101250Y-134493000D01*
X149260000Y-134334250D01*
X149260000Y-133843690D01*
X149163327Y-133610301D01*
X148984698Y-133431673D01*
X148751309Y-133335000D01*
X148160750Y-133335000D01*
X148002000Y-133493750D01*
X147748000Y-133493750D01*
X147589250Y-133335000D01*
X147335592Y-133335000D01*
X147552128Y-133118464D01*
X148625000Y-133118464D01*
X148766190Y-133091897D01*
X148895865Y-133008454D01*
X148982859Y-132881134D01*
X149013464Y-132730000D01*
X149013464Y-131430000D01*
X148986897Y-131288810D01*
X148903454Y-131159135D01*
X148776134Y-131072141D01*
X148625000Y-131041536D01*
X148381000Y-131041536D01*
X148381000Y-130578464D01*
X148625000Y-130578464D01*
X148766190Y-130551897D01*
X148895865Y-130468454D01*
X148982859Y-130341134D01*
X149013464Y-130190000D01*
X149013464Y-129409056D01*
X149436536Y-129832128D01*
X149436536Y-129832128D01*
G37*
X149436536Y-129832128D02*
X149436536Y-130190000D01*
X149463103Y-130331190D01*
X149546546Y-130460865D01*
X149673866Y-130547859D01*
X149825000Y-130578464D01*
X151325000Y-130578464D01*
X151466190Y-130551897D01*
X151595865Y-130468454D01*
X151682859Y-130341134D01*
X151713464Y-130190000D01*
X151713464Y-130046000D01*
X152354112Y-130046000D01*
X152354030Y-130140378D01*
X151431338Y-131063070D01*
X151325000Y-131041536D01*
X149825000Y-131041536D01*
X149683810Y-131068103D01*
X149554135Y-131151546D01*
X149467141Y-131278866D01*
X149436536Y-131430000D01*
X149436536Y-132730000D01*
X149463103Y-132871190D01*
X149546546Y-133000865D01*
X149673866Y-133087859D01*
X149825000Y-133118464D01*
X150069000Y-133118464D01*
X150069000Y-133581536D01*
X149825000Y-133581536D01*
X149683810Y-133608103D01*
X149554135Y-133691546D01*
X149467141Y-133818866D01*
X149436536Y-133970000D01*
X149436536Y-135270000D01*
X149463103Y-135411190D01*
X149546546Y-135540865D01*
X149673866Y-135627859D01*
X149825000Y-135658464D01*
X151259000Y-135658464D01*
X151259000Y-136121536D01*
X149825000Y-136121536D01*
X149683810Y-136148103D01*
X149554135Y-136231546D01*
X149467141Y-136358866D01*
X149436536Y-136510000D01*
X149436536Y-137810000D01*
X149463103Y-137951190D01*
X149546546Y-138080865D01*
X149673866Y-138167859D01*
X149825000Y-138198464D01*
X150194000Y-138198464D01*
X150194000Y-139456536D01*
X150150000Y-139456536D01*
X150138464Y-139458707D01*
X150138464Y-138870000D01*
X150111897Y-138728810D01*
X150028454Y-138599135D01*
X149901134Y-138512141D01*
X149750000Y-138481536D01*
X148700000Y-138481536D01*
X148558810Y-138508103D01*
X148429135Y-138591546D01*
X148342141Y-138718866D01*
X148311536Y-138870000D01*
X148311536Y-138914000D01*
X147884592Y-138914000D01*
X147415592Y-138445000D01*
X147589250Y-138445000D01*
X147748000Y-138286250D01*
X147748000Y-137287000D01*
X148002000Y-137287000D01*
X148002000Y-138286250D01*
X148160750Y-138445000D01*
X148751309Y-138445000D01*
X148984698Y-138348327D01*
X149163327Y-138169699D01*
X149260000Y-137936310D01*
X149260000Y-137445750D01*
X149101250Y-137287000D01*
X148002000Y-137287000D01*
X147748000Y-137287000D01*
X147728000Y-137287000D01*
X147728000Y-137033000D01*
X147748000Y-137033000D01*
X147748000Y-136033750D01*
X147604250Y-135890000D01*
X147748000Y-135746250D01*
X147748000Y-134747000D01*
X148002000Y-134747000D01*
X148002000Y-135746250D01*
X148145750Y-135890000D01*
X148002000Y-136033750D01*
X148002000Y-137033000D01*
X149101250Y-137033000D01*
X149260000Y-136874250D01*
X149260000Y-136383690D01*
X149163327Y-136150301D01*
X148984698Y-135971673D01*
X148787522Y-135890000D01*
X148984698Y-135808327D01*
X149163327Y-135629699D01*
X149260000Y-135396310D01*
X149260000Y-134905750D01*
X149101250Y-134747000D01*
X148002000Y-134747000D01*
X147748000Y-134747000D01*
X147728000Y-134747000D01*
X147728000Y-134493000D01*
X147748000Y-134493000D01*
X147748000Y-133493750D01*
X148002000Y-133493750D01*
X148002000Y-134493000D01*
X149101250Y-134493000D01*
X149260000Y-134334250D01*
X149260000Y-133843690D01*
X149163327Y-133610301D01*
X148984698Y-133431673D01*
X148751309Y-133335000D01*
X148160750Y-133335000D01*
X148002000Y-133493750D01*
X147748000Y-133493750D01*
X147589250Y-133335000D01*
X147335592Y-133335000D01*
X147552128Y-133118464D01*
X148625000Y-133118464D01*
X148766190Y-133091897D01*
X148895865Y-133008454D01*
X148982859Y-132881134D01*
X149013464Y-132730000D01*
X149013464Y-131430000D01*
X148986897Y-131288810D01*
X148903454Y-131159135D01*
X148776134Y-131072141D01*
X148625000Y-131041536D01*
X148381000Y-131041536D01*
X148381000Y-130578464D01*
X148625000Y-130578464D01*
X148766190Y-130551897D01*
X148895865Y-130468454D01*
X148982859Y-130341134D01*
X149013464Y-130190000D01*
X149013464Y-129409056D01*
X149436536Y-129832128D01*
G36*
X150044339Y-120781252D02*
X150144449Y-120881536D01*
X149825000Y-120881536D01*
X149683810Y-120908103D01*
X149554135Y-120991546D01*
X149467141Y-121118866D01*
X149436536Y-121270000D01*
X149436536Y-122182872D01*
X149260000Y-122359408D01*
X149260000Y-122205750D01*
X149101250Y-122047000D01*
X148002000Y-122047000D01*
X148002000Y-123046250D01*
X148160750Y-123205000D01*
X148414408Y-123205000D01*
X148197872Y-123421536D01*
X147125000Y-123421536D01*
X146983810Y-123448103D01*
X146854135Y-123531546D01*
X146767141Y-123658866D01*
X146736536Y-123810000D01*
X146736536Y-125110000D01*
X146763103Y-125251190D01*
X146846546Y-125380865D01*
X146973866Y-125467859D01*
X147125000Y-125498464D01*
X147369000Y-125498464D01*
X147369000Y-125986536D01*
X147225000Y-125986536D01*
X147083810Y-126013103D01*
X146954135Y-126096546D01*
X146867141Y-126223866D01*
X146836536Y-126375000D01*
X146836536Y-127625000D01*
X146863103Y-127766190D01*
X146946546Y-127895865D01*
X147073866Y-127982859D01*
X147225000Y-128013464D01*
X147617872Y-128013464D01*
X148105944Y-128501536D01*
X147125000Y-128501536D01*
X146983810Y-128528103D01*
X146854135Y-128611546D01*
X146767141Y-128738866D01*
X146736536Y-128890000D01*
X146736536Y-130190000D01*
X146763103Y-130331190D01*
X146846546Y-130460865D01*
X146973866Y-130547859D01*
X147125000Y-130578464D01*
X147369000Y-130578464D01*
X147369000Y-131041536D01*
X147125000Y-131041536D01*
X146983810Y-131068103D01*
X146854135Y-131151546D01*
X146767141Y-131278866D01*
X146736536Y-131430000D01*
X146736536Y-132502872D01*
X146506000Y-132733408D01*
X146506000Y-122734937D01*
X146586673Y-122929699D01*
X146765302Y-123108327D01*
X146998691Y-123205000D01*
X147589250Y-123205000D01*
X147748000Y-123046250D01*
X147748000Y-122047000D01*
X147728000Y-122047000D01*
X147728000Y-121793000D01*
X147748000Y-121793000D01*
X147748000Y-121773000D01*
X148002000Y-121773000D01*
X148002000Y-121793000D01*
X149101250Y-121793000D01*
X149260000Y-121634250D01*
X149260000Y-121143690D01*
X149163327Y-120910301D01*
X149023025Y-120770000D01*
X149841310Y-120770000D01*
X150010699Y-120699837D01*
X150044339Y-120781252D01*
X150044339Y-120781252D01*
G37*
X150044339Y-120781252D02*
X150144449Y-120881536D01*
X149825000Y-120881536D01*
X149683810Y-120908103D01*
X149554135Y-120991546D01*
X149467141Y-121118866D01*
X149436536Y-121270000D01*
X149436536Y-122182872D01*
X149260000Y-122359408D01*
X149260000Y-122205750D01*
X149101250Y-122047000D01*
X148002000Y-122047000D01*
X148002000Y-123046250D01*
X148160750Y-123205000D01*
X148414408Y-123205000D01*
X148197872Y-123421536D01*
X147125000Y-123421536D01*
X146983810Y-123448103D01*
X146854135Y-123531546D01*
X146767141Y-123658866D01*
X146736536Y-123810000D01*
X146736536Y-125110000D01*
X146763103Y-125251190D01*
X146846546Y-125380865D01*
X146973866Y-125467859D01*
X147125000Y-125498464D01*
X147369000Y-125498464D01*
X147369000Y-125986536D01*
X147225000Y-125986536D01*
X147083810Y-126013103D01*
X146954135Y-126096546D01*
X146867141Y-126223866D01*
X146836536Y-126375000D01*
X146836536Y-127625000D01*
X146863103Y-127766190D01*
X146946546Y-127895865D01*
X147073866Y-127982859D01*
X147225000Y-128013464D01*
X147617872Y-128013464D01*
X148105944Y-128501536D01*
X147125000Y-128501536D01*
X146983810Y-128528103D01*
X146854135Y-128611546D01*
X146767141Y-128738866D01*
X146736536Y-128890000D01*
X146736536Y-130190000D01*
X146763103Y-130331190D01*
X146846546Y-130460865D01*
X146973866Y-130547859D01*
X147125000Y-130578464D01*
X147369000Y-130578464D01*
X147369000Y-131041536D01*
X147125000Y-131041536D01*
X146983810Y-131068103D01*
X146854135Y-131151546D01*
X146767141Y-131278866D01*
X146736536Y-131430000D01*
X146736536Y-132502872D01*
X146506000Y-132733408D01*
X146506000Y-122734937D01*
X146586673Y-122929699D01*
X146765302Y-123108327D01*
X146998691Y-123205000D01*
X147589250Y-123205000D01*
X147748000Y-123046250D01*
X147748000Y-122047000D01*
X147728000Y-122047000D01*
X147728000Y-121793000D01*
X147748000Y-121793000D01*
X147748000Y-121773000D01*
X148002000Y-121773000D01*
X148002000Y-121793000D01*
X149101250Y-121793000D01*
X149260000Y-121634250D01*
X149260000Y-121143690D01*
X149163327Y-120910301D01*
X149023025Y-120770000D01*
X149841310Y-120770000D01*
X150010699Y-120699837D01*
X150044339Y-120781252D01*
G36*
X161163000Y-112452628D02*
X161163000Y-118110000D01*
X161173006Y-118159410D01*
X161201447Y-118201035D01*
X161243841Y-118228315D01*
X161290000Y-118237000D01*
X163165020Y-118237000D01*
X167961020Y-120635000D01*
X167370750Y-120635000D01*
X167212000Y-120793750D01*
X167212000Y-121793000D01*
X167232000Y-121793000D01*
X167232000Y-122047000D01*
X167212000Y-122047000D01*
X167212000Y-123046250D01*
X167370750Y-123205000D01*
X167961309Y-123205000D01*
X168148000Y-123127670D01*
X168148000Y-123592821D01*
X168113454Y-123539135D01*
X167986134Y-123452141D01*
X167835000Y-123421536D01*
X167063128Y-123421536D01*
X166822921Y-123181329D01*
X166958000Y-123046250D01*
X166958000Y-122047000D01*
X165858750Y-122047000D01*
X165773671Y-122132079D01*
X165523464Y-121881872D01*
X165523464Y-121270000D01*
X165499697Y-121143690D01*
X165700000Y-121143690D01*
X165700000Y-121634250D01*
X165858750Y-121793000D01*
X166958000Y-121793000D01*
X166958000Y-120793750D01*
X166799250Y-120635000D01*
X166208691Y-120635000D01*
X165975302Y-120731673D01*
X165796673Y-120910301D01*
X165700000Y-121143690D01*
X165499697Y-121143690D01*
X165496897Y-121128810D01*
X165413454Y-120999135D01*
X165286134Y-120912141D01*
X165135000Y-120881536D01*
X163635000Y-120881536D01*
X163493810Y-120908103D01*
X163364135Y-120991546D01*
X163277141Y-121118866D01*
X163246536Y-121270000D01*
X163246536Y-122041872D01*
X163160439Y-122127969D01*
X163116340Y-122127931D01*
X163088327Y-122060302D01*
X162909699Y-121881673D01*
X162676310Y-121785000D01*
X162674699Y-121785000D01*
X162691190Y-121781897D01*
X162820865Y-121698454D01*
X162907859Y-121571134D01*
X162938464Y-121420000D01*
X162938464Y-119920000D01*
X162911897Y-119778810D01*
X162828454Y-119649135D01*
X162701134Y-119562141D01*
X162550000Y-119531536D01*
X161300000Y-119531536D01*
X161158810Y-119558103D01*
X161029135Y-119641546D01*
X160942141Y-119768866D01*
X160911536Y-119920000D01*
X160911536Y-120164000D01*
X160249592Y-120164000D01*
X159788464Y-119702872D01*
X159788464Y-119185000D01*
X159761897Y-119043810D01*
X159678454Y-118914135D01*
X159551134Y-118827141D01*
X159400000Y-118796536D01*
X158998000Y-118796536D01*
X158998000Y-115991328D01*
X159024517Y-116124638D01*
X159134204Y-116288796D01*
X159338969Y-116493561D01*
X159338882Y-116593865D01*
X159442339Y-116844252D01*
X159633741Y-117035987D01*
X159883946Y-117139882D01*
X160154865Y-117140118D01*
X160405252Y-117036661D01*
X160596987Y-116845259D01*
X160700882Y-116595054D01*
X160701118Y-116324135D01*
X160597661Y-116073748D01*
X160406259Y-115882013D01*
X160156054Y-115778118D01*
X160054622Y-115778030D01*
X159998000Y-115721408D01*
X159998000Y-113070000D01*
X160119002Y-113070000D01*
X160119002Y-112968252D01*
X160220750Y-113070000D01*
X160258310Y-113070000D01*
X160491699Y-112973327D01*
X160670327Y-112794698D01*
X160767000Y-112561309D01*
X160767000Y-112120750D01*
X160650024Y-112003774D01*
X161163000Y-112452628D01*
X161163000Y-112452628D01*
G37*
X161163000Y-112452628D02*
X161163000Y-118110000D01*
X161173006Y-118159410D01*
X161201447Y-118201035D01*
X161243841Y-118228315D01*
X161290000Y-118237000D01*
X163165020Y-118237000D01*
X167961020Y-120635000D01*
X167370750Y-120635000D01*
X167212000Y-120793750D01*
X167212000Y-121793000D01*
X167232000Y-121793000D01*
X167232000Y-122047000D01*
X167212000Y-122047000D01*
X167212000Y-123046250D01*
X167370750Y-123205000D01*
X167961309Y-123205000D01*
X168148000Y-123127670D01*
X168148000Y-123592821D01*
X168113454Y-123539135D01*
X167986134Y-123452141D01*
X167835000Y-123421536D01*
X167063128Y-123421536D01*
X166822921Y-123181329D01*
X166958000Y-123046250D01*
X166958000Y-122047000D01*
X165858750Y-122047000D01*
X165773671Y-122132079D01*
X165523464Y-121881872D01*
X165523464Y-121270000D01*
X165499697Y-121143690D01*
X165700000Y-121143690D01*
X165700000Y-121634250D01*
X165858750Y-121793000D01*
X166958000Y-121793000D01*
X166958000Y-120793750D01*
X166799250Y-120635000D01*
X166208691Y-120635000D01*
X165975302Y-120731673D01*
X165796673Y-120910301D01*
X165700000Y-121143690D01*
X165499697Y-121143690D01*
X165496897Y-121128810D01*
X165413454Y-120999135D01*
X165286134Y-120912141D01*
X165135000Y-120881536D01*
X163635000Y-120881536D01*
X163493810Y-120908103D01*
X163364135Y-120991546D01*
X163277141Y-121118866D01*
X163246536Y-121270000D01*
X163246536Y-122041872D01*
X163160439Y-122127969D01*
X163116340Y-122127931D01*
X163088327Y-122060302D01*
X162909699Y-121881673D01*
X162676310Y-121785000D01*
X162674699Y-121785000D01*
X162691190Y-121781897D01*
X162820865Y-121698454D01*
X162907859Y-121571134D01*
X162938464Y-121420000D01*
X162938464Y-119920000D01*
X162911897Y-119778810D01*
X162828454Y-119649135D01*
X162701134Y-119562141D01*
X162550000Y-119531536D01*
X161300000Y-119531536D01*
X161158810Y-119558103D01*
X161029135Y-119641546D01*
X160942141Y-119768866D01*
X160911536Y-119920000D01*
X160911536Y-120164000D01*
X160249592Y-120164000D01*
X159788464Y-119702872D01*
X159788464Y-119185000D01*
X159761897Y-119043810D01*
X159678454Y-118914135D01*
X159551134Y-118827141D01*
X159400000Y-118796536D01*
X158998000Y-118796536D01*
X158998000Y-115991328D01*
X159024517Y-116124638D01*
X159134204Y-116288796D01*
X159338969Y-116493561D01*
X159338882Y-116593865D01*
X159442339Y-116844252D01*
X159633741Y-117035987D01*
X159883946Y-117139882D01*
X160154865Y-117140118D01*
X160405252Y-117036661D01*
X160596987Y-116845259D01*
X160700882Y-116595054D01*
X160701118Y-116324135D01*
X160597661Y-116073748D01*
X160406259Y-115882013D01*
X160156054Y-115778118D01*
X160054622Y-115778030D01*
X159998000Y-115721408D01*
X159998000Y-113070000D01*
X160119002Y-113070000D01*
X160119002Y-112968252D01*
X160220750Y-113070000D01*
X160258310Y-113070000D01*
X160491699Y-112973327D01*
X160670327Y-112794698D01*
X160767000Y-112561309D01*
X160767000Y-112120750D01*
X160650024Y-112003774D01*
X161163000Y-112452628D01*
G36*
X148360536Y-103991128D02*
X148360536Y-105146000D01*
X148387103Y-105287190D01*
X148470546Y-105416865D01*
X148597866Y-105503859D01*
X148749000Y-105534464D01*
X150249000Y-105534464D01*
X150390190Y-105507897D01*
X150519865Y-105424454D01*
X150606859Y-105297134D01*
X150637464Y-105146000D01*
X150637464Y-104011000D01*
X150793408Y-104011000D01*
X150860536Y-104078128D01*
X150860536Y-105146000D01*
X150887103Y-105287190D01*
X150970546Y-105416865D01*
X151097866Y-105503859D01*
X151249000Y-105534464D01*
X151493000Y-105534464D01*
X151493000Y-105601408D01*
X151301408Y-105793000D01*
X148971000Y-105793000D01*
X148777362Y-105831517D01*
X148622489Y-105935000D01*
X148613204Y-105941204D01*
X148252872Y-106301536D01*
X147225000Y-106301536D01*
X147083810Y-106328103D01*
X146954135Y-106411546D01*
X146867141Y-106538866D01*
X146836536Y-106690000D01*
X146836536Y-107940000D01*
X146863103Y-108081190D01*
X146946546Y-108210865D01*
X147073866Y-108297859D01*
X147225000Y-108328464D01*
X148076096Y-108328464D01*
X148589168Y-108841536D01*
X148201864Y-108841536D01*
X148068638Y-108752517D01*
X147875000Y-108714000D01*
X147681362Y-108752517D01*
X147548136Y-108841536D01*
X147225000Y-108841536D01*
X147083810Y-108868103D01*
X146954135Y-108951546D01*
X146867141Y-109078866D01*
X146836536Y-109230000D01*
X146836536Y-110480000D01*
X146863103Y-110621190D01*
X146946546Y-110750865D01*
X147073866Y-110837859D01*
X147225000Y-110868464D01*
X147369000Y-110868464D01*
X147369000Y-111356536D01*
X147125000Y-111356536D01*
X146983810Y-111383103D01*
X146854135Y-111466546D01*
X146767141Y-111593866D01*
X146736536Y-111745000D01*
X146736536Y-113045000D01*
X146763103Y-113186190D01*
X146846546Y-113315865D01*
X146973866Y-113402859D01*
X147125000Y-113433464D01*
X147369000Y-113433464D01*
X147369000Y-113896536D01*
X147125000Y-113896536D01*
X146983810Y-113923103D01*
X146854135Y-114006546D01*
X146767141Y-114133866D01*
X146736536Y-114285000D01*
X146736536Y-115585000D01*
X146763103Y-115726190D01*
X146846546Y-115855865D01*
X146866847Y-115869736D01*
X146830000Y-115958691D01*
X146830000Y-116349250D01*
X146988750Y-116508000D01*
X148463000Y-116508000D01*
X148463000Y-116488000D01*
X148717000Y-116488000D01*
X148717000Y-116508000D01*
X148737000Y-116508000D01*
X148737000Y-116762000D01*
X148717000Y-116762000D01*
X148717000Y-117661250D01*
X148875750Y-117820000D01*
X149201536Y-117820000D01*
X149201536Y-118400000D01*
X148875750Y-118400000D01*
X148717000Y-118558750D01*
X148717000Y-119458000D01*
X150191250Y-119458000D01*
X150350000Y-119299250D01*
X150350000Y-119023464D01*
X150690000Y-119023464D01*
X150831190Y-118996897D01*
X150960865Y-118913454D01*
X151047859Y-118786134D01*
X151078464Y-118635000D01*
X151078464Y-118042749D01*
X151081000Y-118030000D01*
X151081000Y-115973464D01*
X151325000Y-115973464D01*
X151466190Y-115946897D01*
X151595865Y-115863454D01*
X151682859Y-115736134D01*
X151713464Y-115585000D01*
X151713464Y-114285000D01*
X151686897Y-114143810D01*
X151603454Y-114014135D01*
X151476134Y-113927141D01*
X151325000Y-113896536D01*
X149825000Y-113896536D01*
X149683810Y-113923103D01*
X149554135Y-114006546D01*
X149467141Y-114133866D01*
X149436536Y-114285000D01*
X149436536Y-115450000D01*
X149013464Y-115450000D01*
X149013464Y-114285000D01*
X148986897Y-114143810D01*
X148903454Y-114014135D01*
X148776134Y-113927141D01*
X148625000Y-113896536D01*
X148381000Y-113896536D01*
X148381000Y-113433464D01*
X148625000Y-113433464D01*
X148766190Y-113406897D01*
X148895865Y-113323454D01*
X148982859Y-113196134D01*
X149013464Y-113045000D01*
X149013464Y-112102803D01*
X149215946Y-112186882D01*
X149436536Y-112187074D01*
X149436536Y-113045000D01*
X149463103Y-113186190D01*
X149546546Y-113315865D01*
X149673866Y-113402859D01*
X149825000Y-113433464D01*
X151325000Y-113433464D01*
X151466190Y-113406897D01*
X151595865Y-113323454D01*
X151682859Y-113196134D01*
X151713464Y-113045000D01*
X151713464Y-111745000D01*
X151686897Y-111603810D01*
X151603454Y-111474135D01*
X151476134Y-111387141D01*
X151325000Y-111356536D01*
X151081000Y-111356536D01*
X151081000Y-111205000D01*
X151042483Y-111011362D01*
X150981000Y-110919346D01*
X150981000Y-110868464D01*
X151225000Y-110868464D01*
X151366190Y-110841897D01*
X151495865Y-110758454D01*
X151582859Y-110631134D01*
X151613464Y-110480000D01*
X151613464Y-109833833D01*
X151699815Y-109920184D01*
X151904526Y-110056968D01*
X151944589Y-110064937D01*
X152146000Y-110105000D01*
X152773632Y-110105000D01*
X153449816Y-110781184D01*
X153654527Y-110917968D01*
X153896000Y-110966000D01*
X154137474Y-110917968D01*
X154252664Y-110841000D01*
X154281068Y-110841000D01*
X154386029Y-110862255D01*
X154385882Y-111031265D01*
X154489339Y-111281652D01*
X154680741Y-111473387D01*
X154930946Y-111577282D01*
X155201865Y-111577518D01*
X155452252Y-111474061D01*
X155643987Y-111282659D01*
X155747882Y-111032454D01*
X155748049Y-110841000D01*
X155780800Y-110841000D01*
X155974438Y-110802483D01*
X156138596Y-110692796D01*
X156320828Y-110510564D01*
X156497265Y-110510718D01*
X156747652Y-110407261D01*
X156939387Y-110215859D01*
X156951158Y-110187512D01*
X157119141Y-110355787D01*
X157369346Y-110459682D01*
X157640265Y-110459918D01*
X157890652Y-110356461D01*
X158082387Y-110165059D01*
X158186282Y-109914854D01*
X158186340Y-109848051D01*
X159139065Y-110681685D01*
X159062000Y-110758750D01*
X159062000Y-110984551D01*
X158994141Y-111083866D01*
X158992551Y-111091718D01*
X158922000Y-110982078D01*
X158922000Y-110758750D01*
X158763250Y-110600000D01*
X158725690Y-110600000D01*
X158492301Y-110696673D01*
X158492000Y-110696974D01*
X158491699Y-110696673D01*
X158258310Y-110600000D01*
X158220750Y-110600000D01*
X158062000Y-110758750D01*
X158062000Y-110984551D01*
X157994141Y-111083866D01*
X157992551Y-111091718D01*
X157922000Y-110982078D01*
X157922000Y-110758750D01*
X157763250Y-110600000D01*
X157725690Y-110600000D01*
X157492301Y-110696673D01*
X157492000Y-110696974D01*
X157491699Y-110696673D01*
X157258310Y-110600000D01*
X157220750Y-110600000D01*
X157062000Y-110758750D01*
X157062000Y-110984551D01*
X156994141Y-111083866D01*
X156992551Y-111091718D01*
X156922000Y-110982078D01*
X156922000Y-110758750D01*
X156763250Y-110600000D01*
X156725690Y-110600000D01*
X156492301Y-110696673D01*
X156340223Y-110848752D01*
X156210810Y-110873103D01*
X156081135Y-110956546D01*
X155994141Y-111083866D01*
X155963536Y-111235000D01*
X155963536Y-112435000D01*
X155986000Y-112554385D01*
X155986000Y-115078408D01*
X155921439Y-115142969D01*
X155821135Y-115142882D01*
X155570748Y-115246339D01*
X155379013Y-115437741D01*
X155275118Y-115687946D01*
X155274882Y-115958865D01*
X155378339Y-116209252D01*
X155569741Y-116400987D01*
X155819946Y-116504882D01*
X156090865Y-116505118D01*
X156341252Y-116401661D01*
X156532987Y-116210259D01*
X156636882Y-115960054D01*
X156636970Y-115858622D01*
X156849796Y-115645796D01*
X156959483Y-115481638D01*
X156986000Y-115348328D01*
X156986000Y-116364408D01*
X155852204Y-117498204D01*
X155742517Y-117662362D01*
X155704000Y-117856000D01*
X155704000Y-118796536D01*
X155560000Y-118796536D01*
X155418810Y-118823103D01*
X155289135Y-118906546D01*
X155202141Y-119033866D01*
X155171536Y-119185000D01*
X155171536Y-119429000D01*
X155020000Y-119429000D01*
X154826362Y-119467517D01*
X154662204Y-119577204D01*
X154075408Y-120164000D01*
X154048464Y-120164000D01*
X154048464Y-119920000D01*
X154021897Y-119778810D01*
X153938454Y-119649135D01*
X153811134Y-119562141D01*
X153660000Y-119531536D01*
X152439453Y-119531536D01*
X152445882Y-119516054D01*
X152446118Y-119245135D01*
X152342661Y-118994748D01*
X152151259Y-118803013D01*
X151901054Y-118699118D01*
X151630135Y-118698882D01*
X151379748Y-118802339D01*
X151188013Y-118993741D01*
X151084118Y-119243946D01*
X151083882Y-119514865D01*
X151187339Y-119765252D01*
X151259000Y-119837038D01*
X151259000Y-120154360D01*
X151199661Y-120010748D01*
X151008259Y-119819013D01*
X150758054Y-119715118D01*
X150487135Y-119714882D01*
X150279800Y-119800550D01*
X150191250Y-119712000D01*
X148717000Y-119712000D01*
X148717000Y-119732000D01*
X148463000Y-119732000D01*
X148463000Y-119712000D01*
X146988750Y-119712000D01*
X146830000Y-119870750D01*
X146830000Y-120261309D01*
X146926673Y-120494698D01*
X147066974Y-120635000D01*
X146998691Y-120635000D01*
X146765302Y-120731673D01*
X146586673Y-120910301D01*
X146506000Y-121105063D01*
X146506000Y-118908691D01*
X146830000Y-118908691D01*
X146830000Y-119299250D01*
X146988750Y-119458000D01*
X148463000Y-119458000D01*
X148463000Y-118558750D01*
X148304250Y-118400000D01*
X147338690Y-118400000D01*
X147105301Y-118496673D01*
X146926673Y-118675302D01*
X146830000Y-118908691D01*
X146506000Y-118908691D01*
X146506000Y-116920750D01*
X146830000Y-116920750D01*
X146830000Y-117311309D01*
X146926673Y-117544698D01*
X147105301Y-117723327D01*
X147338690Y-117820000D01*
X148304250Y-117820000D01*
X148463000Y-117661250D01*
X148463000Y-116762000D01*
X146988750Y-116762000D01*
X146830000Y-116920750D01*
X146506000Y-116920750D01*
X146506000Y-103632000D01*
X148001408Y-103632000D01*
X148360536Y-103991128D01*
X148360536Y-103991128D01*
G37*
X148360536Y-103991128D02*
X148360536Y-105146000D01*
X148387103Y-105287190D01*
X148470546Y-105416865D01*
X148597866Y-105503859D01*
X148749000Y-105534464D01*
X150249000Y-105534464D01*
X150390190Y-105507897D01*
X150519865Y-105424454D01*
X150606859Y-105297134D01*
X150637464Y-105146000D01*
X150637464Y-104011000D01*
X150793408Y-104011000D01*
X150860536Y-104078128D01*
X150860536Y-105146000D01*
X150887103Y-105287190D01*
X150970546Y-105416865D01*
X151097866Y-105503859D01*
X151249000Y-105534464D01*
X151493000Y-105534464D01*
X151493000Y-105601408D01*
X151301408Y-105793000D01*
X148971000Y-105793000D01*
X148777362Y-105831517D01*
X148622489Y-105935000D01*
X148613204Y-105941204D01*
X148252872Y-106301536D01*
X147225000Y-106301536D01*
X147083810Y-106328103D01*
X146954135Y-106411546D01*
X146867141Y-106538866D01*
X146836536Y-106690000D01*
X146836536Y-107940000D01*
X146863103Y-108081190D01*
X146946546Y-108210865D01*
X147073866Y-108297859D01*
X147225000Y-108328464D01*
X148076096Y-108328464D01*
X148589168Y-108841536D01*
X148201864Y-108841536D01*
X148068638Y-108752517D01*
X147875000Y-108714000D01*
X147681362Y-108752517D01*
X147548136Y-108841536D01*
X147225000Y-108841536D01*
X147083810Y-108868103D01*
X146954135Y-108951546D01*
X146867141Y-109078866D01*
X146836536Y-109230000D01*
X146836536Y-110480000D01*
X146863103Y-110621190D01*
X146946546Y-110750865D01*
X147073866Y-110837859D01*
X147225000Y-110868464D01*
X147369000Y-110868464D01*
X147369000Y-111356536D01*
X147125000Y-111356536D01*
X146983810Y-111383103D01*
X146854135Y-111466546D01*
X146767141Y-111593866D01*
X146736536Y-111745000D01*
X146736536Y-113045000D01*
X146763103Y-113186190D01*
X146846546Y-113315865D01*
X146973866Y-113402859D01*
X147125000Y-113433464D01*
X147369000Y-113433464D01*
X147369000Y-113896536D01*
X147125000Y-113896536D01*
X146983810Y-113923103D01*
X146854135Y-114006546D01*
X146767141Y-114133866D01*
X146736536Y-114285000D01*
X146736536Y-115585000D01*
X146763103Y-115726190D01*
X146846546Y-115855865D01*
X146866847Y-115869736D01*
X146830000Y-115958691D01*
X146830000Y-116349250D01*
X146988750Y-116508000D01*
X148463000Y-116508000D01*
X148463000Y-116488000D01*
X148717000Y-116488000D01*
X148717000Y-116508000D01*
X148737000Y-116508000D01*
X148737000Y-116762000D01*
X148717000Y-116762000D01*
X148717000Y-117661250D01*
X148875750Y-117820000D01*
X149201536Y-117820000D01*
X149201536Y-118400000D01*
X148875750Y-118400000D01*
X148717000Y-118558750D01*
X148717000Y-119458000D01*
X150191250Y-119458000D01*
X150350000Y-119299250D01*
X150350000Y-119023464D01*
X150690000Y-119023464D01*
X150831190Y-118996897D01*
X150960865Y-118913454D01*
X151047859Y-118786134D01*
X151078464Y-118635000D01*
X151078464Y-118042749D01*
X151081000Y-118030000D01*
X151081000Y-115973464D01*
X151325000Y-115973464D01*
X151466190Y-115946897D01*
X151595865Y-115863454D01*
X151682859Y-115736134D01*
X151713464Y-115585000D01*
X151713464Y-114285000D01*
X151686897Y-114143810D01*
X151603454Y-114014135D01*
X151476134Y-113927141D01*
X151325000Y-113896536D01*
X149825000Y-113896536D01*
X149683810Y-113923103D01*
X149554135Y-114006546D01*
X149467141Y-114133866D01*
X149436536Y-114285000D01*
X149436536Y-115450000D01*
X149013464Y-115450000D01*
X149013464Y-114285000D01*
X148986897Y-114143810D01*
X148903454Y-114014135D01*
X148776134Y-113927141D01*
X148625000Y-113896536D01*
X148381000Y-113896536D01*
X148381000Y-113433464D01*
X148625000Y-113433464D01*
X148766190Y-113406897D01*
X148895865Y-113323454D01*
X148982859Y-113196134D01*
X149013464Y-113045000D01*
X149013464Y-112102803D01*
X149215946Y-112186882D01*
X149436536Y-112187074D01*
X149436536Y-113045000D01*
X149463103Y-113186190D01*
X149546546Y-113315865D01*
X149673866Y-113402859D01*
X149825000Y-113433464D01*
X151325000Y-113433464D01*
X151466190Y-113406897D01*
X151595865Y-113323454D01*
X151682859Y-113196134D01*
X151713464Y-113045000D01*
X151713464Y-111745000D01*
X151686897Y-111603810D01*
X151603454Y-111474135D01*
X151476134Y-111387141D01*
X151325000Y-111356536D01*
X151081000Y-111356536D01*
X151081000Y-111205000D01*
X151042483Y-111011362D01*
X150981000Y-110919346D01*
X150981000Y-110868464D01*
X151225000Y-110868464D01*
X151366190Y-110841897D01*
X151495865Y-110758454D01*
X151582859Y-110631134D01*
X151613464Y-110480000D01*
X151613464Y-109833833D01*
X151699815Y-109920184D01*
X151904526Y-110056968D01*
X151944589Y-110064937D01*
X152146000Y-110105000D01*
X152773632Y-110105000D01*
X153449816Y-110781184D01*
X153654527Y-110917968D01*
X153896000Y-110966000D01*
X154137474Y-110917968D01*
X154252664Y-110841000D01*
X154281068Y-110841000D01*
X154386029Y-110862255D01*
X154385882Y-111031265D01*
X154489339Y-111281652D01*
X154680741Y-111473387D01*
X154930946Y-111577282D01*
X155201865Y-111577518D01*
X155452252Y-111474061D01*
X155643987Y-111282659D01*
X155747882Y-111032454D01*
X155748049Y-110841000D01*
X155780800Y-110841000D01*
X155974438Y-110802483D01*
X156138596Y-110692796D01*
X156320828Y-110510564D01*
X156497265Y-110510718D01*
X156747652Y-110407261D01*
X156939387Y-110215859D01*
X156951158Y-110187512D01*
X157119141Y-110355787D01*
X157369346Y-110459682D01*
X157640265Y-110459918D01*
X157890652Y-110356461D01*
X158082387Y-110165059D01*
X158186282Y-109914854D01*
X158186340Y-109848051D01*
X159139065Y-110681685D01*
X159062000Y-110758750D01*
X159062000Y-110984551D01*
X158994141Y-111083866D01*
X158992551Y-111091718D01*
X158922000Y-110982078D01*
X158922000Y-110758750D01*
X158763250Y-110600000D01*
X158725690Y-110600000D01*
X158492301Y-110696673D01*
X158492000Y-110696974D01*
X158491699Y-110696673D01*
X158258310Y-110600000D01*
X158220750Y-110600000D01*
X158062000Y-110758750D01*
X158062000Y-110984551D01*
X157994141Y-111083866D01*
X157992551Y-111091718D01*
X157922000Y-110982078D01*
X157922000Y-110758750D01*
X157763250Y-110600000D01*
X157725690Y-110600000D01*
X157492301Y-110696673D01*
X157492000Y-110696974D01*
X157491699Y-110696673D01*
X157258310Y-110600000D01*
X157220750Y-110600000D01*
X157062000Y-110758750D01*
X157062000Y-110984551D01*
X156994141Y-111083866D01*
X156992551Y-111091718D01*
X156922000Y-110982078D01*
X156922000Y-110758750D01*
X156763250Y-110600000D01*
X156725690Y-110600000D01*
X156492301Y-110696673D01*
X156340223Y-110848752D01*
X156210810Y-110873103D01*
X156081135Y-110956546D01*
X155994141Y-111083866D01*
X155963536Y-111235000D01*
X155963536Y-112435000D01*
X155986000Y-112554385D01*
X155986000Y-115078408D01*
X155921439Y-115142969D01*
X155821135Y-115142882D01*
X155570748Y-115246339D01*
X155379013Y-115437741D01*
X155275118Y-115687946D01*
X155274882Y-115958865D01*
X155378339Y-116209252D01*
X155569741Y-116400987D01*
X155819946Y-116504882D01*
X156090865Y-116505118D01*
X156341252Y-116401661D01*
X156532987Y-116210259D01*
X156636882Y-115960054D01*
X156636970Y-115858622D01*
X156849796Y-115645796D01*
X156959483Y-115481638D01*
X156986000Y-115348328D01*
X156986000Y-116364408D01*
X155852204Y-117498204D01*
X155742517Y-117662362D01*
X155704000Y-117856000D01*
X155704000Y-118796536D01*
X155560000Y-118796536D01*
X155418810Y-118823103D01*
X155289135Y-118906546D01*
X155202141Y-119033866D01*
X155171536Y-119185000D01*
X155171536Y-119429000D01*
X155020000Y-119429000D01*
X154826362Y-119467517D01*
X154662204Y-119577204D01*
X154075408Y-120164000D01*
X154048464Y-120164000D01*
X154048464Y-119920000D01*
X154021897Y-119778810D01*
X153938454Y-119649135D01*
X153811134Y-119562141D01*
X153660000Y-119531536D01*
X152439453Y-119531536D01*
X152445882Y-119516054D01*
X152446118Y-119245135D01*
X152342661Y-118994748D01*
X152151259Y-118803013D01*
X151901054Y-118699118D01*
X151630135Y-118698882D01*
X151379748Y-118802339D01*
X151188013Y-118993741D01*
X151084118Y-119243946D01*
X151083882Y-119514865D01*
X151187339Y-119765252D01*
X151259000Y-119837038D01*
X151259000Y-120154360D01*
X151199661Y-120010748D01*
X151008259Y-119819013D01*
X150758054Y-119715118D01*
X150487135Y-119714882D01*
X150279800Y-119800550D01*
X150191250Y-119712000D01*
X148717000Y-119712000D01*
X148717000Y-119732000D01*
X148463000Y-119732000D01*
X148463000Y-119712000D01*
X146988750Y-119712000D01*
X146830000Y-119870750D01*
X146830000Y-120261309D01*
X146926673Y-120494698D01*
X147066974Y-120635000D01*
X146998691Y-120635000D01*
X146765302Y-120731673D01*
X146586673Y-120910301D01*
X146506000Y-121105063D01*
X146506000Y-118908691D01*
X146830000Y-118908691D01*
X146830000Y-119299250D01*
X146988750Y-119458000D01*
X148463000Y-119458000D01*
X148463000Y-118558750D01*
X148304250Y-118400000D01*
X147338690Y-118400000D01*
X147105301Y-118496673D01*
X146926673Y-118675302D01*
X146830000Y-118908691D01*
X146506000Y-118908691D01*
X146506000Y-116920750D01*
X146830000Y-116920750D01*
X146830000Y-117311309D01*
X146926673Y-117544698D01*
X147105301Y-117723327D01*
X147338690Y-117820000D01*
X148304250Y-117820000D01*
X148463000Y-117661250D01*
X148463000Y-116762000D01*
X146988750Y-116762000D01*
X146830000Y-116920750D01*
X146506000Y-116920750D01*
X146506000Y-103632000D01*
X148001408Y-103632000D01*
X148360536Y-103991128D01*
G36*
X157986000Y-118817987D02*
X157958810Y-118823103D01*
X157829135Y-118906546D01*
X157742141Y-119033866D01*
X157711536Y-119185000D01*
X157711536Y-120685000D01*
X157738103Y-120826190D01*
X157776936Y-120886539D01*
X157673638Y-120817517D01*
X157480000Y-120779000D01*
X157229429Y-120779000D01*
X157248464Y-120685000D01*
X157248464Y-119185000D01*
X157221897Y-119043810D01*
X157138454Y-118914135D01*
X157011134Y-118827141D01*
X156860000Y-118796536D01*
X156716000Y-118796536D01*
X156716000Y-118065592D01*
X157849796Y-116931796D01*
X157959483Y-116767638D01*
X157986000Y-116634328D01*
X157986000Y-118817987D01*
X157986000Y-118817987D01*
G37*
X157986000Y-118817987D02*
X157958810Y-118823103D01*
X157829135Y-118906546D01*
X157742141Y-119033866D01*
X157711536Y-119185000D01*
X157711536Y-120685000D01*
X157738103Y-120826190D01*
X157776936Y-120886539D01*
X157673638Y-120817517D01*
X157480000Y-120779000D01*
X157229429Y-120779000D01*
X157248464Y-120685000D01*
X157248464Y-119185000D01*
X157221897Y-119043810D01*
X157138454Y-118914135D01*
X157011134Y-118827141D01*
X156860000Y-118796536D01*
X156716000Y-118796536D01*
X156716000Y-118065592D01*
X157849796Y-116931796D01*
X157959483Y-116767638D01*
X157986000Y-116634328D01*
X157986000Y-118817987D01*
G36*
X153347013Y-108452741D02*
X153243118Y-108702946D01*
X153242960Y-108884366D01*
X153035000Y-108843000D01*
X152407369Y-108843000D01*
X152398802Y-108834434D01*
X152445882Y-108721054D01*
X152446118Y-108450135D01*
X152401025Y-108341000D01*
X153458948Y-108341000D01*
X153347013Y-108452741D01*
X153347013Y-108452741D01*
G37*
X153347013Y-108452741D02*
X153243118Y-108702946D01*
X153242960Y-108884366D01*
X153035000Y-108843000D01*
X152407369Y-108843000D01*
X152398802Y-108834434D01*
X152445882Y-108721054D01*
X152446118Y-108450135D01*
X152401025Y-108341000D01*
X153458948Y-108341000D01*
X153347013Y-108452741D01*
G36*
X152842816Y-105602184D02*
X152908000Y-105667368D01*
X152908000Y-107329000D01*
X151613464Y-107329000D01*
X151613464Y-106784619D01*
X151704638Y-106766483D01*
X151868796Y-106656796D01*
X152356796Y-106168796D01*
X152466483Y-106004638D01*
X152505000Y-105811000D01*
X152505000Y-105534464D01*
X152749000Y-105534464D01*
X152792143Y-105526346D01*
X152842816Y-105602184D01*
X152842816Y-105602184D01*
G37*
X152842816Y-105602184D02*
X152908000Y-105667368D01*
X152908000Y-107329000D01*
X151613464Y-107329000D01*
X151613464Y-106784619D01*
X151704638Y-106766483D01*
X151868796Y-106656796D01*
X152356796Y-106168796D01*
X152466483Y-106004638D01*
X152505000Y-105811000D01*
X152505000Y-105534464D01*
X152749000Y-105534464D01*
X152792143Y-105526346D01*
X152842816Y-105602184D01*
G36*
X173484000Y-122345408D02*
X173026898Y-122802510D01*
X172617117Y-122721000D01*
X172568883Y-122721000D01*
X172097800Y-122814704D01*
X171698435Y-123081552D01*
X171431587Y-123480917D01*
X171337883Y-123952000D01*
X171431587Y-124423083D01*
X171698435Y-124822448D01*
X172097800Y-125089296D01*
X172568883Y-125183000D01*
X172617117Y-125183000D01*
X173088200Y-125089296D01*
X173487565Y-124822448D01*
X173754413Y-124423083D01*
X173848117Y-123952000D01*
X173758604Y-123501988D01*
X174169000Y-123091592D01*
X174169000Y-143054000D01*
X168783000Y-143054000D01*
X168783000Y-141732000D01*
X168797883Y-141732000D01*
X168891587Y-142203083D01*
X169158435Y-142602448D01*
X169557800Y-142869296D01*
X170028883Y-142963000D01*
X170077117Y-142963000D01*
X170548200Y-142869296D01*
X170947565Y-142602448D01*
X171214413Y-142203083D01*
X171308117Y-141732000D01*
X171337883Y-141732000D01*
X171431587Y-142203083D01*
X171698435Y-142602448D01*
X172097800Y-142869296D01*
X172568883Y-142963000D01*
X172617117Y-142963000D01*
X173088200Y-142869296D01*
X173487565Y-142602448D01*
X173754413Y-142203083D01*
X173848117Y-141732000D01*
X173754413Y-141260917D01*
X173487565Y-140861552D01*
X173088200Y-140594704D01*
X172617117Y-140501000D01*
X172568883Y-140501000D01*
X172097800Y-140594704D01*
X171698435Y-140861552D01*
X171431587Y-141260917D01*
X171337883Y-141732000D01*
X171308117Y-141732000D01*
X171214413Y-141260917D01*
X170947565Y-140861552D01*
X170548200Y-140594704D01*
X170077117Y-140501000D01*
X170028883Y-140501000D01*
X169557800Y-140594704D01*
X169158435Y-140861552D01*
X168891587Y-141260917D01*
X168797883Y-141732000D01*
X168783000Y-141732000D01*
X168783000Y-139192000D01*
X168797883Y-139192000D01*
X168891587Y-139663083D01*
X169158435Y-140062448D01*
X169557800Y-140329296D01*
X170028883Y-140423000D01*
X170077117Y-140423000D01*
X170548200Y-140329296D01*
X170947565Y-140062448D01*
X171214413Y-139663083D01*
X171308117Y-139192000D01*
X171214413Y-138720917D01*
X170947565Y-138321552D01*
X170548200Y-138054704D01*
X170077117Y-137961000D01*
X170028883Y-137961000D01*
X169557800Y-138054704D01*
X169158435Y-138321552D01*
X168891587Y-138720917D01*
X168797883Y-139192000D01*
X168783000Y-139192000D01*
X168783000Y-134112000D01*
X168797883Y-134112000D01*
X168891587Y-134583083D01*
X169158435Y-134982448D01*
X169557800Y-135249296D01*
X170028883Y-135343000D01*
X170077117Y-135343000D01*
X170548200Y-135249296D01*
X170947565Y-134982448D01*
X171214413Y-134583083D01*
X171308117Y-134112000D01*
X171214413Y-133640917D01*
X170947565Y-133241552D01*
X170548200Y-132974704D01*
X170077117Y-132881000D01*
X170028883Y-132881000D01*
X169557800Y-132974704D01*
X169158435Y-133241552D01*
X168891587Y-133640917D01*
X168797883Y-134112000D01*
X168783000Y-134112000D01*
X168783000Y-131572000D01*
X168797883Y-131572000D01*
X168891587Y-132043083D01*
X169158435Y-132442448D01*
X169557800Y-132709296D01*
X170028883Y-132803000D01*
X170077117Y-132803000D01*
X170548200Y-132709296D01*
X170947565Y-132442448D01*
X171204788Y-132057488D01*
X171321355Y-132338924D01*
X171711642Y-132767183D01*
X172136947Y-132966917D01*
X172097800Y-132974704D01*
X171698435Y-133241552D01*
X171431587Y-133640917D01*
X171337883Y-134112000D01*
X171431587Y-134583083D01*
X171698435Y-134982448D01*
X172097800Y-135249296D01*
X172136947Y-135257083D01*
X171711642Y-135456817D01*
X171321355Y-135885076D01*
X171204788Y-136166512D01*
X170947565Y-135781552D01*
X170548200Y-135514704D01*
X170077117Y-135421000D01*
X170028883Y-135421000D01*
X169557800Y-135514704D01*
X169158435Y-135781552D01*
X168891587Y-136180917D01*
X168797883Y-136652000D01*
X168891587Y-137123083D01*
X169158435Y-137522448D01*
X169557800Y-137789296D01*
X170028883Y-137883000D01*
X170077117Y-137883000D01*
X170548200Y-137789296D01*
X170947565Y-137522448D01*
X171204788Y-137137488D01*
X171321355Y-137418924D01*
X171711642Y-137847183D01*
X172136947Y-138046917D01*
X172097800Y-138054704D01*
X171698435Y-138321552D01*
X171431587Y-138720917D01*
X171337883Y-139192000D01*
X171431587Y-139663083D01*
X171698435Y-140062448D01*
X172097800Y-140329296D01*
X172568883Y-140423000D01*
X172617117Y-140423000D01*
X173088200Y-140329296D01*
X173487565Y-140062448D01*
X173754413Y-139663083D01*
X173848117Y-139192000D01*
X173754413Y-138720917D01*
X173487565Y-138321552D01*
X173088200Y-138054704D01*
X173049053Y-138046917D01*
X173474358Y-137847183D01*
X173864645Y-137418924D01*
X174034476Y-137008890D01*
X173913155Y-136779000D01*
X172720000Y-136779000D01*
X172720000Y-136799000D01*
X172466000Y-136799000D01*
X172466000Y-136779000D01*
X172446000Y-136779000D01*
X172446000Y-136525000D01*
X172466000Y-136525000D01*
X172466000Y-136505000D01*
X172720000Y-136505000D01*
X172720000Y-136525000D01*
X173913155Y-136525000D01*
X174034476Y-136295110D01*
X173864645Y-135885076D01*
X173474358Y-135456817D01*
X173049053Y-135257083D01*
X173088200Y-135249296D01*
X173487565Y-134982448D01*
X173754413Y-134583083D01*
X173848117Y-134112000D01*
X173754413Y-133640917D01*
X173487565Y-133241552D01*
X173088200Y-132974704D01*
X173049053Y-132966917D01*
X173474358Y-132767183D01*
X173864645Y-132338924D01*
X174034476Y-131928890D01*
X173913155Y-131699000D01*
X172720000Y-131699000D01*
X172720000Y-131719000D01*
X172466000Y-131719000D01*
X172466000Y-131699000D01*
X172446000Y-131699000D01*
X172446000Y-131445000D01*
X172466000Y-131445000D01*
X172466000Y-131425000D01*
X172720000Y-131425000D01*
X172720000Y-131445000D01*
X173913155Y-131445000D01*
X174034476Y-131215110D01*
X173864645Y-130805076D01*
X173474358Y-130376817D01*
X173049053Y-130177083D01*
X173088200Y-130169296D01*
X173487565Y-129902448D01*
X173754413Y-129503083D01*
X173848117Y-129032000D01*
X173754413Y-128560917D01*
X173487565Y-128161552D01*
X173088200Y-127894704D01*
X172617117Y-127801000D01*
X172568883Y-127801000D01*
X172097800Y-127894704D01*
X171698435Y-128161552D01*
X171431587Y-128560917D01*
X171337883Y-129032000D01*
X171431587Y-129503083D01*
X171698435Y-129902448D01*
X172097800Y-130169296D01*
X172136947Y-130177083D01*
X171711642Y-130376817D01*
X171321355Y-130805076D01*
X171204788Y-131086512D01*
X170947565Y-130701552D01*
X170548200Y-130434704D01*
X170077117Y-130341000D01*
X170028883Y-130341000D01*
X169557800Y-130434704D01*
X169158435Y-130701552D01*
X168891587Y-131100917D01*
X168797883Y-131572000D01*
X168783000Y-131572000D01*
X168783000Y-127260729D01*
X169171642Y-127687183D01*
X169596947Y-127886917D01*
X169557800Y-127894704D01*
X169158435Y-128161552D01*
X168891587Y-128560917D01*
X168797883Y-129032000D01*
X168891587Y-129503083D01*
X169158435Y-129902448D01*
X169557800Y-130169296D01*
X170028883Y-130263000D01*
X170077117Y-130263000D01*
X170548200Y-130169296D01*
X170947565Y-129902448D01*
X171214413Y-129503083D01*
X171308117Y-129032000D01*
X171214413Y-128560917D01*
X170947565Y-128161552D01*
X170548200Y-127894704D01*
X170509053Y-127886917D01*
X170934358Y-127687183D01*
X171324645Y-127258924D01*
X171441212Y-126977488D01*
X171698435Y-127362448D01*
X172097800Y-127629296D01*
X172568883Y-127723000D01*
X172617117Y-127723000D01*
X173088200Y-127629296D01*
X173487565Y-127362448D01*
X173754413Y-126963083D01*
X173848117Y-126492000D01*
X173754413Y-126020917D01*
X173487565Y-125621552D01*
X173088200Y-125354704D01*
X172617117Y-125261000D01*
X172568883Y-125261000D01*
X172097800Y-125354704D01*
X171698435Y-125621552D01*
X171441212Y-126006512D01*
X171324645Y-125725076D01*
X170934358Y-125296817D01*
X170509053Y-125097083D01*
X170548200Y-125089296D01*
X170947565Y-124822448D01*
X171214413Y-124423083D01*
X171308117Y-123952000D01*
X171218604Y-123501988D01*
X171680796Y-123039796D01*
X171790483Y-122875638D01*
X171829000Y-122682000D01*
X171829000Y-122369689D01*
X172097800Y-122549296D01*
X172568883Y-122643000D01*
X172617117Y-122643000D01*
X173088200Y-122549296D01*
X173484000Y-122284830D01*
X173484000Y-122345408D01*
X173484000Y-122345408D01*
G37*
X173484000Y-122345408D02*
X173026898Y-122802510D01*
X172617117Y-122721000D01*
X172568883Y-122721000D01*
X172097800Y-122814704D01*
X171698435Y-123081552D01*
X171431587Y-123480917D01*
X171337883Y-123952000D01*
X171431587Y-124423083D01*
X171698435Y-124822448D01*
X172097800Y-125089296D01*
X172568883Y-125183000D01*
X172617117Y-125183000D01*
X173088200Y-125089296D01*
X173487565Y-124822448D01*
X173754413Y-124423083D01*
X173848117Y-123952000D01*
X173758604Y-123501988D01*
X174169000Y-123091592D01*
X174169000Y-143054000D01*
X168783000Y-143054000D01*
X168783000Y-141732000D01*
X168797883Y-141732000D01*
X168891587Y-142203083D01*
X169158435Y-142602448D01*
X169557800Y-142869296D01*
X170028883Y-142963000D01*
X170077117Y-142963000D01*
X170548200Y-142869296D01*
X170947565Y-142602448D01*
X171214413Y-142203083D01*
X171308117Y-141732000D01*
X171337883Y-141732000D01*
X171431587Y-142203083D01*
X171698435Y-142602448D01*
X172097800Y-142869296D01*
X172568883Y-142963000D01*
X172617117Y-142963000D01*
X173088200Y-142869296D01*
X173487565Y-142602448D01*
X173754413Y-142203083D01*
X173848117Y-141732000D01*
X173754413Y-141260917D01*
X173487565Y-140861552D01*
X173088200Y-140594704D01*
X172617117Y-140501000D01*
X172568883Y-140501000D01*
X172097800Y-140594704D01*
X171698435Y-140861552D01*
X171431587Y-141260917D01*
X171337883Y-141732000D01*
X171308117Y-141732000D01*
X171214413Y-141260917D01*
X170947565Y-140861552D01*
X170548200Y-140594704D01*
X170077117Y-140501000D01*
X170028883Y-140501000D01*
X169557800Y-140594704D01*
X169158435Y-140861552D01*
X168891587Y-141260917D01*
X168797883Y-141732000D01*
X168783000Y-141732000D01*
X168783000Y-139192000D01*
X168797883Y-139192000D01*
X168891587Y-139663083D01*
X169158435Y-140062448D01*
X169557800Y-140329296D01*
X170028883Y-140423000D01*
X170077117Y-140423000D01*
X170548200Y-140329296D01*
X170947565Y-140062448D01*
X171214413Y-139663083D01*
X171308117Y-139192000D01*
X171214413Y-138720917D01*
X170947565Y-138321552D01*
X170548200Y-138054704D01*
X170077117Y-137961000D01*
X170028883Y-137961000D01*
X169557800Y-138054704D01*
X169158435Y-138321552D01*
X168891587Y-138720917D01*
X168797883Y-139192000D01*
X168783000Y-139192000D01*
X168783000Y-134112000D01*
X168797883Y-134112000D01*
X168891587Y-134583083D01*
X169158435Y-134982448D01*
X169557800Y-135249296D01*
X170028883Y-135343000D01*
X170077117Y-135343000D01*
X170548200Y-135249296D01*
X170947565Y-134982448D01*
X171214413Y-134583083D01*
X171308117Y-134112000D01*
X171214413Y-133640917D01*
X170947565Y-133241552D01*
X170548200Y-132974704D01*
X170077117Y-132881000D01*
X170028883Y-132881000D01*
X169557800Y-132974704D01*
X169158435Y-133241552D01*
X168891587Y-133640917D01*
X168797883Y-134112000D01*
X168783000Y-134112000D01*
X168783000Y-131572000D01*
X168797883Y-131572000D01*
X168891587Y-132043083D01*
X169158435Y-132442448D01*
X169557800Y-132709296D01*
X170028883Y-132803000D01*
X170077117Y-132803000D01*
X170548200Y-132709296D01*
X170947565Y-132442448D01*
X171204788Y-132057488D01*
X171321355Y-132338924D01*
X171711642Y-132767183D01*
X172136947Y-132966917D01*
X172097800Y-132974704D01*
X171698435Y-133241552D01*
X171431587Y-133640917D01*
X171337883Y-134112000D01*
X171431587Y-134583083D01*
X171698435Y-134982448D01*
X172097800Y-135249296D01*
X172136947Y-135257083D01*
X171711642Y-135456817D01*
X171321355Y-135885076D01*
X171204788Y-136166512D01*
X170947565Y-135781552D01*
X170548200Y-135514704D01*
X170077117Y-135421000D01*
X170028883Y-135421000D01*
X169557800Y-135514704D01*
X169158435Y-135781552D01*
X168891587Y-136180917D01*
X168797883Y-136652000D01*
X168891587Y-137123083D01*
X169158435Y-137522448D01*
X169557800Y-137789296D01*
X170028883Y-137883000D01*
X170077117Y-137883000D01*
X170548200Y-137789296D01*
X170947565Y-137522448D01*
X171204788Y-137137488D01*
X171321355Y-137418924D01*
X171711642Y-137847183D01*
X172136947Y-138046917D01*
X172097800Y-138054704D01*
X171698435Y-138321552D01*
X171431587Y-138720917D01*
X171337883Y-139192000D01*
X171431587Y-139663083D01*
X171698435Y-140062448D01*
X172097800Y-140329296D01*
X172568883Y-140423000D01*
X172617117Y-140423000D01*
X173088200Y-140329296D01*
X173487565Y-140062448D01*
X173754413Y-139663083D01*
X173848117Y-139192000D01*
X173754413Y-138720917D01*
X173487565Y-138321552D01*
X173088200Y-138054704D01*
X173049053Y-138046917D01*
X173474358Y-137847183D01*
X173864645Y-137418924D01*
X174034476Y-137008890D01*
X173913155Y-136779000D01*
X172720000Y-136779000D01*
X172720000Y-136799000D01*
X172466000Y-136799000D01*
X172466000Y-136779000D01*
X172446000Y-136779000D01*
X172446000Y-136525000D01*
X172466000Y-136525000D01*
X172466000Y-136505000D01*
X172720000Y-136505000D01*
X172720000Y-136525000D01*
X173913155Y-136525000D01*
X174034476Y-136295110D01*
X173864645Y-135885076D01*
X173474358Y-135456817D01*
X173049053Y-135257083D01*
X173088200Y-135249296D01*
X173487565Y-134982448D01*
X173754413Y-134583083D01*
X173848117Y-134112000D01*
X173754413Y-133640917D01*
X173487565Y-133241552D01*
X173088200Y-132974704D01*
X173049053Y-132966917D01*
X173474358Y-132767183D01*
X173864645Y-132338924D01*
X174034476Y-131928890D01*
X173913155Y-131699000D01*
X172720000Y-131699000D01*
X172720000Y-131719000D01*
X172466000Y-131719000D01*
X172466000Y-131699000D01*
X172446000Y-131699000D01*
X172446000Y-131445000D01*
X172466000Y-131445000D01*
X172466000Y-131425000D01*
X172720000Y-131425000D01*
X172720000Y-131445000D01*
X173913155Y-131445000D01*
X174034476Y-131215110D01*
X173864645Y-130805076D01*
X173474358Y-130376817D01*
X173049053Y-130177083D01*
X173088200Y-130169296D01*
X173487565Y-129902448D01*
X173754413Y-129503083D01*
X173848117Y-129032000D01*
X173754413Y-128560917D01*
X173487565Y-128161552D01*
X173088200Y-127894704D01*
X172617117Y-127801000D01*
X172568883Y-127801000D01*
X172097800Y-127894704D01*
X171698435Y-128161552D01*
X171431587Y-128560917D01*
X171337883Y-129032000D01*
X171431587Y-129503083D01*
X171698435Y-129902448D01*
X172097800Y-130169296D01*
X172136947Y-130177083D01*
X171711642Y-130376817D01*
X171321355Y-130805076D01*
X171204788Y-131086512D01*
X170947565Y-130701552D01*
X170548200Y-130434704D01*
X170077117Y-130341000D01*
X170028883Y-130341000D01*
X169557800Y-130434704D01*
X169158435Y-130701552D01*
X168891587Y-131100917D01*
X168797883Y-131572000D01*
X168783000Y-131572000D01*
X168783000Y-127260729D01*
X169171642Y-127687183D01*
X169596947Y-127886917D01*
X169557800Y-127894704D01*
X169158435Y-128161552D01*
X168891587Y-128560917D01*
X168797883Y-129032000D01*
X168891587Y-129503083D01*
X169158435Y-129902448D01*
X169557800Y-130169296D01*
X170028883Y-130263000D01*
X170077117Y-130263000D01*
X170548200Y-130169296D01*
X170947565Y-129902448D01*
X171214413Y-129503083D01*
X171308117Y-129032000D01*
X171214413Y-128560917D01*
X170947565Y-128161552D01*
X170548200Y-127894704D01*
X170509053Y-127886917D01*
X170934358Y-127687183D01*
X171324645Y-127258924D01*
X171441212Y-126977488D01*
X171698435Y-127362448D01*
X172097800Y-127629296D01*
X172568883Y-127723000D01*
X172617117Y-127723000D01*
X173088200Y-127629296D01*
X173487565Y-127362448D01*
X173754413Y-126963083D01*
X173848117Y-126492000D01*
X173754413Y-126020917D01*
X173487565Y-125621552D01*
X173088200Y-125354704D01*
X172617117Y-125261000D01*
X172568883Y-125261000D01*
X172097800Y-125354704D01*
X171698435Y-125621552D01*
X171441212Y-126006512D01*
X171324645Y-125725076D01*
X170934358Y-125296817D01*
X170509053Y-125097083D01*
X170548200Y-125089296D01*
X170947565Y-124822448D01*
X171214413Y-124423083D01*
X171308117Y-123952000D01*
X171218604Y-123501988D01*
X171680796Y-123039796D01*
X171790483Y-122875638D01*
X171829000Y-122682000D01*
X171829000Y-122369689D01*
X172097800Y-122549296D01*
X172568883Y-122643000D01*
X172617117Y-122643000D01*
X173088200Y-122549296D01*
X173484000Y-122284830D01*
X173484000Y-122345408D01*
G36*
X170180000Y-126365000D02*
X170200000Y-126365000D01*
X170200000Y-126619000D01*
X170180000Y-126619000D01*
X170180000Y-126639000D01*
X169926000Y-126639000D01*
X169926000Y-126619000D01*
X169906000Y-126619000D01*
X169906000Y-126365000D01*
X169926000Y-126365000D01*
X169926000Y-126345000D01*
X170180000Y-126345000D01*
X170180000Y-126365000D01*
X170180000Y-126365000D01*
G37*
X170180000Y-126365000D02*
X170200000Y-126365000D01*
X170200000Y-126619000D01*
X170180000Y-126619000D01*
X170180000Y-126639000D01*
X169926000Y-126639000D01*
X169926000Y-126619000D01*
X169906000Y-126619000D01*
X169906000Y-126365000D01*
X169926000Y-126365000D01*
X169926000Y-126345000D01*
X170180000Y-126345000D01*
X170180000Y-126365000D01*
G36*
X172720000Y-118745000D02*
X172740000Y-118745000D01*
X172740000Y-118999000D01*
X172720000Y-118999000D01*
X172720000Y-119019000D01*
X172466000Y-119019000D01*
X172466000Y-118999000D01*
X172446000Y-118999000D01*
X172446000Y-118745000D01*
X172466000Y-118745000D01*
X172466000Y-118725000D01*
X172720000Y-118725000D01*
X172720000Y-118745000D01*
X172720000Y-118745000D01*
G37*
X172720000Y-118745000D02*
X172740000Y-118745000D01*
X172740000Y-118999000D01*
X172720000Y-118999000D01*
X172720000Y-119019000D01*
X172466000Y-119019000D01*
X172466000Y-118999000D01*
X172446000Y-118999000D01*
X172446000Y-118745000D01*
X172466000Y-118745000D01*
X172466000Y-118725000D01*
X172720000Y-118725000D01*
X172720000Y-118745000D01*
G36*
X168552204Y-107799796D02*
X168716362Y-107909483D01*
X168910000Y-107948000D01*
X169087308Y-107948000D01*
X168914918Y-108206000D01*
X168529000Y-108206000D01*
X168335362Y-108244517D01*
X168171204Y-108354204D01*
X167522627Y-109002781D01*
X167478454Y-108934135D01*
X167351134Y-108847141D01*
X167200000Y-108816536D01*
X165700000Y-108816536D01*
X165558810Y-108843103D01*
X165429135Y-108926546D01*
X165342141Y-109053866D01*
X165311536Y-109205000D01*
X165311536Y-110505000D01*
X165338103Y-110646190D01*
X165421546Y-110775865D01*
X165548866Y-110862859D01*
X165700000Y-110893464D01*
X167200000Y-110893464D01*
X167341190Y-110866897D01*
X167470865Y-110783454D01*
X167557859Y-110656134D01*
X167588464Y-110505000D01*
X167588464Y-110316586D01*
X167743796Y-110212796D01*
X168738592Y-109218000D01*
X168914918Y-109218000D01*
X169096306Y-109489465D01*
X168970362Y-109514517D01*
X168806204Y-109624204D01*
X167663204Y-110767204D01*
X167553517Y-110931362D01*
X167515000Y-111125000D01*
X167515000Y-111149929D01*
X167478454Y-111093135D01*
X167351134Y-111006141D01*
X167200000Y-110975536D01*
X165700000Y-110975536D01*
X165558810Y-111002103D01*
X165429135Y-111085546D01*
X165342141Y-111212866D01*
X165311536Y-111364000D01*
X165311536Y-112664000D01*
X165338103Y-112805190D01*
X165421546Y-112934865D01*
X165548866Y-113021859D01*
X165700000Y-113052464D01*
X167200000Y-113052464D01*
X167341190Y-113025897D01*
X167470865Y-112942454D01*
X167557859Y-112815134D01*
X167588464Y-112664000D01*
X167588464Y-112520000D01*
X167767000Y-112520000D01*
X167960638Y-112481483D01*
X168124796Y-112371796D01*
X168378796Y-112117796D01*
X168488483Y-111953638D01*
X168527000Y-111760000D01*
X168527000Y-111334592D01*
X168844636Y-111016956D01*
X168797883Y-111252000D01*
X168887396Y-111702012D01*
X167394581Y-113194827D01*
X167351134Y-113165141D01*
X167200000Y-113134536D01*
X165700000Y-113134536D01*
X165558810Y-113161103D01*
X165429135Y-113244546D01*
X165342141Y-113371866D01*
X165311536Y-113523000D01*
X165311536Y-114823000D01*
X165338103Y-114964190D01*
X165421546Y-115093865D01*
X165548866Y-115180859D01*
X165584997Y-115188176D01*
X165558810Y-115193103D01*
X165429135Y-115276546D01*
X165342141Y-115403866D01*
X165311536Y-115555000D01*
X165311536Y-116627872D01*
X165123204Y-116816204D01*
X165013517Y-116980362D01*
X164975000Y-117174000D01*
X164975000Y-117350281D01*
X164841748Y-117405339D01*
X164650013Y-117596741D01*
X164546118Y-117846946D01*
X164545882Y-118117865D01*
X164554223Y-118138051D01*
X163120553Y-117486383D01*
X163068000Y-117475000D01*
X161671000Y-117475000D01*
X161671000Y-113861069D01*
X161694204Y-113895796D01*
X161927000Y-114128592D01*
X161927000Y-115697000D01*
X161965517Y-115890638D01*
X162075204Y-116054796D01*
X162583204Y-116562796D01*
X162611536Y-116581727D01*
X162611536Y-116855000D01*
X162638103Y-116996190D01*
X162721546Y-117125865D01*
X162848866Y-117212859D01*
X163000000Y-117243464D01*
X164500000Y-117243464D01*
X164641190Y-117216897D01*
X164770865Y-117133454D01*
X164857859Y-117006134D01*
X164888464Y-116855000D01*
X164888464Y-115555000D01*
X164861897Y-115413810D01*
X164778454Y-115284135D01*
X164651134Y-115197141D01*
X164615003Y-115189824D01*
X164641190Y-115184897D01*
X164770865Y-115101454D01*
X164857859Y-114974134D01*
X164888464Y-114823000D01*
X164888464Y-113523000D01*
X164861897Y-113381810D01*
X164778454Y-113252135D01*
X164651134Y-113165141D01*
X164500000Y-113134536D01*
X163427128Y-113134536D01*
X163345056Y-113052464D01*
X164500000Y-113052464D01*
X164641190Y-113025897D01*
X164770865Y-112942454D01*
X164857859Y-112815134D01*
X164888464Y-112664000D01*
X164888464Y-111364000D01*
X164861897Y-111222810D01*
X164778454Y-111093135D01*
X164651134Y-111006141D01*
X164500000Y-110975536D01*
X163427128Y-110975536D01*
X163345056Y-110893464D01*
X164500000Y-110893464D01*
X164641190Y-110866897D01*
X164770865Y-110783454D01*
X164857859Y-110656134D01*
X164888464Y-110505000D01*
X164888464Y-109205000D01*
X164861897Y-109063810D01*
X164778454Y-108934135D01*
X164651134Y-108847141D01*
X164500000Y-108816536D01*
X164182989Y-108816536D01*
X164193405Y-108814464D01*
X165344000Y-108814464D01*
X165485190Y-108787897D01*
X165614865Y-108704454D01*
X165701859Y-108577134D01*
X165732464Y-108426000D01*
X165732464Y-106926000D01*
X165705897Y-106784810D01*
X165622454Y-106655135D01*
X165495134Y-106568141D01*
X165459870Y-106561000D01*
X165470310Y-106561000D01*
X165703699Y-106464327D01*
X165882327Y-106285698D01*
X165979000Y-106052309D01*
X165979000Y-105461750D01*
X165820252Y-105303002D01*
X165979000Y-105303002D01*
X165979000Y-105226592D01*
X168552204Y-107799796D01*
X168552204Y-107799796D01*
G37*
X168552204Y-107799796D02*
X168716362Y-107909483D01*
X168910000Y-107948000D01*
X169087308Y-107948000D01*
X168914918Y-108206000D01*
X168529000Y-108206000D01*
X168335362Y-108244517D01*
X168171204Y-108354204D01*
X167522627Y-109002781D01*
X167478454Y-108934135D01*
X167351134Y-108847141D01*
X167200000Y-108816536D01*
X165700000Y-108816536D01*
X165558810Y-108843103D01*
X165429135Y-108926546D01*
X165342141Y-109053866D01*
X165311536Y-109205000D01*
X165311536Y-110505000D01*
X165338103Y-110646190D01*
X165421546Y-110775865D01*
X165548866Y-110862859D01*
X165700000Y-110893464D01*
X167200000Y-110893464D01*
X167341190Y-110866897D01*
X167470865Y-110783454D01*
X167557859Y-110656134D01*
X167588464Y-110505000D01*
X167588464Y-110316586D01*
X167743796Y-110212796D01*
X168738592Y-109218000D01*
X168914918Y-109218000D01*
X169096306Y-109489465D01*
X168970362Y-109514517D01*
X168806204Y-109624204D01*
X167663204Y-110767204D01*
X167553517Y-110931362D01*
X167515000Y-111125000D01*
X167515000Y-111149929D01*
X167478454Y-111093135D01*
X167351134Y-111006141D01*
X167200000Y-110975536D01*
X165700000Y-110975536D01*
X165558810Y-111002103D01*
X165429135Y-111085546D01*
X165342141Y-111212866D01*
X165311536Y-111364000D01*
X165311536Y-112664000D01*
X165338103Y-112805190D01*
X165421546Y-112934865D01*
X165548866Y-113021859D01*
X165700000Y-113052464D01*
X167200000Y-113052464D01*
X167341190Y-113025897D01*
X167470865Y-112942454D01*
X167557859Y-112815134D01*
X167588464Y-112664000D01*
X167588464Y-112520000D01*
X167767000Y-112520000D01*
X167960638Y-112481483D01*
X168124796Y-112371796D01*
X168378796Y-112117796D01*
X168488483Y-111953638D01*
X168527000Y-111760000D01*
X168527000Y-111334592D01*
X168844636Y-111016956D01*
X168797883Y-111252000D01*
X168887396Y-111702012D01*
X167394581Y-113194827D01*
X167351134Y-113165141D01*
X167200000Y-113134536D01*
X165700000Y-113134536D01*
X165558810Y-113161103D01*
X165429135Y-113244546D01*
X165342141Y-113371866D01*
X165311536Y-113523000D01*
X165311536Y-114823000D01*
X165338103Y-114964190D01*
X165421546Y-115093865D01*
X165548866Y-115180859D01*
X165584997Y-115188176D01*
X165558810Y-115193103D01*
X165429135Y-115276546D01*
X165342141Y-115403866D01*
X165311536Y-115555000D01*
X165311536Y-116627872D01*
X165123204Y-116816204D01*
X165013517Y-116980362D01*
X164975000Y-117174000D01*
X164975000Y-117350281D01*
X164841748Y-117405339D01*
X164650013Y-117596741D01*
X164546118Y-117846946D01*
X164545882Y-118117865D01*
X164554223Y-118138051D01*
X163120553Y-117486383D01*
X163068000Y-117475000D01*
X161671000Y-117475000D01*
X161671000Y-113861069D01*
X161694204Y-113895796D01*
X161927000Y-114128592D01*
X161927000Y-115697000D01*
X161965517Y-115890638D01*
X162075204Y-116054796D01*
X162583204Y-116562796D01*
X162611536Y-116581727D01*
X162611536Y-116855000D01*
X162638103Y-116996190D01*
X162721546Y-117125865D01*
X162848866Y-117212859D01*
X163000000Y-117243464D01*
X164500000Y-117243464D01*
X164641190Y-117216897D01*
X164770865Y-117133454D01*
X164857859Y-117006134D01*
X164888464Y-116855000D01*
X164888464Y-115555000D01*
X164861897Y-115413810D01*
X164778454Y-115284135D01*
X164651134Y-115197141D01*
X164615003Y-115189824D01*
X164641190Y-115184897D01*
X164770865Y-115101454D01*
X164857859Y-114974134D01*
X164888464Y-114823000D01*
X164888464Y-113523000D01*
X164861897Y-113381810D01*
X164778454Y-113252135D01*
X164651134Y-113165141D01*
X164500000Y-113134536D01*
X163427128Y-113134536D01*
X163345056Y-113052464D01*
X164500000Y-113052464D01*
X164641190Y-113025897D01*
X164770865Y-112942454D01*
X164857859Y-112815134D01*
X164888464Y-112664000D01*
X164888464Y-111364000D01*
X164861897Y-111222810D01*
X164778454Y-111093135D01*
X164651134Y-111006141D01*
X164500000Y-110975536D01*
X163427128Y-110975536D01*
X163345056Y-110893464D01*
X164500000Y-110893464D01*
X164641190Y-110866897D01*
X164770865Y-110783454D01*
X164857859Y-110656134D01*
X164888464Y-110505000D01*
X164888464Y-109205000D01*
X164861897Y-109063810D01*
X164778454Y-108934135D01*
X164651134Y-108847141D01*
X164500000Y-108816536D01*
X164182989Y-108816536D01*
X164193405Y-108814464D01*
X165344000Y-108814464D01*
X165485190Y-108787897D01*
X165614865Y-108704454D01*
X165701859Y-108577134D01*
X165732464Y-108426000D01*
X165732464Y-106926000D01*
X165705897Y-106784810D01*
X165622454Y-106655135D01*
X165495134Y-106568141D01*
X165459870Y-106561000D01*
X165470310Y-106561000D01*
X165703699Y-106464327D01*
X165882327Y-106285698D01*
X165979000Y-106052309D01*
X165979000Y-105461750D01*
X165820252Y-105303002D01*
X165979000Y-105303002D01*
X165979000Y-105226592D01*
X168552204Y-107799796D01*
G36*
X171321355Y-112018924D02*
X171711642Y-112447183D01*
X172136947Y-112646917D01*
X172097800Y-112654704D01*
X171698435Y-112921552D01*
X171431587Y-113320917D01*
X171337883Y-113792000D01*
X171431587Y-114263083D01*
X171698435Y-114662448D01*
X172097800Y-114929296D01*
X172568883Y-115023000D01*
X172617117Y-115023000D01*
X173088200Y-114929296D01*
X173487565Y-114662448D01*
X173754413Y-114263083D01*
X173848117Y-113792000D01*
X173779675Y-113447917D01*
X174169000Y-113058592D01*
X174169000Y-117446408D01*
X173966796Y-117244204D01*
X173802638Y-117134517D01*
X173609000Y-117096000D01*
X173558692Y-117096000D01*
X173754413Y-116803083D01*
X173848117Y-116332000D01*
X173754413Y-115860917D01*
X173487565Y-115461552D01*
X173088200Y-115194704D01*
X172617117Y-115101000D01*
X172568883Y-115101000D01*
X172097800Y-115194704D01*
X171698435Y-115461552D01*
X171431587Y-115860917D01*
X171337883Y-116332000D01*
X171431587Y-116803083D01*
X171627308Y-117096000D01*
X171018692Y-117096000D01*
X171214413Y-116803083D01*
X171308117Y-116332000D01*
X171214413Y-115860917D01*
X170947565Y-115461552D01*
X170548200Y-115194704D01*
X170077117Y-115101000D01*
X170028883Y-115101000D01*
X169557800Y-115194704D01*
X169158435Y-115461552D01*
X168891587Y-115860917D01*
X168797883Y-116332000D01*
X168891587Y-116803083D01*
X169087308Y-117096000D01*
X167496456Y-117096000D01*
X167557859Y-117006134D01*
X167588464Y-116855000D01*
X167588464Y-115555000D01*
X167561897Y-115413810D01*
X167478454Y-115284135D01*
X167351134Y-115197141D01*
X167315003Y-115189824D01*
X167341190Y-115184897D01*
X167470865Y-115101454D01*
X167557859Y-114974134D01*
X167588464Y-114823000D01*
X167588464Y-114432128D01*
X168228592Y-113792000D01*
X168797883Y-113792000D01*
X168891587Y-114263083D01*
X169158435Y-114662448D01*
X169557800Y-114929296D01*
X170028883Y-115023000D01*
X170077117Y-115023000D01*
X170548200Y-114929296D01*
X170947565Y-114662448D01*
X171214413Y-114263083D01*
X171308117Y-113792000D01*
X171214413Y-113320917D01*
X170947565Y-112921552D01*
X170548200Y-112654704D01*
X170077117Y-112561000D01*
X170028883Y-112561000D01*
X169557800Y-112654704D01*
X169158435Y-112921552D01*
X168891587Y-113320917D01*
X168797883Y-113792000D01*
X168228592Y-113792000D01*
X169619102Y-112401490D01*
X170028883Y-112483000D01*
X170077117Y-112483000D01*
X170548200Y-112389296D01*
X170947565Y-112122448D01*
X171204788Y-111737488D01*
X171321355Y-112018924D01*
X171321355Y-112018924D01*
G37*
X171321355Y-112018924D02*
X171711642Y-112447183D01*
X172136947Y-112646917D01*
X172097800Y-112654704D01*
X171698435Y-112921552D01*
X171431587Y-113320917D01*
X171337883Y-113792000D01*
X171431587Y-114263083D01*
X171698435Y-114662448D01*
X172097800Y-114929296D01*
X172568883Y-115023000D01*
X172617117Y-115023000D01*
X173088200Y-114929296D01*
X173487565Y-114662448D01*
X173754413Y-114263083D01*
X173848117Y-113792000D01*
X173779675Y-113447917D01*
X174169000Y-113058592D01*
X174169000Y-117446408D01*
X173966796Y-117244204D01*
X173802638Y-117134517D01*
X173609000Y-117096000D01*
X173558692Y-117096000D01*
X173754413Y-116803083D01*
X173848117Y-116332000D01*
X173754413Y-115860917D01*
X173487565Y-115461552D01*
X173088200Y-115194704D01*
X172617117Y-115101000D01*
X172568883Y-115101000D01*
X172097800Y-115194704D01*
X171698435Y-115461552D01*
X171431587Y-115860917D01*
X171337883Y-116332000D01*
X171431587Y-116803083D01*
X171627308Y-117096000D01*
X171018692Y-117096000D01*
X171214413Y-116803083D01*
X171308117Y-116332000D01*
X171214413Y-115860917D01*
X170947565Y-115461552D01*
X170548200Y-115194704D01*
X170077117Y-115101000D01*
X170028883Y-115101000D01*
X169557800Y-115194704D01*
X169158435Y-115461552D01*
X168891587Y-115860917D01*
X168797883Y-116332000D01*
X168891587Y-116803083D01*
X169087308Y-117096000D01*
X167496456Y-117096000D01*
X167557859Y-117006134D01*
X167588464Y-116855000D01*
X167588464Y-115555000D01*
X167561897Y-115413810D01*
X167478454Y-115284135D01*
X167351134Y-115197141D01*
X167315003Y-115189824D01*
X167341190Y-115184897D01*
X167470865Y-115101454D01*
X167557859Y-114974134D01*
X167588464Y-114823000D01*
X167588464Y-114432128D01*
X168228592Y-113792000D01*
X168797883Y-113792000D01*
X168891587Y-114263083D01*
X169158435Y-114662448D01*
X169557800Y-114929296D01*
X170028883Y-115023000D01*
X170077117Y-115023000D01*
X170548200Y-114929296D01*
X170947565Y-114662448D01*
X171214413Y-114263083D01*
X171308117Y-113792000D01*
X171214413Y-113320917D01*
X170947565Y-112921552D01*
X170548200Y-112654704D01*
X170077117Y-112561000D01*
X170028883Y-112561000D01*
X169557800Y-112654704D01*
X169158435Y-112921552D01*
X168891587Y-113320917D01*
X168797883Y-113792000D01*
X168228592Y-113792000D01*
X169619102Y-112401490D01*
X170028883Y-112483000D01*
X170077117Y-112483000D01*
X170548200Y-112389296D01*
X170947565Y-112122448D01*
X171204788Y-111737488D01*
X171321355Y-112018924D01*
G36*
X172720000Y-111125000D02*
X172740000Y-111125000D01*
X172740000Y-111379000D01*
X172720000Y-111379000D01*
X172720000Y-111399000D01*
X172466000Y-111399000D01*
X172466000Y-111379000D01*
X172446000Y-111379000D01*
X172446000Y-111125000D01*
X172466000Y-111125000D01*
X172466000Y-111105000D01*
X172720000Y-111105000D01*
X172720000Y-111125000D01*
X172720000Y-111125000D01*
G37*
X172720000Y-111125000D02*
X172740000Y-111125000D01*
X172740000Y-111379000D01*
X172720000Y-111379000D01*
X172720000Y-111399000D01*
X172466000Y-111399000D01*
X172466000Y-111379000D01*
X172446000Y-111379000D01*
X172446000Y-111125000D01*
X172466000Y-111125000D01*
X172466000Y-111105000D01*
X172720000Y-111105000D01*
X172720000Y-111125000D01*
G36*
X161292000Y-106216408D02*
X161201872Y-106306536D01*
X160892000Y-106306536D01*
X160750810Y-106333103D01*
X160621135Y-106416546D01*
X160534141Y-106543866D01*
X160503536Y-106695000D01*
X160503536Y-106975000D01*
X160524994Y-107089037D01*
X160505964Y-107183011D01*
X160353673Y-107335301D01*
X160257000Y-107568690D01*
X160257000Y-107606250D01*
X160313518Y-107662768D01*
X160283054Y-107650118D01*
X160012135Y-107649882D01*
X159761748Y-107753339D01*
X159570013Y-107944741D01*
X159466118Y-108194946D01*
X159465882Y-108465865D01*
X159569339Y-108716252D01*
X159760741Y-108907987D01*
X159927978Y-108977430D01*
X159916204Y-108989204D01*
X159806517Y-109153362D01*
X159768000Y-109347000D01*
X159768000Y-109988000D01*
X159375481Y-109988000D01*
X157183127Y-108108839D01*
X157216946Y-108122882D01*
X157487865Y-108123118D01*
X157738252Y-108019661D01*
X157929987Y-107828259D01*
X158033882Y-107578054D01*
X158034118Y-107307135D01*
X157958597Y-107124359D01*
X158033882Y-106943054D01*
X158034118Y-106672135D01*
X157930661Y-106421748D01*
X157827619Y-106318527D01*
X157852000Y-106323464D01*
X158132000Y-106323464D01*
X158246037Y-106302006D01*
X158352000Y-106323464D01*
X158632000Y-106323464D01*
X158746037Y-106302006D01*
X158852000Y-106323464D01*
X159132000Y-106323464D01*
X159246037Y-106302006D01*
X159352000Y-106323464D01*
X159632000Y-106323464D01*
X159746037Y-106302006D01*
X159852000Y-106323464D01*
X160132000Y-106323464D01*
X160273190Y-106296897D01*
X160402865Y-106213454D01*
X160489859Y-106086134D01*
X160520464Y-105935000D01*
X160520464Y-105022777D01*
X160645946Y-105074882D01*
X160916865Y-105075118D01*
X161167252Y-104971661D01*
X161292000Y-104847130D01*
X161292000Y-106216408D01*
X161292000Y-106216408D01*
G37*
X161292000Y-106216408D02*
X161201872Y-106306536D01*
X160892000Y-106306536D01*
X160750810Y-106333103D01*
X160621135Y-106416546D01*
X160534141Y-106543866D01*
X160503536Y-106695000D01*
X160503536Y-106975000D01*
X160524994Y-107089037D01*
X160505964Y-107183011D01*
X160353673Y-107335301D01*
X160257000Y-107568690D01*
X160257000Y-107606250D01*
X160313518Y-107662768D01*
X160283054Y-107650118D01*
X160012135Y-107649882D01*
X159761748Y-107753339D01*
X159570013Y-107944741D01*
X159466118Y-108194946D01*
X159465882Y-108465865D01*
X159569339Y-108716252D01*
X159760741Y-108907987D01*
X159927978Y-108977430D01*
X159916204Y-108989204D01*
X159806517Y-109153362D01*
X159768000Y-109347000D01*
X159768000Y-109988000D01*
X159375481Y-109988000D01*
X157183127Y-108108839D01*
X157216946Y-108122882D01*
X157487865Y-108123118D01*
X157738252Y-108019661D01*
X157929987Y-107828259D01*
X158033882Y-107578054D01*
X158034118Y-107307135D01*
X157958597Y-107124359D01*
X158033882Y-106943054D01*
X158034118Y-106672135D01*
X157930661Y-106421748D01*
X157827619Y-106318527D01*
X157852000Y-106323464D01*
X158132000Y-106323464D01*
X158246037Y-106302006D01*
X158352000Y-106323464D01*
X158632000Y-106323464D01*
X158746037Y-106302006D01*
X158852000Y-106323464D01*
X159132000Y-106323464D01*
X159246037Y-106302006D01*
X159352000Y-106323464D01*
X159632000Y-106323464D01*
X159746037Y-106302006D01*
X159852000Y-106323464D01*
X160132000Y-106323464D01*
X160273190Y-106296897D01*
X160402865Y-106213454D01*
X160489859Y-106086134D01*
X160520464Y-105935000D01*
X160520464Y-105022777D01*
X160645946Y-105074882D01*
X160916865Y-105075118D01*
X161167252Y-104971661D01*
X161292000Y-104847130D01*
X161292000Y-106216408D01*
G36*
X164584000Y-99684310D02*
X164680673Y-99917699D01*
X164859302Y-100096327D01*
X165092691Y-100193000D01*
X165670762Y-100193000D01*
X165666013Y-100197741D01*
X165562118Y-100447946D01*
X165561882Y-100718865D01*
X165665339Y-100969252D01*
X165737000Y-101041038D01*
X165737000Y-103920974D01*
X165703699Y-103887673D01*
X165470310Y-103791000D01*
X165004750Y-103791000D01*
X164846000Y-103949750D01*
X164846000Y-105049000D01*
X164866000Y-105049000D01*
X164866000Y-105303000D01*
X164846000Y-105303000D01*
X164846000Y-105323000D01*
X164592000Y-105323000D01*
X164592000Y-105303000D01*
X163617750Y-105303000D01*
X163459000Y-105461750D01*
X163459000Y-106052309D01*
X163555673Y-106285698D01*
X163734301Y-106464327D01*
X163967690Y-106561000D01*
X163969301Y-106561000D01*
X163952810Y-106564103D01*
X163823135Y-106647546D01*
X163736141Y-106774866D01*
X163705536Y-106926000D01*
X163705536Y-107829000D01*
X162727000Y-107829000D01*
X162727000Y-107722060D01*
X162770796Y-107692796D01*
X162917796Y-107545796D01*
X163027483Y-107381638D01*
X163066000Y-107188000D01*
X163066000Y-104603592D01*
X163522003Y-104147589D01*
X163459000Y-104299691D01*
X163459000Y-104890250D01*
X163617750Y-105049000D01*
X164592000Y-105049000D01*
X164592000Y-103949750D01*
X164433250Y-103791000D01*
X163967690Y-103791000D01*
X163815590Y-103854002D01*
X163978316Y-103691276D01*
X164112043Y-103746804D01*
X164561983Y-103747196D01*
X164977823Y-103575375D01*
X165296256Y-103257497D01*
X165468804Y-102841957D01*
X165469196Y-102392017D01*
X165297375Y-101976177D01*
X164979497Y-101657744D01*
X164690215Y-101537623D01*
X164540464Y-101387872D01*
X164540464Y-100315000D01*
X164513897Y-100173810D01*
X164430454Y-100044135D01*
X164303134Y-99957141D01*
X164235281Y-99943401D01*
X164360190Y-99919897D01*
X164489865Y-99836454D01*
X164576859Y-99709134D01*
X164584000Y-99673870D01*
X164584000Y-99684310D01*
X164584000Y-99684310D01*
G37*
X164584000Y-99684310D02*
X164680673Y-99917699D01*
X164859302Y-100096327D01*
X165092691Y-100193000D01*
X165670762Y-100193000D01*
X165666013Y-100197741D01*
X165562118Y-100447946D01*
X165561882Y-100718865D01*
X165665339Y-100969252D01*
X165737000Y-101041038D01*
X165737000Y-103920974D01*
X165703699Y-103887673D01*
X165470310Y-103791000D01*
X165004750Y-103791000D01*
X164846000Y-103949750D01*
X164846000Y-105049000D01*
X164866000Y-105049000D01*
X164866000Y-105303000D01*
X164846000Y-105303000D01*
X164846000Y-105323000D01*
X164592000Y-105323000D01*
X164592000Y-105303000D01*
X163617750Y-105303000D01*
X163459000Y-105461750D01*
X163459000Y-106052309D01*
X163555673Y-106285698D01*
X163734301Y-106464327D01*
X163967690Y-106561000D01*
X163969301Y-106561000D01*
X163952810Y-106564103D01*
X163823135Y-106647546D01*
X163736141Y-106774866D01*
X163705536Y-106926000D01*
X163705536Y-107829000D01*
X162727000Y-107829000D01*
X162727000Y-107722060D01*
X162770796Y-107692796D01*
X162917796Y-107545796D01*
X163027483Y-107381638D01*
X163066000Y-107188000D01*
X163066000Y-104603592D01*
X163522003Y-104147589D01*
X163459000Y-104299691D01*
X163459000Y-104890250D01*
X163617750Y-105049000D01*
X164592000Y-105049000D01*
X164592000Y-103949750D01*
X164433250Y-103791000D01*
X163967690Y-103791000D01*
X163815590Y-103854002D01*
X163978316Y-103691276D01*
X164112043Y-103746804D01*
X164561983Y-103747196D01*
X164977823Y-103575375D01*
X165296256Y-103257497D01*
X165468804Y-102841957D01*
X165469196Y-102392017D01*
X165297375Y-101976177D01*
X164979497Y-101657744D01*
X164690215Y-101537623D01*
X164540464Y-101387872D01*
X164540464Y-100315000D01*
X164513897Y-100173810D01*
X164430454Y-100044135D01*
X164303134Y-99957141D01*
X164235281Y-99943401D01*
X164360190Y-99919897D01*
X164489865Y-99836454D01*
X164576859Y-99709134D01*
X164584000Y-99673870D01*
X164584000Y-99684310D01*
G36*
X171698435Y-95141552D02*
X171431587Y-95540917D01*
X171337883Y-96012000D01*
X171431587Y-96483083D01*
X171698435Y-96882448D01*
X172097800Y-97149296D01*
X172568883Y-97243000D01*
X172617117Y-97243000D01*
X173088200Y-97149296D01*
X173487565Y-96882448D01*
X173754413Y-96483083D01*
X173848117Y-96012000D01*
X173754413Y-95540917D01*
X173487565Y-95141552D01*
X173381977Y-95071000D01*
X174169000Y-95071000D01*
X174169000Y-107667408D01*
X173585796Y-107084204D01*
X173498596Y-107025939D01*
X173754413Y-106643083D01*
X173848117Y-106172000D01*
X173754413Y-105700917D01*
X173487565Y-105301552D01*
X173088200Y-105034704D01*
X172617117Y-104941000D01*
X172568883Y-104941000D01*
X172097800Y-105034704D01*
X171698435Y-105301552D01*
X171441212Y-105686512D01*
X171324645Y-105405076D01*
X170934358Y-104976817D01*
X170509053Y-104777083D01*
X170548200Y-104769296D01*
X170947565Y-104502448D01*
X171214413Y-104103083D01*
X171308117Y-103632000D01*
X171214413Y-103160917D01*
X170947565Y-102761552D01*
X170548200Y-102494704D01*
X170077117Y-102401000D01*
X170028883Y-102401000D01*
X169557800Y-102494704D01*
X169158435Y-102761552D01*
X168891587Y-103160917D01*
X168797883Y-103632000D01*
X168891587Y-104103083D01*
X169158435Y-104502448D01*
X169557800Y-104769296D01*
X169596947Y-104777083D01*
X169171642Y-104976817D01*
X168781355Y-105405076D01*
X168611524Y-105815110D01*
X168732845Y-106045000D01*
X169926000Y-106045000D01*
X169926000Y-106025000D01*
X170180000Y-106025000D01*
X170180000Y-106045000D01*
X170200000Y-106045000D01*
X170200000Y-106299000D01*
X170180000Y-106299000D01*
X170180000Y-106319000D01*
X169926000Y-106319000D01*
X169926000Y-106299000D01*
X168732845Y-106299000D01*
X168646399Y-106462807D01*
X166749000Y-104565408D01*
X166749000Y-101092000D01*
X168797883Y-101092000D01*
X168891587Y-101563083D01*
X169158435Y-101962448D01*
X169557800Y-102229296D01*
X170028883Y-102323000D01*
X170077117Y-102323000D01*
X170548200Y-102229296D01*
X170947565Y-101962448D01*
X171204788Y-101577488D01*
X171321355Y-101858924D01*
X171711642Y-102287183D01*
X172136947Y-102486917D01*
X172097800Y-102494704D01*
X171698435Y-102761552D01*
X171431587Y-103160917D01*
X171337883Y-103632000D01*
X171431587Y-104103083D01*
X171698435Y-104502448D01*
X172097800Y-104769296D01*
X172568883Y-104863000D01*
X172617117Y-104863000D01*
X173088200Y-104769296D01*
X173487565Y-104502448D01*
X173754413Y-104103083D01*
X173848117Y-103632000D01*
X173754413Y-103160917D01*
X173487565Y-102761552D01*
X173088200Y-102494704D01*
X173049053Y-102486917D01*
X173474358Y-102287183D01*
X173864645Y-101858924D01*
X174034476Y-101448890D01*
X173913155Y-101219000D01*
X172720000Y-101219000D01*
X172720000Y-101239000D01*
X172466000Y-101239000D01*
X172466000Y-101219000D01*
X172446000Y-101219000D01*
X172446000Y-100965000D01*
X172466000Y-100965000D01*
X172466000Y-100945000D01*
X172720000Y-100945000D01*
X172720000Y-100965000D01*
X173913155Y-100965000D01*
X174034476Y-100735110D01*
X173864645Y-100325076D01*
X173474358Y-99896817D01*
X173049053Y-99697083D01*
X173088200Y-99689296D01*
X173487565Y-99422448D01*
X173754413Y-99023083D01*
X173848117Y-98552000D01*
X173754413Y-98080917D01*
X173487565Y-97681552D01*
X173088200Y-97414704D01*
X172617117Y-97321000D01*
X172568883Y-97321000D01*
X172097800Y-97414704D01*
X171698435Y-97681552D01*
X171431587Y-98080917D01*
X171337883Y-98552000D01*
X171431587Y-99023083D01*
X171698435Y-99422448D01*
X172097800Y-99689296D01*
X172136947Y-99697083D01*
X171711642Y-99896817D01*
X171321355Y-100325076D01*
X171204788Y-100606512D01*
X170947565Y-100221552D01*
X170548200Y-99954704D01*
X170077117Y-99861000D01*
X170028883Y-99861000D01*
X169557800Y-99954704D01*
X169158435Y-100221552D01*
X168891587Y-100620917D01*
X168797883Y-101092000D01*
X166749000Y-101092000D01*
X166749000Y-101041123D01*
X166819987Y-100970259D01*
X166923882Y-100720054D01*
X166924118Y-100449135D01*
X166820661Y-100198748D01*
X166814923Y-100193000D01*
X166845309Y-100193000D01*
X167078698Y-100096327D01*
X167218160Y-99956865D01*
X167720882Y-99956865D01*
X167824339Y-100207252D01*
X168015741Y-100398987D01*
X168265946Y-100502882D01*
X168536865Y-100503118D01*
X168787252Y-100399661D01*
X168978987Y-100208259D01*
X169082882Y-99958054D01*
X169083118Y-99687135D01*
X168979661Y-99436748D01*
X168788259Y-99245013D01*
X168538054Y-99141118D01*
X168267135Y-99140882D01*
X168016748Y-99244339D01*
X167825013Y-99435741D01*
X167721118Y-99685946D01*
X167720882Y-99956865D01*
X167218160Y-99956865D01*
X167257327Y-99917699D01*
X167354000Y-99684310D01*
X167354000Y-99218750D01*
X167195250Y-99060000D01*
X166096000Y-99060000D01*
X166096000Y-99080000D01*
X165842000Y-99080000D01*
X165842000Y-99060000D01*
X165822000Y-99060000D01*
X165822000Y-98806000D01*
X165842000Y-98806000D01*
X165842000Y-97831750D01*
X166096000Y-97831750D01*
X166096000Y-98806000D01*
X167195250Y-98806000D01*
X167354000Y-98647250D01*
X167354000Y-98552000D01*
X168797883Y-98552000D01*
X168891587Y-99023083D01*
X169158435Y-99422448D01*
X169557800Y-99689296D01*
X170028883Y-99783000D01*
X170077117Y-99783000D01*
X170548200Y-99689296D01*
X170947565Y-99422448D01*
X171214413Y-99023083D01*
X171308117Y-98552000D01*
X171214413Y-98080917D01*
X170947565Y-97681552D01*
X170548200Y-97414704D01*
X170077117Y-97321000D01*
X170028883Y-97321000D01*
X169557800Y-97414704D01*
X169158435Y-97681552D01*
X168891587Y-98080917D01*
X168797883Y-98552000D01*
X167354000Y-98552000D01*
X167354000Y-98181690D01*
X167257327Y-97948301D01*
X167078698Y-97769673D01*
X166845309Y-97673000D01*
X166254750Y-97673000D01*
X166096000Y-97831750D01*
X165842000Y-97831750D01*
X165683250Y-97673000D01*
X165399992Y-97673000D01*
X165400118Y-97528135D01*
X165296661Y-97277748D01*
X165105259Y-97086013D01*
X164855054Y-96982118D01*
X164753622Y-96982030D01*
X164314796Y-96543204D01*
X164150638Y-96433517D01*
X163957000Y-96395000D01*
X159334123Y-96395000D01*
X159263259Y-96324013D01*
X159013054Y-96220118D01*
X158742135Y-96219882D01*
X158491748Y-96323339D01*
X158300013Y-96514741D01*
X158196118Y-96764946D01*
X158195882Y-97035865D01*
X158298408Y-97284000D01*
X156464000Y-97284000D01*
X156270362Y-97322517D01*
X156106204Y-97432204D01*
X155090204Y-98448204D01*
X155063000Y-98488918D01*
X155063000Y-97035368D01*
X156090369Y-96008000D01*
X166108632Y-96008000D01*
X166558816Y-96458185D01*
X166763527Y-96594968D01*
X167005000Y-96643000D01*
X168814536Y-96643000D01*
X168814536Y-96862000D01*
X168841103Y-97003190D01*
X168924546Y-97132865D01*
X169051866Y-97219859D01*
X169203000Y-97250464D01*
X170903000Y-97250464D01*
X171044190Y-97223897D01*
X171173865Y-97140454D01*
X171260859Y-97013134D01*
X171291464Y-96862000D01*
X171291464Y-95162000D01*
X171274341Y-95071000D01*
X171804023Y-95071000D01*
X171698435Y-95141552D01*
X171698435Y-95141552D01*
G37*
X171698435Y-95141552D02*
X171431587Y-95540917D01*
X171337883Y-96012000D01*
X171431587Y-96483083D01*
X171698435Y-96882448D01*
X172097800Y-97149296D01*
X172568883Y-97243000D01*
X172617117Y-97243000D01*
X173088200Y-97149296D01*
X173487565Y-96882448D01*
X173754413Y-96483083D01*
X173848117Y-96012000D01*
X173754413Y-95540917D01*
X173487565Y-95141552D01*
X173381977Y-95071000D01*
X174169000Y-95071000D01*
X174169000Y-107667408D01*
X173585796Y-107084204D01*
X173498596Y-107025939D01*
X173754413Y-106643083D01*
X173848117Y-106172000D01*
X173754413Y-105700917D01*
X173487565Y-105301552D01*
X173088200Y-105034704D01*
X172617117Y-104941000D01*
X172568883Y-104941000D01*
X172097800Y-105034704D01*
X171698435Y-105301552D01*
X171441212Y-105686512D01*
X171324645Y-105405076D01*
X170934358Y-104976817D01*
X170509053Y-104777083D01*
X170548200Y-104769296D01*
X170947565Y-104502448D01*
X171214413Y-104103083D01*
X171308117Y-103632000D01*
X171214413Y-103160917D01*
X170947565Y-102761552D01*
X170548200Y-102494704D01*
X170077117Y-102401000D01*
X170028883Y-102401000D01*
X169557800Y-102494704D01*
X169158435Y-102761552D01*
X168891587Y-103160917D01*
X168797883Y-103632000D01*
X168891587Y-104103083D01*
X169158435Y-104502448D01*
X169557800Y-104769296D01*
X169596947Y-104777083D01*
X169171642Y-104976817D01*
X168781355Y-105405076D01*
X168611524Y-105815110D01*
X168732845Y-106045000D01*
X169926000Y-106045000D01*
X169926000Y-106025000D01*
X170180000Y-106025000D01*
X170180000Y-106045000D01*
X170200000Y-106045000D01*
X170200000Y-106299000D01*
X170180000Y-106299000D01*
X170180000Y-106319000D01*
X169926000Y-106319000D01*
X169926000Y-106299000D01*
X168732845Y-106299000D01*
X168646399Y-106462807D01*
X166749000Y-104565408D01*
X166749000Y-101092000D01*
X168797883Y-101092000D01*
X168891587Y-101563083D01*
X169158435Y-101962448D01*
X169557800Y-102229296D01*
X170028883Y-102323000D01*
X170077117Y-102323000D01*
X170548200Y-102229296D01*
X170947565Y-101962448D01*
X171204788Y-101577488D01*
X171321355Y-101858924D01*
X171711642Y-102287183D01*
X172136947Y-102486917D01*
X172097800Y-102494704D01*
X171698435Y-102761552D01*
X171431587Y-103160917D01*
X171337883Y-103632000D01*
X171431587Y-104103083D01*
X171698435Y-104502448D01*
X172097800Y-104769296D01*
X172568883Y-104863000D01*
X172617117Y-104863000D01*
X173088200Y-104769296D01*
X173487565Y-104502448D01*
X173754413Y-104103083D01*
X173848117Y-103632000D01*
X173754413Y-103160917D01*
X173487565Y-102761552D01*
X173088200Y-102494704D01*
X173049053Y-102486917D01*
X173474358Y-102287183D01*
X173864645Y-101858924D01*
X174034476Y-101448890D01*
X173913155Y-101219000D01*
X172720000Y-101219000D01*
X172720000Y-101239000D01*
X172466000Y-101239000D01*
X172466000Y-101219000D01*
X172446000Y-101219000D01*
X172446000Y-100965000D01*
X172466000Y-100965000D01*
X172466000Y-100945000D01*
X172720000Y-100945000D01*
X172720000Y-100965000D01*
X173913155Y-100965000D01*
X174034476Y-100735110D01*
X173864645Y-100325076D01*
X173474358Y-99896817D01*
X173049053Y-99697083D01*
X173088200Y-99689296D01*
X173487565Y-99422448D01*
X173754413Y-99023083D01*
X173848117Y-98552000D01*
X173754413Y-98080917D01*
X173487565Y-97681552D01*
X173088200Y-97414704D01*
X172617117Y-97321000D01*
X172568883Y-97321000D01*
X172097800Y-97414704D01*
X171698435Y-97681552D01*
X171431587Y-98080917D01*
X171337883Y-98552000D01*
X171431587Y-99023083D01*
X171698435Y-99422448D01*
X172097800Y-99689296D01*
X172136947Y-99697083D01*
X171711642Y-99896817D01*
X171321355Y-100325076D01*
X171204788Y-100606512D01*
X170947565Y-100221552D01*
X170548200Y-99954704D01*
X170077117Y-99861000D01*
X170028883Y-99861000D01*
X169557800Y-99954704D01*
X169158435Y-100221552D01*
X168891587Y-100620917D01*
X168797883Y-101092000D01*
X166749000Y-101092000D01*
X166749000Y-101041123D01*
X166819987Y-100970259D01*
X166923882Y-100720054D01*
X166924118Y-100449135D01*
X166820661Y-100198748D01*
X166814923Y-100193000D01*
X166845309Y-100193000D01*
X167078698Y-100096327D01*
X167218160Y-99956865D01*
X167720882Y-99956865D01*
X167824339Y-100207252D01*
X168015741Y-100398987D01*
X168265946Y-100502882D01*
X168536865Y-100503118D01*
X168787252Y-100399661D01*
X168978987Y-100208259D01*
X169082882Y-99958054D01*
X169083118Y-99687135D01*
X168979661Y-99436748D01*
X168788259Y-99245013D01*
X168538054Y-99141118D01*
X168267135Y-99140882D01*
X168016748Y-99244339D01*
X167825013Y-99435741D01*
X167721118Y-99685946D01*
X167720882Y-99956865D01*
X167218160Y-99956865D01*
X167257327Y-99917699D01*
X167354000Y-99684310D01*
X167354000Y-99218750D01*
X167195250Y-99060000D01*
X166096000Y-99060000D01*
X166096000Y-99080000D01*
X165842000Y-99080000D01*
X165842000Y-99060000D01*
X165822000Y-99060000D01*
X165822000Y-98806000D01*
X165842000Y-98806000D01*
X165842000Y-97831750D01*
X166096000Y-97831750D01*
X166096000Y-98806000D01*
X167195250Y-98806000D01*
X167354000Y-98647250D01*
X167354000Y-98552000D01*
X168797883Y-98552000D01*
X168891587Y-99023083D01*
X169158435Y-99422448D01*
X169557800Y-99689296D01*
X170028883Y-99783000D01*
X170077117Y-99783000D01*
X170548200Y-99689296D01*
X170947565Y-99422448D01*
X171214413Y-99023083D01*
X171308117Y-98552000D01*
X171214413Y-98080917D01*
X170947565Y-97681552D01*
X170548200Y-97414704D01*
X170077117Y-97321000D01*
X170028883Y-97321000D01*
X169557800Y-97414704D01*
X169158435Y-97681552D01*
X168891587Y-98080917D01*
X168797883Y-98552000D01*
X167354000Y-98552000D01*
X167354000Y-98181690D01*
X167257327Y-97948301D01*
X167078698Y-97769673D01*
X166845309Y-97673000D01*
X166254750Y-97673000D01*
X166096000Y-97831750D01*
X165842000Y-97831750D01*
X165683250Y-97673000D01*
X165399992Y-97673000D01*
X165400118Y-97528135D01*
X165296661Y-97277748D01*
X165105259Y-97086013D01*
X164855054Y-96982118D01*
X164753622Y-96982030D01*
X164314796Y-96543204D01*
X164150638Y-96433517D01*
X163957000Y-96395000D01*
X159334123Y-96395000D01*
X159263259Y-96324013D01*
X159013054Y-96220118D01*
X158742135Y-96219882D01*
X158491748Y-96323339D01*
X158300013Y-96514741D01*
X158196118Y-96764946D01*
X158195882Y-97035865D01*
X158298408Y-97284000D01*
X156464000Y-97284000D01*
X156270362Y-97322517D01*
X156106204Y-97432204D01*
X155090204Y-98448204D01*
X155063000Y-98488918D01*
X155063000Y-97035368D01*
X156090369Y-96008000D01*
X166108632Y-96008000D01*
X166558816Y-96458185D01*
X166763527Y-96594968D01*
X167005000Y-96643000D01*
X168814536Y-96643000D01*
X168814536Y-96862000D01*
X168841103Y-97003190D01*
X168924546Y-97132865D01*
X169051866Y-97219859D01*
X169203000Y-97250464D01*
X170903000Y-97250464D01*
X171044190Y-97223897D01*
X171173865Y-97140454D01*
X171260859Y-97013134D01*
X171291464Y-96862000D01*
X171291464Y-95162000D01*
X171274341Y-95071000D01*
X171804023Y-95071000D01*
X171698435Y-95141552D01*
G36*
X161919741Y-98366987D02*
X162169946Y-98470882D01*
X162330536Y-98471022D01*
X162330536Y-99558000D01*
X162357103Y-99699190D01*
X162440546Y-99828865D01*
X162567866Y-99915859D01*
X162635719Y-99929599D01*
X162510810Y-99953103D01*
X162381135Y-100036546D01*
X162294141Y-100163866D01*
X162263536Y-100315000D01*
X162263536Y-101615000D01*
X162290103Y-101756190D01*
X162373546Y-101885865D01*
X162500866Y-101972859D01*
X162652000Y-102003464D01*
X163367718Y-102003464D01*
X163207196Y-102390043D01*
X163206804Y-102839983D01*
X163262830Y-102975578D01*
X162304000Y-103934408D01*
X162304000Y-103124000D01*
X162265483Y-102930362D01*
X162155796Y-102766204D01*
X161647796Y-102258204D01*
X161483638Y-102148517D01*
X161290000Y-102110000D01*
X160472669Y-102110000D01*
X160428650Y-102003464D01*
X161452000Y-102003464D01*
X161593190Y-101976897D01*
X161722865Y-101893454D01*
X161809859Y-101766134D01*
X161840464Y-101615000D01*
X161840464Y-100315000D01*
X161813897Y-100173810D01*
X161730454Y-100044135D01*
X161603134Y-99957141D01*
X161452000Y-99926536D01*
X161208000Y-99926536D01*
X161208000Y-99879480D01*
X161274865Y-99836454D01*
X161361859Y-99709134D01*
X161392464Y-99558000D01*
X161392464Y-98308000D01*
X161390206Y-98296000D01*
X161848877Y-98296000D01*
X161919741Y-98366987D01*
X161919741Y-98366987D01*
G37*
X161919741Y-98366987D02*
X162169946Y-98470882D01*
X162330536Y-98471022D01*
X162330536Y-99558000D01*
X162357103Y-99699190D01*
X162440546Y-99828865D01*
X162567866Y-99915859D01*
X162635719Y-99929599D01*
X162510810Y-99953103D01*
X162381135Y-100036546D01*
X162294141Y-100163866D01*
X162263536Y-100315000D01*
X162263536Y-101615000D01*
X162290103Y-101756190D01*
X162373546Y-101885865D01*
X162500866Y-101972859D01*
X162652000Y-102003464D01*
X163367718Y-102003464D01*
X163207196Y-102390043D01*
X163206804Y-102839983D01*
X163262830Y-102975578D01*
X162304000Y-103934408D01*
X162304000Y-103124000D01*
X162265483Y-102930362D01*
X162155796Y-102766204D01*
X161647796Y-102258204D01*
X161483638Y-102148517D01*
X161290000Y-102110000D01*
X160472669Y-102110000D01*
X160428650Y-102003464D01*
X161452000Y-102003464D01*
X161593190Y-101976897D01*
X161722865Y-101893454D01*
X161809859Y-101766134D01*
X161840464Y-101615000D01*
X161840464Y-100315000D01*
X161813897Y-100173810D01*
X161730454Y-100044135D01*
X161603134Y-99957141D01*
X161452000Y-99926536D01*
X161208000Y-99926536D01*
X161208000Y-99879480D01*
X161274865Y-99836454D01*
X161361859Y-99709134D01*
X161392464Y-99558000D01*
X161392464Y-98308000D01*
X161390206Y-98296000D01*
X161848877Y-98296000D01*
X161919741Y-98366987D01*
G36*
X153985816Y-96327816D02*
X153849032Y-96532527D01*
X153801000Y-96774000D01*
X153801000Y-98984536D01*
X153782000Y-98984536D01*
X153640810Y-99011103D01*
X153511135Y-99094546D01*
X153424141Y-99221866D01*
X153393536Y-99373000D01*
X153393536Y-100269096D01*
X152842816Y-100819816D01*
X152706032Y-101024527D01*
X152658000Y-101266000D01*
X152658000Y-102997000D01*
X152158464Y-102997000D01*
X152158464Y-101535000D01*
X152131897Y-101393810D01*
X152048454Y-101264135D01*
X151921134Y-101177141D01*
X151770000Y-101146536D01*
X151120000Y-101146536D01*
X150978810Y-101173103D01*
X150849135Y-101256546D01*
X150762141Y-101383866D01*
X150731536Y-101535000D01*
X150731536Y-102997000D01*
X150258464Y-102997000D01*
X150258464Y-101535000D01*
X150231897Y-101393810D01*
X150148454Y-101264135D01*
X150021134Y-101177141D01*
X149870000Y-101146536D01*
X149220000Y-101146536D01*
X149197503Y-101150769D01*
X149270882Y-100974054D01*
X149270970Y-100872622D01*
X149360128Y-100783464D01*
X149660439Y-100783464D01*
X149810301Y-100933327D01*
X150043690Y-101030000D01*
X150209250Y-101030000D01*
X150368000Y-100871250D01*
X150368000Y-99742000D01*
X150348000Y-99742000D01*
X150348000Y-99488000D01*
X150368000Y-99488000D01*
X150368000Y-99468000D01*
X150622000Y-99468000D01*
X150622000Y-99488000D01*
X150642000Y-99488000D01*
X150642000Y-99742000D01*
X150622000Y-99742000D01*
X150622000Y-100871250D01*
X150780750Y-101030000D01*
X150946310Y-101030000D01*
X151179699Y-100933327D01*
X151329561Y-100783464D01*
X151770000Y-100783464D01*
X151911190Y-100756897D01*
X152040865Y-100673454D01*
X152127859Y-100546134D01*
X152158464Y-100395000D01*
X152158464Y-99490128D01*
X152356796Y-99291796D01*
X152466483Y-99127638D01*
X152505000Y-98934000D01*
X152505000Y-98295464D01*
X152749000Y-98295464D01*
X152890190Y-98268897D01*
X153019865Y-98185454D01*
X153106859Y-98058134D01*
X153137464Y-97907000D01*
X153137464Y-96657000D01*
X153110897Y-96515810D01*
X153027454Y-96386135D01*
X152900134Y-96299141D01*
X152749000Y-96268536D01*
X152024904Y-96268536D01*
X151322184Y-95565816D01*
X151117473Y-95429032D01*
X150876000Y-95381000D01*
X147828000Y-95381000D01*
X147586527Y-95429032D01*
X147381816Y-95565816D01*
X147245032Y-95770527D01*
X147197000Y-96012000D01*
X147197000Y-98298000D01*
X147216160Y-98394325D01*
X147132638Y-98338517D01*
X146939000Y-98300000D01*
X146745362Y-98338517D01*
X146581204Y-98448204D01*
X146506000Y-98560755D01*
X146506000Y-95071000D01*
X155242631Y-95071000D01*
X153985816Y-96327816D01*
X153985816Y-96327816D01*
G37*
X153985816Y-96327816D02*
X153849032Y-96532527D01*
X153801000Y-96774000D01*
X153801000Y-98984536D01*
X153782000Y-98984536D01*
X153640810Y-99011103D01*
X153511135Y-99094546D01*
X153424141Y-99221866D01*
X153393536Y-99373000D01*
X153393536Y-100269096D01*
X152842816Y-100819816D01*
X152706032Y-101024527D01*
X152658000Y-101266000D01*
X152658000Y-102997000D01*
X152158464Y-102997000D01*
X152158464Y-101535000D01*
X152131897Y-101393810D01*
X152048454Y-101264135D01*
X151921134Y-101177141D01*
X151770000Y-101146536D01*
X151120000Y-101146536D01*
X150978810Y-101173103D01*
X150849135Y-101256546D01*
X150762141Y-101383866D01*
X150731536Y-101535000D01*
X150731536Y-102997000D01*
X150258464Y-102997000D01*
X150258464Y-101535000D01*
X150231897Y-101393810D01*
X150148454Y-101264135D01*
X150021134Y-101177141D01*
X149870000Y-101146536D01*
X149220000Y-101146536D01*
X149197503Y-101150769D01*
X149270882Y-100974054D01*
X149270970Y-100872622D01*
X149360128Y-100783464D01*
X149660439Y-100783464D01*
X149810301Y-100933327D01*
X150043690Y-101030000D01*
X150209250Y-101030000D01*
X150368000Y-100871250D01*
X150368000Y-99742000D01*
X150348000Y-99742000D01*
X150348000Y-99488000D01*
X150368000Y-99488000D01*
X150368000Y-99468000D01*
X150622000Y-99468000D01*
X150622000Y-99488000D01*
X150642000Y-99488000D01*
X150642000Y-99742000D01*
X150622000Y-99742000D01*
X150622000Y-100871250D01*
X150780750Y-101030000D01*
X150946310Y-101030000D01*
X151179699Y-100933327D01*
X151329561Y-100783464D01*
X151770000Y-100783464D01*
X151911190Y-100756897D01*
X152040865Y-100673454D01*
X152127859Y-100546134D01*
X152158464Y-100395000D01*
X152158464Y-99490128D01*
X152356796Y-99291796D01*
X152466483Y-99127638D01*
X152505000Y-98934000D01*
X152505000Y-98295464D01*
X152749000Y-98295464D01*
X152890190Y-98268897D01*
X153019865Y-98185454D01*
X153106859Y-98058134D01*
X153137464Y-97907000D01*
X153137464Y-96657000D01*
X153110897Y-96515810D01*
X153027454Y-96386135D01*
X152900134Y-96299141D01*
X152749000Y-96268536D01*
X152024904Y-96268536D01*
X151322184Y-95565816D01*
X151117473Y-95429032D01*
X150876000Y-95381000D01*
X147828000Y-95381000D01*
X147586527Y-95429032D01*
X147381816Y-95565816D01*
X147245032Y-95770527D01*
X147197000Y-96012000D01*
X147197000Y-98298000D01*
X147216160Y-98394325D01*
X147132638Y-98338517D01*
X146939000Y-98300000D01*
X146745362Y-98338517D01*
X146581204Y-98448204D01*
X146506000Y-98560755D01*
X146506000Y-95071000D01*
X155242631Y-95071000D01*
X153985816Y-96327816D01*
G36*
X148452632Y-99815000D02*
X148143816Y-100123816D01*
X148007032Y-100328527D01*
X147959000Y-100570000D01*
X147959000Y-100581818D01*
X147909118Y-100701946D01*
X147908882Y-100972865D01*
X148012339Y-101223252D01*
X148203741Y-101414987D01*
X148453946Y-101518882D01*
X148724865Y-101519118D01*
X148844786Y-101469568D01*
X148831536Y-101535000D01*
X148831536Y-102997000D01*
X146506000Y-102997000D01*
X146506000Y-99716944D01*
X146679741Y-99890987D01*
X146929946Y-99994882D01*
X147200865Y-99995118D01*
X147451252Y-99891661D01*
X147642987Y-99700259D01*
X147746882Y-99450054D01*
X147747118Y-99179135D01*
X147698077Y-99060445D01*
X148452632Y-99815000D01*
X148452632Y-99815000D01*
G37*
X148452632Y-99815000D02*
X148143816Y-100123816D01*
X148007032Y-100328527D01*
X147959000Y-100570000D01*
X147959000Y-100581818D01*
X147909118Y-100701946D01*
X147908882Y-100972865D01*
X148012339Y-101223252D01*
X148203741Y-101414987D01*
X148453946Y-101518882D01*
X148724865Y-101519118D01*
X148844786Y-101469568D01*
X148831536Y-101535000D01*
X148831536Y-102997000D01*
X146506000Y-102997000D01*
X146506000Y-99716944D01*
X146679741Y-99890987D01*
X146929946Y-99994882D01*
X147200865Y-99995118D01*
X147451252Y-99891661D01*
X147642987Y-99700259D01*
X147746882Y-99450054D01*
X147747118Y-99179135D01*
X147698077Y-99060445D01*
X148452632Y-99815000D01*
G36*
X156369000Y-98647250D02*
X156527750Y-98806000D01*
X157627000Y-98806000D01*
X157627000Y-98786000D01*
X157881000Y-98786000D01*
X157881000Y-98806000D01*
X157901000Y-98806000D01*
X157901000Y-99060000D01*
X157881000Y-99060000D01*
X157881000Y-100034250D01*
X158039750Y-100193000D01*
X158630309Y-100193000D01*
X158863698Y-100096327D01*
X159042327Y-99917699D01*
X159139000Y-99684310D01*
X159139000Y-99682699D01*
X159142103Y-99699190D01*
X159225546Y-99828865D01*
X159352866Y-99915859D01*
X159504000Y-99946464D01*
X159846093Y-99946464D01*
X159810810Y-99953103D01*
X159681135Y-100036546D01*
X159594141Y-100163866D01*
X159563536Y-100315000D01*
X159563536Y-101387872D01*
X159466402Y-101485006D01*
X159234017Y-101484804D01*
X158818177Y-101656625D01*
X158499744Y-101974503D01*
X158369411Y-102288378D01*
X158247259Y-102166013D01*
X157997054Y-102062118D01*
X157726135Y-102061882D01*
X157475748Y-102165339D01*
X157416564Y-102224420D01*
X157358259Y-102166013D01*
X157108054Y-102062118D01*
X156837135Y-102061882D01*
X156586748Y-102165339D01*
X156527564Y-102224420D01*
X156469259Y-102166013D01*
X156219054Y-102062118D01*
X155954000Y-102061887D01*
X155954000Y-99218750D01*
X156369000Y-99218750D01*
X156369000Y-99684310D01*
X156465673Y-99917699D01*
X156644302Y-100096327D01*
X156877691Y-100193000D01*
X157468250Y-100193000D01*
X157627000Y-100034250D01*
X157627000Y-99060000D01*
X156527750Y-99060000D01*
X156369000Y-99218750D01*
X155954000Y-99218750D01*
X155954000Y-99015592D01*
X156369000Y-98600592D01*
X156369000Y-98647250D01*
X156369000Y-98647250D01*
G37*
X156369000Y-98647250D02*
X156527750Y-98806000D01*
X157627000Y-98806000D01*
X157627000Y-98786000D01*
X157881000Y-98786000D01*
X157881000Y-98806000D01*
X157901000Y-98806000D01*
X157901000Y-99060000D01*
X157881000Y-99060000D01*
X157881000Y-100034250D01*
X158039750Y-100193000D01*
X158630309Y-100193000D01*
X158863698Y-100096327D01*
X159042327Y-99917699D01*
X159139000Y-99684310D01*
X159139000Y-99682699D01*
X159142103Y-99699190D01*
X159225546Y-99828865D01*
X159352866Y-99915859D01*
X159504000Y-99946464D01*
X159846093Y-99946464D01*
X159810810Y-99953103D01*
X159681135Y-100036546D01*
X159594141Y-100163866D01*
X159563536Y-100315000D01*
X159563536Y-101387872D01*
X159466402Y-101485006D01*
X159234017Y-101484804D01*
X158818177Y-101656625D01*
X158499744Y-101974503D01*
X158369411Y-102288378D01*
X158247259Y-102166013D01*
X157997054Y-102062118D01*
X157726135Y-102061882D01*
X157475748Y-102165339D01*
X157416564Y-102224420D01*
X157358259Y-102166013D01*
X157108054Y-102062118D01*
X156837135Y-102061882D01*
X156586748Y-102165339D01*
X156527564Y-102224420D01*
X156469259Y-102166013D01*
X156219054Y-102062118D01*
X155954000Y-102061887D01*
X155954000Y-99218750D01*
X156369000Y-99218750D01*
X156369000Y-99684310D01*
X156465673Y-99917699D01*
X156644302Y-100096327D01*
X156877691Y-100193000D01*
X157468250Y-100193000D01*
X157627000Y-100034250D01*
X157627000Y-99060000D01*
X156527750Y-99060000D01*
X156369000Y-99218750D01*
X155954000Y-99218750D01*
X155954000Y-99015592D01*
X156369000Y-98600592D01*
X156369000Y-98647250D01*
G36*
X149626000Y-97155000D02*
X149646000Y-97155000D01*
X149646000Y-97409000D01*
X149626000Y-97409000D01*
X149626000Y-97429000D01*
X149372000Y-97429000D01*
X149372000Y-97409000D01*
X149352000Y-97409000D01*
X149352000Y-97155000D01*
X149372000Y-97155000D01*
X149372000Y-97135000D01*
X149626000Y-97135000D01*
X149626000Y-97155000D01*
X149626000Y-97155000D01*
G37*
X149626000Y-97155000D02*
X149646000Y-97155000D01*
X149646000Y-97409000D01*
X149626000Y-97409000D01*
X149626000Y-97429000D01*
X149372000Y-97429000D01*
X149372000Y-97409000D01*
X149352000Y-97409000D01*
X149352000Y-97155000D01*
X149372000Y-97155000D01*
X149372000Y-97135000D01*
X149626000Y-97135000D01*
X149626000Y-97155000D01*
M02*
