G04 #@! TF.FileFunction,Copper,L1,Top,Signal*
%FSLAX46Y46*%
G04 Gerber Fmt 4.6, Leading zero omitted, Abs format (unit mm)*
G04 Created by KiCad (PCBNEW 4.0.6) date 08/04/17 15:07:46*
%MOMM*%
%LPD*%
G01*
G04 APERTURE LIST*
%ADD10C,0.100000*%
%ADD11R,1.143000X0.508000*%
%ADD12R,1.250000X1.500000*%
%ADD13R,1.300000X1.500000*%
%ADD14C,1.500000*%
%ADD15R,1.500000X1.250000*%
%ADD16R,1.560000X0.650000*%
%ADD17R,1.500000X1.300000*%
%ADD18R,1.100000X2.250000*%
%ADD19R,1.050000X1.100000*%
%ADD20R,0.650000X1.560000*%
%ADD21R,1.700000X1.700000*%
%ADD22O,1.700000X1.700000*%
%ADD23C,0.600000*%
%ADD24C,0.250000*%
%ADD25C,0.500000*%
%ADD26C,0.254000*%
G04 APERTURE END LIST*
D10*
D11*
X160782000Y-135255000D03*
X160782000Y-133985000D03*
X160782000Y-132715000D03*
X160782000Y-131445000D03*
X160782000Y-130175000D03*
X160782000Y-128905000D03*
X160782000Y-127635000D03*
X154432000Y-127635000D03*
X154432000Y-128905000D03*
X154432000Y-131445000D03*
X154432000Y-132715000D03*
X154432000Y-133985000D03*
X154432000Y-135255000D03*
X154432000Y-130175000D03*
D12*
X158750000Y-120035000D03*
X158750000Y-122535000D03*
D13*
X153035000Y-123270000D03*
X153035000Y-120570000D03*
D14*
X164338000Y-102616000D03*
X159458000Y-102616000D03*
D15*
X164485000Y-132080000D03*
X166985000Y-132080000D03*
D16*
X147875000Y-109540000D03*
X147875000Y-110490000D03*
X147875000Y-111440000D03*
X150575000Y-111440000D03*
X150575000Y-109540000D03*
D17*
X164385000Y-127000000D03*
X167085000Y-127000000D03*
X164385000Y-121920000D03*
X167085000Y-121920000D03*
X167085000Y-134620000D03*
X164385000Y-134620000D03*
D13*
X156210000Y-138985000D03*
X156210000Y-141685000D03*
D17*
X167085000Y-137160000D03*
X164385000Y-137160000D03*
D13*
X161290000Y-138985000D03*
X161290000Y-141685000D03*
D15*
X150475000Y-132080000D03*
X147975000Y-132080000D03*
D12*
X156210000Y-120035000D03*
X156210000Y-122535000D03*
D15*
X151999000Y-104521000D03*
X149499000Y-104521000D03*
X151999000Y-97282000D03*
X149499000Y-97282000D03*
X159492000Y-107061000D03*
X156992000Y-107061000D03*
X147975000Y-107315000D03*
X150475000Y-107315000D03*
X156992000Y-110109000D03*
X159492000Y-110109000D03*
D18*
X167210000Y-140970000D03*
X164260000Y-140970000D03*
D19*
X165735000Y-139420000D03*
D18*
X150700000Y-140970000D03*
X147750000Y-140970000D03*
D19*
X149225000Y-139420000D03*
D13*
X161925000Y-123270000D03*
X161925000Y-120570000D03*
D17*
X150575000Y-121920000D03*
X147875000Y-121920000D03*
X147875000Y-134620000D03*
X150575000Y-134620000D03*
X164385000Y-129540000D03*
X167085000Y-129540000D03*
X150575000Y-129540000D03*
X147875000Y-129540000D03*
X150575000Y-127000000D03*
X147875000Y-127000000D03*
X167085000Y-124460000D03*
X164385000Y-124460000D03*
X147875000Y-124460000D03*
X150575000Y-124460000D03*
D13*
X153670000Y-138985000D03*
X153670000Y-141685000D03*
X158750000Y-138985000D03*
X158750000Y-141685000D03*
D17*
X147875000Y-137160000D03*
X150575000Y-137160000D03*
D13*
X153035000Y-114855000D03*
X153035000Y-117555000D03*
D17*
X160227000Y-98933000D03*
X157527000Y-98933000D03*
X160227000Y-96901000D03*
X157527000Y-96901000D03*
X166196000Y-98806000D03*
X163496000Y-98806000D03*
X166069000Y-96901000D03*
X163369000Y-96901000D03*
X147875000Y-117475000D03*
X150575000Y-117475000D03*
X147875000Y-115570000D03*
X150575000Y-115570000D03*
X150575000Y-113030000D03*
X147875000Y-113030000D03*
D20*
X149545000Y-102315000D03*
X150495000Y-102315000D03*
X151445000Y-102315000D03*
X151445000Y-99615000D03*
X149545000Y-99615000D03*
D21*
X170053000Y-96012000D03*
D22*
X172593000Y-96012000D03*
X170053000Y-98552000D03*
X172593000Y-98552000D03*
X170053000Y-101092000D03*
X172593000Y-101092000D03*
X170053000Y-103632000D03*
X172593000Y-103632000D03*
X170053000Y-106172000D03*
X172593000Y-106172000D03*
X170053000Y-108712000D03*
X172593000Y-108712000D03*
X170053000Y-111252000D03*
X172593000Y-111252000D03*
X170053000Y-113792000D03*
X172593000Y-113792000D03*
X170053000Y-116332000D03*
X172593000Y-116332000D03*
X170053000Y-118872000D03*
X172593000Y-118872000D03*
X170053000Y-121412000D03*
X172593000Y-121412000D03*
X170053000Y-123952000D03*
X172593000Y-123952000D03*
X170053000Y-126492000D03*
X172593000Y-126492000D03*
X170053000Y-129032000D03*
X172593000Y-129032000D03*
X170053000Y-131572000D03*
X172593000Y-131572000D03*
X170053000Y-134112000D03*
X172593000Y-134112000D03*
X170053000Y-136652000D03*
X172593000Y-136652000D03*
X170053000Y-139192000D03*
X172593000Y-139192000D03*
X170053000Y-141732000D03*
X172593000Y-141732000D03*
D23*
X150622000Y-120396000D03*
X163195000Y-139065000D03*
X168402000Y-99822000D03*
X147066000Y-99314000D03*
X162560000Y-135255000D03*
X161290000Y-136525000D03*
X160274000Y-127508000D03*
X162560000Y-127254000D03*
X163195000Y-122809000D03*
X161925000Y-128905000D03*
X154559000Y-127254000D03*
X152527000Y-127254000D03*
X151892000Y-122809000D03*
X153035000Y-128905000D03*
X154432000Y-135255000D03*
X152400000Y-134620000D03*
X155067000Y-110896400D03*
X157505400Y-109778800D03*
X156362400Y-109829600D03*
X156946600Y-109347000D03*
X151765000Y-108585000D03*
X160020000Y-131445000D03*
X162306000Y-99949000D03*
X164846000Y-100584000D03*
X150495000Y-102315000D03*
X159492000Y-109352400D03*
X158851600Y-108788200D03*
X159131000Y-107188000D03*
X166116000Y-107442000D03*
X155702000Y-97282000D03*
X153670000Y-97282000D03*
X156210000Y-99060000D03*
X160020000Y-107188000D03*
X156845000Y-132080000D03*
X157480000Y-138985000D03*
X154940000Y-131445000D03*
X149499000Y-97282000D03*
X149499000Y-104521000D03*
X160020000Y-116459000D03*
X159004000Y-132334000D03*
X162560000Y-133477000D03*
X147875000Y-121920000D03*
X146812000Y-120650000D03*
X150876000Y-105664000D03*
X147066000Y-104775000D03*
X160655000Y-113030000D03*
X155829000Y-111683800D03*
X160020000Y-140335000D03*
X154940000Y-140462000D03*
X153035000Y-125476000D03*
X149225000Y-137160000D03*
X159893000Y-117983000D03*
X157480000Y-117856000D03*
X167085000Y-137160000D03*
X147875000Y-137160000D03*
X152654000Y-132969000D03*
X149225000Y-133350000D03*
X158750000Y-124206000D03*
X155956000Y-124206000D03*
X152400000Y-106426000D03*
X152146000Y-113284000D03*
X152400000Y-110236000D03*
X152908000Y-108712000D03*
X155575000Y-116840000D03*
X168275000Y-123190000D03*
X165735000Y-121285000D03*
X151892000Y-117856000D03*
X161925000Y-125730000D03*
X165735000Y-133350000D03*
X155956000Y-132334000D03*
X155956000Y-115824000D03*
X148590000Y-100838000D03*
X157353000Y-107442000D03*
X156591000Y-106807000D03*
X156591000Y-107442000D03*
X157353000Y-106807000D03*
X160147000Y-108331000D03*
X153924000Y-108839000D03*
X147875000Y-109540000D03*
X149352000Y-111506000D03*
X166243000Y-100584000D03*
X158877000Y-96901000D03*
X164719000Y-97663000D03*
X156972000Y-102743000D03*
X165227000Y-117983000D03*
X157861000Y-102743000D03*
X167005000Y-118872000D03*
X160782000Y-103505000D03*
X166370000Y-117856000D03*
X160782000Y-104394000D03*
X151765000Y-119380000D03*
X161925000Y-130175000D03*
X153035000Y-130175000D03*
X156083000Y-102743000D03*
X162306000Y-97790000D03*
D24*
X150542000Y-120316000D02*
X150622000Y-120396000D01*
X163195000Y-139065000D02*
X163195000Y-138430000D01*
X167894000Y-100838000D02*
X167894000Y-100330000D01*
X167894000Y-100330000D02*
X168402000Y-99822000D01*
X146812000Y-98171000D02*
X146812000Y-99060000D01*
X146812000Y-99060000D02*
X147066000Y-99314000D01*
X164485000Y-132080000D02*
X164485000Y-134520000D01*
X164485000Y-134520000D02*
X164385000Y-134620000D01*
X164385000Y-134620000D02*
X163195000Y-134620000D01*
X163195000Y-134620000D02*
X162560000Y-135255000D01*
X164385000Y-134620000D02*
X164385000Y-134700000D01*
X160782000Y-136525000D02*
X161290000Y-136525000D01*
X164385000Y-134620000D02*
X163830000Y-134620000D01*
X160782000Y-135255000D02*
X160782000Y-136525000D01*
X160782000Y-136525000D02*
X160782000Y-136652000D01*
X161290000Y-137160000D02*
X161290000Y-138985000D01*
X160782000Y-136652000D02*
X161290000Y-137160000D01*
X165227000Y-132207000D02*
X165561000Y-132207000D01*
X166985000Y-132080000D02*
X166985000Y-131425000D01*
X166985000Y-131425000D02*
X165100000Y-129540000D01*
X165100000Y-129540000D02*
X164385000Y-129540000D01*
X161925000Y-120570000D02*
X163035000Y-120570000D01*
X163035000Y-120570000D02*
X164385000Y-121920000D01*
X164385000Y-129540000D02*
X164465000Y-129540000D01*
X164465000Y-129540000D02*
X165735000Y-128270000D01*
X165735000Y-123270000D02*
X164385000Y-121920000D01*
X165735000Y-128270000D02*
X165735000Y-123270000D01*
X166985000Y-132080000D02*
X166925000Y-132080000D01*
X160782000Y-133985000D02*
X161925000Y-133985000D01*
X167085000Y-135810000D02*
X167085000Y-134620000D01*
X167005000Y-135890000D02*
X167085000Y-135810000D01*
X161925000Y-135890000D02*
X167005000Y-135890000D01*
X161925000Y-133985000D02*
X161925000Y-135890000D01*
X166985000Y-132080000D02*
X166985000Y-133330000D01*
X166985000Y-133330000D02*
X167085000Y-133430000D01*
X167085000Y-133430000D02*
X167085000Y-134620000D01*
X160274000Y-127508000D02*
X160401000Y-127635000D01*
X160401000Y-127635000D02*
X160782000Y-127635000D01*
X162179000Y-127635000D02*
X160782000Y-127635000D01*
X162560000Y-127254000D02*
X162179000Y-127635000D01*
X161290000Y-127635000D02*
X160782000Y-127635000D01*
X161925000Y-123270000D02*
X162734000Y-123270000D01*
X162734000Y-123270000D02*
X163195000Y-122809000D01*
X161925000Y-128905000D02*
X160782000Y-128905000D01*
X154432000Y-127635000D02*
X154432000Y-127381000D01*
X154432000Y-127381000D02*
X154559000Y-127254000D01*
X154432000Y-127635000D02*
X152908000Y-127635000D01*
X152908000Y-127635000D02*
X152527000Y-127254000D01*
X153035000Y-123270000D02*
X152353000Y-123270000D01*
X152353000Y-123270000D02*
X151892000Y-122809000D01*
X154432000Y-128905000D02*
X153035000Y-128905000D01*
X150575000Y-134620000D02*
X152400000Y-134620000D01*
X150575000Y-134620000D02*
X151130000Y-134620000D01*
X154432000Y-135255000D02*
X154432000Y-135890000D01*
X154432000Y-135890000D02*
X154432000Y-137033000D01*
X153670000Y-137795000D02*
X153670000Y-138985000D01*
X154432000Y-137033000D02*
X153670000Y-137795000D01*
X150575000Y-134620000D02*
X150575000Y-132180000D01*
X150575000Y-132180000D02*
X150475000Y-132080000D01*
X147975000Y-132080000D02*
X147975000Y-131679000D01*
X147975000Y-131679000D02*
X150114000Y-129540000D01*
X150114000Y-129540000D02*
X150575000Y-129540000D01*
X154432000Y-133985000D02*
X153035000Y-133985000D01*
X148590000Y-135890000D02*
X147875000Y-135175000D01*
X153035000Y-135890000D02*
X148590000Y-135890000D01*
X153035000Y-133985000D02*
X153035000Y-135890000D01*
X147875000Y-135175000D02*
X147875000Y-134620000D01*
X150575000Y-121920000D02*
X151130000Y-121920000D01*
X151130000Y-121920000D02*
X152480000Y-120570000D01*
X152480000Y-120570000D02*
X153035000Y-120570000D01*
X147875000Y-134620000D02*
X147955000Y-134620000D01*
X150575000Y-129540000D02*
X150495000Y-129540000D01*
X150495000Y-129540000D02*
X149225000Y-128270000D01*
X149225000Y-123270000D02*
X150575000Y-121920000D01*
X149225000Y-128270000D02*
X149225000Y-123270000D01*
X147975000Y-132080000D02*
X147975000Y-134520000D01*
X147975000Y-134520000D02*
X147875000Y-134620000D01*
X150575000Y-129540000D02*
X150515000Y-129540000D01*
X150829000Y-122555000D02*
X150829000Y-122221000D01*
D25*
X160020000Y-131445000D02*
X160020000Y-131419600D01*
X155067000Y-113207800D02*
X155067000Y-110896400D01*
X155752800Y-113893600D02*
X155067000Y-113207800D01*
X160248600Y-113893600D02*
X155752800Y-113893600D01*
X161290000Y-114935000D02*
X160248600Y-113893600D01*
X161290000Y-116941600D02*
X161290000Y-114935000D01*
X160655000Y-117576600D02*
X161290000Y-116941600D01*
X160655000Y-125755400D02*
X160655000Y-117576600D01*
X159435800Y-126974600D02*
X160655000Y-125755400D01*
X159435800Y-130835400D02*
X159435800Y-126974600D01*
X160020000Y-131419600D02*
X159435800Y-130835400D01*
D24*
X157505400Y-109778800D02*
X157175200Y-110109000D01*
X157175200Y-110109000D02*
X156992000Y-110109000D01*
X156362400Y-109829600D02*
X156641800Y-110109000D01*
X156641800Y-110109000D02*
X156992000Y-110109000D01*
X156992000Y-109392400D02*
X156992000Y-110109000D01*
X156946600Y-109347000D02*
X156992000Y-109392400D01*
D25*
X156972000Y-110089000D02*
X156992000Y-110109000D01*
X156972000Y-110089000D02*
X156992000Y-110109000D01*
X156718000Y-110109000D02*
X156992000Y-110109000D01*
X156464000Y-109855000D02*
X156718000Y-110109000D01*
D24*
X151765000Y-108585000D02*
X150810000Y-109540000D01*
X150810000Y-109540000D02*
X150575000Y-109540000D01*
X160020000Y-131445000D02*
X160782000Y-131445000D01*
X156865000Y-110236000D02*
X156992000Y-110109000D01*
X164211000Y-99949000D02*
X162306000Y-99949000D01*
X164846000Y-100584000D02*
X164211000Y-99949000D01*
X172593000Y-111252000D02*
X172593000Y-111575002D01*
D25*
X172593000Y-111252000D02*
X172847000Y-111252000D01*
X172847000Y-111252000D02*
X173990000Y-112395000D01*
X172593000Y-111252000D02*
X172593000Y-110871000D01*
X172593000Y-110871000D02*
X173990000Y-109474000D01*
X172593000Y-101092000D02*
X172593000Y-101219000D01*
X172593000Y-101219000D02*
X173990000Y-102616000D01*
X147875000Y-110490000D02*
X151511000Y-110490000D01*
X155321000Y-131445000D02*
X154432000Y-131445000D01*
X155575000Y-131191000D02*
X155321000Y-131445000D01*
X155575000Y-127000000D02*
X155575000Y-131191000D01*
X154305000Y-125730000D02*
X155575000Y-127000000D01*
X154305000Y-113284000D02*
X154305000Y-125730000D01*
X151511000Y-110490000D02*
X154305000Y-113284000D01*
X147875000Y-110490000D02*
X146812000Y-110490000D01*
X146812000Y-110490000D02*
X146431000Y-110109000D01*
X146431000Y-110109000D02*
X146431000Y-108859000D01*
X146431000Y-108859000D02*
X147975000Y-107315000D01*
D24*
X146431000Y-108859000D02*
X147975000Y-107315000D01*
X146431000Y-110109000D02*
X146431000Y-108859000D01*
X146812000Y-110490000D02*
X146431000Y-110109000D01*
X159492000Y-110109000D02*
X159492000Y-109352400D01*
X159512000Y-109372400D02*
X159435800Y-109372400D01*
X159435800Y-109372400D02*
X158851600Y-108788200D01*
X159512000Y-109372400D02*
X159492000Y-109352400D01*
D25*
X159131000Y-107188000D02*
X159258000Y-107061000D01*
X159258000Y-107061000D02*
X159492000Y-107061000D01*
D24*
X155702000Y-98552000D02*
X156210000Y-99060000D01*
X155702000Y-98552000D02*
X155702000Y-97282000D01*
X155702000Y-97282000D02*
X153670000Y-97282000D01*
X147975000Y-107315000D02*
X147975000Y-105430000D01*
X147975000Y-105430000D02*
X148884000Y-104521000D01*
X148884000Y-104521000D02*
X149499000Y-104521000D01*
X160020000Y-107188000D02*
X159893000Y-107061000D01*
X159893000Y-107061000D02*
X159492000Y-107061000D01*
X157480000Y-132715000D02*
X157480000Y-138985000D01*
X156845000Y-132080000D02*
X157480000Y-132715000D01*
X156210000Y-138985000D02*
X157480000Y-138985000D01*
X157480000Y-138985000D02*
X158750000Y-138985000D01*
X154432000Y-131445000D02*
X154940000Y-131445000D01*
X172593000Y-101219000D02*
X173990000Y-102616000D01*
X173990000Y-102616000D02*
X173990000Y-108712000D01*
X172593000Y-110871000D02*
X173990000Y-109474000D01*
X173990000Y-109474000D02*
X173990000Y-108712000D01*
X172593000Y-136652000D02*
X172593000Y-136525000D01*
X172593000Y-136525000D02*
X173990000Y-135128000D01*
X173990000Y-135128000D02*
X173990000Y-129667000D01*
X172593000Y-131572000D02*
X172720000Y-131572000D01*
X172720000Y-131572000D02*
X173990000Y-130302000D01*
X173990000Y-130302000D02*
X173990000Y-129667000D01*
X173990000Y-129667000D02*
X173990000Y-126746000D01*
X170053000Y-126492000D02*
X170307000Y-126492000D01*
X170307000Y-126492000D02*
X171577000Y-127762000D01*
X171577000Y-127762000D02*
X173482000Y-127762000D01*
X173482000Y-127762000D02*
X173990000Y-127254000D01*
X173990000Y-127254000D02*
X173990000Y-126746000D01*
X173990000Y-126746000D02*
X173990000Y-117348000D01*
X172847000Y-111252000D02*
X173990000Y-112395000D01*
X173990000Y-112395000D02*
X173990000Y-117348000D01*
X173990000Y-117348000D02*
X173990000Y-117475000D01*
X173990000Y-117475000D02*
X172593000Y-118872000D01*
X155956000Y-138477000D02*
X156337000Y-138858000D01*
X150495000Y-102188000D02*
X150495000Y-103525000D01*
X150495000Y-103525000D02*
X149499000Y-104521000D01*
X150495000Y-102235000D02*
X150495000Y-102188000D01*
X158750000Y-117729000D02*
X158750000Y-120035000D01*
X160020000Y-116459000D02*
X158750000Y-117729000D01*
X160000000Y-120670000D02*
X158750000Y-120670000D01*
X160020000Y-120650000D02*
X160000000Y-120670000D01*
X160020000Y-125222000D02*
X160020000Y-120650000D01*
X158750000Y-126492000D02*
X160020000Y-125222000D01*
X158750000Y-132080000D02*
X158750000Y-126492000D01*
X159004000Y-132334000D02*
X158750000Y-132080000D01*
X162560000Y-133477000D02*
X162560000Y-132715000D01*
X146812000Y-120650000D02*
X147875000Y-121713000D01*
X147875000Y-121713000D02*
X147875000Y-121920000D01*
X151999000Y-104521000D02*
X151999000Y-104541000D01*
X151999000Y-104541000D02*
X150876000Y-105664000D01*
D25*
X147320000Y-103505000D02*
X147320000Y-104521000D01*
X147320000Y-104521000D02*
X147066000Y-104775000D01*
X151999000Y-104521000D02*
X151638000Y-104521000D01*
X149545000Y-99615000D02*
X148797000Y-99615000D01*
X148797000Y-99615000D02*
X148670000Y-99488000D01*
X148670000Y-99488000D02*
X147320000Y-100838000D01*
X147320000Y-100838000D02*
X147320000Y-103505000D01*
X147320000Y-103505000D02*
X147320000Y-104140000D01*
X160655000Y-113030000D02*
X157175200Y-113030000D01*
X157175200Y-113030000D02*
X155829000Y-111683800D01*
D24*
X147875000Y-137160000D02*
X149225000Y-137160000D01*
X157480000Y-117856000D02*
X157607000Y-117856000D01*
X152654000Y-131826000D02*
X152654000Y-132969000D01*
X151638000Y-130810000D02*
X152654000Y-131826000D01*
X149733000Y-130810000D02*
X151638000Y-130810000D01*
X149352000Y-131191000D02*
X149733000Y-130810000D01*
X149352000Y-133223000D02*
X149352000Y-131191000D01*
X149225000Y-133350000D02*
X149352000Y-133223000D01*
X158750000Y-122535000D02*
X158750000Y-124206000D01*
X156210000Y-122535000D02*
X156210000Y-123952000D01*
X156210000Y-123952000D02*
X155956000Y-124206000D01*
X147320000Y-104140000D02*
X147320000Y-100838000D01*
X148670000Y-99488000D02*
X149545000Y-99488000D01*
X147320000Y-100838000D02*
X148670000Y-99488000D01*
X151999000Y-104521000D02*
X151999000Y-106025000D01*
X151999000Y-106025000D02*
X152400000Y-106426000D01*
X152400000Y-110236000D02*
X152400000Y-109220000D01*
X151892000Y-113030000D02*
X152146000Y-113284000D01*
X150575000Y-113030000D02*
X151892000Y-113030000D01*
X152400000Y-109220000D02*
X152908000Y-108712000D01*
X167085000Y-124460000D02*
X167085000Y-124380000D01*
X167085000Y-124380000D02*
X168275000Y-123190000D01*
X152193000Y-117555000D02*
X151892000Y-117856000D01*
X152193000Y-117555000D02*
X153035000Y-117555000D01*
X155956000Y-132334000D02*
X156210000Y-132080000D01*
X156210000Y-132080000D02*
X156210000Y-126492000D01*
X156210000Y-126492000D02*
X155194000Y-125476000D01*
X155194000Y-125476000D02*
X155194000Y-121686000D01*
X155194000Y-121686000D02*
X156210000Y-120670000D01*
X156210000Y-116078000D02*
X156210000Y-120670000D01*
X155956000Y-115824000D02*
X156210000Y-116078000D01*
D25*
X149545000Y-102315000D02*
X149545000Y-101793000D01*
X149545000Y-101793000D02*
X148590000Y-100838000D01*
X149545000Y-101026000D02*
X149545000Y-102315000D01*
X151999000Y-97282000D02*
X151999000Y-98024000D01*
X151999000Y-98024000D02*
X152908000Y-98933000D01*
X152908000Y-98933000D02*
X152908000Y-100852000D01*
X152908000Y-100852000D02*
X151445000Y-102315000D01*
D24*
X171323000Y-97307400D02*
X171348400Y-97307400D01*
X171348400Y-97307400D02*
X172593000Y-98552000D01*
X168554400Y-97307400D02*
X171323000Y-97307400D01*
X171348400Y-97282000D02*
X171348400Y-97434400D01*
X171323000Y-97307400D02*
X171348400Y-97282000D01*
X171488100Y-97294700D02*
X171488100Y-97116900D01*
X171488100Y-97116900D02*
X172593000Y-96012000D01*
X172593000Y-98552000D02*
X172339000Y-98552000D01*
X172339000Y-98552000D02*
X171221400Y-99669600D01*
X168554400Y-97282000D02*
X168554400Y-97307400D01*
X168554400Y-97307400D02*
X168554400Y-98933000D01*
X171348400Y-97434400D02*
X171348400Y-97434400D01*
X171348400Y-97434400D02*
X171488100Y-97294700D01*
X171488100Y-97294700D02*
X171500800Y-97282000D01*
X171348400Y-99542600D02*
X171348400Y-97434400D01*
X171221400Y-99669600D02*
X171348400Y-99542600D01*
X171094400Y-99796600D02*
X171221400Y-99669600D01*
X169418000Y-99796600D02*
X171094400Y-99796600D01*
X168554400Y-98933000D02*
X169418000Y-99796600D01*
D25*
X166268400Y-94996000D02*
X168554400Y-97282000D01*
X151999000Y-97282000D02*
X152044400Y-97282000D01*
X152044400Y-97282000D02*
X154406600Y-94919800D01*
D24*
X171500800Y-97282000D02*
X172593000Y-97282000D01*
X166192200Y-94919800D02*
X166268400Y-94996000D01*
D25*
X154406600Y-94919800D02*
X166192200Y-94919800D01*
D24*
X172593000Y-98552000D02*
X172593000Y-97282000D01*
X172593000Y-97282000D02*
X172593000Y-96012000D01*
X149672000Y-102188000D02*
X149672000Y-101920000D01*
X149672000Y-101920000D02*
X148590000Y-100838000D01*
X149545000Y-101026000D02*
X149545000Y-102188000D01*
X149606000Y-100965000D02*
X149545000Y-101026000D01*
X151445000Y-101280000D02*
X151130000Y-100965000D01*
X151445000Y-102188000D02*
X151445000Y-101280000D01*
X151130000Y-100965000D02*
X149606000Y-100965000D01*
X152908000Y-100725000D02*
X151445000Y-102188000D01*
X152908000Y-98933000D02*
X152908000Y-100725000D01*
X151999000Y-98024000D02*
X152908000Y-98933000D01*
D25*
X157353000Y-107442000D02*
X156992000Y-107081000D01*
X156992000Y-107081000D02*
X156992000Y-107061000D01*
X156591000Y-107442000D02*
X156972000Y-107061000D01*
X156972000Y-107061000D02*
X156992000Y-107061000D01*
X157353000Y-106807000D02*
X157099000Y-107061000D01*
X157099000Y-107061000D02*
X156992000Y-107061000D01*
D24*
X158008000Y-108077000D02*
X156992000Y-107061000D01*
X160147000Y-108331000D02*
X159893000Y-108077000D01*
X159893000Y-108077000D02*
X158008000Y-108077000D01*
X150475000Y-107823000D02*
X152908000Y-107823000D01*
X152908000Y-107823000D02*
X153924000Y-108839000D01*
X149225000Y-111760000D02*
X149225000Y-111633000D01*
X149225000Y-111633000D02*
X149352000Y-111506000D01*
X153035000Y-114855000D02*
X153035000Y-113030000D01*
X151445000Y-111440000D02*
X150575000Y-111440000D01*
X153035000Y-113030000D02*
X151445000Y-111440000D01*
X150575000Y-111440000D02*
X150575000Y-111205000D01*
X150575000Y-111205000D02*
X150495000Y-111125000D01*
X147875000Y-117475000D02*
X149225000Y-117475000D01*
X149225000Y-117475000D02*
X149225000Y-111760000D01*
X149225000Y-111760000D02*
X149545000Y-111440000D01*
X149545000Y-111440000D02*
X150575000Y-111440000D01*
X152480000Y-114855000D02*
X153035000Y-114855000D01*
X164260000Y-140970000D02*
X164260000Y-141781000D01*
X164260000Y-141781000D02*
X165100000Y-142621000D01*
X167210000Y-142162000D02*
X167210000Y-140970000D01*
X166751000Y-142621000D02*
X167210000Y-142162000D01*
X165100000Y-142621000D02*
X166751000Y-142621000D01*
X164385000Y-137160000D02*
X164385000Y-138510000D01*
X164260000Y-138635000D02*
X164260000Y-140970000D01*
X164385000Y-138510000D02*
X164260000Y-138635000D01*
X161290000Y-141685000D02*
X163545000Y-141685000D01*
X163545000Y-141685000D02*
X164260000Y-140970000D01*
X158750000Y-141685000D02*
X161290000Y-141685000D01*
X165735000Y-139420000D02*
X167285000Y-139420000D01*
X168275000Y-130730000D02*
X167085000Y-129540000D01*
X168275000Y-138430000D02*
X168275000Y-130730000D01*
X167285000Y-139420000D02*
X168275000Y-138430000D01*
X167085000Y-127000000D02*
X167085000Y-129540000D01*
X147750000Y-140970000D02*
X147750000Y-141400000D01*
X147750000Y-141400000D02*
X148844000Y-142494000D01*
X148844000Y-142494000D02*
X150114000Y-142494000D01*
X150114000Y-142494000D02*
X150700000Y-141908000D01*
X150700000Y-141908000D02*
X150700000Y-140970000D01*
X150700000Y-140970000D02*
X150700000Y-137285000D01*
X150700000Y-137285000D02*
X150575000Y-137160000D01*
X153670000Y-141685000D02*
X151415000Y-141685000D01*
X151415000Y-141685000D02*
X150700000Y-140970000D01*
X154305000Y-141558000D02*
X156337000Y-141558000D01*
X147875000Y-129540000D02*
X147875000Y-127000000D01*
X149225000Y-139420000D02*
X147675000Y-139420000D01*
X146685000Y-130730000D02*
X147875000Y-129540000D01*
X146685000Y-138430000D02*
X146685000Y-130730000D01*
X147675000Y-139420000D02*
X146685000Y-138430000D01*
X170053000Y-113792000D02*
X171323000Y-112522000D01*
X161671000Y-97790000D02*
X160782000Y-96901000D01*
X161671000Y-100203000D02*
X161671000Y-97790000D01*
X162814000Y-101346000D02*
X161671000Y-100203000D01*
X162814000Y-102870000D02*
X162814000Y-101346000D01*
X164084000Y-104140000D02*
X162814000Y-102870000D01*
X167894000Y-104140000D02*
X164084000Y-104140000D01*
X168656000Y-104902000D02*
X167894000Y-104140000D01*
X171069000Y-104902000D02*
X168656000Y-104902000D01*
X171323000Y-105156000D02*
X171069000Y-104902000D01*
X171323000Y-112522000D02*
X171323000Y-105156000D01*
X160782000Y-96901000D02*
X160227000Y-96901000D01*
X170053000Y-113792000D02*
X170053000Y-113155602D01*
X170053000Y-113792000D02*
X170053000Y-113538000D01*
X160227000Y-96901000D02*
X160227000Y-96821000D01*
X160227000Y-96821000D02*
X161544000Y-95504000D01*
X161544000Y-95504000D02*
X164672000Y-95504000D01*
X164672000Y-95504000D02*
X166069000Y-96901000D01*
X166116000Y-100076000D02*
X166196000Y-100076000D01*
X166196000Y-100156000D02*
X166116000Y-100076000D01*
X166196000Y-100537000D02*
X166196000Y-100156000D01*
X166243000Y-100584000D02*
X166196000Y-100537000D01*
X172593000Y-113792000D02*
X172466000Y-113792000D01*
X166196000Y-98806000D02*
X166196000Y-100076000D01*
X166196000Y-98806000D02*
X165862000Y-98806000D01*
X165862000Y-98806000D02*
X164719000Y-97663000D01*
X158877000Y-98171000D02*
X159639000Y-98933000D01*
X158877000Y-96901000D02*
X158877000Y-98171000D01*
X159639000Y-98933000D02*
X160227000Y-98933000D01*
X166196000Y-98806000D02*
X165989000Y-98806000D01*
X160147000Y-98933000D02*
X160227000Y-98933000D01*
X170053000Y-118872000D02*
X169672000Y-118872000D01*
X169672000Y-118872000D02*
X168656000Y-117856000D01*
X168656000Y-117856000D02*
X168656000Y-106299000D01*
X168656000Y-106426000D02*
X168656000Y-105791000D01*
X156972000Y-102743000D02*
X156972000Y-101600000D01*
X156972000Y-101600000D02*
X157988000Y-100584000D01*
X157988000Y-100584000D02*
X160909000Y-100584000D01*
X160909000Y-100584000D02*
X162179000Y-101854000D01*
X162179000Y-101854000D02*
X162179000Y-102997000D01*
X162179000Y-102997000D02*
X163830000Y-104648000D01*
X163830000Y-104648000D02*
X167513000Y-104648000D01*
X167513000Y-104648000D02*
X168656000Y-105791000D01*
X168656000Y-106299000D02*
X168656000Y-106426000D01*
X168148000Y-119507000D02*
X166751000Y-119507000D01*
X166751000Y-119507000D02*
X165227000Y-117983000D01*
X170053000Y-121412000D02*
X170053000Y-121158000D01*
X168021000Y-119380000D02*
X168148000Y-119507000D01*
X168148000Y-119507000D02*
X170053000Y-121412000D01*
X168021000Y-105918000D02*
X168021000Y-119380000D01*
X167259000Y-105156000D02*
X168021000Y-105918000D01*
X163449000Y-105156000D02*
X167259000Y-105156000D01*
X161417000Y-103124000D02*
X163449000Y-105156000D01*
X161417000Y-102108000D02*
X161417000Y-103124000D01*
X160655000Y-101346000D02*
X161417000Y-102108000D01*
X159639000Y-101346000D02*
X160655000Y-101346000D01*
X158496000Y-101346000D02*
X159639000Y-101346000D01*
X157861000Y-101981000D02*
X158496000Y-101346000D01*
X157861000Y-102743000D02*
X157861000Y-101981000D01*
X167386000Y-114046000D02*
X167386000Y-118491000D01*
X167386000Y-118491000D02*
X167005000Y-118872000D01*
X167386000Y-106045000D02*
X167386000Y-114046000D01*
X167386000Y-114046000D02*
X167386000Y-114173000D01*
X167005000Y-105664000D02*
X167386000Y-106045000D01*
X162941000Y-105664000D02*
X167005000Y-105664000D01*
X160782000Y-103505000D02*
X162941000Y-105664000D01*
X166370000Y-117856000D02*
X166878000Y-117348000D01*
X166878000Y-117348000D02*
X166878000Y-106680000D01*
X166497000Y-106299000D02*
X166878000Y-106680000D01*
X162687000Y-106299000D02*
X166497000Y-106299000D01*
X160782000Y-104394000D02*
X162687000Y-106299000D01*
X150575000Y-118190000D02*
X150575000Y-117475000D01*
X151765000Y-119380000D02*
X150575000Y-118190000D01*
X150575000Y-117475000D02*
X150575000Y-117809000D01*
X150575000Y-118063000D02*
X150575000Y-117475000D01*
X150575000Y-117475000D02*
X150575000Y-115570000D01*
X163703000Y-127000000D02*
X164385000Y-127000000D01*
X162560000Y-128143000D02*
X163703000Y-127000000D01*
X162560000Y-130683000D02*
X162560000Y-128143000D01*
X161925000Y-131318000D02*
X162560000Y-130683000D01*
X161925000Y-131953000D02*
X161925000Y-131318000D01*
X161163000Y-132715000D02*
X161925000Y-131953000D01*
X160782000Y-132715000D02*
X161163000Y-132715000D01*
X164385000Y-124460000D02*
X164385000Y-127000000D01*
X160782000Y-132715000D02*
X161290000Y-132715000D01*
X161925000Y-130175000D02*
X160782000Y-130175000D01*
X161290000Y-130175000D02*
X160782000Y-130175000D01*
X154432000Y-130175000D02*
X153035000Y-130175000D01*
X150575000Y-127000000D02*
X151511000Y-127000000D01*
X151511000Y-127000000D02*
X150575000Y-127000000D01*
X150575000Y-127000000D02*
X151591000Y-128016000D01*
X151591000Y-128016000D02*
X152400000Y-128016000D01*
X152400000Y-128016000D02*
X152273000Y-128143000D01*
X152273000Y-128143000D02*
X152273000Y-130683000D01*
X152273000Y-130683000D02*
X153289000Y-131699000D01*
X153289000Y-131699000D02*
X153289000Y-132461000D01*
X153289000Y-132461000D02*
X153543000Y-132715000D01*
X153543000Y-132715000D02*
X154432000Y-132715000D01*
X150829000Y-124587000D02*
X150829000Y-126619000D01*
X156083000Y-102743000D02*
X156083000Y-101346000D01*
X156083000Y-101346000D02*
X157353000Y-100076000D01*
X157527000Y-98933000D02*
X157527000Y-96901000D01*
X157353000Y-100076000D02*
X157353000Y-99107000D01*
X157353000Y-99107000D02*
X157527000Y-98933000D01*
X162306000Y-97790000D02*
X163369000Y-97790000D01*
X163369000Y-97790000D02*
X163322000Y-97790000D01*
X163322000Y-97790000D02*
X163369000Y-97790000D01*
X163369000Y-96901000D02*
X163369000Y-97790000D01*
X163369000Y-97790000D02*
X163369000Y-98679000D01*
X163369000Y-98679000D02*
X163496000Y-98806000D01*
X147875000Y-113030000D02*
X147875000Y-111440000D01*
X147875000Y-115570000D02*
X147875000Y-113030000D01*
D26*
G36*
X155306616Y-114339785D02*
X155511327Y-114476568D01*
X155752800Y-114524600D01*
X159987232Y-114524600D01*
X160659000Y-115196368D01*
X160659000Y-116222201D01*
X160597661Y-116073748D01*
X160406259Y-115882013D01*
X160156054Y-115778118D01*
X159885135Y-115777882D01*
X159634748Y-115881339D01*
X159443013Y-116072741D01*
X159339118Y-116322946D01*
X159339030Y-116424378D01*
X158392204Y-117371204D01*
X158282517Y-117535362D01*
X158244000Y-117729000D01*
X158244000Y-118896536D01*
X158125000Y-118896536D01*
X157983810Y-118923103D01*
X157854135Y-119006546D01*
X157767141Y-119133866D01*
X157736536Y-119285000D01*
X157736536Y-120785000D01*
X157763103Y-120926190D01*
X157846546Y-121055865D01*
X157973866Y-121142859D01*
X158009130Y-121150000D01*
X157998690Y-121150000D01*
X157765301Y-121246673D01*
X157586673Y-121425302D01*
X157490000Y-121658691D01*
X157490000Y-122249250D01*
X157648750Y-122408000D01*
X158623000Y-122408000D01*
X158623000Y-122388000D01*
X158877000Y-122388000D01*
X158877000Y-122408000D01*
X158897000Y-122408000D01*
X158897000Y-122662000D01*
X158877000Y-122662000D01*
X158877000Y-123761250D01*
X159035750Y-123920000D01*
X159501310Y-123920000D01*
X159514000Y-123914744D01*
X159514000Y-125012408D01*
X158392204Y-126134204D01*
X158282517Y-126298362D01*
X158244000Y-126492000D01*
X158244000Y-132080000D01*
X158282517Y-132273638D01*
X158322999Y-132334224D01*
X158322882Y-132468865D01*
X158426339Y-132719252D01*
X158617741Y-132910987D01*
X158867946Y-133014882D01*
X159138865Y-133015118D01*
X159389252Y-132911661D01*
X159580987Y-132720259D01*
X159684882Y-132470054D01*
X159685118Y-132199135D01*
X159596514Y-131984695D01*
X159633741Y-132021987D01*
X159883946Y-132125882D01*
X160027500Y-132126007D01*
X159939635Y-132182546D01*
X159852641Y-132309866D01*
X159822036Y-132461000D01*
X159822036Y-132969000D01*
X159848603Y-133110190D01*
X159932046Y-133239865D01*
X160059366Y-133326859D01*
X160172288Y-133349726D01*
X160069310Y-133369103D01*
X159939635Y-133452546D01*
X159852641Y-133579866D01*
X159822036Y-133731000D01*
X159822036Y-134239000D01*
X159848603Y-134380190D01*
X159932046Y-134509865D01*
X160059366Y-134596859D01*
X160172288Y-134619726D01*
X160069310Y-134639103D01*
X159939635Y-134722546D01*
X159852641Y-134849866D01*
X159822036Y-135001000D01*
X159822036Y-135509000D01*
X159848603Y-135650190D01*
X159932046Y-135779865D01*
X160059366Y-135866859D01*
X160210500Y-135897464D01*
X160276000Y-135897464D01*
X160276000Y-136652000D01*
X160314517Y-136845638D01*
X160424204Y-137009796D01*
X160784000Y-137369592D01*
X160784000Y-137846536D01*
X160640000Y-137846536D01*
X160498810Y-137873103D01*
X160369135Y-137956546D01*
X160282141Y-138083866D01*
X160251536Y-138235000D01*
X160251536Y-139735000D01*
X160278103Y-139876190D01*
X160361546Y-140005865D01*
X160488866Y-140092859D01*
X160640000Y-140123464D01*
X161940000Y-140123464D01*
X162081190Y-140096897D01*
X162210865Y-140013454D01*
X162297859Y-139886134D01*
X162328464Y-139735000D01*
X162328464Y-138235000D01*
X162301897Y-138093810D01*
X162218454Y-137964135D01*
X162091134Y-137877141D01*
X161940000Y-137846536D01*
X161796000Y-137846536D01*
X161796000Y-137160000D01*
X161766480Y-137011592D01*
X161866987Y-136911259D01*
X161970882Y-136661054D01*
X161971113Y-136396000D01*
X163269621Y-136396000D01*
X163246536Y-136510000D01*
X163246536Y-137810000D01*
X163270825Y-137939082D01*
X163195000Y-137924000D01*
X163001362Y-137962517D01*
X162837204Y-138072204D01*
X162727517Y-138236362D01*
X162689000Y-138430000D01*
X162689000Y-138607877D01*
X162618013Y-138678741D01*
X162514118Y-138928946D01*
X162513882Y-139199865D01*
X162617339Y-139450252D01*
X162808741Y-139641987D01*
X163058946Y-139745882D01*
X163329865Y-139746118D01*
X163342628Y-139740845D01*
X163321536Y-139845000D01*
X163321536Y-141179000D01*
X162328464Y-141179000D01*
X162328464Y-140935000D01*
X162301897Y-140793810D01*
X162218454Y-140664135D01*
X162091134Y-140577141D01*
X161940000Y-140546536D01*
X160640000Y-140546536D01*
X160498810Y-140573103D01*
X160369135Y-140656546D01*
X160282141Y-140783866D01*
X160251536Y-140935000D01*
X160251536Y-141179000D01*
X159788464Y-141179000D01*
X159788464Y-140935000D01*
X159761897Y-140793810D01*
X159678454Y-140664135D01*
X159551134Y-140577141D01*
X159400000Y-140546536D01*
X158100000Y-140546536D01*
X157958810Y-140573103D01*
X157829135Y-140656546D01*
X157742141Y-140783866D01*
X157711536Y-140935000D01*
X157711536Y-142435000D01*
X157738103Y-142576190D01*
X157821546Y-142705865D01*
X157948866Y-142792859D01*
X158100000Y-142823464D01*
X159400000Y-142823464D01*
X159541190Y-142796897D01*
X159670865Y-142713454D01*
X159757859Y-142586134D01*
X159788464Y-142435000D01*
X159788464Y-142191000D01*
X160251536Y-142191000D01*
X160251536Y-142435000D01*
X160278103Y-142576190D01*
X160361546Y-142705865D01*
X160488866Y-142792859D01*
X160640000Y-142823464D01*
X161940000Y-142823464D01*
X162081190Y-142796897D01*
X162210865Y-142713454D01*
X162297859Y-142586134D01*
X162328464Y-142435000D01*
X162328464Y-142191000D01*
X163339600Y-142191000D01*
X163348103Y-142236190D01*
X163431546Y-142365865D01*
X163558866Y-142452859D01*
X163710000Y-142483464D01*
X164246872Y-142483464D01*
X164742204Y-142978796D01*
X164854755Y-143054000D01*
X146506000Y-143054000D01*
X146506000Y-138966592D01*
X147036723Y-139497315D01*
X146929135Y-139566546D01*
X146842141Y-139693866D01*
X146811536Y-139845000D01*
X146811536Y-142095000D01*
X146838103Y-142236190D01*
X146921546Y-142365865D01*
X147048866Y-142452859D01*
X147200000Y-142483464D01*
X148117872Y-142483464D01*
X148486204Y-142851796D01*
X148650362Y-142961483D01*
X148844000Y-143000000D01*
X150114000Y-143000000D01*
X150307638Y-142961483D01*
X150471796Y-142851796D01*
X150840128Y-142483464D01*
X151250000Y-142483464D01*
X151391190Y-142456897D01*
X151520865Y-142373454D01*
X151607859Y-142246134D01*
X151619024Y-142191000D01*
X152631536Y-142191000D01*
X152631536Y-142435000D01*
X152658103Y-142576190D01*
X152741546Y-142705865D01*
X152868866Y-142792859D01*
X153020000Y-142823464D01*
X154320000Y-142823464D01*
X154461190Y-142796897D01*
X154590865Y-142713454D01*
X154677859Y-142586134D01*
X154708464Y-142435000D01*
X154708464Y-142064000D01*
X155171536Y-142064000D01*
X155171536Y-142435000D01*
X155198103Y-142576190D01*
X155281546Y-142705865D01*
X155408866Y-142792859D01*
X155560000Y-142823464D01*
X156860000Y-142823464D01*
X157001190Y-142796897D01*
X157130865Y-142713454D01*
X157217859Y-142586134D01*
X157248464Y-142435000D01*
X157248464Y-140935000D01*
X157221897Y-140793810D01*
X157138454Y-140664135D01*
X157011134Y-140577141D01*
X156860000Y-140546536D01*
X155560000Y-140546536D01*
X155418810Y-140573103D01*
X155289135Y-140656546D01*
X155202141Y-140783866D01*
X155171536Y-140935000D01*
X155171536Y-141052000D01*
X154708464Y-141052000D01*
X154708464Y-140935000D01*
X154681897Y-140793810D01*
X154598454Y-140664135D01*
X154471134Y-140577141D01*
X154320000Y-140546536D01*
X153020000Y-140546536D01*
X152878810Y-140573103D01*
X152749135Y-140656546D01*
X152662141Y-140783866D01*
X152631536Y-140935000D01*
X152631536Y-141179000D01*
X151638464Y-141179000D01*
X151638464Y-139845000D01*
X151611897Y-139703810D01*
X151528454Y-139574135D01*
X151401134Y-139487141D01*
X151250000Y-139456536D01*
X151206000Y-139456536D01*
X151206000Y-138198464D01*
X151325000Y-138198464D01*
X151466190Y-138171897D01*
X151595865Y-138088454D01*
X151682859Y-137961134D01*
X151713464Y-137810000D01*
X151713464Y-136510000D01*
X151692013Y-136396000D01*
X153035000Y-136396000D01*
X153228638Y-136357483D01*
X153392796Y-136247796D01*
X153502483Y-136083638D01*
X153541000Y-135890000D01*
X153541000Y-135716077D01*
X153582046Y-135779865D01*
X153709366Y-135866859D01*
X153860500Y-135897464D01*
X153926000Y-135897464D01*
X153926000Y-136823408D01*
X153312204Y-137437204D01*
X153202517Y-137601362D01*
X153164000Y-137795000D01*
X153164000Y-137846536D01*
X153020000Y-137846536D01*
X152878810Y-137873103D01*
X152749135Y-137956546D01*
X152662141Y-138083866D01*
X152631536Y-138235000D01*
X152631536Y-139735000D01*
X152658103Y-139876190D01*
X152741546Y-140005865D01*
X152868866Y-140092859D01*
X153020000Y-140123464D01*
X154320000Y-140123464D01*
X154461190Y-140096897D01*
X154590865Y-140013454D01*
X154677859Y-139886134D01*
X154708464Y-139735000D01*
X154708464Y-138235000D01*
X154681897Y-138093810D01*
X154598454Y-137964135D01*
X154471134Y-137877141D01*
X154331689Y-137848903D01*
X154789796Y-137390796D01*
X154814625Y-137353637D01*
X154899483Y-137226638D01*
X154938000Y-137033000D01*
X154938000Y-135897464D01*
X155003500Y-135897464D01*
X155144690Y-135870897D01*
X155274365Y-135787454D01*
X155361359Y-135660134D01*
X155391964Y-135509000D01*
X155391964Y-135001000D01*
X155365397Y-134859810D01*
X155281954Y-134730135D01*
X155154634Y-134643141D01*
X155041712Y-134620274D01*
X155144690Y-134600897D01*
X155274365Y-134517454D01*
X155361359Y-134390134D01*
X155391964Y-134239000D01*
X155391964Y-133731000D01*
X155365397Y-133589810D01*
X155281954Y-133460135D01*
X155154634Y-133373141D01*
X155041712Y-133350274D01*
X155144690Y-133330897D01*
X155274365Y-133247454D01*
X155361359Y-133120134D01*
X155391964Y-132969000D01*
X155391964Y-132732901D01*
X155569741Y-132910987D01*
X155819946Y-133014882D01*
X156090865Y-133015118D01*
X156341252Y-132911661D01*
X156532987Y-132720259D01*
X156544477Y-132692588D01*
X156708946Y-132760882D01*
X156810378Y-132760970D01*
X156974000Y-132924592D01*
X156974000Y-137869621D01*
X156860000Y-137846536D01*
X155560000Y-137846536D01*
X155418810Y-137873103D01*
X155289135Y-137956546D01*
X155202141Y-138083866D01*
X155171536Y-138235000D01*
X155171536Y-139735000D01*
X155198103Y-139876190D01*
X155281546Y-140005865D01*
X155408866Y-140092859D01*
X155560000Y-140123464D01*
X156860000Y-140123464D01*
X157001190Y-140096897D01*
X157130865Y-140013454D01*
X157217859Y-139886134D01*
X157248464Y-139735000D01*
X157248464Y-139626234D01*
X157343946Y-139665882D01*
X157614865Y-139666118D01*
X157711536Y-139626175D01*
X157711536Y-139735000D01*
X157738103Y-139876190D01*
X157821546Y-140005865D01*
X157948866Y-140092859D01*
X158100000Y-140123464D01*
X159400000Y-140123464D01*
X159541190Y-140096897D01*
X159670865Y-140013454D01*
X159757859Y-139886134D01*
X159788464Y-139735000D01*
X159788464Y-138235000D01*
X159761897Y-138093810D01*
X159678454Y-137964135D01*
X159551134Y-137877141D01*
X159400000Y-137846536D01*
X158100000Y-137846536D01*
X157986000Y-137867987D01*
X157986000Y-132715000D01*
X157947483Y-132521362D01*
X157837796Y-132357204D01*
X157526031Y-132045439D01*
X157526118Y-131945135D01*
X157422661Y-131694748D01*
X157231259Y-131503013D01*
X156981054Y-131399118D01*
X156716000Y-131398887D01*
X156716000Y-126492000D01*
X156677483Y-126298362D01*
X156567796Y-126134204D01*
X155700000Y-125266408D01*
X155700000Y-123920000D01*
X155924250Y-123920000D01*
X156083000Y-123761250D01*
X156083000Y-122662000D01*
X156337000Y-122662000D01*
X156337000Y-123761250D01*
X156495750Y-123920000D01*
X156961310Y-123920000D01*
X157194699Y-123823327D01*
X157373327Y-123644698D01*
X157470000Y-123411309D01*
X157470000Y-122820750D01*
X157490000Y-122820750D01*
X157490000Y-123411309D01*
X157586673Y-123644698D01*
X157765301Y-123823327D01*
X157998690Y-123920000D01*
X158464250Y-123920000D01*
X158623000Y-123761250D01*
X158623000Y-122662000D01*
X157648750Y-122662000D01*
X157490000Y-122820750D01*
X157470000Y-122820750D01*
X157311250Y-122662000D01*
X156337000Y-122662000D01*
X156083000Y-122662000D01*
X156063000Y-122662000D01*
X156063000Y-122408000D01*
X156083000Y-122408000D01*
X156083000Y-122388000D01*
X156337000Y-122388000D01*
X156337000Y-122408000D01*
X157311250Y-122408000D01*
X157470000Y-122249250D01*
X157470000Y-121658691D01*
X157373327Y-121425302D01*
X157194699Y-121246673D01*
X156961310Y-121150000D01*
X156959699Y-121150000D01*
X156976190Y-121146897D01*
X157105865Y-121063454D01*
X157192859Y-120936134D01*
X157223464Y-120785000D01*
X157223464Y-119285000D01*
X157196897Y-119143810D01*
X157113454Y-119014135D01*
X156986134Y-118927141D01*
X156835000Y-118896536D01*
X156716000Y-118896536D01*
X156716000Y-116078000D01*
X156677483Y-115884362D01*
X156637001Y-115823776D01*
X156637118Y-115689135D01*
X156533661Y-115438748D01*
X156342259Y-115247013D01*
X156092054Y-115143118D01*
X155821135Y-115142882D01*
X155570748Y-115246339D01*
X155379013Y-115437741D01*
X155275118Y-115687946D01*
X155274882Y-115958865D01*
X155378339Y-116209252D01*
X155569741Y-116400987D01*
X155704000Y-116456737D01*
X155704000Y-118896536D01*
X155585000Y-118896536D01*
X155443810Y-118923103D01*
X155314135Y-119006546D01*
X155227141Y-119133866D01*
X155196536Y-119285000D01*
X155196536Y-120785000D01*
X155223103Y-120926190D01*
X155229021Y-120935387D01*
X154936000Y-121228408D01*
X154936000Y-113969168D01*
X155306616Y-114339785D01*
X155306616Y-114339785D01*
G37*
X155306616Y-114339785D02*
X155511327Y-114476568D01*
X155752800Y-114524600D01*
X159987232Y-114524600D01*
X160659000Y-115196368D01*
X160659000Y-116222201D01*
X160597661Y-116073748D01*
X160406259Y-115882013D01*
X160156054Y-115778118D01*
X159885135Y-115777882D01*
X159634748Y-115881339D01*
X159443013Y-116072741D01*
X159339118Y-116322946D01*
X159339030Y-116424378D01*
X158392204Y-117371204D01*
X158282517Y-117535362D01*
X158244000Y-117729000D01*
X158244000Y-118896536D01*
X158125000Y-118896536D01*
X157983810Y-118923103D01*
X157854135Y-119006546D01*
X157767141Y-119133866D01*
X157736536Y-119285000D01*
X157736536Y-120785000D01*
X157763103Y-120926190D01*
X157846546Y-121055865D01*
X157973866Y-121142859D01*
X158009130Y-121150000D01*
X157998690Y-121150000D01*
X157765301Y-121246673D01*
X157586673Y-121425302D01*
X157490000Y-121658691D01*
X157490000Y-122249250D01*
X157648750Y-122408000D01*
X158623000Y-122408000D01*
X158623000Y-122388000D01*
X158877000Y-122388000D01*
X158877000Y-122408000D01*
X158897000Y-122408000D01*
X158897000Y-122662000D01*
X158877000Y-122662000D01*
X158877000Y-123761250D01*
X159035750Y-123920000D01*
X159501310Y-123920000D01*
X159514000Y-123914744D01*
X159514000Y-125012408D01*
X158392204Y-126134204D01*
X158282517Y-126298362D01*
X158244000Y-126492000D01*
X158244000Y-132080000D01*
X158282517Y-132273638D01*
X158322999Y-132334224D01*
X158322882Y-132468865D01*
X158426339Y-132719252D01*
X158617741Y-132910987D01*
X158867946Y-133014882D01*
X159138865Y-133015118D01*
X159389252Y-132911661D01*
X159580987Y-132720259D01*
X159684882Y-132470054D01*
X159685118Y-132199135D01*
X159596514Y-131984695D01*
X159633741Y-132021987D01*
X159883946Y-132125882D01*
X160027500Y-132126007D01*
X159939635Y-132182546D01*
X159852641Y-132309866D01*
X159822036Y-132461000D01*
X159822036Y-132969000D01*
X159848603Y-133110190D01*
X159932046Y-133239865D01*
X160059366Y-133326859D01*
X160172288Y-133349726D01*
X160069310Y-133369103D01*
X159939635Y-133452546D01*
X159852641Y-133579866D01*
X159822036Y-133731000D01*
X159822036Y-134239000D01*
X159848603Y-134380190D01*
X159932046Y-134509865D01*
X160059366Y-134596859D01*
X160172288Y-134619726D01*
X160069310Y-134639103D01*
X159939635Y-134722546D01*
X159852641Y-134849866D01*
X159822036Y-135001000D01*
X159822036Y-135509000D01*
X159848603Y-135650190D01*
X159932046Y-135779865D01*
X160059366Y-135866859D01*
X160210500Y-135897464D01*
X160276000Y-135897464D01*
X160276000Y-136652000D01*
X160314517Y-136845638D01*
X160424204Y-137009796D01*
X160784000Y-137369592D01*
X160784000Y-137846536D01*
X160640000Y-137846536D01*
X160498810Y-137873103D01*
X160369135Y-137956546D01*
X160282141Y-138083866D01*
X160251536Y-138235000D01*
X160251536Y-139735000D01*
X160278103Y-139876190D01*
X160361546Y-140005865D01*
X160488866Y-140092859D01*
X160640000Y-140123464D01*
X161940000Y-140123464D01*
X162081190Y-140096897D01*
X162210865Y-140013454D01*
X162297859Y-139886134D01*
X162328464Y-139735000D01*
X162328464Y-138235000D01*
X162301897Y-138093810D01*
X162218454Y-137964135D01*
X162091134Y-137877141D01*
X161940000Y-137846536D01*
X161796000Y-137846536D01*
X161796000Y-137160000D01*
X161766480Y-137011592D01*
X161866987Y-136911259D01*
X161970882Y-136661054D01*
X161971113Y-136396000D01*
X163269621Y-136396000D01*
X163246536Y-136510000D01*
X163246536Y-137810000D01*
X163270825Y-137939082D01*
X163195000Y-137924000D01*
X163001362Y-137962517D01*
X162837204Y-138072204D01*
X162727517Y-138236362D01*
X162689000Y-138430000D01*
X162689000Y-138607877D01*
X162618013Y-138678741D01*
X162514118Y-138928946D01*
X162513882Y-139199865D01*
X162617339Y-139450252D01*
X162808741Y-139641987D01*
X163058946Y-139745882D01*
X163329865Y-139746118D01*
X163342628Y-139740845D01*
X163321536Y-139845000D01*
X163321536Y-141179000D01*
X162328464Y-141179000D01*
X162328464Y-140935000D01*
X162301897Y-140793810D01*
X162218454Y-140664135D01*
X162091134Y-140577141D01*
X161940000Y-140546536D01*
X160640000Y-140546536D01*
X160498810Y-140573103D01*
X160369135Y-140656546D01*
X160282141Y-140783866D01*
X160251536Y-140935000D01*
X160251536Y-141179000D01*
X159788464Y-141179000D01*
X159788464Y-140935000D01*
X159761897Y-140793810D01*
X159678454Y-140664135D01*
X159551134Y-140577141D01*
X159400000Y-140546536D01*
X158100000Y-140546536D01*
X157958810Y-140573103D01*
X157829135Y-140656546D01*
X157742141Y-140783866D01*
X157711536Y-140935000D01*
X157711536Y-142435000D01*
X157738103Y-142576190D01*
X157821546Y-142705865D01*
X157948866Y-142792859D01*
X158100000Y-142823464D01*
X159400000Y-142823464D01*
X159541190Y-142796897D01*
X159670865Y-142713454D01*
X159757859Y-142586134D01*
X159788464Y-142435000D01*
X159788464Y-142191000D01*
X160251536Y-142191000D01*
X160251536Y-142435000D01*
X160278103Y-142576190D01*
X160361546Y-142705865D01*
X160488866Y-142792859D01*
X160640000Y-142823464D01*
X161940000Y-142823464D01*
X162081190Y-142796897D01*
X162210865Y-142713454D01*
X162297859Y-142586134D01*
X162328464Y-142435000D01*
X162328464Y-142191000D01*
X163339600Y-142191000D01*
X163348103Y-142236190D01*
X163431546Y-142365865D01*
X163558866Y-142452859D01*
X163710000Y-142483464D01*
X164246872Y-142483464D01*
X164742204Y-142978796D01*
X164854755Y-143054000D01*
X146506000Y-143054000D01*
X146506000Y-138966592D01*
X147036723Y-139497315D01*
X146929135Y-139566546D01*
X146842141Y-139693866D01*
X146811536Y-139845000D01*
X146811536Y-142095000D01*
X146838103Y-142236190D01*
X146921546Y-142365865D01*
X147048866Y-142452859D01*
X147200000Y-142483464D01*
X148117872Y-142483464D01*
X148486204Y-142851796D01*
X148650362Y-142961483D01*
X148844000Y-143000000D01*
X150114000Y-143000000D01*
X150307638Y-142961483D01*
X150471796Y-142851796D01*
X150840128Y-142483464D01*
X151250000Y-142483464D01*
X151391190Y-142456897D01*
X151520865Y-142373454D01*
X151607859Y-142246134D01*
X151619024Y-142191000D01*
X152631536Y-142191000D01*
X152631536Y-142435000D01*
X152658103Y-142576190D01*
X152741546Y-142705865D01*
X152868866Y-142792859D01*
X153020000Y-142823464D01*
X154320000Y-142823464D01*
X154461190Y-142796897D01*
X154590865Y-142713454D01*
X154677859Y-142586134D01*
X154708464Y-142435000D01*
X154708464Y-142064000D01*
X155171536Y-142064000D01*
X155171536Y-142435000D01*
X155198103Y-142576190D01*
X155281546Y-142705865D01*
X155408866Y-142792859D01*
X155560000Y-142823464D01*
X156860000Y-142823464D01*
X157001190Y-142796897D01*
X157130865Y-142713454D01*
X157217859Y-142586134D01*
X157248464Y-142435000D01*
X157248464Y-140935000D01*
X157221897Y-140793810D01*
X157138454Y-140664135D01*
X157011134Y-140577141D01*
X156860000Y-140546536D01*
X155560000Y-140546536D01*
X155418810Y-140573103D01*
X155289135Y-140656546D01*
X155202141Y-140783866D01*
X155171536Y-140935000D01*
X155171536Y-141052000D01*
X154708464Y-141052000D01*
X154708464Y-140935000D01*
X154681897Y-140793810D01*
X154598454Y-140664135D01*
X154471134Y-140577141D01*
X154320000Y-140546536D01*
X153020000Y-140546536D01*
X152878810Y-140573103D01*
X152749135Y-140656546D01*
X152662141Y-140783866D01*
X152631536Y-140935000D01*
X152631536Y-141179000D01*
X151638464Y-141179000D01*
X151638464Y-139845000D01*
X151611897Y-139703810D01*
X151528454Y-139574135D01*
X151401134Y-139487141D01*
X151250000Y-139456536D01*
X151206000Y-139456536D01*
X151206000Y-138198464D01*
X151325000Y-138198464D01*
X151466190Y-138171897D01*
X151595865Y-138088454D01*
X151682859Y-137961134D01*
X151713464Y-137810000D01*
X151713464Y-136510000D01*
X151692013Y-136396000D01*
X153035000Y-136396000D01*
X153228638Y-136357483D01*
X153392796Y-136247796D01*
X153502483Y-136083638D01*
X153541000Y-135890000D01*
X153541000Y-135716077D01*
X153582046Y-135779865D01*
X153709366Y-135866859D01*
X153860500Y-135897464D01*
X153926000Y-135897464D01*
X153926000Y-136823408D01*
X153312204Y-137437204D01*
X153202517Y-137601362D01*
X153164000Y-137795000D01*
X153164000Y-137846536D01*
X153020000Y-137846536D01*
X152878810Y-137873103D01*
X152749135Y-137956546D01*
X152662141Y-138083866D01*
X152631536Y-138235000D01*
X152631536Y-139735000D01*
X152658103Y-139876190D01*
X152741546Y-140005865D01*
X152868866Y-140092859D01*
X153020000Y-140123464D01*
X154320000Y-140123464D01*
X154461190Y-140096897D01*
X154590865Y-140013454D01*
X154677859Y-139886134D01*
X154708464Y-139735000D01*
X154708464Y-138235000D01*
X154681897Y-138093810D01*
X154598454Y-137964135D01*
X154471134Y-137877141D01*
X154331689Y-137848903D01*
X154789796Y-137390796D01*
X154814625Y-137353637D01*
X154899483Y-137226638D01*
X154938000Y-137033000D01*
X154938000Y-135897464D01*
X155003500Y-135897464D01*
X155144690Y-135870897D01*
X155274365Y-135787454D01*
X155361359Y-135660134D01*
X155391964Y-135509000D01*
X155391964Y-135001000D01*
X155365397Y-134859810D01*
X155281954Y-134730135D01*
X155154634Y-134643141D01*
X155041712Y-134620274D01*
X155144690Y-134600897D01*
X155274365Y-134517454D01*
X155361359Y-134390134D01*
X155391964Y-134239000D01*
X155391964Y-133731000D01*
X155365397Y-133589810D01*
X155281954Y-133460135D01*
X155154634Y-133373141D01*
X155041712Y-133350274D01*
X155144690Y-133330897D01*
X155274365Y-133247454D01*
X155361359Y-133120134D01*
X155391964Y-132969000D01*
X155391964Y-132732901D01*
X155569741Y-132910987D01*
X155819946Y-133014882D01*
X156090865Y-133015118D01*
X156341252Y-132911661D01*
X156532987Y-132720259D01*
X156544477Y-132692588D01*
X156708946Y-132760882D01*
X156810378Y-132760970D01*
X156974000Y-132924592D01*
X156974000Y-137869621D01*
X156860000Y-137846536D01*
X155560000Y-137846536D01*
X155418810Y-137873103D01*
X155289135Y-137956546D01*
X155202141Y-138083866D01*
X155171536Y-138235000D01*
X155171536Y-139735000D01*
X155198103Y-139876190D01*
X155281546Y-140005865D01*
X155408866Y-140092859D01*
X155560000Y-140123464D01*
X156860000Y-140123464D01*
X157001190Y-140096897D01*
X157130865Y-140013454D01*
X157217859Y-139886134D01*
X157248464Y-139735000D01*
X157248464Y-139626234D01*
X157343946Y-139665882D01*
X157614865Y-139666118D01*
X157711536Y-139626175D01*
X157711536Y-139735000D01*
X157738103Y-139876190D01*
X157821546Y-140005865D01*
X157948866Y-140092859D01*
X158100000Y-140123464D01*
X159400000Y-140123464D01*
X159541190Y-140096897D01*
X159670865Y-140013454D01*
X159757859Y-139886134D01*
X159788464Y-139735000D01*
X159788464Y-138235000D01*
X159761897Y-138093810D01*
X159678454Y-137964135D01*
X159551134Y-137877141D01*
X159400000Y-137846536D01*
X158100000Y-137846536D01*
X157986000Y-137867987D01*
X157986000Y-132715000D01*
X157947483Y-132521362D01*
X157837796Y-132357204D01*
X157526031Y-132045439D01*
X157526118Y-131945135D01*
X157422661Y-131694748D01*
X157231259Y-131503013D01*
X156981054Y-131399118D01*
X156716000Y-131398887D01*
X156716000Y-126492000D01*
X156677483Y-126298362D01*
X156567796Y-126134204D01*
X155700000Y-125266408D01*
X155700000Y-123920000D01*
X155924250Y-123920000D01*
X156083000Y-123761250D01*
X156083000Y-122662000D01*
X156337000Y-122662000D01*
X156337000Y-123761250D01*
X156495750Y-123920000D01*
X156961310Y-123920000D01*
X157194699Y-123823327D01*
X157373327Y-123644698D01*
X157470000Y-123411309D01*
X157470000Y-122820750D01*
X157490000Y-122820750D01*
X157490000Y-123411309D01*
X157586673Y-123644698D01*
X157765301Y-123823327D01*
X157998690Y-123920000D01*
X158464250Y-123920000D01*
X158623000Y-123761250D01*
X158623000Y-122662000D01*
X157648750Y-122662000D01*
X157490000Y-122820750D01*
X157470000Y-122820750D01*
X157311250Y-122662000D01*
X156337000Y-122662000D01*
X156083000Y-122662000D01*
X156063000Y-122662000D01*
X156063000Y-122408000D01*
X156083000Y-122408000D01*
X156083000Y-122388000D01*
X156337000Y-122388000D01*
X156337000Y-122408000D01*
X157311250Y-122408000D01*
X157470000Y-122249250D01*
X157470000Y-121658691D01*
X157373327Y-121425302D01*
X157194699Y-121246673D01*
X156961310Y-121150000D01*
X156959699Y-121150000D01*
X156976190Y-121146897D01*
X157105865Y-121063454D01*
X157192859Y-120936134D01*
X157223464Y-120785000D01*
X157223464Y-119285000D01*
X157196897Y-119143810D01*
X157113454Y-119014135D01*
X156986134Y-118927141D01*
X156835000Y-118896536D01*
X156716000Y-118896536D01*
X156716000Y-116078000D01*
X156677483Y-115884362D01*
X156637001Y-115823776D01*
X156637118Y-115689135D01*
X156533661Y-115438748D01*
X156342259Y-115247013D01*
X156092054Y-115143118D01*
X155821135Y-115142882D01*
X155570748Y-115246339D01*
X155379013Y-115437741D01*
X155275118Y-115687946D01*
X155274882Y-115958865D01*
X155378339Y-116209252D01*
X155569741Y-116400987D01*
X155704000Y-116456737D01*
X155704000Y-118896536D01*
X155585000Y-118896536D01*
X155443810Y-118923103D01*
X155314135Y-119006546D01*
X155227141Y-119133866D01*
X155196536Y-119285000D01*
X155196536Y-120785000D01*
X155223103Y-120926190D01*
X155229021Y-120935387D01*
X154936000Y-121228408D01*
X154936000Y-113969168D01*
X155306616Y-114339785D01*
G36*
X165700000Y-136874250D02*
X165858750Y-137033000D01*
X166958000Y-137033000D01*
X166958000Y-137013000D01*
X167212000Y-137013000D01*
X167212000Y-137033000D01*
X167232000Y-137033000D01*
X167232000Y-137287000D01*
X167212000Y-137287000D01*
X167212000Y-138286250D01*
X167370750Y-138445000D01*
X167544408Y-138445000D01*
X167075408Y-138914000D01*
X166648464Y-138914000D01*
X166648464Y-138870000D01*
X166621897Y-138728810D01*
X166538454Y-138599135D01*
X166411134Y-138512141D01*
X166260000Y-138481536D01*
X165210000Y-138481536D01*
X165068810Y-138508103D01*
X164939135Y-138591546D01*
X164852141Y-138718866D01*
X164821536Y-138870000D01*
X164821536Y-139458872D01*
X164810000Y-139456536D01*
X164766000Y-139456536D01*
X164766000Y-138833069D01*
X164852483Y-138703638D01*
X164891000Y-138510000D01*
X164891000Y-138198464D01*
X165135000Y-138198464D01*
X165276190Y-138171897D01*
X165405865Y-138088454D01*
X165492859Y-137961134D01*
X165523464Y-137810000D01*
X165523464Y-137445750D01*
X165700000Y-137445750D01*
X165700000Y-137936310D01*
X165796673Y-138169699D01*
X165975302Y-138348327D01*
X166208691Y-138445000D01*
X166799250Y-138445000D01*
X166958000Y-138286250D01*
X166958000Y-137287000D01*
X165858750Y-137287000D01*
X165700000Y-137445750D01*
X165523464Y-137445750D01*
X165523464Y-136510000D01*
X165502013Y-136396000D01*
X165700000Y-136396000D01*
X165700000Y-136874250D01*
X165700000Y-136874250D01*
G37*
X165700000Y-136874250D02*
X165858750Y-137033000D01*
X166958000Y-137033000D01*
X166958000Y-137013000D01*
X167212000Y-137013000D01*
X167212000Y-137033000D01*
X167232000Y-137033000D01*
X167232000Y-137287000D01*
X167212000Y-137287000D01*
X167212000Y-138286250D01*
X167370750Y-138445000D01*
X167544408Y-138445000D01*
X167075408Y-138914000D01*
X166648464Y-138914000D01*
X166648464Y-138870000D01*
X166621897Y-138728810D01*
X166538454Y-138599135D01*
X166411134Y-138512141D01*
X166260000Y-138481536D01*
X165210000Y-138481536D01*
X165068810Y-138508103D01*
X164939135Y-138591546D01*
X164852141Y-138718866D01*
X164821536Y-138870000D01*
X164821536Y-139458872D01*
X164810000Y-139456536D01*
X164766000Y-139456536D01*
X164766000Y-138833069D01*
X164852483Y-138703638D01*
X164891000Y-138510000D01*
X164891000Y-138198464D01*
X165135000Y-138198464D01*
X165276190Y-138171897D01*
X165405865Y-138088454D01*
X165492859Y-137961134D01*
X165523464Y-137810000D01*
X165523464Y-137445750D01*
X165700000Y-137445750D01*
X165700000Y-137936310D01*
X165796673Y-138169699D01*
X165975302Y-138348327D01*
X166208691Y-138445000D01*
X166799250Y-138445000D01*
X166958000Y-138286250D01*
X166958000Y-137287000D01*
X165858750Y-137287000D01*
X165700000Y-137445750D01*
X165523464Y-137445750D01*
X165523464Y-136510000D01*
X165502013Y-136396000D01*
X165700000Y-136396000D01*
X165700000Y-136874250D01*
G36*
X149436536Y-136510000D02*
X149436536Y-137810000D01*
X149463103Y-137951190D01*
X149546546Y-138080865D01*
X149673866Y-138167859D01*
X149825000Y-138198464D01*
X150194000Y-138198464D01*
X150194000Y-139456536D01*
X150150000Y-139456536D01*
X150138464Y-139458707D01*
X150138464Y-138870000D01*
X150111897Y-138728810D01*
X150028454Y-138599135D01*
X149901134Y-138512141D01*
X149750000Y-138481536D01*
X148700000Y-138481536D01*
X148558810Y-138508103D01*
X148429135Y-138591546D01*
X148342141Y-138718866D01*
X148311536Y-138870000D01*
X148311536Y-138914000D01*
X147884592Y-138914000D01*
X147415592Y-138445000D01*
X147589250Y-138445000D01*
X147748000Y-138286250D01*
X147748000Y-137287000D01*
X148002000Y-137287000D01*
X148002000Y-138286250D01*
X148160750Y-138445000D01*
X148751309Y-138445000D01*
X148984698Y-138348327D01*
X149163327Y-138169699D01*
X149260000Y-137936310D01*
X149260000Y-137445750D01*
X149101250Y-137287000D01*
X148002000Y-137287000D01*
X147748000Y-137287000D01*
X147728000Y-137287000D01*
X147728000Y-137033000D01*
X147748000Y-137033000D01*
X147748000Y-137013000D01*
X148002000Y-137013000D01*
X148002000Y-137033000D01*
X149101250Y-137033000D01*
X149260000Y-136874250D01*
X149260000Y-136396000D01*
X149459621Y-136396000D01*
X149436536Y-136510000D01*
X149436536Y-136510000D01*
G37*
X149436536Y-136510000D02*
X149436536Y-137810000D01*
X149463103Y-137951190D01*
X149546546Y-138080865D01*
X149673866Y-138167859D01*
X149825000Y-138198464D01*
X150194000Y-138198464D01*
X150194000Y-139456536D01*
X150150000Y-139456536D01*
X150138464Y-139458707D01*
X150138464Y-138870000D01*
X150111897Y-138728810D01*
X150028454Y-138599135D01*
X149901134Y-138512141D01*
X149750000Y-138481536D01*
X148700000Y-138481536D01*
X148558810Y-138508103D01*
X148429135Y-138591546D01*
X148342141Y-138718866D01*
X148311536Y-138870000D01*
X148311536Y-138914000D01*
X147884592Y-138914000D01*
X147415592Y-138445000D01*
X147589250Y-138445000D01*
X147748000Y-138286250D01*
X147748000Y-137287000D01*
X148002000Y-137287000D01*
X148002000Y-138286250D01*
X148160750Y-138445000D01*
X148751309Y-138445000D01*
X148984698Y-138348327D01*
X149163327Y-138169699D01*
X149260000Y-137936310D01*
X149260000Y-137445750D01*
X149101250Y-137287000D01*
X148002000Y-137287000D01*
X147748000Y-137287000D01*
X147728000Y-137287000D01*
X147728000Y-137033000D01*
X147748000Y-137033000D01*
X147748000Y-137013000D01*
X148002000Y-137013000D01*
X148002000Y-137033000D01*
X149101250Y-137033000D01*
X149260000Y-136874250D01*
X149260000Y-136396000D01*
X149459621Y-136396000D01*
X149436536Y-136510000D01*
G36*
X149825000Y-128038464D02*
X150897872Y-128038464D01*
X151233204Y-128373796D01*
X151397362Y-128483483D01*
X151591000Y-128522000D01*
X151767000Y-128522000D01*
X151767000Y-130683000D01*
X151805517Y-130876638D01*
X151915204Y-131040796D01*
X152783000Y-131908592D01*
X152783000Y-132461000D01*
X152821517Y-132654638D01*
X152931204Y-132818796D01*
X153185204Y-133072796D01*
X153349362Y-133182483D01*
X153543000Y-133221000D01*
X153569907Y-133221000D01*
X153582046Y-133239865D01*
X153709366Y-133326859D01*
X153822288Y-133349726D01*
X153719310Y-133369103D01*
X153589635Y-133452546D01*
X153571560Y-133479000D01*
X153035000Y-133479000D01*
X152841362Y-133517517D01*
X152677204Y-133627204D01*
X152567517Y-133791362D01*
X152537968Y-133939913D01*
X152536054Y-133939118D01*
X152265135Y-133938882D01*
X152014748Y-134042339D01*
X151942962Y-134114000D01*
X151713464Y-134114000D01*
X151713464Y-133970000D01*
X151686897Y-133828810D01*
X151603454Y-133699135D01*
X151476134Y-133612141D01*
X151325000Y-133581536D01*
X151081000Y-133581536D01*
X151081000Y-133093464D01*
X151225000Y-133093464D01*
X151366190Y-133066897D01*
X151495865Y-132983454D01*
X151582859Y-132856134D01*
X151613464Y-132705000D01*
X151613464Y-131455000D01*
X151586897Y-131313810D01*
X151503454Y-131184135D01*
X151376134Y-131097141D01*
X151225000Y-131066536D01*
X149725000Y-131066536D01*
X149583810Y-131093103D01*
X149454135Y-131176546D01*
X149367141Y-131303866D01*
X149336536Y-131455000D01*
X149336536Y-132705000D01*
X149363103Y-132846190D01*
X149446546Y-132975865D01*
X149573866Y-133062859D01*
X149725000Y-133093464D01*
X150069000Y-133093464D01*
X150069000Y-133581536D01*
X149825000Y-133581536D01*
X149683810Y-133608103D01*
X149554135Y-133691546D01*
X149467141Y-133818866D01*
X149436536Y-133970000D01*
X149436536Y-135270000D01*
X149457987Y-135384000D01*
X148990379Y-135384000D01*
X149013464Y-135270000D01*
X149013464Y-133970000D01*
X148986897Y-133828810D01*
X148903454Y-133699135D01*
X148776134Y-133612141D01*
X148625000Y-133581536D01*
X148481000Y-133581536D01*
X148481000Y-133093464D01*
X148725000Y-133093464D01*
X148866190Y-133066897D01*
X148995865Y-132983454D01*
X149082859Y-132856134D01*
X149113464Y-132705000D01*
X149113464Y-131455000D01*
X149086897Y-131313810D01*
X149074714Y-131294878D01*
X149796832Y-130572760D01*
X149825000Y-130578464D01*
X151325000Y-130578464D01*
X151466190Y-130551897D01*
X151595865Y-130468454D01*
X151682859Y-130341134D01*
X151713464Y-130190000D01*
X151713464Y-128890000D01*
X151686897Y-128748810D01*
X151603454Y-128619135D01*
X151476134Y-128532141D01*
X151325000Y-128501536D01*
X150172128Y-128501536D01*
X149731000Y-128060408D01*
X149731000Y-128019429D01*
X149825000Y-128038464D01*
X149825000Y-128038464D01*
G37*
X149825000Y-128038464D02*
X150897872Y-128038464D01*
X151233204Y-128373796D01*
X151397362Y-128483483D01*
X151591000Y-128522000D01*
X151767000Y-128522000D01*
X151767000Y-130683000D01*
X151805517Y-130876638D01*
X151915204Y-131040796D01*
X152783000Y-131908592D01*
X152783000Y-132461000D01*
X152821517Y-132654638D01*
X152931204Y-132818796D01*
X153185204Y-133072796D01*
X153349362Y-133182483D01*
X153543000Y-133221000D01*
X153569907Y-133221000D01*
X153582046Y-133239865D01*
X153709366Y-133326859D01*
X153822288Y-133349726D01*
X153719310Y-133369103D01*
X153589635Y-133452546D01*
X153571560Y-133479000D01*
X153035000Y-133479000D01*
X152841362Y-133517517D01*
X152677204Y-133627204D01*
X152567517Y-133791362D01*
X152537968Y-133939913D01*
X152536054Y-133939118D01*
X152265135Y-133938882D01*
X152014748Y-134042339D01*
X151942962Y-134114000D01*
X151713464Y-134114000D01*
X151713464Y-133970000D01*
X151686897Y-133828810D01*
X151603454Y-133699135D01*
X151476134Y-133612141D01*
X151325000Y-133581536D01*
X151081000Y-133581536D01*
X151081000Y-133093464D01*
X151225000Y-133093464D01*
X151366190Y-133066897D01*
X151495865Y-132983454D01*
X151582859Y-132856134D01*
X151613464Y-132705000D01*
X151613464Y-131455000D01*
X151586897Y-131313810D01*
X151503454Y-131184135D01*
X151376134Y-131097141D01*
X151225000Y-131066536D01*
X149725000Y-131066536D01*
X149583810Y-131093103D01*
X149454135Y-131176546D01*
X149367141Y-131303866D01*
X149336536Y-131455000D01*
X149336536Y-132705000D01*
X149363103Y-132846190D01*
X149446546Y-132975865D01*
X149573866Y-133062859D01*
X149725000Y-133093464D01*
X150069000Y-133093464D01*
X150069000Y-133581536D01*
X149825000Y-133581536D01*
X149683810Y-133608103D01*
X149554135Y-133691546D01*
X149467141Y-133818866D01*
X149436536Y-133970000D01*
X149436536Y-135270000D01*
X149457987Y-135384000D01*
X148990379Y-135384000D01*
X149013464Y-135270000D01*
X149013464Y-133970000D01*
X148986897Y-133828810D01*
X148903454Y-133699135D01*
X148776134Y-133612141D01*
X148625000Y-133581536D01*
X148481000Y-133581536D01*
X148481000Y-133093464D01*
X148725000Y-133093464D01*
X148866190Y-133066897D01*
X148995865Y-132983454D01*
X149082859Y-132856134D01*
X149113464Y-132705000D01*
X149113464Y-131455000D01*
X149086897Y-131313810D01*
X149074714Y-131294878D01*
X149796832Y-130572760D01*
X149825000Y-130578464D01*
X151325000Y-130578464D01*
X151466190Y-130551897D01*
X151595865Y-130468454D01*
X151682859Y-130341134D01*
X151713464Y-130190000D01*
X151713464Y-128890000D01*
X151686897Y-128748810D01*
X151603454Y-128619135D01*
X151476134Y-128532141D01*
X151325000Y-128501536D01*
X150172128Y-128501536D01*
X149731000Y-128060408D01*
X149731000Y-128019429D01*
X149825000Y-128038464D01*
G36*
X165846536Y-132705000D02*
X165873103Y-132846190D01*
X165956546Y-132975865D01*
X166083866Y-133062859D01*
X166235000Y-133093464D01*
X166479000Y-133093464D01*
X166479000Y-133330000D01*
X166517517Y-133523638D01*
X166556203Y-133581536D01*
X166335000Y-133581536D01*
X166193810Y-133608103D01*
X166064135Y-133691546D01*
X165977141Y-133818866D01*
X165946536Y-133970000D01*
X165946536Y-135270000D01*
X165967987Y-135384000D01*
X165500379Y-135384000D01*
X165523464Y-135270000D01*
X165523464Y-133970000D01*
X165496897Y-133828810D01*
X165413454Y-133699135D01*
X165286134Y-133612141D01*
X165135000Y-133581536D01*
X164991000Y-133581536D01*
X164991000Y-133093464D01*
X165235000Y-133093464D01*
X165376190Y-133066897D01*
X165505865Y-132983454D01*
X165592859Y-132856134D01*
X165623464Y-132705000D01*
X165623464Y-132700575D01*
X165754638Y-132674483D01*
X165846536Y-132613079D01*
X165846536Y-132705000D01*
X165846536Y-132705000D01*
G37*
X165846536Y-132705000D02*
X165873103Y-132846190D01*
X165956546Y-132975865D01*
X166083866Y-133062859D01*
X166235000Y-133093464D01*
X166479000Y-133093464D01*
X166479000Y-133330000D01*
X166517517Y-133523638D01*
X166556203Y-133581536D01*
X166335000Y-133581536D01*
X166193810Y-133608103D01*
X166064135Y-133691546D01*
X165977141Y-133818866D01*
X165946536Y-133970000D01*
X165946536Y-135270000D01*
X165967987Y-135384000D01*
X165500379Y-135384000D01*
X165523464Y-135270000D01*
X165523464Y-133970000D01*
X165496897Y-133828810D01*
X165413454Y-133699135D01*
X165286134Y-133612141D01*
X165135000Y-133581536D01*
X164991000Y-133581536D01*
X164991000Y-133093464D01*
X165235000Y-133093464D01*
X165376190Y-133066897D01*
X165505865Y-132983454D01*
X165592859Y-132856134D01*
X165623464Y-132705000D01*
X165623464Y-132700575D01*
X165754638Y-132674483D01*
X165846536Y-132613079D01*
X165846536Y-132705000D01*
G36*
X163483866Y-128007859D02*
X163635000Y-128038464D01*
X165135000Y-128038464D01*
X165229000Y-128020777D01*
X165229000Y-128060408D01*
X164787872Y-128501536D01*
X163635000Y-128501536D01*
X163493810Y-128528103D01*
X163364135Y-128611546D01*
X163277141Y-128738866D01*
X163246536Y-128890000D01*
X163246536Y-130190000D01*
X163273103Y-130331190D01*
X163356546Y-130460865D01*
X163483866Y-130547859D01*
X163635000Y-130578464D01*
X165135000Y-130578464D01*
X165276190Y-130551897D01*
X165349276Y-130504868D01*
X165998707Y-131154299D01*
X165964135Y-131176546D01*
X165877141Y-131303866D01*
X165846536Y-131455000D01*
X165846536Y-131800921D01*
X165754638Y-131739517D01*
X165623464Y-131713425D01*
X165623464Y-131455000D01*
X165596897Y-131313810D01*
X165513454Y-131184135D01*
X165386134Y-131097141D01*
X165235000Y-131066536D01*
X163735000Y-131066536D01*
X163593810Y-131093103D01*
X163464135Y-131176546D01*
X163377141Y-131303866D01*
X163346536Y-131455000D01*
X163346536Y-132705000D01*
X163373103Y-132846190D01*
X163456546Y-132975865D01*
X163583866Y-133062859D01*
X163735000Y-133093464D01*
X163979000Y-133093464D01*
X163979000Y-133581536D01*
X163635000Y-133581536D01*
X163493810Y-133608103D01*
X163364135Y-133691546D01*
X163277141Y-133818866D01*
X163246536Y-133970000D01*
X163246536Y-134114000D01*
X163195000Y-134114000D01*
X163001362Y-134152517D01*
X162879802Y-134233741D01*
X162837204Y-134262204D01*
X162525439Y-134573969D01*
X162431000Y-134573887D01*
X162431000Y-133985000D01*
X162392483Y-133791362D01*
X162282796Y-133627204D01*
X162118638Y-133517517D01*
X161925000Y-133479000D01*
X161644093Y-133479000D01*
X161631954Y-133460135D01*
X161504634Y-133373141D01*
X161391712Y-133350274D01*
X161494690Y-133330897D01*
X161624365Y-133247454D01*
X161711359Y-133120134D01*
X161741964Y-132969000D01*
X161741964Y-132931864D01*
X161757483Y-132908638D01*
X161775492Y-132818100D01*
X162282796Y-132310796D01*
X162311818Y-132267362D01*
X162392483Y-132146638D01*
X162431000Y-131953000D01*
X162431000Y-131527592D01*
X162917796Y-131040796D01*
X162945846Y-130998816D01*
X163027483Y-130876638D01*
X163066000Y-130683000D01*
X163066000Y-128352592D01*
X163440419Y-127978173D01*
X163483866Y-128007859D01*
X163483866Y-128007859D01*
G37*
X163483866Y-128007859D02*
X163635000Y-128038464D01*
X165135000Y-128038464D01*
X165229000Y-128020777D01*
X165229000Y-128060408D01*
X164787872Y-128501536D01*
X163635000Y-128501536D01*
X163493810Y-128528103D01*
X163364135Y-128611546D01*
X163277141Y-128738866D01*
X163246536Y-128890000D01*
X163246536Y-130190000D01*
X163273103Y-130331190D01*
X163356546Y-130460865D01*
X163483866Y-130547859D01*
X163635000Y-130578464D01*
X165135000Y-130578464D01*
X165276190Y-130551897D01*
X165349276Y-130504868D01*
X165998707Y-131154299D01*
X165964135Y-131176546D01*
X165877141Y-131303866D01*
X165846536Y-131455000D01*
X165846536Y-131800921D01*
X165754638Y-131739517D01*
X165623464Y-131713425D01*
X165623464Y-131455000D01*
X165596897Y-131313810D01*
X165513454Y-131184135D01*
X165386134Y-131097141D01*
X165235000Y-131066536D01*
X163735000Y-131066536D01*
X163593810Y-131093103D01*
X163464135Y-131176546D01*
X163377141Y-131303866D01*
X163346536Y-131455000D01*
X163346536Y-132705000D01*
X163373103Y-132846190D01*
X163456546Y-132975865D01*
X163583866Y-133062859D01*
X163735000Y-133093464D01*
X163979000Y-133093464D01*
X163979000Y-133581536D01*
X163635000Y-133581536D01*
X163493810Y-133608103D01*
X163364135Y-133691546D01*
X163277141Y-133818866D01*
X163246536Y-133970000D01*
X163246536Y-134114000D01*
X163195000Y-134114000D01*
X163001362Y-134152517D01*
X162879802Y-134233741D01*
X162837204Y-134262204D01*
X162525439Y-134573969D01*
X162431000Y-134573887D01*
X162431000Y-133985000D01*
X162392483Y-133791362D01*
X162282796Y-133627204D01*
X162118638Y-133517517D01*
X161925000Y-133479000D01*
X161644093Y-133479000D01*
X161631954Y-133460135D01*
X161504634Y-133373141D01*
X161391712Y-133350274D01*
X161494690Y-133330897D01*
X161624365Y-133247454D01*
X161711359Y-133120134D01*
X161741964Y-132969000D01*
X161741964Y-132931864D01*
X161757483Y-132908638D01*
X161775492Y-132818100D01*
X162282796Y-132310796D01*
X162311818Y-132267362D01*
X162392483Y-132146638D01*
X162431000Y-131953000D01*
X162431000Y-131527592D01*
X162917796Y-131040796D01*
X162945846Y-130998816D01*
X163027483Y-130876638D01*
X163066000Y-130683000D01*
X163066000Y-128352592D01*
X163440419Y-127978173D01*
X163483866Y-128007859D01*
G36*
X146570526Y-111072968D02*
X146610589Y-111080937D01*
X146709452Y-111100602D01*
X146706536Y-111115000D01*
X146706536Y-111765000D01*
X146733103Y-111906190D01*
X146816546Y-112035865D01*
X146884282Y-112082147D01*
X146854135Y-112101546D01*
X146767141Y-112228866D01*
X146736536Y-112380000D01*
X146736536Y-113680000D01*
X146763103Y-113821190D01*
X146846546Y-113950865D01*
X146973866Y-114037859D01*
X147125000Y-114068464D01*
X147369000Y-114068464D01*
X147369000Y-114531536D01*
X147125000Y-114531536D01*
X146983810Y-114558103D01*
X146854135Y-114641546D01*
X146767141Y-114768866D01*
X146736536Y-114920000D01*
X146736536Y-116220000D01*
X146763103Y-116361190D01*
X146846546Y-116490865D01*
X146892195Y-116522055D01*
X146854135Y-116546546D01*
X146767141Y-116673866D01*
X146736536Y-116825000D01*
X146736536Y-118125000D01*
X146763103Y-118266190D01*
X146846546Y-118395865D01*
X146973866Y-118482859D01*
X147125000Y-118513464D01*
X148625000Y-118513464D01*
X148766190Y-118486897D01*
X148895865Y-118403454D01*
X148982859Y-118276134D01*
X149013464Y-118125000D01*
X149013464Y-117981000D01*
X149225000Y-117981000D01*
X149418638Y-117942483D01*
X149436536Y-117930524D01*
X149436536Y-118125000D01*
X149463103Y-118266190D01*
X149546546Y-118395865D01*
X149673866Y-118482859D01*
X149825000Y-118513464D01*
X150194264Y-118513464D01*
X150217204Y-118547796D01*
X151083969Y-119414561D01*
X151083882Y-119514865D01*
X151187339Y-119765252D01*
X151378741Y-119956987D01*
X151628946Y-120060882D01*
X151899865Y-120061118D01*
X151996536Y-120021175D01*
X151996536Y-120337872D01*
X151431338Y-120903070D01*
X151325000Y-120881536D01*
X151099537Y-120881536D01*
X151198987Y-120782259D01*
X151302882Y-120532054D01*
X151303118Y-120261135D01*
X151199661Y-120010748D01*
X151008259Y-119819013D01*
X150758054Y-119715118D01*
X150487135Y-119714882D01*
X150236748Y-119818339D01*
X150045013Y-120009741D01*
X149941118Y-120259946D01*
X149940882Y-120530865D01*
X150044339Y-120781252D01*
X150144449Y-120881536D01*
X149825000Y-120881536D01*
X149683810Y-120908103D01*
X149554135Y-120991546D01*
X149467141Y-121118866D01*
X149436536Y-121270000D01*
X149436536Y-122342872D01*
X149260000Y-122519408D01*
X149260000Y-122205750D01*
X149101250Y-122047000D01*
X148002000Y-122047000D01*
X148002000Y-123046250D01*
X148145750Y-123190000D01*
X148002000Y-123333750D01*
X148002000Y-124333000D01*
X148022000Y-124333000D01*
X148022000Y-124587000D01*
X148002000Y-124587000D01*
X148002000Y-125586250D01*
X148160750Y-125745000D01*
X148719000Y-125745000D01*
X148719000Y-125980571D01*
X148625000Y-125961536D01*
X147125000Y-125961536D01*
X146983810Y-125988103D01*
X146854135Y-126071546D01*
X146767141Y-126198866D01*
X146736536Y-126350000D01*
X146736536Y-127650000D01*
X146763103Y-127791190D01*
X146846546Y-127920865D01*
X146973866Y-128007859D01*
X147125000Y-128038464D01*
X147369000Y-128038464D01*
X147369000Y-128501536D01*
X147125000Y-128501536D01*
X146983810Y-128528103D01*
X146854135Y-128611546D01*
X146767141Y-128738866D01*
X146736536Y-128890000D01*
X146736536Y-129962872D01*
X146506000Y-130193408D01*
X146506000Y-125274937D01*
X146586673Y-125469699D01*
X146765302Y-125648327D01*
X146998691Y-125745000D01*
X147589250Y-125745000D01*
X147748000Y-125586250D01*
X147748000Y-124587000D01*
X147728000Y-124587000D01*
X147728000Y-124333000D01*
X147748000Y-124333000D01*
X147748000Y-123333750D01*
X147604250Y-123190000D01*
X147748000Y-123046250D01*
X147748000Y-122047000D01*
X147728000Y-122047000D01*
X147728000Y-121793000D01*
X147748000Y-121793000D01*
X147748000Y-120793750D01*
X148002000Y-120793750D01*
X148002000Y-121793000D01*
X149101250Y-121793000D01*
X149260000Y-121634250D01*
X149260000Y-121143690D01*
X149163327Y-120910301D01*
X148984698Y-120731673D01*
X148751309Y-120635000D01*
X148160750Y-120635000D01*
X148002000Y-120793750D01*
X147748000Y-120793750D01*
X147589250Y-120635000D01*
X146998691Y-120635000D01*
X146765302Y-120731673D01*
X146586673Y-120910301D01*
X146506000Y-121105063D01*
X146506000Y-111029853D01*
X146570526Y-111072968D01*
X146570526Y-111072968D01*
G37*
X146570526Y-111072968D02*
X146610589Y-111080937D01*
X146709452Y-111100602D01*
X146706536Y-111115000D01*
X146706536Y-111765000D01*
X146733103Y-111906190D01*
X146816546Y-112035865D01*
X146884282Y-112082147D01*
X146854135Y-112101546D01*
X146767141Y-112228866D01*
X146736536Y-112380000D01*
X146736536Y-113680000D01*
X146763103Y-113821190D01*
X146846546Y-113950865D01*
X146973866Y-114037859D01*
X147125000Y-114068464D01*
X147369000Y-114068464D01*
X147369000Y-114531536D01*
X147125000Y-114531536D01*
X146983810Y-114558103D01*
X146854135Y-114641546D01*
X146767141Y-114768866D01*
X146736536Y-114920000D01*
X146736536Y-116220000D01*
X146763103Y-116361190D01*
X146846546Y-116490865D01*
X146892195Y-116522055D01*
X146854135Y-116546546D01*
X146767141Y-116673866D01*
X146736536Y-116825000D01*
X146736536Y-118125000D01*
X146763103Y-118266190D01*
X146846546Y-118395865D01*
X146973866Y-118482859D01*
X147125000Y-118513464D01*
X148625000Y-118513464D01*
X148766190Y-118486897D01*
X148895865Y-118403454D01*
X148982859Y-118276134D01*
X149013464Y-118125000D01*
X149013464Y-117981000D01*
X149225000Y-117981000D01*
X149418638Y-117942483D01*
X149436536Y-117930524D01*
X149436536Y-118125000D01*
X149463103Y-118266190D01*
X149546546Y-118395865D01*
X149673866Y-118482859D01*
X149825000Y-118513464D01*
X150194264Y-118513464D01*
X150217204Y-118547796D01*
X151083969Y-119414561D01*
X151083882Y-119514865D01*
X151187339Y-119765252D01*
X151378741Y-119956987D01*
X151628946Y-120060882D01*
X151899865Y-120061118D01*
X151996536Y-120021175D01*
X151996536Y-120337872D01*
X151431338Y-120903070D01*
X151325000Y-120881536D01*
X151099537Y-120881536D01*
X151198987Y-120782259D01*
X151302882Y-120532054D01*
X151303118Y-120261135D01*
X151199661Y-120010748D01*
X151008259Y-119819013D01*
X150758054Y-119715118D01*
X150487135Y-119714882D01*
X150236748Y-119818339D01*
X150045013Y-120009741D01*
X149941118Y-120259946D01*
X149940882Y-120530865D01*
X150044339Y-120781252D01*
X150144449Y-120881536D01*
X149825000Y-120881536D01*
X149683810Y-120908103D01*
X149554135Y-120991546D01*
X149467141Y-121118866D01*
X149436536Y-121270000D01*
X149436536Y-122342872D01*
X149260000Y-122519408D01*
X149260000Y-122205750D01*
X149101250Y-122047000D01*
X148002000Y-122047000D01*
X148002000Y-123046250D01*
X148145750Y-123190000D01*
X148002000Y-123333750D01*
X148002000Y-124333000D01*
X148022000Y-124333000D01*
X148022000Y-124587000D01*
X148002000Y-124587000D01*
X148002000Y-125586250D01*
X148160750Y-125745000D01*
X148719000Y-125745000D01*
X148719000Y-125980571D01*
X148625000Y-125961536D01*
X147125000Y-125961536D01*
X146983810Y-125988103D01*
X146854135Y-126071546D01*
X146767141Y-126198866D01*
X146736536Y-126350000D01*
X146736536Y-127650000D01*
X146763103Y-127791190D01*
X146846546Y-127920865D01*
X146973866Y-128007859D01*
X147125000Y-128038464D01*
X147369000Y-128038464D01*
X147369000Y-128501536D01*
X147125000Y-128501536D01*
X146983810Y-128528103D01*
X146854135Y-128611546D01*
X146767141Y-128738866D01*
X146736536Y-128890000D01*
X146736536Y-129962872D01*
X146506000Y-130193408D01*
X146506000Y-125274937D01*
X146586673Y-125469699D01*
X146765302Y-125648327D01*
X146998691Y-125745000D01*
X147589250Y-125745000D01*
X147748000Y-125586250D01*
X147748000Y-124587000D01*
X147728000Y-124587000D01*
X147728000Y-124333000D01*
X147748000Y-124333000D01*
X147748000Y-123333750D01*
X147604250Y-123190000D01*
X147748000Y-123046250D01*
X147748000Y-122047000D01*
X147728000Y-122047000D01*
X147728000Y-121793000D01*
X147748000Y-121793000D01*
X147748000Y-120793750D01*
X148002000Y-120793750D01*
X148002000Y-121793000D01*
X149101250Y-121793000D01*
X149260000Y-121634250D01*
X149260000Y-121143690D01*
X149163327Y-120910301D01*
X148984698Y-120731673D01*
X148751309Y-120635000D01*
X148160750Y-120635000D01*
X148002000Y-120793750D01*
X147748000Y-120793750D01*
X147589250Y-120635000D01*
X146998691Y-120635000D01*
X146765302Y-120731673D01*
X146586673Y-120910301D01*
X146506000Y-121105063D01*
X146506000Y-111029853D01*
X146570526Y-111072968D01*
G36*
X165180071Y-123430663D02*
X165135000Y-123421536D01*
X163635000Y-123421536D01*
X163493810Y-123448103D01*
X163364135Y-123531546D01*
X163277141Y-123658866D01*
X163246536Y-123810000D01*
X163246536Y-125110000D01*
X163273103Y-125251190D01*
X163356546Y-125380865D01*
X163483866Y-125467859D01*
X163635000Y-125498464D01*
X163879000Y-125498464D01*
X163879000Y-125961536D01*
X163635000Y-125961536D01*
X163493810Y-125988103D01*
X163364135Y-126071546D01*
X163277141Y-126198866D01*
X163246536Y-126350000D01*
X163246536Y-126740872D01*
X163128169Y-126859239D01*
X162946259Y-126677013D01*
X162696054Y-126573118D01*
X162425135Y-126572882D01*
X162174748Y-126676339D01*
X161983013Y-126867741D01*
X161879118Y-127117946D01*
X161879108Y-127129000D01*
X161644093Y-127129000D01*
X161631954Y-127110135D01*
X161504634Y-127023141D01*
X161353500Y-126992536D01*
X160721675Y-126992536D01*
X160660259Y-126931013D01*
X160456404Y-126846364D01*
X161101184Y-126201585D01*
X161237968Y-125996874D01*
X161248588Y-125943483D01*
X161286000Y-125755400D01*
X161286000Y-124408464D01*
X162575000Y-124408464D01*
X162716190Y-124381897D01*
X162845865Y-124298454D01*
X162932859Y-124171134D01*
X162963464Y-124020000D01*
X162963464Y-123713545D01*
X163091796Y-123627796D01*
X163229561Y-123490031D01*
X163329865Y-123490118D01*
X163580252Y-123386661D01*
X163771987Y-123195259D01*
X163870314Y-122958464D01*
X164707872Y-122958464D01*
X165180071Y-123430663D01*
X165180071Y-123430663D01*
G37*
X165180071Y-123430663D02*
X165135000Y-123421536D01*
X163635000Y-123421536D01*
X163493810Y-123448103D01*
X163364135Y-123531546D01*
X163277141Y-123658866D01*
X163246536Y-123810000D01*
X163246536Y-125110000D01*
X163273103Y-125251190D01*
X163356546Y-125380865D01*
X163483866Y-125467859D01*
X163635000Y-125498464D01*
X163879000Y-125498464D01*
X163879000Y-125961536D01*
X163635000Y-125961536D01*
X163493810Y-125988103D01*
X163364135Y-126071546D01*
X163277141Y-126198866D01*
X163246536Y-126350000D01*
X163246536Y-126740872D01*
X163128169Y-126859239D01*
X162946259Y-126677013D01*
X162696054Y-126573118D01*
X162425135Y-126572882D01*
X162174748Y-126676339D01*
X161983013Y-126867741D01*
X161879118Y-127117946D01*
X161879108Y-127129000D01*
X161644093Y-127129000D01*
X161631954Y-127110135D01*
X161504634Y-127023141D01*
X161353500Y-126992536D01*
X160721675Y-126992536D01*
X160660259Y-126931013D01*
X160456404Y-126846364D01*
X161101184Y-126201585D01*
X161237968Y-125996874D01*
X161248588Y-125943483D01*
X161286000Y-125755400D01*
X161286000Y-124408464D01*
X162575000Y-124408464D01*
X162716190Y-124381897D01*
X162845865Y-124298454D01*
X162932859Y-124171134D01*
X162963464Y-124020000D01*
X162963464Y-123713545D01*
X163091796Y-123627796D01*
X163229561Y-123490031D01*
X163329865Y-123490118D01*
X163580252Y-123386661D01*
X163771987Y-123195259D01*
X163870314Y-122958464D01*
X164707872Y-122958464D01*
X165180071Y-123430663D01*
G36*
X150635362Y-123022483D02*
X150829000Y-123061000D01*
X151022638Y-123022483D01*
X151118449Y-122958464D01*
X151216914Y-122958464D01*
X151314339Y-123194252D01*
X151505741Y-123385987D01*
X151755946Y-123489882D01*
X151857378Y-123489970D01*
X151995204Y-123627796D01*
X151996536Y-123628686D01*
X151996536Y-124020000D01*
X152023103Y-124161190D01*
X152106546Y-124290865D01*
X152233866Y-124377859D01*
X152385000Y-124408464D01*
X153674000Y-124408464D01*
X153674000Y-125730000D01*
X153720055Y-125961536D01*
X153722032Y-125971473D01*
X153858816Y-126176184D01*
X154304815Y-126622184D01*
X154173748Y-126676339D01*
X153982013Y-126867741D01*
X153930193Y-126992536D01*
X153860500Y-126992536D01*
X153719310Y-127019103D01*
X153589635Y-127102546D01*
X153571560Y-127129000D01*
X153208109Y-127129000D01*
X153208118Y-127119135D01*
X153104661Y-126868748D01*
X152913259Y-126677013D01*
X152663054Y-126573118D01*
X152392135Y-126572882D01*
X152141748Y-126676339D01*
X151983953Y-126833860D01*
X151978483Y-126806362D01*
X151868796Y-126642204D01*
X151713464Y-126538414D01*
X151713464Y-126350000D01*
X151686897Y-126208810D01*
X151603454Y-126079135D01*
X151476134Y-125992141D01*
X151335000Y-125963561D01*
X151335000Y-125496582D01*
X151466190Y-125471897D01*
X151595865Y-125388454D01*
X151682859Y-125261134D01*
X151713464Y-125110000D01*
X151713464Y-123810000D01*
X151686897Y-123668810D01*
X151603454Y-123539135D01*
X151476134Y-123452141D01*
X151325000Y-123421536D01*
X149825000Y-123421536D01*
X149780725Y-123429867D01*
X150252128Y-122958464D01*
X150539551Y-122958464D01*
X150635362Y-123022483D01*
X150635362Y-123022483D01*
G37*
X150635362Y-123022483D02*
X150829000Y-123061000D01*
X151022638Y-123022483D01*
X151118449Y-122958464D01*
X151216914Y-122958464D01*
X151314339Y-123194252D01*
X151505741Y-123385987D01*
X151755946Y-123489882D01*
X151857378Y-123489970D01*
X151995204Y-123627796D01*
X151996536Y-123628686D01*
X151996536Y-124020000D01*
X152023103Y-124161190D01*
X152106546Y-124290865D01*
X152233866Y-124377859D01*
X152385000Y-124408464D01*
X153674000Y-124408464D01*
X153674000Y-125730000D01*
X153720055Y-125961536D01*
X153722032Y-125971473D01*
X153858816Y-126176184D01*
X154304815Y-126622184D01*
X154173748Y-126676339D01*
X153982013Y-126867741D01*
X153930193Y-126992536D01*
X153860500Y-126992536D01*
X153719310Y-127019103D01*
X153589635Y-127102546D01*
X153571560Y-127129000D01*
X153208109Y-127129000D01*
X153208118Y-127119135D01*
X153104661Y-126868748D01*
X152913259Y-126677013D01*
X152663054Y-126573118D01*
X152392135Y-126572882D01*
X152141748Y-126676339D01*
X151983953Y-126833860D01*
X151978483Y-126806362D01*
X151868796Y-126642204D01*
X151713464Y-126538414D01*
X151713464Y-126350000D01*
X151686897Y-126208810D01*
X151603454Y-126079135D01*
X151476134Y-125992141D01*
X151335000Y-125963561D01*
X151335000Y-125496582D01*
X151466190Y-125471897D01*
X151595865Y-125388454D01*
X151682859Y-125261134D01*
X151713464Y-125110000D01*
X151713464Y-123810000D01*
X151686897Y-123668810D01*
X151603454Y-123539135D01*
X151476134Y-123452141D01*
X151325000Y-123421536D01*
X149825000Y-123421536D01*
X149780725Y-123429867D01*
X150252128Y-122958464D01*
X150539551Y-122958464D01*
X150635362Y-123022483D01*
G36*
X161290000Y-118237000D02*
X163165020Y-118237000D01*
X166365796Y-119837388D01*
X166393204Y-119864796D01*
X166557362Y-119974483D01*
X166694571Y-120001776D01*
X167961020Y-120635000D01*
X167370750Y-120635000D01*
X167212000Y-120793750D01*
X167212000Y-121793000D01*
X167232000Y-121793000D01*
X167232000Y-122047000D01*
X167212000Y-122047000D01*
X167212000Y-123046250D01*
X167355750Y-123190000D01*
X167212000Y-123333750D01*
X167212000Y-124333000D01*
X167232000Y-124333000D01*
X167232000Y-124587000D01*
X167212000Y-124587000D01*
X167212000Y-125586250D01*
X167370750Y-125745000D01*
X167961309Y-125745000D01*
X168148000Y-125667670D01*
X168148000Y-126132821D01*
X168113454Y-126079135D01*
X167986134Y-125992141D01*
X167835000Y-125961536D01*
X166335000Y-125961536D01*
X166241000Y-125979223D01*
X166241000Y-125745000D01*
X166799250Y-125745000D01*
X166958000Y-125586250D01*
X166958000Y-124587000D01*
X166938000Y-124587000D01*
X166938000Y-124333000D01*
X166958000Y-124333000D01*
X166958000Y-123333750D01*
X166814250Y-123190000D01*
X166958000Y-123046250D01*
X166958000Y-122047000D01*
X165858750Y-122047000D01*
X165700000Y-122205750D01*
X165700000Y-122519408D01*
X165523464Y-122342872D01*
X165523464Y-121270000D01*
X165499697Y-121143690D01*
X165700000Y-121143690D01*
X165700000Y-121634250D01*
X165858750Y-121793000D01*
X166958000Y-121793000D01*
X166958000Y-120793750D01*
X166799250Y-120635000D01*
X166208691Y-120635000D01*
X165975302Y-120731673D01*
X165796673Y-120910301D01*
X165700000Y-121143690D01*
X165499697Y-121143690D01*
X165496897Y-121128810D01*
X165413454Y-120999135D01*
X165286134Y-120912141D01*
X165135000Y-120881536D01*
X164062128Y-120881536D01*
X163392796Y-120212204D01*
X163228638Y-120102517D01*
X163035000Y-120064000D01*
X162963464Y-120064000D01*
X162963464Y-119820000D01*
X162936897Y-119678810D01*
X162853454Y-119549135D01*
X162726134Y-119462141D01*
X162575000Y-119431536D01*
X161286000Y-119431536D01*
X161286000Y-118236247D01*
X161290000Y-118237000D01*
X161290000Y-118237000D01*
G37*
X161290000Y-118237000D02*
X163165020Y-118237000D01*
X166365796Y-119837388D01*
X166393204Y-119864796D01*
X166557362Y-119974483D01*
X166694571Y-120001776D01*
X167961020Y-120635000D01*
X167370750Y-120635000D01*
X167212000Y-120793750D01*
X167212000Y-121793000D01*
X167232000Y-121793000D01*
X167232000Y-122047000D01*
X167212000Y-122047000D01*
X167212000Y-123046250D01*
X167355750Y-123190000D01*
X167212000Y-123333750D01*
X167212000Y-124333000D01*
X167232000Y-124333000D01*
X167232000Y-124587000D01*
X167212000Y-124587000D01*
X167212000Y-125586250D01*
X167370750Y-125745000D01*
X167961309Y-125745000D01*
X168148000Y-125667670D01*
X168148000Y-126132821D01*
X168113454Y-126079135D01*
X167986134Y-125992141D01*
X167835000Y-125961536D01*
X166335000Y-125961536D01*
X166241000Y-125979223D01*
X166241000Y-125745000D01*
X166799250Y-125745000D01*
X166958000Y-125586250D01*
X166958000Y-124587000D01*
X166938000Y-124587000D01*
X166938000Y-124333000D01*
X166958000Y-124333000D01*
X166958000Y-123333750D01*
X166814250Y-123190000D01*
X166958000Y-123046250D01*
X166958000Y-122047000D01*
X165858750Y-122047000D01*
X165700000Y-122205750D01*
X165700000Y-122519408D01*
X165523464Y-122342872D01*
X165523464Y-121270000D01*
X165499697Y-121143690D01*
X165700000Y-121143690D01*
X165700000Y-121634250D01*
X165858750Y-121793000D01*
X166958000Y-121793000D01*
X166958000Y-120793750D01*
X166799250Y-120635000D01*
X166208691Y-120635000D01*
X165975302Y-120731673D01*
X165796673Y-120910301D01*
X165700000Y-121143690D01*
X165499697Y-121143690D01*
X165496897Y-121128810D01*
X165413454Y-120999135D01*
X165286134Y-120912141D01*
X165135000Y-120881536D01*
X164062128Y-120881536D01*
X163392796Y-120212204D01*
X163228638Y-120102517D01*
X163035000Y-120064000D01*
X162963464Y-120064000D01*
X162963464Y-119820000D01*
X162936897Y-119678810D01*
X162853454Y-119549135D01*
X162726134Y-119462141D01*
X162575000Y-119431536D01*
X161286000Y-119431536D01*
X161286000Y-118236247D01*
X161290000Y-118237000D01*
G36*
X160208816Y-117130416D02*
X160072032Y-117335127D01*
X160024000Y-117576600D01*
X160024000Y-120144796D01*
X160020000Y-120144000D01*
X159919453Y-120164000D01*
X159763464Y-120164000D01*
X159763464Y-119285000D01*
X159736897Y-119143810D01*
X159653454Y-119014135D01*
X159526134Y-118927141D01*
X159375000Y-118896536D01*
X159256000Y-118896536D01*
X159256000Y-117938592D01*
X160054561Y-117140031D01*
X160154865Y-117140118D01*
X160230271Y-117108961D01*
X160208816Y-117130416D01*
X160208816Y-117130416D01*
G37*
X160208816Y-117130416D02*
X160072032Y-117335127D01*
X160024000Y-117576600D01*
X160024000Y-120144796D01*
X160020000Y-120144000D01*
X159919453Y-120164000D01*
X159763464Y-120164000D01*
X159763464Y-119285000D01*
X159736897Y-119143810D01*
X159653454Y-119014135D01*
X159526134Y-118927141D01*
X159375000Y-118896536D01*
X159256000Y-118896536D01*
X159256000Y-117938592D01*
X160054561Y-117140031D01*
X160154865Y-117140118D01*
X160230271Y-117108961D01*
X160208816Y-117130416D01*
G36*
X152529000Y-113239592D02*
X152529000Y-113716536D01*
X152385000Y-113716536D01*
X152243810Y-113743103D01*
X152114135Y-113826546D01*
X152027141Y-113953866D01*
X151996536Y-114105000D01*
X151996536Y-114741704D01*
X151974000Y-114855000D01*
X151996536Y-114968296D01*
X151996536Y-115605000D01*
X152023103Y-115746190D01*
X152106546Y-115875865D01*
X152233866Y-115962859D01*
X152385000Y-115993464D01*
X153674000Y-115993464D01*
X153674000Y-116170000D01*
X153320750Y-116170000D01*
X153162000Y-116328750D01*
X153162000Y-117428000D01*
X153182000Y-117428000D01*
X153182000Y-117682000D01*
X153162000Y-117682000D01*
X153162000Y-118781250D01*
X153320750Y-118940000D01*
X153674000Y-118940000D01*
X153674000Y-119431536D01*
X152445956Y-119431536D01*
X152446118Y-119245135D01*
X152342661Y-118994748D01*
X152288008Y-118940000D01*
X152749250Y-118940000D01*
X152908000Y-118781250D01*
X152908000Y-117682000D01*
X151908750Y-117682000D01*
X151750000Y-117840750D01*
X151750000Y-118431309D01*
X151846673Y-118664698D01*
X151881075Y-118699101D01*
X151799622Y-118699030D01*
X151539996Y-118439404D01*
X151595865Y-118403454D01*
X151682859Y-118276134D01*
X151713464Y-118125000D01*
X151713464Y-116825000D01*
X151686897Y-116683810D01*
X151683604Y-116678691D01*
X151750000Y-116678691D01*
X151750000Y-117269250D01*
X151908750Y-117428000D01*
X152908000Y-117428000D01*
X152908000Y-116328750D01*
X152749250Y-116170000D01*
X152258690Y-116170000D01*
X152025301Y-116266673D01*
X151846673Y-116445302D01*
X151750000Y-116678691D01*
X151683604Y-116678691D01*
X151603454Y-116554135D01*
X151557805Y-116522945D01*
X151595865Y-116498454D01*
X151682859Y-116371134D01*
X151713464Y-116220000D01*
X151713464Y-114920000D01*
X151686897Y-114778810D01*
X151603454Y-114649135D01*
X151476134Y-114562141D01*
X151325000Y-114531536D01*
X149825000Y-114531536D01*
X149731000Y-114549223D01*
X149731000Y-114315000D01*
X150289250Y-114315000D01*
X150448000Y-114156250D01*
X150448000Y-113157000D01*
X150702000Y-113157000D01*
X150702000Y-114156250D01*
X150860750Y-114315000D01*
X151451309Y-114315000D01*
X151684698Y-114218327D01*
X151863327Y-114039699D01*
X151960000Y-113806310D01*
X151960000Y-113315750D01*
X151801250Y-113157000D01*
X150702000Y-113157000D01*
X150448000Y-113157000D01*
X150428000Y-113157000D01*
X150428000Y-112903000D01*
X150448000Y-112903000D01*
X150448000Y-112883000D01*
X150702000Y-112883000D01*
X150702000Y-112903000D01*
X151801250Y-112903000D01*
X151960000Y-112744250D01*
X151960000Y-112670592D01*
X152529000Y-113239592D01*
X152529000Y-113239592D01*
G37*
X152529000Y-113239592D02*
X152529000Y-113716536D01*
X152385000Y-113716536D01*
X152243810Y-113743103D01*
X152114135Y-113826546D01*
X152027141Y-113953866D01*
X151996536Y-114105000D01*
X151996536Y-114741704D01*
X151974000Y-114855000D01*
X151996536Y-114968296D01*
X151996536Y-115605000D01*
X152023103Y-115746190D01*
X152106546Y-115875865D01*
X152233866Y-115962859D01*
X152385000Y-115993464D01*
X153674000Y-115993464D01*
X153674000Y-116170000D01*
X153320750Y-116170000D01*
X153162000Y-116328750D01*
X153162000Y-117428000D01*
X153182000Y-117428000D01*
X153182000Y-117682000D01*
X153162000Y-117682000D01*
X153162000Y-118781250D01*
X153320750Y-118940000D01*
X153674000Y-118940000D01*
X153674000Y-119431536D01*
X152445956Y-119431536D01*
X152446118Y-119245135D01*
X152342661Y-118994748D01*
X152288008Y-118940000D01*
X152749250Y-118940000D01*
X152908000Y-118781250D01*
X152908000Y-117682000D01*
X151908750Y-117682000D01*
X151750000Y-117840750D01*
X151750000Y-118431309D01*
X151846673Y-118664698D01*
X151881075Y-118699101D01*
X151799622Y-118699030D01*
X151539996Y-118439404D01*
X151595865Y-118403454D01*
X151682859Y-118276134D01*
X151713464Y-118125000D01*
X151713464Y-116825000D01*
X151686897Y-116683810D01*
X151683604Y-116678691D01*
X151750000Y-116678691D01*
X151750000Y-117269250D01*
X151908750Y-117428000D01*
X152908000Y-117428000D01*
X152908000Y-116328750D01*
X152749250Y-116170000D01*
X152258690Y-116170000D01*
X152025301Y-116266673D01*
X151846673Y-116445302D01*
X151750000Y-116678691D01*
X151683604Y-116678691D01*
X151603454Y-116554135D01*
X151557805Y-116522945D01*
X151595865Y-116498454D01*
X151682859Y-116371134D01*
X151713464Y-116220000D01*
X151713464Y-114920000D01*
X151686897Y-114778810D01*
X151603454Y-114649135D01*
X151476134Y-114562141D01*
X151325000Y-114531536D01*
X149825000Y-114531536D01*
X149731000Y-114549223D01*
X149731000Y-114315000D01*
X150289250Y-114315000D01*
X150448000Y-114156250D01*
X150448000Y-113157000D01*
X150702000Y-113157000D01*
X150702000Y-114156250D01*
X150860750Y-114315000D01*
X151451309Y-114315000D01*
X151684698Y-114218327D01*
X151863327Y-114039699D01*
X151960000Y-113806310D01*
X151960000Y-113315750D01*
X151801250Y-113157000D01*
X150702000Y-113157000D01*
X150448000Y-113157000D01*
X150428000Y-113157000D01*
X150428000Y-112903000D01*
X150448000Y-112903000D01*
X150448000Y-112883000D01*
X150702000Y-112883000D01*
X150702000Y-112903000D01*
X151801250Y-112903000D01*
X151960000Y-112744250D01*
X151960000Y-112670592D01*
X152529000Y-113239592D01*
G36*
X156835314Y-108665903D02*
X156811735Y-108665882D01*
X156561348Y-108769339D01*
X156369613Y-108960741D01*
X156313641Y-109095536D01*
X156242000Y-109095536D01*
X156100810Y-109122103D01*
X155971135Y-109205546D01*
X155884141Y-109332866D01*
X155881116Y-109347804D01*
X155785413Y-109443341D01*
X155681518Y-109693546D01*
X155681282Y-109964465D01*
X155784739Y-110214852D01*
X155853536Y-110283769D01*
X155853536Y-110734000D01*
X155880103Y-110875190D01*
X155963546Y-111004865D01*
X156090866Y-111091859D01*
X156242000Y-111122464D01*
X157742000Y-111122464D01*
X157883190Y-111095897D01*
X158012865Y-111012454D01*
X158099859Y-110885134D01*
X158130464Y-110734000D01*
X158130464Y-110049278D01*
X158186282Y-109914854D01*
X158186340Y-109848051D01*
X158353536Y-109994347D01*
X158353536Y-110734000D01*
X158380103Y-110875190D01*
X158463546Y-111004865D01*
X158590866Y-111091859D01*
X158742000Y-111122464D01*
X159642812Y-111122464D01*
X161163000Y-112452628D01*
X161163000Y-113915632D01*
X160694784Y-113447416D01*
X160490073Y-113310632D01*
X160248600Y-113262600D01*
X156014169Y-113262600D01*
X155698000Y-112946432D01*
X155698000Y-111152582D01*
X155747882Y-111032454D01*
X155748118Y-110761535D01*
X155644661Y-110511148D01*
X155453259Y-110319413D01*
X155203054Y-110215518D01*
X154932135Y-110215282D01*
X154681748Y-110318739D01*
X154490013Y-110510141D01*
X154386118Y-110760346D01*
X154385882Y-111031265D01*
X154436000Y-111152561D01*
X154436000Y-112522631D01*
X151957184Y-110043816D01*
X151752473Y-109907032D01*
X151735631Y-109903682D01*
X151743464Y-109865000D01*
X151743464Y-109322128D01*
X151799561Y-109266031D01*
X151899865Y-109266118D01*
X152150252Y-109162661D01*
X152341987Y-108971259D01*
X152445882Y-108721054D01*
X152446118Y-108450135D01*
X152396066Y-108329000D01*
X152698408Y-108329000D01*
X153242969Y-108873561D01*
X153242882Y-108973865D01*
X153346339Y-109224252D01*
X153537741Y-109415987D01*
X153787946Y-109519882D01*
X154058865Y-109520118D01*
X154309252Y-109416661D01*
X154500987Y-109225259D01*
X154604882Y-108975054D01*
X154605118Y-108704135D01*
X154501661Y-108453748D01*
X154310259Y-108262013D01*
X154060054Y-108158118D01*
X153958622Y-108158030D01*
X153877592Y-108077000D01*
X156162282Y-108077000D01*
X156835314Y-108665903D01*
X156835314Y-108665903D01*
G37*
X156835314Y-108665903D02*
X156811735Y-108665882D01*
X156561348Y-108769339D01*
X156369613Y-108960741D01*
X156313641Y-109095536D01*
X156242000Y-109095536D01*
X156100810Y-109122103D01*
X155971135Y-109205546D01*
X155884141Y-109332866D01*
X155881116Y-109347804D01*
X155785413Y-109443341D01*
X155681518Y-109693546D01*
X155681282Y-109964465D01*
X155784739Y-110214852D01*
X155853536Y-110283769D01*
X155853536Y-110734000D01*
X155880103Y-110875190D01*
X155963546Y-111004865D01*
X156090866Y-111091859D01*
X156242000Y-111122464D01*
X157742000Y-111122464D01*
X157883190Y-111095897D01*
X158012865Y-111012454D01*
X158099859Y-110885134D01*
X158130464Y-110734000D01*
X158130464Y-110049278D01*
X158186282Y-109914854D01*
X158186340Y-109848051D01*
X158353536Y-109994347D01*
X158353536Y-110734000D01*
X158380103Y-110875190D01*
X158463546Y-111004865D01*
X158590866Y-111091859D01*
X158742000Y-111122464D01*
X159642812Y-111122464D01*
X161163000Y-112452628D01*
X161163000Y-113915632D01*
X160694784Y-113447416D01*
X160490073Y-113310632D01*
X160248600Y-113262600D01*
X156014169Y-113262600D01*
X155698000Y-112946432D01*
X155698000Y-111152582D01*
X155747882Y-111032454D01*
X155748118Y-110761535D01*
X155644661Y-110511148D01*
X155453259Y-110319413D01*
X155203054Y-110215518D01*
X154932135Y-110215282D01*
X154681748Y-110318739D01*
X154490013Y-110510141D01*
X154386118Y-110760346D01*
X154385882Y-111031265D01*
X154436000Y-111152561D01*
X154436000Y-112522631D01*
X151957184Y-110043816D01*
X151752473Y-109907032D01*
X151735631Y-109903682D01*
X151743464Y-109865000D01*
X151743464Y-109322128D01*
X151799561Y-109266031D01*
X151899865Y-109266118D01*
X152150252Y-109162661D01*
X152341987Y-108971259D01*
X152445882Y-108721054D01*
X152446118Y-108450135D01*
X152396066Y-108329000D01*
X152698408Y-108329000D01*
X153242969Y-108873561D01*
X153242882Y-108973865D01*
X153346339Y-109224252D01*
X153537741Y-109415987D01*
X153787946Y-109519882D01*
X154058865Y-109520118D01*
X154309252Y-109416661D01*
X154500987Y-109225259D01*
X154604882Y-108975054D01*
X154605118Y-108704135D01*
X154501661Y-108453748D01*
X154310259Y-108262013D01*
X154060054Y-108158118D01*
X153958622Y-108158030D01*
X153877592Y-108077000D01*
X156162282Y-108077000D01*
X156835314Y-108665903D01*
G36*
X152126000Y-104394000D02*
X152146000Y-104394000D01*
X152146000Y-104648000D01*
X152126000Y-104648000D01*
X152126000Y-105622250D01*
X152284750Y-105781000D01*
X152875309Y-105781000D01*
X152908000Y-105767459D01*
X152908000Y-107317000D01*
X151613464Y-107317000D01*
X151613464Y-106690000D01*
X151586897Y-106548810D01*
X151503454Y-106419135D01*
X151376134Y-106332141D01*
X151225000Y-106301536D01*
X149725000Y-106301536D01*
X149583810Y-106328103D01*
X149454135Y-106411546D01*
X149367141Y-106538866D01*
X149336536Y-106690000D01*
X149336536Y-107940000D01*
X149363103Y-108081190D01*
X149446546Y-108210865D01*
X149573866Y-108297859D01*
X149725000Y-108328464D01*
X150472305Y-108328464D01*
X150475000Y-108329000D01*
X151133924Y-108329000D01*
X151084118Y-108448946D01*
X151084030Y-108550378D01*
X150807872Y-108826536D01*
X149795000Y-108826536D01*
X149653810Y-108853103D01*
X149524135Y-108936546D01*
X149437141Y-109063866D01*
X149406536Y-109215000D01*
X149406536Y-109859000D01*
X149043464Y-109859000D01*
X149043464Y-109215000D01*
X149016897Y-109073810D01*
X148933454Y-108944135D01*
X148806134Y-108857141D01*
X148655000Y-108826536D01*
X147355832Y-108826536D01*
X147853905Y-108328464D01*
X148725000Y-108328464D01*
X148866190Y-108301897D01*
X148995865Y-108218454D01*
X149082859Y-108091134D01*
X149113464Y-107940000D01*
X149113464Y-106690000D01*
X149086897Y-106548810D01*
X149003454Y-106419135D01*
X148876134Y-106332141D01*
X148725000Y-106301536D01*
X148481000Y-106301536D01*
X148481000Y-105639592D01*
X148613556Y-105507036D01*
X148749000Y-105534464D01*
X150249000Y-105534464D01*
X150390190Y-105507897D01*
X150519865Y-105424454D01*
X150606859Y-105297134D01*
X150614000Y-105261870D01*
X150614000Y-105272310D01*
X150710673Y-105505699D01*
X150889302Y-105684327D01*
X151122691Y-105781000D01*
X151713250Y-105781000D01*
X151872000Y-105622250D01*
X151872000Y-104648000D01*
X151852000Y-104648000D01*
X151852000Y-104394000D01*
X151872000Y-104394000D01*
X151872000Y-104374000D01*
X152126000Y-104374000D01*
X152126000Y-104394000D01*
X152126000Y-104394000D01*
G37*
X152126000Y-104394000D02*
X152146000Y-104394000D01*
X152146000Y-104648000D01*
X152126000Y-104648000D01*
X152126000Y-105622250D01*
X152284750Y-105781000D01*
X152875309Y-105781000D01*
X152908000Y-105767459D01*
X152908000Y-107317000D01*
X151613464Y-107317000D01*
X151613464Y-106690000D01*
X151586897Y-106548810D01*
X151503454Y-106419135D01*
X151376134Y-106332141D01*
X151225000Y-106301536D01*
X149725000Y-106301536D01*
X149583810Y-106328103D01*
X149454135Y-106411546D01*
X149367141Y-106538866D01*
X149336536Y-106690000D01*
X149336536Y-107940000D01*
X149363103Y-108081190D01*
X149446546Y-108210865D01*
X149573866Y-108297859D01*
X149725000Y-108328464D01*
X150472305Y-108328464D01*
X150475000Y-108329000D01*
X151133924Y-108329000D01*
X151084118Y-108448946D01*
X151084030Y-108550378D01*
X150807872Y-108826536D01*
X149795000Y-108826536D01*
X149653810Y-108853103D01*
X149524135Y-108936546D01*
X149437141Y-109063866D01*
X149406536Y-109215000D01*
X149406536Y-109859000D01*
X149043464Y-109859000D01*
X149043464Y-109215000D01*
X149016897Y-109073810D01*
X148933454Y-108944135D01*
X148806134Y-108857141D01*
X148655000Y-108826536D01*
X147355832Y-108826536D01*
X147853905Y-108328464D01*
X148725000Y-108328464D01*
X148866190Y-108301897D01*
X148995865Y-108218454D01*
X149082859Y-108091134D01*
X149113464Y-107940000D01*
X149113464Y-106690000D01*
X149086897Y-106548810D01*
X149003454Y-106419135D01*
X148876134Y-106332141D01*
X148725000Y-106301536D01*
X148481000Y-106301536D01*
X148481000Y-105639592D01*
X148613556Y-105507036D01*
X148749000Y-105534464D01*
X150249000Y-105534464D01*
X150390190Y-105507897D01*
X150519865Y-105424454D01*
X150606859Y-105297134D01*
X150614000Y-105261870D01*
X150614000Y-105272310D01*
X150710673Y-105505699D01*
X150889302Y-105684327D01*
X151122691Y-105781000D01*
X151713250Y-105781000D01*
X151872000Y-105622250D01*
X151872000Y-104648000D01*
X151852000Y-104648000D01*
X151852000Y-104394000D01*
X151872000Y-104394000D01*
X151872000Y-104374000D01*
X152126000Y-104374000D01*
X152126000Y-104394000D01*
G36*
X148391141Y-103744866D02*
X148360536Y-103896000D01*
X148360536Y-104328872D01*
X147617204Y-105072204D01*
X147507517Y-105236362D01*
X147469000Y-105430000D01*
X147469000Y-106301536D01*
X147225000Y-106301536D01*
X147083810Y-106328103D01*
X146954135Y-106411546D01*
X146867141Y-106538866D01*
X146836536Y-106690000D01*
X146836536Y-107561095D01*
X146506000Y-107891632D01*
X146506000Y-103632000D01*
X148468259Y-103632000D01*
X148391141Y-103744866D01*
X148391141Y-103744866D01*
G37*
X148391141Y-103744866D02*
X148360536Y-103896000D01*
X148360536Y-104328872D01*
X147617204Y-105072204D01*
X147507517Y-105236362D01*
X147469000Y-105430000D01*
X147469000Y-106301536D01*
X147225000Y-106301536D01*
X147083810Y-106328103D01*
X146954135Y-106411546D01*
X146867141Y-106538866D01*
X146836536Y-106690000D01*
X146836536Y-107561095D01*
X146506000Y-107891632D01*
X146506000Y-103632000D01*
X148468259Y-103632000D01*
X148391141Y-103744866D01*
G36*
X174169000Y-143054000D02*
X168783000Y-143054000D01*
X168783000Y-141732000D01*
X168797883Y-141732000D01*
X168891587Y-142203083D01*
X169158435Y-142602448D01*
X169557800Y-142869296D01*
X170028883Y-142963000D01*
X170077117Y-142963000D01*
X170548200Y-142869296D01*
X170947565Y-142602448D01*
X171214413Y-142203083D01*
X171308117Y-141732000D01*
X171337883Y-141732000D01*
X171431587Y-142203083D01*
X171698435Y-142602448D01*
X172097800Y-142869296D01*
X172568883Y-142963000D01*
X172617117Y-142963000D01*
X173088200Y-142869296D01*
X173487565Y-142602448D01*
X173754413Y-142203083D01*
X173848117Y-141732000D01*
X173754413Y-141260917D01*
X173487565Y-140861552D01*
X173088200Y-140594704D01*
X172617117Y-140501000D01*
X172568883Y-140501000D01*
X172097800Y-140594704D01*
X171698435Y-140861552D01*
X171431587Y-141260917D01*
X171337883Y-141732000D01*
X171308117Y-141732000D01*
X171214413Y-141260917D01*
X170947565Y-140861552D01*
X170548200Y-140594704D01*
X170077117Y-140501000D01*
X170028883Y-140501000D01*
X169557800Y-140594704D01*
X169158435Y-140861552D01*
X168891587Y-141260917D01*
X168797883Y-141732000D01*
X168783000Y-141732000D01*
X168783000Y-139192000D01*
X168797883Y-139192000D01*
X168891587Y-139663083D01*
X169158435Y-140062448D01*
X169557800Y-140329296D01*
X170028883Y-140423000D01*
X170077117Y-140423000D01*
X170548200Y-140329296D01*
X170947565Y-140062448D01*
X171214413Y-139663083D01*
X171308117Y-139192000D01*
X171214413Y-138720917D01*
X170947565Y-138321552D01*
X170548200Y-138054704D01*
X170077117Y-137961000D01*
X170028883Y-137961000D01*
X169557800Y-138054704D01*
X169158435Y-138321552D01*
X168891587Y-138720917D01*
X168797883Y-139192000D01*
X168783000Y-139192000D01*
X168783000Y-134112000D01*
X168797883Y-134112000D01*
X168891587Y-134583083D01*
X169158435Y-134982448D01*
X169557800Y-135249296D01*
X170028883Y-135343000D01*
X170077117Y-135343000D01*
X170548200Y-135249296D01*
X170947565Y-134982448D01*
X171214413Y-134583083D01*
X171308117Y-134112000D01*
X171214413Y-133640917D01*
X170947565Y-133241552D01*
X170548200Y-132974704D01*
X170077117Y-132881000D01*
X170028883Y-132881000D01*
X169557800Y-132974704D01*
X169158435Y-133241552D01*
X168891587Y-133640917D01*
X168797883Y-134112000D01*
X168783000Y-134112000D01*
X168783000Y-131572000D01*
X168797883Y-131572000D01*
X168891587Y-132043083D01*
X169158435Y-132442448D01*
X169557800Y-132709296D01*
X170028883Y-132803000D01*
X170077117Y-132803000D01*
X170548200Y-132709296D01*
X170947565Y-132442448D01*
X171204788Y-132057488D01*
X171321355Y-132338924D01*
X171711642Y-132767183D01*
X172136947Y-132966917D01*
X172097800Y-132974704D01*
X171698435Y-133241552D01*
X171431587Y-133640917D01*
X171337883Y-134112000D01*
X171431587Y-134583083D01*
X171698435Y-134982448D01*
X172097800Y-135249296D01*
X172136947Y-135257083D01*
X171711642Y-135456817D01*
X171321355Y-135885076D01*
X171204788Y-136166512D01*
X170947565Y-135781552D01*
X170548200Y-135514704D01*
X170077117Y-135421000D01*
X170028883Y-135421000D01*
X169557800Y-135514704D01*
X169158435Y-135781552D01*
X168891587Y-136180917D01*
X168797883Y-136652000D01*
X168891587Y-137123083D01*
X169158435Y-137522448D01*
X169557800Y-137789296D01*
X170028883Y-137883000D01*
X170077117Y-137883000D01*
X170548200Y-137789296D01*
X170947565Y-137522448D01*
X171204788Y-137137488D01*
X171321355Y-137418924D01*
X171711642Y-137847183D01*
X172136947Y-138046917D01*
X172097800Y-138054704D01*
X171698435Y-138321552D01*
X171431587Y-138720917D01*
X171337883Y-139192000D01*
X171431587Y-139663083D01*
X171698435Y-140062448D01*
X172097800Y-140329296D01*
X172568883Y-140423000D01*
X172617117Y-140423000D01*
X173088200Y-140329296D01*
X173487565Y-140062448D01*
X173754413Y-139663083D01*
X173848117Y-139192000D01*
X173754413Y-138720917D01*
X173487565Y-138321552D01*
X173088200Y-138054704D01*
X173049053Y-138046917D01*
X173474358Y-137847183D01*
X173864645Y-137418924D01*
X174034476Y-137008890D01*
X173913155Y-136779000D01*
X172720000Y-136779000D01*
X172720000Y-136799000D01*
X172466000Y-136799000D01*
X172466000Y-136779000D01*
X172446000Y-136779000D01*
X172446000Y-136525000D01*
X172466000Y-136525000D01*
X172466000Y-136505000D01*
X172720000Y-136505000D01*
X172720000Y-136525000D01*
X173913155Y-136525000D01*
X174034476Y-136295110D01*
X173864645Y-135885076D01*
X173474358Y-135456817D01*
X173049053Y-135257083D01*
X173088200Y-135249296D01*
X173487565Y-134982448D01*
X173754413Y-134583083D01*
X173848117Y-134112000D01*
X173754413Y-133640917D01*
X173487565Y-133241552D01*
X173088200Y-132974704D01*
X173049053Y-132966917D01*
X173474358Y-132767183D01*
X173864645Y-132338924D01*
X174034476Y-131928890D01*
X173913155Y-131699000D01*
X172720000Y-131699000D01*
X172720000Y-131719000D01*
X172466000Y-131719000D01*
X172466000Y-131699000D01*
X172446000Y-131699000D01*
X172446000Y-131445000D01*
X172466000Y-131445000D01*
X172466000Y-131425000D01*
X172720000Y-131425000D01*
X172720000Y-131445000D01*
X173913155Y-131445000D01*
X174034476Y-131215110D01*
X173864645Y-130805076D01*
X173474358Y-130376817D01*
X173049053Y-130177083D01*
X173088200Y-130169296D01*
X173487565Y-129902448D01*
X173754413Y-129503083D01*
X173848117Y-129032000D01*
X173754413Y-128560917D01*
X173487565Y-128161552D01*
X173088200Y-127894704D01*
X172617117Y-127801000D01*
X172568883Y-127801000D01*
X172097800Y-127894704D01*
X171698435Y-128161552D01*
X171431587Y-128560917D01*
X171337883Y-129032000D01*
X171431587Y-129503083D01*
X171698435Y-129902448D01*
X172097800Y-130169296D01*
X172136947Y-130177083D01*
X171711642Y-130376817D01*
X171321355Y-130805076D01*
X171204788Y-131086512D01*
X170947565Y-130701552D01*
X170548200Y-130434704D01*
X170077117Y-130341000D01*
X170028883Y-130341000D01*
X169557800Y-130434704D01*
X169158435Y-130701552D01*
X168891587Y-131100917D01*
X168797883Y-131572000D01*
X168783000Y-131572000D01*
X168783000Y-127260729D01*
X169171642Y-127687183D01*
X169596947Y-127886917D01*
X169557800Y-127894704D01*
X169158435Y-128161552D01*
X168891587Y-128560917D01*
X168797883Y-129032000D01*
X168891587Y-129503083D01*
X169158435Y-129902448D01*
X169557800Y-130169296D01*
X170028883Y-130263000D01*
X170077117Y-130263000D01*
X170548200Y-130169296D01*
X170947565Y-129902448D01*
X171214413Y-129503083D01*
X171308117Y-129032000D01*
X171214413Y-128560917D01*
X170947565Y-128161552D01*
X170548200Y-127894704D01*
X170509053Y-127886917D01*
X170934358Y-127687183D01*
X171324645Y-127258924D01*
X171441212Y-126977488D01*
X171698435Y-127362448D01*
X172097800Y-127629296D01*
X172568883Y-127723000D01*
X172617117Y-127723000D01*
X173088200Y-127629296D01*
X173487565Y-127362448D01*
X173754413Y-126963083D01*
X173848117Y-126492000D01*
X173754413Y-126020917D01*
X173487565Y-125621552D01*
X173088200Y-125354704D01*
X172617117Y-125261000D01*
X172568883Y-125261000D01*
X172097800Y-125354704D01*
X171698435Y-125621552D01*
X171441212Y-126006512D01*
X171324645Y-125725076D01*
X170934358Y-125296817D01*
X170509053Y-125097083D01*
X170548200Y-125089296D01*
X170947565Y-124822448D01*
X171214413Y-124423083D01*
X171308117Y-123952000D01*
X171337883Y-123952000D01*
X171431587Y-124423083D01*
X171698435Y-124822448D01*
X172097800Y-125089296D01*
X172568883Y-125183000D01*
X172617117Y-125183000D01*
X173088200Y-125089296D01*
X173487565Y-124822448D01*
X173754413Y-124423083D01*
X173848117Y-123952000D01*
X173754413Y-123480917D01*
X173487565Y-123081552D01*
X173088200Y-122814704D01*
X172617117Y-122721000D01*
X172568883Y-122721000D01*
X172097800Y-122814704D01*
X171698435Y-123081552D01*
X171431587Y-123480917D01*
X171337883Y-123952000D01*
X171308117Y-123952000D01*
X171214413Y-123480917D01*
X170947565Y-123081552D01*
X170548200Y-122814704D01*
X170077117Y-122721000D01*
X170028883Y-122721000D01*
X169557800Y-122814704D01*
X169158435Y-123081552D01*
X168891587Y-123480917D01*
X168797883Y-123952000D01*
X168891587Y-124423083D01*
X169158435Y-124822448D01*
X169557800Y-125089296D01*
X169596947Y-125097083D01*
X169171642Y-125296817D01*
X168783000Y-125723271D01*
X168783000Y-123645126D01*
X168851987Y-123576259D01*
X168955882Y-123326054D01*
X168956118Y-123055135D01*
X168852661Y-122804748D01*
X168783000Y-122734966D01*
X168783000Y-120857592D01*
X168887396Y-120961988D01*
X168797883Y-121412000D01*
X168891587Y-121883083D01*
X169158435Y-122282448D01*
X169557800Y-122549296D01*
X170028883Y-122643000D01*
X170077117Y-122643000D01*
X170548200Y-122549296D01*
X170947565Y-122282448D01*
X171214413Y-121883083D01*
X171308117Y-121412000D01*
X171214413Y-120940917D01*
X170947565Y-120541552D01*
X170548200Y-120274704D01*
X170077117Y-120181000D01*
X170028883Y-120181000D01*
X169619102Y-120262510D01*
X168527000Y-119170408D01*
X168527000Y-118442592D01*
X168824184Y-118739776D01*
X168797883Y-118872000D01*
X168891587Y-119343083D01*
X169158435Y-119742448D01*
X169557800Y-120009296D01*
X170028883Y-120103000D01*
X170077117Y-120103000D01*
X170548200Y-120009296D01*
X170947565Y-119742448D01*
X171204788Y-119357488D01*
X171321355Y-119638924D01*
X171711642Y-120067183D01*
X172136947Y-120266917D01*
X172097800Y-120274704D01*
X171698435Y-120541552D01*
X171431587Y-120940917D01*
X171337883Y-121412000D01*
X171431587Y-121883083D01*
X171698435Y-122282448D01*
X172097800Y-122549296D01*
X172568883Y-122643000D01*
X172617117Y-122643000D01*
X173088200Y-122549296D01*
X173487565Y-122282448D01*
X173754413Y-121883083D01*
X173848117Y-121412000D01*
X173754413Y-120940917D01*
X173487565Y-120541552D01*
X173088200Y-120274704D01*
X173049053Y-120266917D01*
X173474358Y-120067183D01*
X173864645Y-119638924D01*
X174034476Y-119228890D01*
X173913155Y-118999000D01*
X172720000Y-118999000D01*
X172720000Y-119019000D01*
X172466000Y-119019000D01*
X172466000Y-118999000D01*
X172446000Y-118999000D01*
X172446000Y-118745000D01*
X172466000Y-118745000D01*
X172466000Y-118725000D01*
X172720000Y-118725000D01*
X172720000Y-118745000D01*
X173913155Y-118745000D01*
X174034476Y-118515110D01*
X173864645Y-118105076D01*
X173474358Y-117676817D01*
X173049053Y-117477083D01*
X173088200Y-117469296D01*
X173487565Y-117202448D01*
X173754413Y-116803083D01*
X173848117Y-116332000D01*
X173754413Y-115860917D01*
X173487565Y-115461552D01*
X173088200Y-115194704D01*
X172617117Y-115101000D01*
X172568883Y-115101000D01*
X172097800Y-115194704D01*
X171698435Y-115461552D01*
X171431587Y-115860917D01*
X171337883Y-116332000D01*
X171431587Y-116803083D01*
X171698435Y-117202448D01*
X172097800Y-117469296D01*
X172136947Y-117477083D01*
X171711642Y-117676817D01*
X171321355Y-118105076D01*
X171204788Y-118386512D01*
X170947565Y-118001552D01*
X170548200Y-117734704D01*
X170077117Y-117641000D01*
X170028883Y-117641000D01*
X169557800Y-117734704D01*
X169373465Y-117857873D01*
X169162000Y-117646408D01*
X169162000Y-117204830D01*
X169557800Y-117469296D01*
X170028883Y-117563000D01*
X170077117Y-117563000D01*
X170548200Y-117469296D01*
X170947565Y-117202448D01*
X171214413Y-116803083D01*
X171308117Y-116332000D01*
X171214413Y-115860917D01*
X170947565Y-115461552D01*
X170548200Y-115194704D01*
X170077117Y-115101000D01*
X170028883Y-115101000D01*
X169557800Y-115194704D01*
X169162000Y-115459170D01*
X169162000Y-114664830D01*
X169557800Y-114929296D01*
X170028883Y-115023000D01*
X170077117Y-115023000D01*
X170548200Y-114929296D01*
X170947565Y-114662448D01*
X171214413Y-114263083D01*
X171308117Y-113792000D01*
X171218604Y-113341988D01*
X171680796Y-112879796D01*
X171790483Y-112715638D01*
X171829000Y-112522000D01*
X171829000Y-112502297D01*
X172136947Y-112646917D01*
X172097800Y-112654704D01*
X171698435Y-112921552D01*
X171431587Y-113320917D01*
X171337883Y-113792000D01*
X171431587Y-114263083D01*
X171698435Y-114662448D01*
X172097800Y-114929296D01*
X172568883Y-115023000D01*
X172617117Y-115023000D01*
X173088200Y-114929296D01*
X173487565Y-114662448D01*
X173754413Y-114263083D01*
X173848117Y-113792000D01*
X173754413Y-113320917D01*
X173487565Y-112921552D01*
X173088200Y-112654704D01*
X173049053Y-112646917D01*
X173474358Y-112447183D01*
X173864645Y-112018924D01*
X174034476Y-111608890D01*
X173913155Y-111379000D01*
X172720000Y-111379000D01*
X172720000Y-111399000D01*
X172466000Y-111399000D01*
X172466000Y-111379000D01*
X172446000Y-111379000D01*
X172446000Y-111125000D01*
X172466000Y-111125000D01*
X172466000Y-111105000D01*
X172720000Y-111105000D01*
X172720000Y-111125000D01*
X173913155Y-111125000D01*
X174034476Y-110895110D01*
X173864645Y-110485076D01*
X173474358Y-110056817D01*
X173049053Y-109857083D01*
X173088200Y-109849296D01*
X173487565Y-109582448D01*
X173754413Y-109183083D01*
X173848117Y-108712000D01*
X173754413Y-108240917D01*
X173487565Y-107841552D01*
X173088200Y-107574704D01*
X172617117Y-107481000D01*
X172568883Y-107481000D01*
X172097800Y-107574704D01*
X171829000Y-107754311D01*
X171829000Y-107129689D01*
X172097800Y-107309296D01*
X172568883Y-107403000D01*
X172617117Y-107403000D01*
X173088200Y-107309296D01*
X173487565Y-107042448D01*
X173754413Y-106643083D01*
X173848117Y-106172000D01*
X173754413Y-105700917D01*
X173487565Y-105301552D01*
X173088200Y-105034704D01*
X172617117Y-104941000D01*
X172568883Y-104941000D01*
X172097800Y-105034704D01*
X171829000Y-105214311D01*
X171829000Y-105156000D01*
X171790483Y-104962362D01*
X171680796Y-104798204D01*
X171426796Y-104544204D01*
X171262638Y-104434517D01*
X171069000Y-104396000D01*
X171018692Y-104396000D01*
X171214413Y-104103083D01*
X171308117Y-103632000D01*
X171214413Y-103160917D01*
X170947565Y-102761552D01*
X170548200Y-102494704D01*
X170077117Y-102401000D01*
X170028883Y-102401000D01*
X169557800Y-102494704D01*
X169158435Y-102761552D01*
X168891587Y-103160917D01*
X168797883Y-103632000D01*
X168891587Y-104103083D01*
X169087308Y-104396000D01*
X168865592Y-104396000D01*
X168251796Y-103782204D01*
X168087638Y-103672517D01*
X167894000Y-103634000D01*
X164835939Y-103634000D01*
X164977823Y-103575375D01*
X165296256Y-103257497D01*
X165468804Y-102841957D01*
X165469196Y-102392017D01*
X165297375Y-101976177D01*
X164979497Y-101657744D01*
X164563957Y-101485196D01*
X164114017Y-101484804D01*
X163698177Y-101656625D01*
X163379744Y-101974503D01*
X163320000Y-102118382D01*
X163320000Y-101346000D01*
X163281483Y-101152362D01*
X163171796Y-100988204D01*
X162177000Y-99993408D01*
X162177000Y-98470888D01*
X162357536Y-98471045D01*
X162357536Y-99456000D01*
X162384103Y-99597190D01*
X162467546Y-99726865D01*
X162594866Y-99813859D01*
X162746000Y-99844464D01*
X164246000Y-99844464D01*
X164387190Y-99817897D01*
X164516865Y-99734454D01*
X164603859Y-99607134D01*
X164634464Y-99456000D01*
X164634464Y-98343927D01*
X164684378Y-98343970D01*
X165057536Y-98717128D01*
X165057536Y-99456000D01*
X165084103Y-99597190D01*
X165167546Y-99726865D01*
X165294866Y-99813859D01*
X165446000Y-99844464D01*
X165673840Y-99844464D01*
X165648517Y-99882362D01*
X165610000Y-100076000D01*
X165644514Y-100249515D01*
X165562118Y-100447946D01*
X165561882Y-100718865D01*
X165665339Y-100969252D01*
X165856741Y-101160987D01*
X166106946Y-101264882D01*
X166377865Y-101265118D01*
X166628252Y-101161661D01*
X166819987Y-100970259D01*
X166923882Y-100720054D01*
X166924118Y-100449135D01*
X166820661Y-100198748D01*
X166701356Y-100079236D01*
X166702000Y-100076000D01*
X166702000Y-99844464D01*
X166946000Y-99844464D01*
X167087190Y-99817897D01*
X167216865Y-99734454D01*
X167303859Y-99607134D01*
X167334464Y-99456000D01*
X167334464Y-98156000D01*
X167307897Y-98014810D01*
X167224454Y-97885135D01*
X167106764Y-97804721D01*
X167176859Y-97702134D01*
X167207464Y-97551000D01*
X167207464Y-96827433D01*
X168048400Y-97668369D01*
X168048400Y-98933000D01*
X168086917Y-99126638D01*
X168133366Y-99196154D01*
X168016748Y-99244339D01*
X167825013Y-99435741D01*
X167721118Y-99685946D01*
X167721030Y-99787378D01*
X167536204Y-99972204D01*
X167426517Y-100136362D01*
X167388000Y-100330000D01*
X167388000Y-100838000D01*
X167426517Y-101031638D01*
X167536204Y-101195796D01*
X167700362Y-101305483D01*
X167894000Y-101344000D01*
X168087638Y-101305483D01*
X168251796Y-101195796D01*
X168361483Y-101031638D01*
X168400000Y-100838000D01*
X168400000Y-100539592D01*
X168436561Y-100503031D01*
X168536865Y-100503118D01*
X168787252Y-100399661D01*
X168978987Y-100208259D01*
X169018620Y-100112812D01*
X169060204Y-100154396D01*
X169159572Y-100220792D01*
X169158435Y-100221552D01*
X168891587Y-100620917D01*
X168797883Y-101092000D01*
X168891587Y-101563083D01*
X169158435Y-101962448D01*
X169557800Y-102229296D01*
X170028883Y-102323000D01*
X170077117Y-102323000D01*
X170548200Y-102229296D01*
X170947565Y-101962448D01*
X171204788Y-101577488D01*
X171321355Y-101858924D01*
X171711642Y-102287183D01*
X172136947Y-102486917D01*
X172097800Y-102494704D01*
X171698435Y-102761552D01*
X171431587Y-103160917D01*
X171337883Y-103632000D01*
X171431587Y-104103083D01*
X171698435Y-104502448D01*
X172097800Y-104769296D01*
X172568883Y-104863000D01*
X172617117Y-104863000D01*
X173088200Y-104769296D01*
X173487565Y-104502448D01*
X173754413Y-104103083D01*
X173848117Y-103632000D01*
X173754413Y-103160917D01*
X173487565Y-102761552D01*
X173088200Y-102494704D01*
X173049053Y-102486917D01*
X173474358Y-102287183D01*
X173864645Y-101858924D01*
X174034476Y-101448890D01*
X173913155Y-101219000D01*
X172720000Y-101219000D01*
X172720000Y-101239000D01*
X172466000Y-101239000D01*
X172466000Y-101219000D01*
X172446000Y-101219000D01*
X172446000Y-100965000D01*
X172466000Y-100965000D01*
X172466000Y-100945000D01*
X172720000Y-100945000D01*
X172720000Y-100965000D01*
X173913155Y-100965000D01*
X174034476Y-100735110D01*
X173864645Y-100325076D01*
X173474358Y-99896817D01*
X173049053Y-99697083D01*
X173088200Y-99689296D01*
X173487565Y-99422448D01*
X173754413Y-99023083D01*
X173848117Y-98552000D01*
X173754413Y-98080917D01*
X173487565Y-97681552D01*
X173099000Y-97421920D01*
X173099000Y-97142080D01*
X173487565Y-96882448D01*
X173754413Y-96483083D01*
X173848117Y-96012000D01*
X173754413Y-95540917D01*
X173487565Y-95141552D01*
X173381977Y-95071000D01*
X174169000Y-95071000D01*
X174169000Y-143054000D01*
X174169000Y-143054000D01*
G37*
X174169000Y-143054000D02*
X168783000Y-143054000D01*
X168783000Y-141732000D01*
X168797883Y-141732000D01*
X168891587Y-142203083D01*
X169158435Y-142602448D01*
X169557800Y-142869296D01*
X170028883Y-142963000D01*
X170077117Y-142963000D01*
X170548200Y-142869296D01*
X170947565Y-142602448D01*
X171214413Y-142203083D01*
X171308117Y-141732000D01*
X171337883Y-141732000D01*
X171431587Y-142203083D01*
X171698435Y-142602448D01*
X172097800Y-142869296D01*
X172568883Y-142963000D01*
X172617117Y-142963000D01*
X173088200Y-142869296D01*
X173487565Y-142602448D01*
X173754413Y-142203083D01*
X173848117Y-141732000D01*
X173754413Y-141260917D01*
X173487565Y-140861552D01*
X173088200Y-140594704D01*
X172617117Y-140501000D01*
X172568883Y-140501000D01*
X172097800Y-140594704D01*
X171698435Y-140861552D01*
X171431587Y-141260917D01*
X171337883Y-141732000D01*
X171308117Y-141732000D01*
X171214413Y-141260917D01*
X170947565Y-140861552D01*
X170548200Y-140594704D01*
X170077117Y-140501000D01*
X170028883Y-140501000D01*
X169557800Y-140594704D01*
X169158435Y-140861552D01*
X168891587Y-141260917D01*
X168797883Y-141732000D01*
X168783000Y-141732000D01*
X168783000Y-139192000D01*
X168797883Y-139192000D01*
X168891587Y-139663083D01*
X169158435Y-140062448D01*
X169557800Y-140329296D01*
X170028883Y-140423000D01*
X170077117Y-140423000D01*
X170548200Y-140329296D01*
X170947565Y-140062448D01*
X171214413Y-139663083D01*
X171308117Y-139192000D01*
X171214413Y-138720917D01*
X170947565Y-138321552D01*
X170548200Y-138054704D01*
X170077117Y-137961000D01*
X170028883Y-137961000D01*
X169557800Y-138054704D01*
X169158435Y-138321552D01*
X168891587Y-138720917D01*
X168797883Y-139192000D01*
X168783000Y-139192000D01*
X168783000Y-134112000D01*
X168797883Y-134112000D01*
X168891587Y-134583083D01*
X169158435Y-134982448D01*
X169557800Y-135249296D01*
X170028883Y-135343000D01*
X170077117Y-135343000D01*
X170548200Y-135249296D01*
X170947565Y-134982448D01*
X171214413Y-134583083D01*
X171308117Y-134112000D01*
X171214413Y-133640917D01*
X170947565Y-133241552D01*
X170548200Y-132974704D01*
X170077117Y-132881000D01*
X170028883Y-132881000D01*
X169557800Y-132974704D01*
X169158435Y-133241552D01*
X168891587Y-133640917D01*
X168797883Y-134112000D01*
X168783000Y-134112000D01*
X168783000Y-131572000D01*
X168797883Y-131572000D01*
X168891587Y-132043083D01*
X169158435Y-132442448D01*
X169557800Y-132709296D01*
X170028883Y-132803000D01*
X170077117Y-132803000D01*
X170548200Y-132709296D01*
X170947565Y-132442448D01*
X171204788Y-132057488D01*
X171321355Y-132338924D01*
X171711642Y-132767183D01*
X172136947Y-132966917D01*
X172097800Y-132974704D01*
X171698435Y-133241552D01*
X171431587Y-133640917D01*
X171337883Y-134112000D01*
X171431587Y-134583083D01*
X171698435Y-134982448D01*
X172097800Y-135249296D01*
X172136947Y-135257083D01*
X171711642Y-135456817D01*
X171321355Y-135885076D01*
X171204788Y-136166512D01*
X170947565Y-135781552D01*
X170548200Y-135514704D01*
X170077117Y-135421000D01*
X170028883Y-135421000D01*
X169557800Y-135514704D01*
X169158435Y-135781552D01*
X168891587Y-136180917D01*
X168797883Y-136652000D01*
X168891587Y-137123083D01*
X169158435Y-137522448D01*
X169557800Y-137789296D01*
X170028883Y-137883000D01*
X170077117Y-137883000D01*
X170548200Y-137789296D01*
X170947565Y-137522448D01*
X171204788Y-137137488D01*
X171321355Y-137418924D01*
X171711642Y-137847183D01*
X172136947Y-138046917D01*
X172097800Y-138054704D01*
X171698435Y-138321552D01*
X171431587Y-138720917D01*
X171337883Y-139192000D01*
X171431587Y-139663083D01*
X171698435Y-140062448D01*
X172097800Y-140329296D01*
X172568883Y-140423000D01*
X172617117Y-140423000D01*
X173088200Y-140329296D01*
X173487565Y-140062448D01*
X173754413Y-139663083D01*
X173848117Y-139192000D01*
X173754413Y-138720917D01*
X173487565Y-138321552D01*
X173088200Y-138054704D01*
X173049053Y-138046917D01*
X173474358Y-137847183D01*
X173864645Y-137418924D01*
X174034476Y-137008890D01*
X173913155Y-136779000D01*
X172720000Y-136779000D01*
X172720000Y-136799000D01*
X172466000Y-136799000D01*
X172466000Y-136779000D01*
X172446000Y-136779000D01*
X172446000Y-136525000D01*
X172466000Y-136525000D01*
X172466000Y-136505000D01*
X172720000Y-136505000D01*
X172720000Y-136525000D01*
X173913155Y-136525000D01*
X174034476Y-136295110D01*
X173864645Y-135885076D01*
X173474358Y-135456817D01*
X173049053Y-135257083D01*
X173088200Y-135249296D01*
X173487565Y-134982448D01*
X173754413Y-134583083D01*
X173848117Y-134112000D01*
X173754413Y-133640917D01*
X173487565Y-133241552D01*
X173088200Y-132974704D01*
X173049053Y-132966917D01*
X173474358Y-132767183D01*
X173864645Y-132338924D01*
X174034476Y-131928890D01*
X173913155Y-131699000D01*
X172720000Y-131699000D01*
X172720000Y-131719000D01*
X172466000Y-131719000D01*
X172466000Y-131699000D01*
X172446000Y-131699000D01*
X172446000Y-131445000D01*
X172466000Y-131445000D01*
X172466000Y-131425000D01*
X172720000Y-131425000D01*
X172720000Y-131445000D01*
X173913155Y-131445000D01*
X174034476Y-131215110D01*
X173864645Y-130805076D01*
X173474358Y-130376817D01*
X173049053Y-130177083D01*
X173088200Y-130169296D01*
X173487565Y-129902448D01*
X173754413Y-129503083D01*
X173848117Y-129032000D01*
X173754413Y-128560917D01*
X173487565Y-128161552D01*
X173088200Y-127894704D01*
X172617117Y-127801000D01*
X172568883Y-127801000D01*
X172097800Y-127894704D01*
X171698435Y-128161552D01*
X171431587Y-128560917D01*
X171337883Y-129032000D01*
X171431587Y-129503083D01*
X171698435Y-129902448D01*
X172097800Y-130169296D01*
X172136947Y-130177083D01*
X171711642Y-130376817D01*
X171321355Y-130805076D01*
X171204788Y-131086512D01*
X170947565Y-130701552D01*
X170548200Y-130434704D01*
X170077117Y-130341000D01*
X170028883Y-130341000D01*
X169557800Y-130434704D01*
X169158435Y-130701552D01*
X168891587Y-131100917D01*
X168797883Y-131572000D01*
X168783000Y-131572000D01*
X168783000Y-127260729D01*
X169171642Y-127687183D01*
X169596947Y-127886917D01*
X169557800Y-127894704D01*
X169158435Y-128161552D01*
X168891587Y-128560917D01*
X168797883Y-129032000D01*
X168891587Y-129503083D01*
X169158435Y-129902448D01*
X169557800Y-130169296D01*
X170028883Y-130263000D01*
X170077117Y-130263000D01*
X170548200Y-130169296D01*
X170947565Y-129902448D01*
X171214413Y-129503083D01*
X171308117Y-129032000D01*
X171214413Y-128560917D01*
X170947565Y-128161552D01*
X170548200Y-127894704D01*
X170509053Y-127886917D01*
X170934358Y-127687183D01*
X171324645Y-127258924D01*
X171441212Y-126977488D01*
X171698435Y-127362448D01*
X172097800Y-127629296D01*
X172568883Y-127723000D01*
X172617117Y-127723000D01*
X173088200Y-127629296D01*
X173487565Y-127362448D01*
X173754413Y-126963083D01*
X173848117Y-126492000D01*
X173754413Y-126020917D01*
X173487565Y-125621552D01*
X173088200Y-125354704D01*
X172617117Y-125261000D01*
X172568883Y-125261000D01*
X172097800Y-125354704D01*
X171698435Y-125621552D01*
X171441212Y-126006512D01*
X171324645Y-125725076D01*
X170934358Y-125296817D01*
X170509053Y-125097083D01*
X170548200Y-125089296D01*
X170947565Y-124822448D01*
X171214413Y-124423083D01*
X171308117Y-123952000D01*
X171337883Y-123952000D01*
X171431587Y-124423083D01*
X171698435Y-124822448D01*
X172097800Y-125089296D01*
X172568883Y-125183000D01*
X172617117Y-125183000D01*
X173088200Y-125089296D01*
X173487565Y-124822448D01*
X173754413Y-124423083D01*
X173848117Y-123952000D01*
X173754413Y-123480917D01*
X173487565Y-123081552D01*
X173088200Y-122814704D01*
X172617117Y-122721000D01*
X172568883Y-122721000D01*
X172097800Y-122814704D01*
X171698435Y-123081552D01*
X171431587Y-123480917D01*
X171337883Y-123952000D01*
X171308117Y-123952000D01*
X171214413Y-123480917D01*
X170947565Y-123081552D01*
X170548200Y-122814704D01*
X170077117Y-122721000D01*
X170028883Y-122721000D01*
X169557800Y-122814704D01*
X169158435Y-123081552D01*
X168891587Y-123480917D01*
X168797883Y-123952000D01*
X168891587Y-124423083D01*
X169158435Y-124822448D01*
X169557800Y-125089296D01*
X169596947Y-125097083D01*
X169171642Y-125296817D01*
X168783000Y-125723271D01*
X168783000Y-123645126D01*
X168851987Y-123576259D01*
X168955882Y-123326054D01*
X168956118Y-123055135D01*
X168852661Y-122804748D01*
X168783000Y-122734966D01*
X168783000Y-120857592D01*
X168887396Y-120961988D01*
X168797883Y-121412000D01*
X168891587Y-121883083D01*
X169158435Y-122282448D01*
X169557800Y-122549296D01*
X170028883Y-122643000D01*
X170077117Y-122643000D01*
X170548200Y-122549296D01*
X170947565Y-122282448D01*
X171214413Y-121883083D01*
X171308117Y-121412000D01*
X171214413Y-120940917D01*
X170947565Y-120541552D01*
X170548200Y-120274704D01*
X170077117Y-120181000D01*
X170028883Y-120181000D01*
X169619102Y-120262510D01*
X168527000Y-119170408D01*
X168527000Y-118442592D01*
X168824184Y-118739776D01*
X168797883Y-118872000D01*
X168891587Y-119343083D01*
X169158435Y-119742448D01*
X169557800Y-120009296D01*
X170028883Y-120103000D01*
X170077117Y-120103000D01*
X170548200Y-120009296D01*
X170947565Y-119742448D01*
X171204788Y-119357488D01*
X171321355Y-119638924D01*
X171711642Y-120067183D01*
X172136947Y-120266917D01*
X172097800Y-120274704D01*
X171698435Y-120541552D01*
X171431587Y-120940917D01*
X171337883Y-121412000D01*
X171431587Y-121883083D01*
X171698435Y-122282448D01*
X172097800Y-122549296D01*
X172568883Y-122643000D01*
X172617117Y-122643000D01*
X173088200Y-122549296D01*
X173487565Y-122282448D01*
X173754413Y-121883083D01*
X173848117Y-121412000D01*
X173754413Y-120940917D01*
X173487565Y-120541552D01*
X173088200Y-120274704D01*
X173049053Y-120266917D01*
X173474358Y-120067183D01*
X173864645Y-119638924D01*
X174034476Y-119228890D01*
X173913155Y-118999000D01*
X172720000Y-118999000D01*
X172720000Y-119019000D01*
X172466000Y-119019000D01*
X172466000Y-118999000D01*
X172446000Y-118999000D01*
X172446000Y-118745000D01*
X172466000Y-118745000D01*
X172466000Y-118725000D01*
X172720000Y-118725000D01*
X172720000Y-118745000D01*
X173913155Y-118745000D01*
X174034476Y-118515110D01*
X173864645Y-118105076D01*
X173474358Y-117676817D01*
X173049053Y-117477083D01*
X173088200Y-117469296D01*
X173487565Y-117202448D01*
X173754413Y-116803083D01*
X173848117Y-116332000D01*
X173754413Y-115860917D01*
X173487565Y-115461552D01*
X173088200Y-115194704D01*
X172617117Y-115101000D01*
X172568883Y-115101000D01*
X172097800Y-115194704D01*
X171698435Y-115461552D01*
X171431587Y-115860917D01*
X171337883Y-116332000D01*
X171431587Y-116803083D01*
X171698435Y-117202448D01*
X172097800Y-117469296D01*
X172136947Y-117477083D01*
X171711642Y-117676817D01*
X171321355Y-118105076D01*
X171204788Y-118386512D01*
X170947565Y-118001552D01*
X170548200Y-117734704D01*
X170077117Y-117641000D01*
X170028883Y-117641000D01*
X169557800Y-117734704D01*
X169373465Y-117857873D01*
X169162000Y-117646408D01*
X169162000Y-117204830D01*
X169557800Y-117469296D01*
X170028883Y-117563000D01*
X170077117Y-117563000D01*
X170548200Y-117469296D01*
X170947565Y-117202448D01*
X171214413Y-116803083D01*
X171308117Y-116332000D01*
X171214413Y-115860917D01*
X170947565Y-115461552D01*
X170548200Y-115194704D01*
X170077117Y-115101000D01*
X170028883Y-115101000D01*
X169557800Y-115194704D01*
X169162000Y-115459170D01*
X169162000Y-114664830D01*
X169557800Y-114929296D01*
X170028883Y-115023000D01*
X170077117Y-115023000D01*
X170548200Y-114929296D01*
X170947565Y-114662448D01*
X171214413Y-114263083D01*
X171308117Y-113792000D01*
X171218604Y-113341988D01*
X171680796Y-112879796D01*
X171790483Y-112715638D01*
X171829000Y-112522000D01*
X171829000Y-112502297D01*
X172136947Y-112646917D01*
X172097800Y-112654704D01*
X171698435Y-112921552D01*
X171431587Y-113320917D01*
X171337883Y-113792000D01*
X171431587Y-114263083D01*
X171698435Y-114662448D01*
X172097800Y-114929296D01*
X172568883Y-115023000D01*
X172617117Y-115023000D01*
X173088200Y-114929296D01*
X173487565Y-114662448D01*
X173754413Y-114263083D01*
X173848117Y-113792000D01*
X173754413Y-113320917D01*
X173487565Y-112921552D01*
X173088200Y-112654704D01*
X173049053Y-112646917D01*
X173474358Y-112447183D01*
X173864645Y-112018924D01*
X174034476Y-111608890D01*
X173913155Y-111379000D01*
X172720000Y-111379000D01*
X172720000Y-111399000D01*
X172466000Y-111399000D01*
X172466000Y-111379000D01*
X172446000Y-111379000D01*
X172446000Y-111125000D01*
X172466000Y-111125000D01*
X172466000Y-111105000D01*
X172720000Y-111105000D01*
X172720000Y-111125000D01*
X173913155Y-111125000D01*
X174034476Y-110895110D01*
X173864645Y-110485076D01*
X173474358Y-110056817D01*
X173049053Y-109857083D01*
X173088200Y-109849296D01*
X173487565Y-109582448D01*
X173754413Y-109183083D01*
X173848117Y-108712000D01*
X173754413Y-108240917D01*
X173487565Y-107841552D01*
X173088200Y-107574704D01*
X172617117Y-107481000D01*
X172568883Y-107481000D01*
X172097800Y-107574704D01*
X171829000Y-107754311D01*
X171829000Y-107129689D01*
X172097800Y-107309296D01*
X172568883Y-107403000D01*
X172617117Y-107403000D01*
X173088200Y-107309296D01*
X173487565Y-107042448D01*
X173754413Y-106643083D01*
X173848117Y-106172000D01*
X173754413Y-105700917D01*
X173487565Y-105301552D01*
X173088200Y-105034704D01*
X172617117Y-104941000D01*
X172568883Y-104941000D01*
X172097800Y-105034704D01*
X171829000Y-105214311D01*
X171829000Y-105156000D01*
X171790483Y-104962362D01*
X171680796Y-104798204D01*
X171426796Y-104544204D01*
X171262638Y-104434517D01*
X171069000Y-104396000D01*
X171018692Y-104396000D01*
X171214413Y-104103083D01*
X171308117Y-103632000D01*
X171214413Y-103160917D01*
X170947565Y-102761552D01*
X170548200Y-102494704D01*
X170077117Y-102401000D01*
X170028883Y-102401000D01*
X169557800Y-102494704D01*
X169158435Y-102761552D01*
X168891587Y-103160917D01*
X168797883Y-103632000D01*
X168891587Y-104103083D01*
X169087308Y-104396000D01*
X168865592Y-104396000D01*
X168251796Y-103782204D01*
X168087638Y-103672517D01*
X167894000Y-103634000D01*
X164835939Y-103634000D01*
X164977823Y-103575375D01*
X165296256Y-103257497D01*
X165468804Y-102841957D01*
X165469196Y-102392017D01*
X165297375Y-101976177D01*
X164979497Y-101657744D01*
X164563957Y-101485196D01*
X164114017Y-101484804D01*
X163698177Y-101656625D01*
X163379744Y-101974503D01*
X163320000Y-102118382D01*
X163320000Y-101346000D01*
X163281483Y-101152362D01*
X163171796Y-100988204D01*
X162177000Y-99993408D01*
X162177000Y-98470888D01*
X162357536Y-98471045D01*
X162357536Y-99456000D01*
X162384103Y-99597190D01*
X162467546Y-99726865D01*
X162594866Y-99813859D01*
X162746000Y-99844464D01*
X164246000Y-99844464D01*
X164387190Y-99817897D01*
X164516865Y-99734454D01*
X164603859Y-99607134D01*
X164634464Y-99456000D01*
X164634464Y-98343927D01*
X164684378Y-98343970D01*
X165057536Y-98717128D01*
X165057536Y-99456000D01*
X165084103Y-99597190D01*
X165167546Y-99726865D01*
X165294866Y-99813859D01*
X165446000Y-99844464D01*
X165673840Y-99844464D01*
X165648517Y-99882362D01*
X165610000Y-100076000D01*
X165644514Y-100249515D01*
X165562118Y-100447946D01*
X165561882Y-100718865D01*
X165665339Y-100969252D01*
X165856741Y-101160987D01*
X166106946Y-101264882D01*
X166377865Y-101265118D01*
X166628252Y-101161661D01*
X166819987Y-100970259D01*
X166923882Y-100720054D01*
X166924118Y-100449135D01*
X166820661Y-100198748D01*
X166701356Y-100079236D01*
X166702000Y-100076000D01*
X166702000Y-99844464D01*
X166946000Y-99844464D01*
X167087190Y-99817897D01*
X167216865Y-99734454D01*
X167303859Y-99607134D01*
X167334464Y-99456000D01*
X167334464Y-98156000D01*
X167307897Y-98014810D01*
X167224454Y-97885135D01*
X167106764Y-97804721D01*
X167176859Y-97702134D01*
X167207464Y-97551000D01*
X167207464Y-96827433D01*
X168048400Y-97668369D01*
X168048400Y-98933000D01*
X168086917Y-99126638D01*
X168133366Y-99196154D01*
X168016748Y-99244339D01*
X167825013Y-99435741D01*
X167721118Y-99685946D01*
X167721030Y-99787378D01*
X167536204Y-99972204D01*
X167426517Y-100136362D01*
X167388000Y-100330000D01*
X167388000Y-100838000D01*
X167426517Y-101031638D01*
X167536204Y-101195796D01*
X167700362Y-101305483D01*
X167894000Y-101344000D01*
X168087638Y-101305483D01*
X168251796Y-101195796D01*
X168361483Y-101031638D01*
X168400000Y-100838000D01*
X168400000Y-100539592D01*
X168436561Y-100503031D01*
X168536865Y-100503118D01*
X168787252Y-100399661D01*
X168978987Y-100208259D01*
X169018620Y-100112812D01*
X169060204Y-100154396D01*
X169159572Y-100220792D01*
X169158435Y-100221552D01*
X168891587Y-100620917D01*
X168797883Y-101092000D01*
X168891587Y-101563083D01*
X169158435Y-101962448D01*
X169557800Y-102229296D01*
X170028883Y-102323000D01*
X170077117Y-102323000D01*
X170548200Y-102229296D01*
X170947565Y-101962448D01*
X171204788Y-101577488D01*
X171321355Y-101858924D01*
X171711642Y-102287183D01*
X172136947Y-102486917D01*
X172097800Y-102494704D01*
X171698435Y-102761552D01*
X171431587Y-103160917D01*
X171337883Y-103632000D01*
X171431587Y-104103083D01*
X171698435Y-104502448D01*
X172097800Y-104769296D01*
X172568883Y-104863000D01*
X172617117Y-104863000D01*
X173088200Y-104769296D01*
X173487565Y-104502448D01*
X173754413Y-104103083D01*
X173848117Y-103632000D01*
X173754413Y-103160917D01*
X173487565Y-102761552D01*
X173088200Y-102494704D01*
X173049053Y-102486917D01*
X173474358Y-102287183D01*
X173864645Y-101858924D01*
X174034476Y-101448890D01*
X173913155Y-101219000D01*
X172720000Y-101219000D01*
X172720000Y-101239000D01*
X172466000Y-101239000D01*
X172466000Y-101219000D01*
X172446000Y-101219000D01*
X172446000Y-100965000D01*
X172466000Y-100965000D01*
X172466000Y-100945000D01*
X172720000Y-100945000D01*
X172720000Y-100965000D01*
X173913155Y-100965000D01*
X174034476Y-100735110D01*
X173864645Y-100325076D01*
X173474358Y-99896817D01*
X173049053Y-99697083D01*
X173088200Y-99689296D01*
X173487565Y-99422448D01*
X173754413Y-99023083D01*
X173848117Y-98552000D01*
X173754413Y-98080917D01*
X173487565Y-97681552D01*
X173099000Y-97421920D01*
X173099000Y-97142080D01*
X173487565Y-96882448D01*
X173754413Y-96483083D01*
X173848117Y-96012000D01*
X173754413Y-95540917D01*
X173487565Y-95141552D01*
X173381977Y-95071000D01*
X174169000Y-95071000D01*
X174169000Y-143054000D01*
G36*
X170180000Y-126365000D02*
X170200000Y-126365000D01*
X170200000Y-126619000D01*
X170180000Y-126619000D01*
X170180000Y-126639000D01*
X169926000Y-126639000D01*
X169926000Y-126619000D01*
X169906000Y-126619000D01*
X169906000Y-126365000D01*
X169926000Y-126365000D01*
X169926000Y-126345000D01*
X170180000Y-126345000D01*
X170180000Y-126365000D01*
X170180000Y-126365000D01*
G37*
X170180000Y-126365000D02*
X170200000Y-126365000D01*
X170200000Y-126619000D01*
X170180000Y-126619000D01*
X170180000Y-126639000D01*
X169926000Y-126639000D01*
X169926000Y-126619000D01*
X169906000Y-126619000D01*
X169906000Y-126365000D01*
X169926000Y-126365000D01*
X169926000Y-126345000D01*
X170180000Y-126345000D01*
X170180000Y-126365000D01*
G36*
X160469872Y-95862536D02*
X159477000Y-95862536D01*
X159335810Y-95889103D01*
X159206135Y-95972546D01*
X159119141Y-96099866D01*
X159088536Y-96251000D01*
X159088536Y-96251461D01*
X159013054Y-96220118D01*
X158742135Y-96219882D01*
X158665464Y-96251562D01*
X158665464Y-96251000D01*
X158638897Y-96109810D01*
X158555454Y-95980135D01*
X158428134Y-95893141D01*
X158277000Y-95862536D01*
X156777000Y-95862536D01*
X156635810Y-95889103D01*
X156506135Y-95972546D01*
X156419141Y-96099866D01*
X156388536Y-96251000D01*
X156388536Y-97551000D01*
X156415103Y-97692190D01*
X156498546Y-97821865D01*
X156625866Y-97908859D01*
X156661997Y-97916176D01*
X156635810Y-97921103D01*
X156506135Y-98004546D01*
X156419141Y-98131866D01*
X156388536Y-98283000D01*
X156388536Y-99583000D01*
X156415103Y-99724190D01*
X156498546Y-99853865D01*
X156625866Y-99940859D01*
X156747847Y-99965561D01*
X155725204Y-100988204D01*
X155615517Y-101152362D01*
X155577000Y-101346000D01*
X155577000Y-102285877D01*
X155506013Y-102356741D01*
X155402118Y-102606946D01*
X155401882Y-102877865D01*
X155505339Y-103128252D01*
X155696741Y-103319987D01*
X155946946Y-103423882D01*
X156217865Y-103424118D01*
X156468252Y-103320661D01*
X156527436Y-103261580D01*
X156585741Y-103319987D01*
X156835946Y-103423882D01*
X157106865Y-103424118D01*
X157357252Y-103320661D01*
X157416436Y-103261580D01*
X157474741Y-103319987D01*
X157724946Y-103423882D01*
X157995865Y-103424118D01*
X158246252Y-103320661D01*
X158437987Y-103129259D01*
X158442169Y-103119188D01*
X158498625Y-103255823D01*
X158816503Y-103574256D01*
X159232043Y-103746804D01*
X159681983Y-103747196D01*
X160097823Y-103575375D01*
X160100941Y-103572263D01*
X160100882Y-103639865D01*
X160204339Y-103890252D01*
X160263420Y-103949436D01*
X160205013Y-104007741D01*
X160101118Y-104257946D01*
X160100882Y-104528865D01*
X160204339Y-104779252D01*
X160395741Y-104970987D01*
X160645946Y-105074882D01*
X160747378Y-105074970D01*
X162329204Y-106656796D01*
X162493362Y-106766483D01*
X162687000Y-106805000D01*
X166287408Y-106805000D01*
X166372000Y-106889592D01*
X166372000Y-117138408D01*
X166335439Y-117174969D01*
X166235135Y-117174882D01*
X165984748Y-117278339D01*
X165793013Y-117469741D01*
X165758896Y-117551903D01*
X165613259Y-117406013D01*
X165363054Y-117302118D01*
X165092135Y-117301882D01*
X164841748Y-117405339D01*
X164650013Y-117596741D01*
X164546118Y-117846946D01*
X164545882Y-118117865D01*
X164554223Y-118138051D01*
X163120553Y-117486383D01*
X163068000Y-117475000D01*
X161671000Y-117475000D01*
X161671000Y-117452969D01*
X161736185Y-117387784D01*
X161872968Y-117183073D01*
X161921000Y-116941600D01*
X161921000Y-114935000D01*
X161872968Y-114693527D01*
X161736184Y-114488816D01*
X161671000Y-114423632D01*
X161671000Y-112014000D01*
X161660994Y-111964590D01*
X161626651Y-111917574D01*
X160727313Y-111146713D01*
X160780327Y-111093699D01*
X160877000Y-110860310D01*
X160877000Y-110394750D01*
X160718250Y-110236000D01*
X159664815Y-110236000D01*
X159365000Y-109979016D01*
X159365000Y-109007750D01*
X159206250Y-108849000D01*
X158615691Y-108849000D01*
X158382302Y-108945673D01*
X158279439Y-109048535D01*
X157183127Y-108108839D01*
X157216946Y-108122882D01*
X157338396Y-108122988D01*
X157650204Y-108434796D01*
X157814362Y-108544483D01*
X158008000Y-108583000D01*
X159514281Y-108583000D01*
X159569339Y-108716252D01*
X159739770Y-108886980D01*
X159619000Y-109007750D01*
X159619000Y-109982000D01*
X160718250Y-109982000D01*
X160877000Y-109823250D01*
X160877000Y-109357690D01*
X160780327Y-109124301D01*
X160601698Y-108945673D01*
X160522285Y-108912779D01*
X160532252Y-108908661D01*
X160723987Y-108717259D01*
X160827882Y-108467054D01*
X160828118Y-108196135D01*
X160770160Y-108055866D01*
X160780327Y-108045699D01*
X160877000Y-107812310D01*
X160877000Y-107346750D01*
X160718250Y-107188000D01*
X159619000Y-107188000D01*
X159619000Y-107208000D01*
X159365000Y-107208000D01*
X159365000Y-107188000D01*
X159345000Y-107188000D01*
X159345000Y-106934000D01*
X159365000Y-106934000D01*
X159365000Y-105959750D01*
X159619000Y-105959750D01*
X159619000Y-106934000D01*
X160718250Y-106934000D01*
X160877000Y-106775250D01*
X160877000Y-106309690D01*
X160780327Y-106076301D01*
X160601698Y-105897673D01*
X160368309Y-105801000D01*
X159777750Y-105801000D01*
X159619000Y-105959750D01*
X159365000Y-105959750D01*
X159206250Y-105801000D01*
X158615691Y-105801000D01*
X158382302Y-105897673D01*
X158203673Y-106076301D01*
X158107000Y-106309690D01*
X158107000Y-106311301D01*
X158103897Y-106294810D01*
X158020454Y-106165135D01*
X157893134Y-106078141D01*
X157742000Y-106047536D01*
X156242000Y-106047536D01*
X156100810Y-106074103D01*
X155971135Y-106157546D01*
X155884141Y-106284866D01*
X155853536Y-106436000D01*
X155853536Y-107315000D01*
X153543000Y-107315000D01*
X153543000Y-103124000D01*
X153532994Y-103074590D01*
X153504553Y-103032965D01*
X153462159Y-103005685D01*
X153416000Y-102997000D01*
X152158464Y-102997000D01*
X152158464Y-102493904D01*
X153354184Y-101298185D01*
X153490968Y-101093474D01*
X153508669Y-101004483D01*
X153539000Y-100852000D01*
X153539000Y-98933000D01*
X153490968Y-98691527D01*
X153490968Y-98691526D01*
X153354184Y-98486816D01*
X153033243Y-98165875D01*
X153106859Y-98058134D01*
X153137464Y-97907000D01*
X153137464Y-97081304D01*
X154667969Y-95550800D01*
X160781608Y-95550800D01*
X160469872Y-95862536D01*
X160469872Y-95862536D01*
G37*
X160469872Y-95862536D02*
X159477000Y-95862536D01*
X159335810Y-95889103D01*
X159206135Y-95972546D01*
X159119141Y-96099866D01*
X159088536Y-96251000D01*
X159088536Y-96251461D01*
X159013054Y-96220118D01*
X158742135Y-96219882D01*
X158665464Y-96251562D01*
X158665464Y-96251000D01*
X158638897Y-96109810D01*
X158555454Y-95980135D01*
X158428134Y-95893141D01*
X158277000Y-95862536D01*
X156777000Y-95862536D01*
X156635810Y-95889103D01*
X156506135Y-95972546D01*
X156419141Y-96099866D01*
X156388536Y-96251000D01*
X156388536Y-97551000D01*
X156415103Y-97692190D01*
X156498546Y-97821865D01*
X156625866Y-97908859D01*
X156661997Y-97916176D01*
X156635810Y-97921103D01*
X156506135Y-98004546D01*
X156419141Y-98131866D01*
X156388536Y-98283000D01*
X156388536Y-99583000D01*
X156415103Y-99724190D01*
X156498546Y-99853865D01*
X156625866Y-99940859D01*
X156747847Y-99965561D01*
X155725204Y-100988204D01*
X155615517Y-101152362D01*
X155577000Y-101346000D01*
X155577000Y-102285877D01*
X155506013Y-102356741D01*
X155402118Y-102606946D01*
X155401882Y-102877865D01*
X155505339Y-103128252D01*
X155696741Y-103319987D01*
X155946946Y-103423882D01*
X156217865Y-103424118D01*
X156468252Y-103320661D01*
X156527436Y-103261580D01*
X156585741Y-103319987D01*
X156835946Y-103423882D01*
X157106865Y-103424118D01*
X157357252Y-103320661D01*
X157416436Y-103261580D01*
X157474741Y-103319987D01*
X157724946Y-103423882D01*
X157995865Y-103424118D01*
X158246252Y-103320661D01*
X158437987Y-103129259D01*
X158442169Y-103119188D01*
X158498625Y-103255823D01*
X158816503Y-103574256D01*
X159232043Y-103746804D01*
X159681983Y-103747196D01*
X160097823Y-103575375D01*
X160100941Y-103572263D01*
X160100882Y-103639865D01*
X160204339Y-103890252D01*
X160263420Y-103949436D01*
X160205013Y-104007741D01*
X160101118Y-104257946D01*
X160100882Y-104528865D01*
X160204339Y-104779252D01*
X160395741Y-104970987D01*
X160645946Y-105074882D01*
X160747378Y-105074970D01*
X162329204Y-106656796D01*
X162493362Y-106766483D01*
X162687000Y-106805000D01*
X166287408Y-106805000D01*
X166372000Y-106889592D01*
X166372000Y-117138408D01*
X166335439Y-117174969D01*
X166235135Y-117174882D01*
X165984748Y-117278339D01*
X165793013Y-117469741D01*
X165758896Y-117551903D01*
X165613259Y-117406013D01*
X165363054Y-117302118D01*
X165092135Y-117301882D01*
X164841748Y-117405339D01*
X164650013Y-117596741D01*
X164546118Y-117846946D01*
X164545882Y-118117865D01*
X164554223Y-118138051D01*
X163120553Y-117486383D01*
X163068000Y-117475000D01*
X161671000Y-117475000D01*
X161671000Y-117452969D01*
X161736185Y-117387784D01*
X161872968Y-117183073D01*
X161921000Y-116941600D01*
X161921000Y-114935000D01*
X161872968Y-114693527D01*
X161736184Y-114488816D01*
X161671000Y-114423632D01*
X161671000Y-112014000D01*
X161660994Y-111964590D01*
X161626651Y-111917574D01*
X160727313Y-111146713D01*
X160780327Y-111093699D01*
X160877000Y-110860310D01*
X160877000Y-110394750D01*
X160718250Y-110236000D01*
X159664815Y-110236000D01*
X159365000Y-109979016D01*
X159365000Y-109007750D01*
X159206250Y-108849000D01*
X158615691Y-108849000D01*
X158382302Y-108945673D01*
X158279439Y-109048535D01*
X157183127Y-108108839D01*
X157216946Y-108122882D01*
X157338396Y-108122988D01*
X157650204Y-108434796D01*
X157814362Y-108544483D01*
X158008000Y-108583000D01*
X159514281Y-108583000D01*
X159569339Y-108716252D01*
X159739770Y-108886980D01*
X159619000Y-109007750D01*
X159619000Y-109982000D01*
X160718250Y-109982000D01*
X160877000Y-109823250D01*
X160877000Y-109357690D01*
X160780327Y-109124301D01*
X160601698Y-108945673D01*
X160522285Y-108912779D01*
X160532252Y-108908661D01*
X160723987Y-108717259D01*
X160827882Y-108467054D01*
X160828118Y-108196135D01*
X160770160Y-108055866D01*
X160780327Y-108045699D01*
X160877000Y-107812310D01*
X160877000Y-107346750D01*
X160718250Y-107188000D01*
X159619000Y-107188000D01*
X159619000Y-107208000D01*
X159365000Y-107208000D01*
X159365000Y-107188000D01*
X159345000Y-107188000D01*
X159345000Y-106934000D01*
X159365000Y-106934000D01*
X159365000Y-105959750D01*
X159619000Y-105959750D01*
X159619000Y-106934000D01*
X160718250Y-106934000D01*
X160877000Y-106775250D01*
X160877000Y-106309690D01*
X160780327Y-106076301D01*
X160601698Y-105897673D01*
X160368309Y-105801000D01*
X159777750Y-105801000D01*
X159619000Y-105959750D01*
X159365000Y-105959750D01*
X159206250Y-105801000D01*
X158615691Y-105801000D01*
X158382302Y-105897673D01*
X158203673Y-106076301D01*
X158107000Y-106309690D01*
X158107000Y-106311301D01*
X158103897Y-106294810D01*
X158020454Y-106165135D01*
X157893134Y-106078141D01*
X157742000Y-106047536D01*
X156242000Y-106047536D01*
X156100810Y-106074103D01*
X155971135Y-106157546D01*
X155884141Y-106284866D01*
X155853536Y-106436000D01*
X155853536Y-107315000D01*
X153543000Y-107315000D01*
X153543000Y-103124000D01*
X153532994Y-103074590D01*
X153504553Y-103032965D01*
X153462159Y-103005685D01*
X153416000Y-102997000D01*
X152158464Y-102997000D01*
X152158464Y-102493904D01*
X153354184Y-101298185D01*
X153490968Y-101093474D01*
X153508669Y-101004483D01*
X153539000Y-100852000D01*
X153539000Y-98933000D01*
X153490968Y-98691527D01*
X153490968Y-98691526D01*
X153354184Y-98486816D01*
X153033243Y-98165875D01*
X153106859Y-98058134D01*
X153137464Y-97907000D01*
X153137464Y-97081304D01*
X154667969Y-95550800D01*
X160781608Y-95550800D01*
X160469872Y-95862536D01*
G36*
X170180000Y-106045000D02*
X170200000Y-106045000D01*
X170200000Y-106299000D01*
X170180000Y-106299000D01*
X170180000Y-106319000D01*
X169926000Y-106319000D01*
X169926000Y-106299000D01*
X169906000Y-106299000D01*
X169906000Y-106045000D01*
X169926000Y-106045000D01*
X169926000Y-106025000D01*
X170180000Y-106025000D01*
X170180000Y-106045000D01*
X170180000Y-106045000D01*
G37*
X170180000Y-106045000D02*
X170200000Y-106045000D01*
X170200000Y-106299000D01*
X170180000Y-106299000D01*
X170180000Y-106319000D01*
X169926000Y-106319000D01*
X169926000Y-106299000D01*
X169906000Y-106299000D01*
X169906000Y-106045000D01*
X169926000Y-106045000D01*
X169926000Y-106025000D01*
X170180000Y-106025000D01*
X170180000Y-106045000D01*
G36*
X150622000Y-102188000D02*
X150642000Y-102188000D01*
X150642000Y-102442000D01*
X150622000Y-102442000D01*
X150622000Y-102462000D01*
X150368000Y-102462000D01*
X150368000Y-102442000D01*
X150348000Y-102442000D01*
X150348000Y-102188000D01*
X150368000Y-102188000D01*
X150368000Y-102168000D01*
X150622000Y-102168000D01*
X150622000Y-102188000D01*
X150622000Y-102188000D01*
G37*
X150622000Y-102188000D02*
X150642000Y-102188000D01*
X150642000Y-102442000D01*
X150622000Y-102442000D01*
X150622000Y-102462000D01*
X150368000Y-102462000D01*
X150368000Y-102442000D01*
X150348000Y-102442000D01*
X150348000Y-102188000D01*
X150368000Y-102188000D01*
X150368000Y-102168000D01*
X150622000Y-102168000D01*
X150622000Y-102188000D01*
G36*
X152165496Y-96268536D02*
X151249000Y-96268536D01*
X151107810Y-96295103D01*
X150978135Y-96378546D01*
X150891141Y-96505866D01*
X150884000Y-96541130D01*
X150884000Y-96530690D01*
X150787327Y-96297301D01*
X150608698Y-96118673D01*
X150375309Y-96022000D01*
X149784750Y-96022000D01*
X149626000Y-96180750D01*
X149626000Y-97155000D01*
X149646000Y-97155000D01*
X149646000Y-97409000D01*
X149626000Y-97409000D01*
X149626000Y-97429000D01*
X149372000Y-97429000D01*
X149372000Y-97409000D01*
X148272750Y-97409000D01*
X148114000Y-97567750D01*
X148114000Y-98033310D01*
X148210673Y-98266699D01*
X148389302Y-98445327D01*
X148622691Y-98542000D01*
X148971740Y-98542000D01*
X148949135Y-98556546D01*
X148862141Y-98683866D01*
X148831536Y-98835000D01*
X148831536Y-98889132D01*
X148670000Y-98857001D01*
X148428526Y-98905032D01*
X148223815Y-99041816D01*
X147698101Y-99567530D01*
X147746882Y-99450054D01*
X147747118Y-99179135D01*
X147643661Y-98928748D01*
X147452259Y-98737013D01*
X147318000Y-98681263D01*
X147318000Y-98171000D01*
X147279483Y-97977362D01*
X147169796Y-97813204D01*
X147005638Y-97703517D01*
X146812000Y-97665000D01*
X146618362Y-97703517D01*
X146506000Y-97778595D01*
X146506000Y-96530690D01*
X148114000Y-96530690D01*
X148114000Y-96996250D01*
X148272750Y-97155000D01*
X149372000Y-97155000D01*
X149372000Y-96180750D01*
X149213250Y-96022000D01*
X148622691Y-96022000D01*
X148389302Y-96118673D01*
X148210673Y-96297301D01*
X148114000Y-96530690D01*
X146506000Y-96530690D01*
X146506000Y-95071000D01*
X153363031Y-95071000D01*
X152165496Y-96268536D01*
X152165496Y-96268536D01*
G37*
X152165496Y-96268536D02*
X151249000Y-96268536D01*
X151107810Y-96295103D01*
X150978135Y-96378546D01*
X150891141Y-96505866D01*
X150884000Y-96541130D01*
X150884000Y-96530690D01*
X150787327Y-96297301D01*
X150608698Y-96118673D01*
X150375309Y-96022000D01*
X149784750Y-96022000D01*
X149626000Y-96180750D01*
X149626000Y-97155000D01*
X149646000Y-97155000D01*
X149646000Y-97409000D01*
X149626000Y-97409000D01*
X149626000Y-97429000D01*
X149372000Y-97429000D01*
X149372000Y-97409000D01*
X148272750Y-97409000D01*
X148114000Y-97567750D01*
X148114000Y-98033310D01*
X148210673Y-98266699D01*
X148389302Y-98445327D01*
X148622691Y-98542000D01*
X148971740Y-98542000D01*
X148949135Y-98556546D01*
X148862141Y-98683866D01*
X148831536Y-98835000D01*
X148831536Y-98889132D01*
X148670000Y-98857001D01*
X148428526Y-98905032D01*
X148223815Y-99041816D01*
X147698101Y-99567530D01*
X147746882Y-99450054D01*
X147747118Y-99179135D01*
X147643661Y-98928748D01*
X147452259Y-98737013D01*
X147318000Y-98681263D01*
X147318000Y-98171000D01*
X147279483Y-97977362D01*
X147169796Y-97813204D01*
X147005638Y-97703517D01*
X146812000Y-97665000D01*
X146618362Y-97703517D01*
X146506000Y-97778595D01*
X146506000Y-96530690D01*
X148114000Y-96530690D01*
X148114000Y-96996250D01*
X148272750Y-97155000D01*
X149372000Y-97155000D01*
X149372000Y-96180750D01*
X149213250Y-96022000D01*
X148622691Y-96022000D01*
X148389302Y-96118673D01*
X148210673Y-96297301D01*
X148114000Y-96530690D01*
X146506000Y-96530690D01*
X146506000Y-95071000D01*
X153363031Y-95071000D01*
X152165496Y-96268536D01*
M02*
