G04 #@! TF.FileFunction,Legend,Top*
%FSLAX46Y46*%
G04 Gerber Fmt 4.6, Leading zero omitted, Abs format (unit mm)*
G04 Created by KiCad (PCBNEW 4.0.6) date 08/04/17 15:07:46*
%MOMM*%
%LPD*%
G01*
G04 APERTURE LIST*
%ADD10C,0.100000*%
%ADD11C,0.200000*%
%ADD12C,0.150000*%
%ADD13C,0.120000*%
%ADD14C,0.127000*%
%ADD15C,0.125000*%
%ADD16C,0.050000*%
G04 APERTURE END LIST*
D10*
D11*
X174625000Y-143510000D02*
X172720000Y-143510000D01*
X174625000Y-94615000D02*
X174625000Y-143510000D01*
X146050000Y-94615000D02*
X174625000Y-94615000D01*
X146050000Y-143510000D02*
X146050000Y-94615000D01*
X172720000Y-143510000D02*
X146050000Y-143510000D01*
D12*
X155194000Y-126365000D02*
X160020000Y-126365000D01*
X160020000Y-126365000D02*
X160020000Y-136525000D01*
X160020000Y-136525000D02*
X155194000Y-136525000D01*
X155194000Y-136525000D02*
X155194000Y-126365000D01*
X156972000Y-136525000D02*
X156972000Y-135890000D01*
X156972000Y-135890000D02*
X158242000Y-135890000D01*
X158242000Y-135890000D02*
X158242000Y-136525000D01*
D13*
X159600000Y-121785000D02*
X159600000Y-120785000D01*
X157900000Y-120785000D02*
X157900000Y-121785000D01*
X153915000Y-121320000D02*
X153915000Y-122520000D01*
X152155000Y-122520000D02*
X152155000Y-121320000D01*
X165098000Y-105141000D02*
X158698000Y-105141000D01*
X165098000Y-100091000D02*
X158698000Y-100091000D01*
X165098000Y-100091000D02*
G75*
G02X165098000Y-105141000I0J-2525000D01*
G01*
X158698000Y-100091000D02*
G75*
G03X158698000Y-105141000I0J-2525000D01*
G01*
X166235000Y-131230000D02*
X165235000Y-131230000D01*
X165235000Y-132930000D02*
X166235000Y-132930000D01*
X148325000Y-112100000D02*
X150125000Y-112100000D01*
X150125000Y-108880000D02*
X147675000Y-108880000D01*
X166335000Y-127880000D02*
X165135000Y-127880000D01*
X165135000Y-126120000D02*
X166335000Y-126120000D01*
X166335000Y-122800000D02*
X165135000Y-122800000D01*
X165135000Y-121040000D02*
X166335000Y-121040000D01*
X165135000Y-133740000D02*
X166335000Y-133740000D01*
X166335000Y-135500000D02*
X165135000Y-135500000D01*
X155330000Y-140935000D02*
X155330000Y-139735000D01*
X157090000Y-139735000D02*
X157090000Y-140935000D01*
X165135000Y-136280000D02*
X166335000Y-136280000D01*
X166335000Y-138040000D02*
X165135000Y-138040000D01*
X160410000Y-140935000D02*
X160410000Y-139735000D01*
X162170000Y-139735000D02*
X162170000Y-140935000D01*
X148725000Y-132930000D02*
X149725000Y-132930000D01*
X149725000Y-131230000D02*
X148725000Y-131230000D01*
X157060000Y-121785000D02*
X157060000Y-120785000D01*
X155360000Y-120785000D02*
X155360000Y-121785000D01*
X150249000Y-105371000D02*
X151249000Y-105371000D01*
X151249000Y-103671000D02*
X150249000Y-103671000D01*
X150249000Y-98132000D02*
X151249000Y-98132000D01*
X151249000Y-96432000D02*
X150249000Y-96432000D01*
X157742000Y-107911000D02*
X158742000Y-107911000D01*
X158742000Y-106211000D02*
X157742000Y-106211000D01*
X149725000Y-106465000D02*
X148725000Y-106465000D01*
X148725000Y-108165000D02*
X149725000Y-108165000D01*
X158742000Y-109259000D02*
X157742000Y-109259000D01*
X157742000Y-110959000D02*
X158742000Y-110959000D01*
D14*
X167035000Y-142270000D02*
X164435000Y-142270000D01*
X167065000Y-142170000D02*
X167065000Y-142260000D01*
X164405000Y-142180000D02*
X164405000Y-142270000D01*
X166365000Y-139670000D02*
X167035000Y-139670000D01*
X164435000Y-139670000D02*
X165105000Y-139670000D01*
X150525000Y-142270000D02*
X147925000Y-142270000D01*
X150555000Y-142170000D02*
X150555000Y-142260000D01*
X147895000Y-142180000D02*
X147895000Y-142270000D01*
X149855000Y-139670000D02*
X150525000Y-139670000D01*
X147925000Y-139670000D02*
X148595000Y-139670000D01*
D13*
X162805000Y-121320000D02*
X162805000Y-122520000D01*
X161045000Y-122520000D02*
X161045000Y-121320000D01*
X148625000Y-121040000D02*
X149825000Y-121040000D01*
X149825000Y-122800000D02*
X148625000Y-122800000D01*
X149825000Y-135500000D02*
X148625000Y-135500000D01*
X148625000Y-133740000D02*
X149825000Y-133740000D01*
X166335000Y-130420000D02*
X165135000Y-130420000D01*
X165135000Y-128660000D02*
X166335000Y-128660000D01*
X148625000Y-128660000D02*
X149825000Y-128660000D01*
X149825000Y-130420000D02*
X148625000Y-130420000D01*
X148625000Y-126120000D02*
X149825000Y-126120000D01*
X149825000Y-127880000D02*
X148625000Y-127880000D01*
X165135000Y-123580000D02*
X166335000Y-123580000D01*
X166335000Y-125340000D02*
X165135000Y-125340000D01*
X149825000Y-125340000D02*
X148625000Y-125340000D01*
X148625000Y-123580000D02*
X149825000Y-123580000D01*
X152790000Y-140935000D02*
X152790000Y-139735000D01*
X154550000Y-139735000D02*
X154550000Y-140935000D01*
X157870000Y-140935000D02*
X157870000Y-139735000D01*
X159630000Y-139735000D02*
X159630000Y-140935000D01*
X149825000Y-138040000D02*
X148625000Y-138040000D01*
X148625000Y-136280000D02*
X149825000Y-136280000D01*
X152155000Y-116805000D02*
X152155000Y-115605000D01*
X153915000Y-115605000D02*
X153915000Y-116805000D01*
X158277000Y-98053000D02*
X159477000Y-98053000D01*
X159477000Y-99813000D02*
X158277000Y-99813000D01*
X158277000Y-96021000D02*
X159477000Y-96021000D01*
X159477000Y-97781000D02*
X158277000Y-97781000D01*
X164246000Y-97926000D02*
X165446000Y-97926000D01*
X165446000Y-99686000D02*
X164246000Y-99686000D01*
X164119000Y-96021000D02*
X165319000Y-96021000D01*
X165319000Y-97781000D02*
X164119000Y-97781000D01*
X149825000Y-118355000D02*
X148625000Y-118355000D01*
X148625000Y-116595000D02*
X149825000Y-116595000D01*
X149825000Y-116450000D02*
X148625000Y-116450000D01*
X148625000Y-114690000D02*
X149825000Y-114690000D01*
X148625000Y-112150000D02*
X149825000Y-112150000D01*
X149825000Y-113910000D02*
X148625000Y-113910000D01*
X152105000Y-101865000D02*
X152105000Y-100065000D01*
X148885000Y-100065000D02*
X148885000Y-102515000D01*
X168723000Y-143062000D02*
X173923000Y-143062000D01*
X168723000Y-97282000D02*
X168723000Y-143062000D01*
X173923000Y-94682000D02*
X173923000Y-143062000D01*
X168723000Y-97282000D02*
X171323000Y-97282000D01*
X171323000Y-97282000D02*
X171323000Y-94682000D01*
X171323000Y-94682000D02*
X173923000Y-94682000D01*
X168723000Y-96012000D02*
X168723000Y-94682000D01*
X168723000Y-94682000D02*
X170053000Y-94682000D01*
D15*
X157206190Y-126110952D02*
X157610952Y-126110952D01*
X157658571Y-126087143D01*
X157682381Y-126063333D01*
X157706190Y-126015714D01*
X157706190Y-125920476D01*
X157682381Y-125872857D01*
X157658571Y-125849048D01*
X157610952Y-125825238D01*
X157206190Y-125825238D01*
X157706190Y-125325238D02*
X157706190Y-125610952D01*
X157706190Y-125468095D02*
X157206190Y-125468095D01*
X157277619Y-125515714D01*
X157325238Y-125563333D01*
X157349048Y-125610952D01*
X158666667Y-118796571D02*
X158642857Y-118820381D01*
X158571429Y-118844190D01*
X158523810Y-118844190D01*
X158452381Y-118820381D01*
X158404762Y-118772762D01*
X158380953Y-118725143D01*
X158357143Y-118629905D01*
X158357143Y-118558476D01*
X158380953Y-118463238D01*
X158404762Y-118415619D01*
X158452381Y-118368000D01*
X158523810Y-118344190D01*
X158571429Y-118344190D01*
X158642857Y-118368000D01*
X158666667Y-118391810D01*
X159095238Y-118344190D02*
X159000000Y-118344190D01*
X158952381Y-118368000D01*
X158928572Y-118391810D01*
X158880953Y-118463238D01*
X158857143Y-118558476D01*
X158857143Y-118748952D01*
X158880953Y-118796571D01*
X158904762Y-118820381D01*
X158952381Y-118844190D01*
X159047619Y-118844190D01*
X159095238Y-118820381D01*
X159119048Y-118796571D01*
X159142857Y-118748952D01*
X159142857Y-118629905D01*
X159119048Y-118582286D01*
X159095238Y-118558476D01*
X159047619Y-118534667D01*
X158952381Y-118534667D01*
X158904762Y-118558476D01*
X158880953Y-118582286D01*
X158857143Y-118629905D01*
X152951667Y-124813190D02*
X152785000Y-124575095D01*
X152665953Y-124813190D02*
X152665953Y-124313190D01*
X152856429Y-124313190D01*
X152904048Y-124337000D01*
X152927857Y-124360810D01*
X152951667Y-124408429D01*
X152951667Y-124479857D01*
X152927857Y-124527476D01*
X152904048Y-124551286D01*
X152856429Y-124575095D01*
X152665953Y-124575095D01*
X153427857Y-124813190D02*
X153142143Y-124813190D01*
X153285000Y-124813190D02*
X153285000Y-124313190D01*
X153237381Y-124384619D01*
X153189762Y-124432238D01*
X153142143Y-124456048D01*
X161813906Y-102604095D02*
X161813906Y-102842190D01*
X161647239Y-102342190D02*
X161813906Y-102604095D01*
X161980572Y-102342190D01*
X162409143Y-102842190D02*
X162123429Y-102842190D01*
X162266286Y-102842190D02*
X162266286Y-102342190D01*
X162218667Y-102413619D01*
X162171048Y-102461238D01*
X162123429Y-102485048D01*
X163246571Y-132163333D02*
X163270381Y-132187143D01*
X163294190Y-132258571D01*
X163294190Y-132306190D01*
X163270381Y-132377619D01*
X163222762Y-132425238D01*
X163175143Y-132449047D01*
X163079905Y-132472857D01*
X163008476Y-132472857D01*
X162913238Y-132449047D01*
X162865619Y-132425238D01*
X162818000Y-132377619D01*
X162794190Y-132306190D01*
X162794190Y-132258571D01*
X162818000Y-132187143D01*
X162841810Y-132163333D01*
X163294190Y-131687143D02*
X163294190Y-131972857D01*
X163294190Y-131830000D02*
X162794190Y-131830000D01*
X162865619Y-131877619D01*
X162913238Y-131925238D01*
X162937048Y-131972857D01*
X148844048Y-108184190D02*
X148844048Y-108588952D01*
X148867857Y-108636571D01*
X148891667Y-108660381D01*
X148939286Y-108684190D01*
X149034524Y-108684190D01*
X149082143Y-108660381D01*
X149105952Y-108636571D01*
X149129762Y-108588952D01*
X149129762Y-108184190D01*
X149605953Y-108184190D02*
X149367858Y-108184190D01*
X149344048Y-108422286D01*
X149367858Y-108398476D01*
X149415477Y-108374667D01*
X149534524Y-108374667D01*
X149582143Y-108398476D01*
X149605953Y-108422286D01*
X149629762Y-108469905D01*
X149629762Y-108588952D01*
X149605953Y-108636571D01*
X149582143Y-108660381D01*
X149534524Y-108684190D01*
X149415477Y-108684190D01*
X149367858Y-108660381D01*
X149344048Y-108636571D01*
X163294190Y-127321428D02*
X163056095Y-127488095D01*
X163294190Y-127607142D02*
X162794190Y-127607142D01*
X162794190Y-127416666D01*
X162818000Y-127369047D01*
X162841810Y-127345238D01*
X162889429Y-127321428D01*
X162960857Y-127321428D01*
X163008476Y-127345238D01*
X163032286Y-127369047D01*
X163056095Y-127416666D01*
X163056095Y-127607142D01*
X162841810Y-127130952D02*
X162818000Y-127107142D01*
X162794190Y-127059523D01*
X162794190Y-126940476D01*
X162818000Y-126892857D01*
X162841810Y-126869047D01*
X162889429Y-126845238D01*
X162937048Y-126845238D01*
X163008476Y-126869047D01*
X163294190Y-127154761D01*
X163294190Y-126845238D01*
X162794190Y-126678571D02*
X162794190Y-126369048D01*
X162984667Y-126535714D01*
X162984667Y-126464286D01*
X163008476Y-126416667D01*
X163032286Y-126392857D01*
X163079905Y-126369048D01*
X163198952Y-126369048D01*
X163246571Y-126392857D01*
X163270381Y-126416667D01*
X163294190Y-126464286D01*
X163294190Y-126607143D01*
X163270381Y-126654762D01*
X163246571Y-126678571D01*
X165524667Y-120876190D02*
X165358000Y-120638095D01*
X165238953Y-120876190D02*
X165238953Y-120376190D01*
X165429429Y-120376190D01*
X165477048Y-120400000D01*
X165500857Y-120423810D01*
X165524667Y-120471429D01*
X165524667Y-120542857D01*
X165500857Y-120590476D01*
X165477048Y-120614286D01*
X165429429Y-120638095D01*
X165238953Y-120638095D01*
X165691334Y-120376190D02*
X166000857Y-120376190D01*
X165834191Y-120566667D01*
X165905619Y-120566667D01*
X165953238Y-120590476D01*
X165977048Y-120614286D01*
X166000857Y-120661905D01*
X166000857Y-120780952D01*
X165977048Y-120828571D01*
X165953238Y-120852381D01*
X165905619Y-120876190D01*
X165762762Y-120876190D01*
X165715143Y-120852381D01*
X165691334Y-120828571D01*
X163294190Y-134703333D02*
X163056095Y-134870000D01*
X163294190Y-134989047D02*
X162794190Y-134989047D01*
X162794190Y-134798571D01*
X162818000Y-134750952D01*
X162841810Y-134727143D01*
X162889429Y-134703333D01*
X162960857Y-134703333D01*
X163008476Y-134727143D01*
X163032286Y-134750952D01*
X163056095Y-134798571D01*
X163056095Y-134989047D01*
X162794190Y-134274762D02*
X162794190Y-134370000D01*
X162818000Y-134417619D01*
X162841810Y-134441428D01*
X162913238Y-134489047D01*
X163008476Y-134512857D01*
X163198952Y-134512857D01*
X163246571Y-134489047D01*
X163270381Y-134465238D01*
X163294190Y-134417619D01*
X163294190Y-134322381D01*
X163270381Y-134274762D01*
X163246571Y-134250952D01*
X163198952Y-134227143D01*
X163079905Y-134227143D01*
X163032286Y-134250952D01*
X163008476Y-134274762D01*
X162984667Y-134322381D01*
X162984667Y-134417619D01*
X163008476Y-134465238D01*
X163032286Y-134489047D01*
X163079905Y-134512857D01*
X156015572Y-143355190D02*
X155848905Y-143117095D01*
X155729858Y-143355190D02*
X155729858Y-142855190D01*
X155920334Y-142855190D01*
X155967953Y-142879000D01*
X155991762Y-142902810D01*
X156015572Y-142950429D01*
X156015572Y-143021857D01*
X155991762Y-143069476D01*
X155967953Y-143093286D01*
X155920334Y-143117095D01*
X155729858Y-143117095D01*
X156182239Y-142855190D02*
X156491762Y-142855190D01*
X156325096Y-143045667D01*
X156396524Y-143045667D01*
X156444143Y-143069476D01*
X156467953Y-143093286D01*
X156491762Y-143140905D01*
X156491762Y-143259952D01*
X156467953Y-143307571D01*
X156444143Y-143331381D01*
X156396524Y-143355190D01*
X156253667Y-143355190D01*
X156206048Y-143331381D01*
X156182239Y-143307571D01*
X156777476Y-143069476D02*
X156729857Y-143045667D01*
X156706048Y-143021857D01*
X156682238Y-142974238D01*
X156682238Y-142950429D01*
X156706048Y-142902810D01*
X156729857Y-142879000D01*
X156777476Y-142855190D01*
X156872714Y-142855190D01*
X156920333Y-142879000D01*
X156944143Y-142902810D01*
X156967952Y-142950429D01*
X156967952Y-142974238D01*
X156944143Y-143021857D01*
X156920333Y-143045667D01*
X156872714Y-143069476D01*
X156777476Y-143069476D01*
X156729857Y-143093286D01*
X156706048Y-143117095D01*
X156682238Y-143164714D01*
X156682238Y-143259952D01*
X156706048Y-143307571D01*
X156729857Y-143331381D01*
X156777476Y-143355190D01*
X156872714Y-143355190D01*
X156920333Y-143331381D01*
X156944143Y-143307571D01*
X156967952Y-143259952D01*
X156967952Y-143164714D01*
X156944143Y-143117095D01*
X156920333Y-143093286D01*
X156872714Y-143069476D01*
X163294190Y-137481428D02*
X163056095Y-137648095D01*
X163294190Y-137767142D02*
X162794190Y-137767142D01*
X162794190Y-137576666D01*
X162818000Y-137529047D01*
X162841810Y-137505238D01*
X162889429Y-137481428D01*
X162960857Y-137481428D01*
X163008476Y-137505238D01*
X163032286Y-137529047D01*
X163056095Y-137576666D01*
X163056095Y-137767142D01*
X162794190Y-137314761D02*
X162794190Y-137005238D01*
X162984667Y-137171904D01*
X162984667Y-137100476D01*
X163008476Y-137052857D01*
X163032286Y-137029047D01*
X163079905Y-137005238D01*
X163198952Y-137005238D01*
X163246571Y-137029047D01*
X163270381Y-137052857D01*
X163294190Y-137100476D01*
X163294190Y-137243333D01*
X163270381Y-137290952D01*
X163246571Y-137314761D01*
X163294190Y-136767143D02*
X163294190Y-136671905D01*
X163270381Y-136624286D01*
X163246571Y-136600476D01*
X163175143Y-136552857D01*
X163079905Y-136529048D01*
X162889429Y-136529048D01*
X162841810Y-136552857D01*
X162818000Y-136576667D01*
X162794190Y-136624286D01*
X162794190Y-136719524D01*
X162818000Y-136767143D01*
X162841810Y-136790952D01*
X162889429Y-136814762D01*
X163008476Y-136814762D01*
X163056095Y-136790952D01*
X163079905Y-136767143D01*
X163103714Y-136719524D01*
X163103714Y-136624286D01*
X163079905Y-136576667D01*
X163056095Y-136552857D01*
X163008476Y-136529048D01*
X160968572Y-143355190D02*
X160801905Y-143117095D01*
X160682858Y-143355190D02*
X160682858Y-142855190D01*
X160873334Y-142855190D01*
X160920953Y-142879000D01*
X160944762Y-142902810D01*
X160968572Y-142950429D01*
X160968572Y-143021857D01*
X160944762Y-143069476D01*
X160920953Y-143093286D01*
X160873334Y-143117095D01*
X160682858Y-143117095D01*
X161135239Y-142855190D02*
X161444762Y-142855190D01*
X161278096Y-143045667D01*
X161349524Y-143045667D01*
X161397143Y-143069476D01*
X161420953Y-143093286D01*
X161444762Y-143140905D01*
X161444762Y-143259952D01*
X161420953Y-143307571D01*
X161397143Y-143331381D01*
X161349524Y-143355190D01*
X161206667Y-143355190D01*
X161159048Y-143331381D01*
X161135239Y-143307571D01*
X161920952Y-143355190D02*
X161635238Y-143355190D01*
X161778095Y-143355190D02*
X161778095Y-142855190D01*
X161730476Y-142926619D01*
X161682857Y-142974238D01*
X161635238Y-142998048D01*
X146736571Y-132163333D02*
X146760381Y-132187143D01*
X146784190Y-132258571D01*
X146784190Y-132306190D01*
X146760381Y-132377619D01*
X146712762Y-132425238D01*
X146665143Y-132449047D01*
X146569905Y-132472857D01*
X146498476Y-132472857D01*
X146403238Y-132449047D01*
X146355619Y-132425238D01*
X146308000Y-132377619D01*
X146284190Y-132306190D01*
X146284190Y-132258571D01*
X146308000Y-132187143D01*
X146331810Y-132163333D01*
X146450857Y-131734762D02*
X146784190Y-131734762D01*
X146260381Y-131853809D02*
X146617524Y-131972857D01*
X146617524Y-131663333D01*
X156126667Y-118796571D02*
X156102857Y-118820381D01*
X156031429Y-118844190D01*
X155983810Y-118844190D01*
X155912381Y-118820381D01*
X155864762Y-118772762D01*
X155840953Y-118725143D01*
X155817143Y-118629905D01*
X155817143Y-118558476D01*
X155840953Y-118463238D01*
X155864762Y-118415619D01*
X155912381Y-118368000D01*
X155983810Y-118344190D01*
X156031429Y-118344190D01*
X156102857Y-118368000D01*
X156126667Y-118391810D01*
X156364762Y-118844190D02*
X156460000Y-118844190D01*
X156507619Y-118820381D01*
X156531429Y-118796571D01*
X156579048Y-118725143D01*
X156602857Y-118629905D01*
X156602857Y-118439429D01*
X156579048Y-118391810D01*
X156555238Y-118368000D01*
X156507619Y-118344190D01*
X156412381Y-118344190D01*
X156364762Y-118368000D01*
X156340953Y-118391810D01*
X156317143Y-118439429D01*
X156317143Y-118558476D01*
X156340953Y-118606095D01*
X156364762Y-118629905D01*
X156412381Y-118653714D01*
X156507619Y-118653714D01*
X156555238Y-118629905D01*
X156579048Y-118606095D01*
X156602857Y-118558476D01*
X148133571Y-104842428D02*
X148157381Y-104866238D01*
X148181190Y-104937666D01*
X148181190Y-104985285D01*
X148157381Y-105056714D01*
X148109762Y-105104333D01*
X148062143Y-105128142D01*
X147966905Y-105151952D01*
X147895476Y-105151952D01*
X147800238Y-105128142D01*
X147752619Y-105104333D01*
X147705000Y-105056714D01*
X147681190Y-104985285D01*
X147681190Y-104937666D01*
X147705000Y-104866238D01*
X147728810Y-104842428D01*
X148181190Y-104366238D02*
X148181190Y-104651952D01*
X148181190Y-104509095D02*
X147681190Y-104509095D01*
X147752619Y-104556714D01*
X147800238Y-104604333D01*
X147824048Y-104651952D01*
X148181190Y-103890048D02*
X148181190Y-104175762D01*
X148181190Y-104032905D02*
X147681190Y-104032905D01*
X147752619Y-104080524D01*
X147800238Y-104128143D01*
X147824048Y-104175762D01*
X147633572Y-97460571D02*
X147609762Y-97484381D01*
X147538334Y-97508190D01*
X147490715Y-97508190D01*
X147419286Y-97484381D01*
X147371667Y-97436762D01*
X147347858Y-97389143D01*
X147324048Y-97293905D01*
X147324048Y-97222476D01*
X147347858Y-97127238D01*
X147371667Y-97079619D01*
X147419286Y-97032000D01*
X147490715Y-97008190D01*
X147538334Y-97008190D01*
X147609762Y-97032000D01*
X147633572Y-97055810D01*
X148109762Y-97508190D02*
X147824048Y-97508190D01*
X147966905Y-97508190D02*
X147966905Y-97008190D01*
X147919286Y-97079619D01*
X147871667Y-97127238D01*
X147824048Y-97151048D01*
X148300238Y-97055810D02*
X148324048Y-97032000D01*
X148371667Y-97008190D01*
X148490714Y-97008190D01*
X148538333Y-97032000D01*
X148562143Y-97055810D01*
X148585952Y-97103429D01*
X148585952Y-97151048D01*
X148562143Y-97222476D01*
X148276429Y-97508190D01*
X148585952Y-97508190D01*
X154872572Y-107366571D02*
X154848762Y-107390381D01*
X154777334Y-107414190D01*
X154729715Y-107414190D01*
X154658286Y-107390381D01*
X154610667Y-107342762D01*
X154586858Y-107295143D01*
X154563048Y-107199905D01*
X154563048Y-107128476D01*
X154586858Y-107033238D01*
X154610667Y-106985619D01*
X154658286Y-106938000D01*
X154729715Y-106914190D01*
X154777334Y-106914190D01*
X154848762Y-106938000D01*
X154872572Y-106961810D01*
X155348762Y-107414190D02*
X155063048Y-107414190D01*
X155205905Y-107414190D02*
X155205905Y-106914190D01*
X155158286Y-106985619D01*
X155110667Y-107033238D01*
X155063048Y-107057048D01*
X155777333Y-107080857D02*
X155777333Y-107414190D01*
X155658286Y-106890381D02*
X155539238Y-107247524D01*
X155848762Y-107247524D01*
X146736571Y-107636428D02*
X146760381Y-107660238D01*
X146784190Y-107731666D01*
X146784190Y-107779285D01*
X146760381Y-107850714D01*
X146712762Y-107898333D01*
X146665143Y-107922142D01*
X146569905Y-107945952D01*
X146498476Y-107945952D01*
X146403238Y-107922142D01*
X146355619Y-107898333D01*
X146308000Y-107850714D01*
X146284190Y-107779285D01*
X146284190Y-107731666D01*
X146308000Y-107660238D01*
X146331810Y-107636428D01*
X146784190Y-107160238D02*
X146784190Y-107445952D01*
X146784190Y-107303095D02*
X146284190Y-107303095D01*
X146355619Y-107350714D01*
X146403238Y-107398333D01*
X146427048Y-107445952D01*
X146284190Y-106731667D02*
X146284190Y-106826905D01*
X146308000Y-106874524D01*
X146331810Y-106898333D01*
X146403238Y-106945952D01*
X146498476Y-106969762D01*
X146688952Y-106969762D01*
X146736571Y-106945952D01*
X146760381Y-106922143D01*
X146784190Y-106874524D01*
X146784190Y-106779286D01*
X146760381Y-106731667D01*
X146736571Y-106707857D01*
X146688952Y-106684048D01*
X146569905Y-106684048D01*
X146522286Y-106707857D01*
X146498476Y-106731667D01*
X146474667Y-106779286D01*
X146474667Y-106874524D01*
X146498476Y-106922143D01*
X146522286Y-106945952D01*
X146569905Y-106969762D01*
X154872572Y-110160571D02*
X154848762Y-110184381D01*
X154777334Y-110208190D01*
X154729715Y-110208190D01*
X154658286Y-110184381D01*
X154610667Y-110136762D01*
X154586858Y-110089143D01*
X154563048Y-109993905D01*
X154563048Y-109922476D01*
X154586858Y-109827238D01*
X154610667Y-109779619D01*
X154658286Y-109732000D01*
X154729715Y-109708190D01*
X154777334Y-109708190D01*
X154848762Y-109732000D01*
X154872572Y-109755810D01*
X155348762Y-110208190D02*
X155063048Y-110208190D01*
X155205905Y-110208190D02*
X155205905Y-109708190D01*
X155158286Y-109779619D01*
X155110667Y-109827238D01*
X155063048Y-109851048D01*
X155634476Y-109922476D02*
X155586857Y-109898667D01*
X155563048Y-109874857D01*
X155539238Y-109827238D01*
X155539238Y-109803429D01*
X155563048Y-109755810D01*
X155586857Y-109732000D01*
X155634476Y-109708190D01*
X155729714Y-109708190D01*
X155777333Y-109732000D01*
X155801143Y-109755810D01*
X155824952Y-109803429D01*
X155824952Y-109827238D01*
X155801143Y-109874857D01*
X155777333Y-109898667D01*
X155729714Y-109922476D01*
X155634476Y-109922476D01*
X155586857Y-109946286D01*
X155563048Y-109970095D01*
X155539238Y-110017714D01*
X155539238Y-110112952D01*
X155563048Y-110160571D01*
X155586857Y-110184381D01*
X155634476Y-110208190D01*
X155729714Y-110208190D01*
X155777333Y-110184381D01*
X155801143Y-110160571D01*
X155824952Y-110112952D01*
X155824952Y-110017714D01*
X155801143Y-109970095D01*
X155777333Y-109946286D01*
X155729714Y-109922476D01*
X165828334Y-142931190D02*
X165828334Y-143288333D01*
X165804524Y-143359762D01*
X165756905Y-143407381D01*
X165685477Y-143431190D01*
X165637858Y-143431190D01*
X166042619Y-142978810D02*
X166066429Y-142955000D01*
X166114048Y-142931190D01*
X166233095Y-142931190D01*
X166280714Y-142955000D01*
X166304524Y-142978810D01*
X166328333Y-143026429D01*
X166328333Y-143074048D01*
X166304524Y-143145476D01*
X166018810Y-143431190D01*
X166328333Y-143431190D01*
D16*
X159338143Y-137247381D02*
X159338143Y-138056905D01*
X159385762Y-138152143D01*
X159433381Y-138199762D01*
X159528619Y-138247381D01*
X159719096Y-138247381D01*
X159814334Y-138199762D01*
X159861953Y-138152143D01*
X159909572Y-138056905D01*
X159909572Y-137247381D01*
X160385762Y-138152143D02*
X160433381Y-138199762D01*
X160385762Y-138247381D01*
X160338143Y-138199762D01*
X160385762Y-138152143D01*
X160385762Y-138247381D01*
X161195286Y-137723571D02*
X160861952Y-137723571D01*
X160861952Y-138247381D02*
X160861952Y-137247381D01*
X161338143Y-137247381D01*
X162195286Y-138247381D02*
X161719095Y-138247381D01*
X161719095Y-137247381D01*
X162528619Y-137866429D02*
X163290524Y-137866429D01*
X164338143Y-138247381D02*
X164004809Y-137771190D01*
X163766714Y-138247381D02*
X163766714Y-137247381D01*
X164147667Y-137247381D01*
X164242905Y-137295000D01*
X164290524Y-137342619D01*
X164338143Y-137437857D01*
X164338143Y-137580714D01*
X164290524Y-137675952D01*
X164242905Y-137723571D01*
X164147667Y-137771190D01*
X163766714Y-137771190D01*
X164766714Y-137866429D02*
X165528619Y-137866429D01*
X165957190Y-138199762D02*
X166100047Y-138247381D01*
X166338143Y-138247381D01*
X166433381Y-138199762D01*
X166481000Y-138152143D01*
X166528619Y-138056905D01*
X166528619Y-137961667D01*
X166481000Y-137866429D01*
X166433381Y-137818810D01*
X166338143Y-137771190D01*
X166147666Y-137723571D01*
X166052428Y-137675952D01*
X166004809Y-137628333D01*
X165957190Y-137533095D01*
X165957190Y-137437857D01*
X166004809Y-137342619D01*
X166052428Y-137295000D01*
X166147666Y-137247381D01*
X166385762Y-137247381D01*
X166528619Y-137295000D01*
X166957190Y-138247381D02*
X166957190Y-137247381D01*
X167290524Y-137961667D01*
X167623857Y-137247381D01*
X167623857Y-138247381D01*
X167957190Y-137247381D02*
X168528619Y-137247381D01*
X168242904Y-138247381D02*
X168242904Y-137247381D01*
X169147667Y-138628333D02*
X169100047Y-138580714D01*
X169004809Y-138437857D01*
X168957190Y-138342619D01*
X168909571Y-138199762D01*
X168861952Y-137961667D01*
X168861952Y-137771190D01*
X168909571Y-137533095D01*
X168957190Y-137390238D01*
X169004809Y-137295000D01*
X169100047Y-137152143D01*
X169147667Y-137104524D01*
X169719095Y-137247381D02*
X169814334Y-137247381D01*
X169909572Y-137295000D01*
X169957191Y-137342619D01*
X170004810Y-137437857D01*
X170052429Y-137628333D01*
X170052429Y-137866429D01*
X170004810Y-138056905D01*
X169957191Y-138152143D01*
X169909572Y-138199762D01*
X169814334Y-138247381D01*
X169719095Y-138247381D01*
X169623857Y-138199762D01*
X169576238Y-138152143D01*
X169528619Y-138056905D01*
X169481000Y-137866429D01*
X169481000Y-137628333D01*
X169528619Y-137437857D01*
X169576238Y-137342619D01*
X169623857Y-137295000D01*
X169719095Y-137247381D01*
X171004810Y-138247381D02*
X170433381Y-138247381D01*
X170719095Y-138247381D02*
X170719095Y-137247381D01*
X170623857Y-137390238D01*
X170528619Y-137485476D01*
X170433381Y-137533095D01*
X171338143Y-138628333D02*
X171385762Y-138580714D01*
X171481000Y-138437857D01*
X171528619Y-138342619D01*
X171576238Y-138199762D01*
X171623857Y-137961667D01*
X171623857Y-137771190D01*
X171576238Y-137533095D01*
X171528619Y-137390238D01*
X171481000Y-137295000D01*
X171385762Y-137152143D01*
X171338143Y-137104524D01*
D15*
X149185334Y-142728190D02*
X149185334Y-143085333D01*
X149161524Y-143156762D01*
X149113905Y-143204381D01*
X149042477Y-143228190D01*
X148994858Y-143228190D01*
X149637714Y-142894857D02*
X149637714Y-143228190D01*
X149518667Y-142704381D02*
X149399619Y-143061524D01*
X149709143Y-143061524D01*
D16*
X143107143Y-137257381D02*
X143107143Y-138066905D01*
X143154762Y-138162143D01*
X143202381Y-138209762D01*
X143297619Y-138257381D01*
X143488096Y-138257381D01*
X143583334Y-138209762D01*
X143630953Y-138162143D01*
X143678572Y-138066905D01*
X143678572Y-137257381D01*
X144154762Y-138162143D02*
X144202381Y-138209762D01*
X144154762Y-138257381D01*
X144107143Y-138209762D01*
X144154762Y-138162143D01*
X144154762Y-138257381D01*
X144964286Y-137733571D02*
X144630952Y-137733571D01*
X144630952Y-138257381D02*
X144630952Y-137257381D01*
X145107143Y-137257381D01*
X145964286Y-138257381D02*
X145488095Y-138257381D01*
X145488095Y-137257381D01*
X146297619Y-137876429D02*
X147059524Y-137876429D01*
X148107143Y-138257381D02*
X147773809Y-137781190D01*
X147535714Y-138257381D02*
X147535714Y-137257381D01*
X147916667Y-137257381D01*
X148011905Y-137305000D01*
X148059524Y-137352619D01*
X148107143Y-137447857D01*
X148107143Y-137590714D01*
X148059524Y-137685952D01*
X148011905Y-137733571D01*
X147916667Y-137781190D01*
X147535714Y-137781190D01*
X148535714Y-137876429D02*
X149297619Y-137876429D01*
X149726190Y-138209762D02*
X149869047Y-138257381D01*
X150107143Y-138257381D01*
X150202381Y-138209762D01*
X150250000Y-138162143D01*
X150297619Y-138066905D01*
X150297619Y-137971667D01*
X150250000Y-137876429D01*
X150202381Y-137828810D01*
X150107143Y-137781190D01*
X149916666Y-137733571D01*
X149821428Y-137685952D01*
X149773809Y-137638333D01*
X149726190Y-137543095D01*
X149726190Y-137447857D01*
X149773809Y-137352619D01*
X149821428Y-137305000D01*
X149916666Y-137257381D01*
X150154762Y-137257381D01*
X150297619Y-137305000D01*
X150726190Y-138257381D02*
X150726190Y-137257381D01*
X151059524Y-137971667D01*
X151392857Y-137257381D01*
X151392857Y-138257381D01*
X151726190Y-137257381D02*
X152297619Y-137257381D01*
X152011904Y-138257381D02*
X152011904Y-137257381D01*
X152916667Y-138638333D02*
X152869047Y-138590714D01*
X152773809Y-138447857D01*
X152726190Y-138352619D01*
X152678571Y-138209762D01*
X152630952Y-137971667D01*
X152630952Y-137781190D01*
X152678571Y-137543095D01*
X152726190Y-137400238D01*
X152773809Y-137305000D01*
X152869047Y-137162143D01*
X152916667Y-137114524D01*
X153488095Y-137257381D02*
X153583334Y-137257381D01*
X153678572Y-137305000D01*
X153726191Y-137352619D01*
X153773810Y-137447857D01*
X153821429Y-137638333D01*
X153821429Y-137876429D01*
X153773810Y-138066905D01*
X153726191Y-138162143D01*
X153678572Y-138209762D01*
X153583334Y-138257381D01*
X153488095Y-138257381D01*
X153392857Y-138209762D01*
X153345238Y-138162143D01*
X153297619Y-138066905D01*
X153250000Y-137876429D01*
X153250000Y-137638333D01*
X153297619Y-137447857D01*
X153345238Y-137352619D01*
X153392857Y-137305000D01*
X153488095Y-137257381D01*
X154773810Y-138257381D02*
X154202381Y-138257381D01*
X154488095Y-138257381D02*
X154488095Y-137257381D01*
X154392857Y-137400238D01*
X154297619Y-137495476D01*
X154202381Y-137543095D01*
X155107143Y-138638333D02*
X155154762Y-138590714D01*
X155250000Y-138447857D01*
X155297619Y-138352619D01*
X155345238Y-138209762D01*
X155392857Y-137971667D01*
X155392857Y-137781190D01*
X155345238Y-137543095D01*
X155297619Y-137400238D01*
X155250000Y-137305000D01*
X155154762Y-137162143D01*
X155107143Y-137114524D01*
D15*
X161968667Y-119352190D02*
X161802000Y-119114095D01*
X161682953Y-119352190D02*
X161682953Y-118852190D01*
X161873429Y-118852190D01*
X161921048Y-118876000D01*
X161944857Y-118899810D01*
X161968667Y-118947429D01*
X161968667Y-119018857D01*
X161944857Y-119066476D01*
X161921048Y-119090286D01*
X161873429Y-119114095D01*
X161682953Y-119114095D01*
X162159143Y-118899810D02*
X162182953Y-118876000D01*
X162230572Y-118852190D01*
X162349619Y-118852190D01*
X162397238Y-118876000D01*
X162421048Y-118899810D01*
X162444857Y-118947429D01*
X162444857Y-118995048D01*
X162421048Y-119066476D01*
X162135334Y-119352190D01*
X162444857Y-119352190D01*
X146784190Y-122003333D02*
X146546095Y-122170000D01*
X146784190Y-122289047D02*
X146284190Y-122289047D01*
X146284190Y-122098571D01*
X146308000Y-122050952D01*
X146331810Y-122027143D01*
X146379429Y-122003333D01*
X146450857Y-122003333D01*
X146498476Y-122027143D01*
X146522286Y-122050952D01*
X146546095Y-122098571D01*
X146546095Y-122289047D01*
X146284190Y-121836666D02*
X146284190Y-121503333D01*
X146784190Y-121717619D01*
X146784190Y-135068428D02*
X146546095Y-135235095D01*
X146784190Y-135354142D02*
X146284190Y-135354142D01*
X146284190Y-135163666D01*
X146308000Y-135116047D01*
X146331810Y-135092238D01*
X146379429Y-135068428D01*
X146450857Y-135068428D01*
X146498476Y-135092238D01*
X146522286Y-135116047D01*
X146546095Y-135163666D01*
X146546095Y-135354142D01*
X146784190Y-134592238D02*
X146784190Y-134877952D01*
X146784190Y-134735095D02*
X146284190Y-134735095D01*
X146355619Y-134782714D01*
X146403238Y-134830333D01*
X146427048Y-134877952D01*
X146284190Y-134282714D02*
X146284190Y-134235095D01*
X146308000Y-134187476D01*
X146331810Y-134163667D01*
X146379429Y-134139857D01*
X146474667Y-134116048D01*
X146593714Y-134116048D01*
X146688952Y-134139857D01*
X146736571Y-134163667D01*
X146760381Y-134187476D01*
X146784190Y-134235095D01*
X146784190Y-134282714D01*
X146760381Y-134330333D01*
X146736571Y-134354143D01*
X146688952Y-134377952D01*
X146593714Y-134401762D01*
X146474667Y-134401762D01*
X146379429Y-134377952D01*
X146331810Y-134354143D01*
X146308000Y-134330333D01*
X146284190Y-134282714D01*
X163294190Y-129861428D02*
X163056095Y-130028095D01*
X163294190Y-130147142D02*
X162794190Y-130147142D01*
X162794190Y-129956666D01*
X162818000Y-129909047D01*
X162841810Y-129885238D01*
X162889429Y-129861428D01*
X162960857Y-129861428D01*
X163008476Y-129885238D01*
X163032286Y-129909047D01*
X163056095Y-129956666D01*
X163056095Y-130147142D01*
X163294190Y-129385238D02*
X163294190Y-129670952D01*
X163294190Y-129528095D02*
X162794190Y-129528095D01*
X162865619Y-129575714D01*
X162913238Y-129623333D01*
X162937048Y-129670952D01*
X163294190Y-128909048D02*
X163294190Y-129194762D01*
X163294190Y-129051905D02*
X162794190Y-129051905D01*
X162865619Y-129099524D01*
X162913238Y-129147143D01*
X162937048Y-129194762D01*
X146784190Y-129861428D02*
X146546095Y-130028095D01*
X146784190Y-130147142D02*
X146284190Y-130147142D01*
X146284190Y-129956666D01*
X146308000Y-129909047D01*
X146331810Y-129885238D01*
X146379429Y-129861428D01*
X146450857Y-129861428D01*
X146498476Y-129885238D01*
X146522286Y-129909047D01*
X146546095Y-129956666D01*
X146546095Y-130147142D01*
X146784190Y-129385238D02*
X146784190Y-129670952D01*
X146784190Y-129528095D02*
X146284190Y-129528095D01*
X146355619Y-129575714D01*
X146403238Y-129623333D01*
X146427048Y-129670952D01*
X146284190Y-128932857D02*
X146284190Y-129170952D01*
X146522286Y-129194762D01*
X146498476Y-129170952D01*
X146474667Y-129123333D01*
X146474667Y-129004286D01*
X146498476Y-128956667D01*
X146522286Y-128932857D01*
X146569905Y-128909048D01*
X146688952Y-128909048D01*
X146736571Y-128932857D01*
X146760381Y-128956667D01*
X146784190Y-129004286D01*
X146784190Y-129123333D01*
X146760381Y-129170952D01*
X146736571Y-129194762D01*
X146784190Y-127448428D02*
X146546095Y-127615095D01*
X146784190Y-127734142D02*
X146284190Y-127734142D01*
X146284190Y-127543666D01*
X146308000Y-127496047D01*
X146331810Y-127472238D01*
X146379429Y-127448428D01*
X146450857Y-127448428D01*
X146498476Y-127472238D01*
X146522286Y-127496047D01*
X146546095Y-127543666D01*
X146546095Y-127734142D01*
X146331810Y-127257952D02*
X146308000Y-127234142D01*
X146284190Y-127186523D01*
X146284190Y-127067476D01*
X146308000Y-127019857D01*
X146331810Y-126996047D01*
X146379429Y-126972238D01*
X146427048Y-126972238D01*
X146498476Y-126996047D01*
X146784190Y-127281761D01*
X146784190Y-126972238D01*
X146284190Y-126543667D02*
X146284190Y-126638905D01*
X146308000Y-126686524D01*
X146331810Y-126710333D01*
X146403238Y-126757952D01*
X146498476Y-126781762D01*
X146688952Y-126781762D01*
X146736571Y-126757952D01*
X146760381Y-126734143D01*
X146784190Y-126686524D01*
X146784190Y-126591286D01*
X146760381Y-126543667D01*
X146736571Y-126519857D01*
X146688952Y-126496048D01*
X146569905Y-126496048D01*
X146522286Y-126519857D01*
X146498476Y-126543667D01*
X146474667Y-126591286D01*
X146474667Y-126686524D01*
X146498476Y-126734143D01*
X146522286Y-126757952D01*
X146569905Y-126781762D01*
X163294190Y-124781428D02*
X163056095Y-124948095D01*
X163294190Y-125067142D02*
X162794190Y-125067142D01*
X162794190Y-124876666D01*
X162818000Y-124829047D01*
X162841810Y-124805238D01*
X162889429Y-124781428D01*
X162960857Y-124781428D01*
X163008476Y-124805238D01*
X163032286Y-124829047D01*
X163056095Y-124876666D01*
X163056095Y-125067142D01*
X162841810Y-124590952D02*
X162818000Y-124567142D01*
X162794190Y-124519523D01*
X162794190Y-124400476D01*
X162818000Y-124352857D01*
X162841810Y-124329047D01*
X162889429Y-124305238D01*
X162937048Y-124305238D01*
X163008476Y-124329047D01*
X163294190Y-124614761D01*
X163294190Y-124305238D01*
X162794190Y-124138571D02*
X162794190Y-123805238D01*
X163294190Y-124019524D01*
X146784190Y-124654428D02*
X146546095Y-124821095D01*
X146784190Y-124940142D02*
X146284190Y-124940142D01*
X146284190Y-124749666D01*
X146308000Y-124702047D01*
X146331810Y-124678238D01*
X146379429Y-124654428D01*
X146450857Y-124654428D01*
X146498476Y-124678238D01*
X146522286Y-124702047D01*
X146546095Y-124749666D01*
X146546095Y-124940142D01*
X146284190Y-124487761D02*
X146284190Y-124178238D01*
X146474667Y-124344904D01*
X146474667Y-124273476D01*
X146498476Y-124225857D01*
X146522286Y-124202047D01*
X146569905Y-124178238D01*
X146688952Y-124178238D01*
X146736571Y-124202047D01*
X146760381Y-124225857D01*
X146784190Y-124273476D01*
X146784190Y-124416333D01*
X146760381Y-124463952D01*
X146736571Y-124487761D01*
X146284190Y-123868714D02*
X146284190Y-123821095D01*
X146308000Y-123773476D01*
X146331810Y-123749667D01*
X146379429Y-123725857D01*
X146474667Y-123702048D01*
X146593714Y-123702048D01*
X146688952Y-123725857D01*
X146736571Y-123749667D01*
X146760381Y-123773476D01*
X146784190Y-123821095D01*
X146784190Y-123868714D01*
X146760381Y-123916333D01*
X146736571Y-123940143D01*
X146688952Y-123963952D01*
X146593714Y-123987762D01*
X146474667Y-123987762D01*
X146379429Y-123963952D01*
X146331810Y-123940143D01*
X146308000Y-123916333D01*
X146284190Y-123868714D01*
X153475572Y-143355190D02*
X153308905Y-143117095D01*
X153189858Y-143355190D02*
X153189858Y-142855190D01*
X153380334Y-142855190D01*
X153427953Y-142879000D01*
X153451762Y-142902810D01*
X153475572Y-142950429D01*
X153475572Y-143021857D01*
X153451762Y-143069476D01*
X153427953Y-143093286D01*
X153380334Y-143117095D01*
X153189858Y-143117095D01*
X153642239Y-142855190D02*
X153951762Y-142855190D01*
X153785096Y-143045667D01*
X153856524Y-143045667D01*
X153904143Y-143069476D01*
X153927953Y-143093286D01*
X153951762Y-143140905D01*
X153951762Y-143259952D01*
X153927953Y-143307571D01*
X153904143Y-143331381D01*
X153856524Y-143355190D01*
X153713667Y-143355190D01*
X153666048Y-143331381D01*
X153642239Y-143307571D01*
X154380333Y-143021857D02*
X154380333Y-143355190D01*
X154261286Y-142831381D02*
X154142238Y-143188524D01*
X154451762Y-143188524D01*
X158555572Y-143355190D02*
X158388905Y-143117095D01*
X158269858Y-143355190D02*
X158269858Y-142855190D01*
X158460334Y-142855190D01*
X158507953Y-142879000D01*
X158531762Y-142902810D01*
X158555572Y-142950429D01*
X158555572Y-143021857D01*
X158531762Y-143069476D01*
X158507953Y-143093286D01*
X158460334Y-143117095D01*
X158269858Y-143117095D01*
X158722239Y-142855190D02*
X159031762Y-142855190D01*
X158865096Y-143045667D01*
X158936524Y-143045667D01*
X158984143Y-143069476D01*
X159007953Y-143093286D01*
X159031762Y-143140905D01*
X159031762Y-143259952D01*
X159007953Y-143307571D01*
X158984143Y-143331381D01*
X158936524Y-143355190D01*
X158793667Y-143355190D01*
X158746048Y-143331381D01*
X158722239Y-143307571D01*
X159484143Y-142855190D02*
X159246048Y-142855190D01*
X159222238Y-143093286D01*
X159246048Y-143069476D01*
X159293667Y-143045667D01*
X159412714Y-143045667D01*
X159460333Y-143069476D01*
X159484143Y-143093286D01*
X159507952Y-143140905D01*
X159507952Y-143259952D01*
X159484143Y-143307571D01*
X159460333Y-143331381D01*
X159412714Y-143355190D01*
X159293667Y-143355190D01*
X159246048Y-143331381D01*
X159222238Y-143307571D01*
X146784190Y-137481428D02*
X146546095Y-137648095D01*
X146784190Y-137767142D02*
X146284190Y-137767142D01*
X146284190Y-137576666D01*
X146308000Y-137529047D01*
X146331810Y-137505238D01*
X146379429Y-137481428D01*
X146450857Y-137481428D01*
X146498476Y-137505238D01*
X146522286Y-137529047D01*
X146546095Y-137576666D01*
X146546095Y-137767142D01*
X146450857Y-137052857D02*
X146784190Y-137052857D01*
X146260381Y-137171904D02*
X146617524Y-137290952D01*
X146617524Y-136981428D01*
X146331810Y-136814762D02*
X146308000Y-136790952D01*
X146284190Y-136743333D01*
X146284190Y-136624286D01*
X146308000Y-136576667D01*
X146331810Y-136552857D01*
X146379429Y-136529048D01*
X146427048Y-136529048D01*
X146498476Y-136552857D01*
X146784190Y-136838571D01*
X146784190Y-136529048D01*
X154658190Y-116653428D02*
X154420095Y-116820095D01*
X154658190Y-116939142D02*
X154158190Y-116939142D01*
X154158190Y-116748666D01*
X154182000Y-116701047D01*
X154205810Y-116677238D01*
X154253429Y-116653428D01*
X154324857Y-116653428D01*
X154372476Y-116677238D01*
X154396286Y-116701047D01*
X154420095Y-116748666D01*
X154420095Y-116939142D01*
X154324857Y-116224857D02*
X154658190Y-116224857D01*
X154134381Y-116343904D02*
X154491524Y-116462952D01*
X154491524Y-116153428D01*
X154158190Y-116010571D02*
X154158190Y-115677238D01*
X154658190Y-115891524D01*
X154872572Y-99286190D02*
X154705905Y-99048095D01*
X154586858Y-99286190D02*
X154586858Y-98786190D01*
X154777334Y-98786190D01*
X154824953Y-98810000D01*
X154848762Y-98833810D01*
X154872572Y-98881429D01*
X154872572Y-98952857D01*
X154848762Y-99000476D01*
X154824953Y-99024286D01*
X154777334Y-99048095D01*
X154586858Y-99048095D01*
X155324953Y-98786190D02*
X155086858Y-98786190D01*
X155063048Y-99024286D01*
X155086858Y-99000476D01*
X155134477Y-98976667D01*
X155253524Y-98976667D01*
X155301143Y-99000476D01*
X155324953Y-99024286D01*
X155348762Y-99071905D01*
X155348762Y-99190952D01*
X155324953Y-99238571D01*
X155301143Y-99262381D01*
X155253524Y-99286190D01*
X155134477Y-99286190D01*
X155086858Y-99262381D01*
X155063048Y-99238571D01*
X155658286Y-98786190D02*
X155705905Y-98786190D01*
X155753524Y-98810000D01*
X155777333Y-98833810D01*
X155801143Y-98881429D01*
X155824952Y-98976667D01*
X155824952Y-99095714D01*
X155801143Y-99190952D01*
X155777333Y-99238571D01*
X155753524Y-99262381D01*
X155705905Y-99286190D01*
X155658286Y-99286190D01*
X155610667Y-99262381D01*
X155586857Y-99238571D01*
X155563048Y-99190952D01*
X155539238Y-99095714D01*
X155539238Y-98976667D01*
X155563048Y-98881429D01*
X155586857Y-98833810D01*
X155610667Y-98810000D01*
X155658286Y-98786190D01*
X155126572Y-96746190D02*
X154959905Y-96508095D01*
X154840858Y-96746190D02*
X154840858Y-96246190D01*
X155031334Y-96246190D01*
X155078953Y-96270000D01*
X155102762Y-96293810D01*
X155126572Y-96341429D01*
X155126572Y-96412857D01*
X155102762Y-96460476D01*
X155078953Y-96484286D01*
X155031334Y-96508095D01*
X154840858Y-96508095D01*
X155578953Y-96246190D02*
X155340858Y-96246190D01*
X155317048Y-96484286D01*
X155340858Y-96460476D01*
X155388477Y-96436667D01*
X155507524Y-96436667D01*
X155555143Y-96460476D01*
X155578953Y-96484286D01*
X155602762Y-96531905D01*
X155602762Y-96650952D01*
X155578953Y-96698571D01*
X155555143Y-96722381D01*
X155507524Y-96746190D01*
X155388477Y-96746190D01*
X155340858Y-96722381D01*
X155317048Y-96698571D01*
X156078952Y-96746190D02*
X155793238Y-96746190D01*
X155936095Y-96746190D02*
X155936095Y-96246190D01*
X155888476Y-96317619D01*
X155840857Y-96365238D01*
X155793238Y-96389048D01*
X167572572Y-99032190D02*
X167405905Y-98794095D01*
X167286858Y-99032190D02*
X167286858Y-98532190D01*
X167477334Y-98532190D01*
X167524953Y-98556000D01*
X167548762Y-98579810D01*
X167572572Y-98627429D01*
X167572572Y-98698857D01*
X167548762Y-98746476D01*
X167524953Y-98770286D01*
X167477334Y-98794095D01*
X167286858Y-98794095D01*
X168024953Y-98532190D02*
X167786858Y-98532190D01*
X167763048Y-98770286D01*
X167786858Y-98746476D01*
X167834477Y-98722667D01*
X167953524Y-98722667D01*
X168001143Y-98746476D01*
X168024953Y-98770286D01*
X168048762Y-98817905D01*
X168048762Y-98936952D01*
X168024953Y-98984571D01*
X168001143Y-99008381D01*
X167953524Y-99032190D01*
X167834477Y-99032190D01*
X167786858Y-99008381D01*
X167763048Y-98984571D01*
X168239238Y-98579810D02*
X168263048Y-98556000D01*
X168310667Y-98532190D01*
X168429714Y-98532190D01*
X168477333Y-98556000D01*
X168501143Y-98579810D01*
X168524952Y-98627429D01*
X168524952Y-98675048D01*
X168501143Y-98746476D01*
X168215429Y-99032190D01*
X168524952Y-99032190D01*
X167572572Y-97000190D02*
X167405905Y-96762095D01*
X167286858Y-97000190D02*
X167286858Y-96500190D01*
X167477334Y-96500190D01*
X167524953Y-96524000D01*
X167548762Y-96547810D01*
X167572572Y-96595429D01*
X167572572Y-96666857D01*
X167548762Y-96714476D01*
X167524953Y-96738286D01*
X167477334Y-96762095D01*
X167286858Y-96762095D01*
X168024953Y-96500190D02*
X167786858Y-96500190D01*
X167763048Y-96738286D01*
X167786858Y-96714476D01*
X167834477Y-96690667D01*
X167953524Y-96690667D01*
X168001143Y-96714476D01*
X168024953Y-96738286D01*
X168048762Y-96785905D01*
X168048762Y-96904952D01*
X168024953Y-96952571D01*
X168001143Y-96976381D01*
X167953524Y-97000190D01*
X167834477Y-97000190D01*
X167786858Y-96976381D01*
X167763048Y-96952571D01*
X168215429Y-96500190D02*
X168524952Y-96500190D01*
X168358286Y-96690667D01*
X168429714Y-96690667D01*
X168477333Y-96714476D01*
X168501143Y-96738286D01*
X168524952Y-96785905D01*
X168524952Y-96904952D01*
X168501143Y-96952571D01*
X168477333Y-96976381D01*
X168429714Y-97000190D01*
X168286857Y-97000190D01*
X168239238Y-96976381D01*
X168215429Y-96952571D01*
X149030572Y-119098190D02*
X148863905Y-118860095D01*
X148744858Y-119098190D02*
X148744858Y-118598190D01*
X148935334Y-118598190D01*
X148982953Y-118622000D01*
X149006762Y-118645810D01*
X149030572Y-118693429D01*
X149030572Y-118764857D01*
X149006762Y-118812476D01*
X148982953Y-118836286D01*
X148935334Y-118860095D01*
X148744858Y-118860095D01*
X149482953Y-118598190D02*
X149244858Y-118598190D01*
X149221048Y-118836286D01*
X149244858Y-118812476D01*
X149292477Y-118788667D01*
X149411524Y-118788667D01*
X149459143Y-118812476D01*
X149482953Y-118836286D01*
X149506762Y-118883905D01*
X149506762Y-119002952D01*
X149482953Y-119050571D01*
X149459143Y-119074381D01*
X149411524Y-119098190D01*
X149292477Y-119098190D01*
X149244858Y-119074381D01*
X149221048Y-119050571D01*
X149935333Y-118764857D02*
X149935333Y-119098190D01*
X149816286Y-118574381D02*
X149697238Y-118931524D01*
X150006762Y-118931524D01*
X146784190Y-115764428D02*
X146546095Y-115931095D01*
X146784190Y-116050142D02*
X146284190Y-116050142D01*
X146284190Y-115859666D01*
X146308000Y-115812047D01*
X146331810Y-115788238D01*
X146379429Y-115764428D01*
X146450857Y-115764428D01*
X146498476Y-115788238D01*
X146522286Y-115812047D01*
X146546095Y-115859666D01*
X146546095Y-116050142D01*
X146284190Y-115312047D02*
X146284190Y-115550142D01*
X146522286Y-115573952D01*
X146498476Y-115550142D01*
X146474667Y-115502523D01*
X146474667Y-115383476D01*
X146498476Y-115335857D01*
X146522286Y-115312047D01*
X146569905Y-115288238D01*
X146688952Y-115288238D01*
X146736571Y-115312047D01*
X146760381Y-115335857D01*
X146784190Y-115383476D01*
X146784190Y-115502523D01*
X146760381Y-115550142D01*
X146736571Y-115573952D01*
X146284190Y-115121571D02*
X146284190Y-114788238D01*
X146784190Y-115002524D01*
X146784190Y-113351428D02*
X146546095Y-113518095D01*
X146784190Y-113637142D02*
X146284190Y-113637142D01*
X146284190Y-113446666D01*
X146308000Y-113399047D01*
X146331810Y-113375238D01*
X146379429Y-113351428D01*
X146450857Y-113351428D01*
X146498476Y-113375238D01*
X146522286Y-113399047D01*
X146546095Y-113446666D01*
X146546095Y-113637142D01*
X146284190Y-112899047D02*
X146284190Y-113137142D01*
X146522286Y-113160952D01*
X146498476Y-113137142D01*
X146474667Y-113089523D01*
X146474667Y-112970476D01*
X146498476Y-112922857D01*
X146522286Y-112899047D01*
X146569905Y-112875238D01*
X146688952Y-112875238D01*
X146736571Y-112899047D01*
X146760381Y-112922857D01*
X146784190Y-112970476D01*
X146784190Y-113089523D01*
X146760381Y-113137142D01*
X146736571Y-113160952D01*
X146498476Y-112589524D02*
X146474667Y-112637143D01*
X146450857Y-112660952D01*
X146403238Y-112684762D01*
X146379429Y-112684762D01*
X146331810Y-112660952D01*
X146308000Y-112637143D01*
X146284190Y-112589524D01*
X146284190Y-112494286D01*
X146308000Y-112446667D01*
X146331810Y-112422857D01*
X146379429Y-112399048D01*
X146403238Y-112399048D01*
X146450857Y-112422857D01*
X146474667Y-112446667D01*
X146498476Y-112494286D01*
X146498476Y-112589524D01*
X146522286Y-112637143D01*
X146546095Y-112660952D01*
X146593714Y-112684762D01*
X146688952Y-112684762D01*
X146736571Y-112660952D01*
X146760381Y-112637143D01*
X146784190Y-112589524D01*
X146784190Y-112494286D01*
X146760381Y-112446667D01*
X146736571Y-112422857D01*
X146688952Y-112399048D01*
X146593714Y-112399048D01*
X146546095Y-112422857D01*
X146522286Y-112446667D01*
X146498476Y-112494286D01*
X147321190Y-101345952D02*
X147725952Y-101345952D01*
X147773571Y-101322143D01*
X147797381Y-101298333D01*
X147821190Y-101250714D01*
X147821190Y-101155476D01*
X147797381Y-101107857D01*
X147773571Y-101084048D01*
X147725952Y-101060238D01*
X147321190Y-101060238D01*
X147321190Y-100869761D02*
X147321190Y-100560238D01*
X147511667Y-100726904D01*
X147511667Y-100655476D01*
X147535476Y-100607857D01*
X147559286Y-100584047D01*
X147606905Y-100560238D01*
X147725952Y-100560238D01*
X147773571Y-100584047D01*
X147797381Y-100607857D01*
X147821190Y-100655476D01*
X147821190Y-100798333D01*
X147797381Y-100845952D01*
X147773571Y-100869761D01*
X168108334Y-142855190D02*
X168108334Y-143212333D01*
X168084524Y-143283762D01*
X168036905Y-143331381D01*
X167965477Y-143355190D01*
X167917858Y-143355190D01*
X168584524Y-142855190D02*
X168346429Y-142855190D01*
X168322619Y-143093286D01*
X168346429Y-143069476D01*
X168394048Y-143045667D01*
X168513095Y-143045667D01*
X168560714Y-143069476D01*
X168584524Y-143093286D01*
X168608333Y-143140905D01*
X168608333Y-143259952D01*
X168584524Y-143307571D01*
X168560714Y-143331381D01*
X168513095Y-143355190D01*
X168394048Y-143355190D01*
X168346429Y-143331381D01*
X168322619Y-143307571D01*
M02*
