G04 #@! TF.FileFunction,Paste,Bot*
%FSLAX46Y46*%
G04 Gerber Fmt 4.6, Leading zero omitted, Abs format (unit mm)*
G04 Created by KiCad (PCBNEW 4.0.6) date 08/04/17 15:07:46*
%MOMM*%
%LPD*%
G01*
G04 APERTURE LIST*
%ADD10C,0.100000*%
%ADD11R,1.250000X1.500000*%
%ADD12R,1.500000X1.250000*%
%ADD13R,1.300000X1.500000*%
%ADD14R,0.650000X1.560000*%
%ADD15R,1.500000X1.300000*%
%ADD16R,1.100000X2.250000*%
%ADD17R,1.050000X1.100000*%
%ADD18R,2.250000X1.100000*%
%ADD19R,1.100000X1.050000*%
%ADD20R,0.280000X1.200000*%
%ADD21R,1.200000X0.280000*%
G04 APERTURE END LIST*
D10*
D11*
X161925000Y-120670000D03*
X161925000Y-123170000D03*
D12*
X164485000Y-127000000D03*
X166985000Y-127000000D03*
D13*
X161290000Y-133270000D03*
X161290000Y-135970000D03*
X156210000Y-138985000D03*
X156210000Y-141685000D03*
D14*
X149545000Y-99615000D03*
X150495000Y-99615000D03*
X151445000Y-99615000D03*
X151445000Y-102315000D03*
X149545000Y-102315000D03*
D15*
X150575000Y-121920000D03*
X147875000Y-121920000D03*
D13*
X156210000Y-133905000D03*
X156210000Y-136605000D03*
D12*
X158730000Y-130810000D03*
X156230000Y-130810000D03*
D15*
X163750000Y-112014000D03*
X166450000Y-112014000D03*
D13*
X158750000Y-119935000D03*
X158750000Y-122635000D03*
D12*
X150475000Y-127000000D03*
X147975000Y-127000000D03*
D11*
X153035000Y-120670000D03*
X153035000Y-123170000D03*
D12*
X151999000Y-104521000D03*
X149499000Y-104521000D03*
X151999000Y-97282000D03*
X149499000Y-97282000D03*
X150475000Y-107315000D03*
X147975000Y-107315000D03*
D11*
X164719000Y-105176000D03*
X164719000Y-107676000D03*
D12*
X147975000Y-109855000D03*
X150475000Y-109855000D03*
X163469000Y-98933000D03*
X165969000Y-98933000D03*
X160254000Y-98933000D03*
X157754000Y-98933000D03*
D16*
X147750000Y-140970000D03*
X150700000Y-140970000D03*
D17*
X149225000Y-139420000D03*
D16*
X164260000Y-140970000D03*
X167210000Y-140970000D03*
D17*
X165735000Y-139420000D03*
D18*
X148590000Y-116635000D03*
X148590000Y-119585000D03*
D19*
X150140000Y-118110000D03*
D15*
X164385000Y-121920000D03*
X167085000Y-121920000D03*
X167085000Y-124460000D03*
X164385000Y-124460000D03*
X147875000Y-124460000D03*
X150575000Y-124460000D03*
X164385000Y-129540000D03*
X167085000Y-129540000D03*
X150575000Y-129540000D03*
X147875000Y-129540000D03*
D13*
X158750000Y-133905000D03*
X158750000Y-136605000D03*
X158750000Y-128350000D03*
X158750000Y-125650000D03*
X156210000Y-128350000D03*
X156210000Y-125650000D03*
X156210000Y-119935000D03*
X156210000Y-122635000D03*
X154305000Y-133270000D03*
X154305000Y-135970000D03*
D15*
X164385000Y-132080000D03*
X167085000Y-132080000D03*
X150575000Y-132080000D03*
X147875000Y-132080000D03*
X167085000Y-134620000D03*
X164385000Y-134620000D03*
X147875000Y-134620000D03*
X150575000Y-134620000D03*
D13*
X161290000Y-138985000D03*
X161290000Y-141685000D03*
X153670000Y-138985000D03*
X153670000Y-141685000D03*
X158750000Y-138985000D03*
X158750000Y-141685000D03*
D15*
X167085000Y-137160000D03*
X164385000Y-137160000D03*
X147875000Y-137160000D03*
X150575000Y-137160000D03*
D13*
X154432000Y-100123000D03*
X154432000Y-102823000D03*
D15*
X163750000Y-114173000D03*
X166450000Y-114173000D03*
X163750000Y-109855000D03*
X166450000Y-109855000D03*
X163750000Y-116205000D03*
X166450000Y-116205000D03*
X147875000Y-112395000D03*
X150575000Y-112395000D03*
X160702000Y-100965000D03*
X163402000Y-100965000D03*
X150575000Y-114935000D03*
X147875000Y-114935000D03*
D20*
X159992000Y-111835000D03*
X159492000Y-111835000D03*
X158992000Y-111835000D03*
X158492000Y-111835000D03*
X157992000Y-111835000D03*
X157492000Y-111835000D03*
X156992000Y-111835000D03*
X156492000Y-111835000D03*
D21*
X154992000Y-110335000D03*
X154992000Y-109835000D03*
X154992000Y-109335000D03*
X154992000Y-108835000D03*
X154992000Y-108335000D03*
X154992000Y-107835000D03*
X154992000Y-107335000D03*
X154992000Y-106835000D03*
D20*
X156492000Y-105335000D03*
X156992000Y-105335000D03*
X157492000Y-105335000D03*
X157992000Y-105335000D03*
X158492000Y-105335000D03*
X158992000Y-105335000D03*
X159492000Y-105335000D03*
X159992000Y-105335000D03*
D21*
X161492000Y-106835000D03*
X161492000Y-107335000D03*
X161492000Y-107835000D03*
X161492000Y-108335000D03*
X161492000Y-108835000D03*
X161492000Y-109335000D03*
X161492000Y-109835000D03*
X161492000Y-110335000D03*
M02*
