G04 #@! TF.FileFunction,Drawing*
%FSLAX46Y46*%
G04 Gerber Fmt 4.6, Leading zero omitted, Abs format (unit mm)*
G04 Created by KiCad (PCBNEW 4.0.6) date 08/04/17 15:07:46*
%MOMM*%
%LPD*%
G01*
G04 APERTURE LIST*
%ADD10C,0.100000*%
%ADD11C,0.127000*%
G04 APERTURE END LIST*
D10*
D11*
X149835000Y-139670000D02*
X148595000Y-139670000D01*
X147915000Y-139670000D02*
X147895000Y-139670000D01*
X147895000Y-139670000D02*
X147895000Y-142140000D01*
X150555000Y-142180000D02*
X150555000Y-139670000D01*
X149567412Y-140980000D02*
G75*
G03X149567412Y-140980000I-332412J0D01*
G01*
X149776541Y-140980000D02*
G75*
G03X149776541Y-140980000I-551541J0D01*
G01*
X150605000Y-141850000D02*
X150795000Y-141850000D01*
X150795000Y-141850000D02*
X150795000Y-140070000D01*
X150795000Y-140070000D02*
X150565000Y-140070000D01*
X150565000Y-140070000D02*
X150565000Y-140060000D01*
X147665000Y-141850000D02*
X147665000Y-140070000D01*
X147655000Y-141840000D02*
X147895000Y-141840000D01*
X147895000Y-141840000D02*
X147895000Y-141850000D01*
X147655000Y-140080000D02*
X147895000Y-140080000D01*
X147895000Y-140080000D02*
X147895000Y-140070000D01*
X146925000Y-142570000D02*
X146925000Y-138570000D01*
X146925000Y-138570000D02*
X151525000Y-138570000D01*
X151525000Y-138570000D02*
X151525000Y-142570000D01*
X151525000Y-142570000D02*
X146925000Y-142570000D01*
X165125000Y-139670000D02*
X166365000Y-139670000D01*
X167045000Y-139670000D02*
X167065000Y-139670000D01*
X167065000Y-139670000D02*
X167065000Y-142140000D01*
X164405000Y-142180000D02*
X164405000Y-139670000D01*
X166057412Y-140980000D02*
G75*
G03X166057412Y-140980000I-332412J0D01*
G01*
X166286541Y-140980000D02*
G75*
G03X166286541Y-140980000I-551541J0D01*
G01*
X164355000Y-141850000D02*
X164165000Y-141850000D01*
X164165000Y-141850000D02*
X164165000Y-140070000D01*
X164165000Y-140070000D02*
X164395000Y-140070000D01*
X164395000Y-140070000D02*
X164395000Y-140060000D01*
X167295000Y-141850000D02*
X167295000Y-140070000D01*
X167305000Y-141840000D02*
X167065000Y-141840000D01*
X167065000Y-141840000D02*
X167065000Y-141850000D01*
X167305000Y-140080000D02*
X167065000Y-140080000D01*
X167065000Y-140080000D02*
X167065000Y-140070000D01*
X168035000Y-142570000D02*
X168035000Y-138570000D01*
X168035000Y-138570000D02*
X163435000Y-138570000D01*
X163435000Y-138570000D02*
X163435000Y-142570000D01*
X163435000Y-142570000D02*
X168035000Y-142570000D01*
X166345000Y-139670000D02*
X165105000Y-139670000D01*
X164425000Y-139670000D02*
X164405000Y-139670000D01*
X164405000Y-139670000D02*
X164405000Y-142140000D01*
X167065000Y-142180000D02*
X167065000Y-139670000D01*
X166077412Y-140980000D02*
G75*
G03X166077412Y-140980000I-332412J0D01*
G01*
X166286541Y-140980000D02*
G75*
G03X166286541Y-140980000I-551541J0D01*
G01*
X167115000Y-141850000D02*
X167305000Y-141850000D01*
X167305000Y-141850000D02*
X167305000Y-140070000D01*
X167305000Y-140070000D02*
X167075000Y-140070000D01*
X167075000Y-140070000D02*
X167075000Y-140060000D01*
X164175000Y-141850000D02*
X164175000Y-140070000D01*
X164165000Y-141840000D02*
X164405000Y-141840000D01*
X164405000Y-141840000D02*
X164405000Y-141850000D01*
X164165000Y-140080000D02*
X164405000Y-140080000D01*
X164405000Y-140080000D02*
X164405000Y-140070000D01*
X163435000Y-142570000D02*
X163435000Y-138570000D01*
X163435000Y-138570000D02*
X168035000Y-138570000D01*
X168035000Y-138570000D02*
X168035000Y-142570000D01*
X168035000Y-142570000D02*
X163435000Y-142570000D01*
X148615000Y-139670000D02*
X149855000Y-139670000D01*
X150535000Y-139670000D02*
X150555000Y-139670000D01*
X150555000Y-139670000D02*
X150555000Y-142140000D01*
X147895000Y-142180000D02*
X147895000Y-139670000D01*
X149547412Y-140980000D02*
G75*
G03X149547412Y-140980000I-332412J0D01*
G01*
X149776541Y-140980000D02*
G75*
G03X149776541Y-140980000I-551541J0D01*
G01*
X147845000Y-141850000D02*
X147655000Y-141850000D01*
X147655000Y-141850000D02*
X147655000Y-140070000D01*
X147655000Y-140070000D02*
X147885000Y-140070000D01*
X147885000Y-140070000D02*
X147885000Y-140060000D01*
X150785000Y-141850000D02*
X150785000Y-140070000D01*
X150795000Y-141840000D02*
X150555000Y-141840000D01*
X150555000Y-141840000D02*
X150555000Y-141850000D01*
X150795000Y-140080000D02*
X150555000Y-140080000D01*
X150555000Y-140080000D02*
X150555000Y-140070000D01*
X151525000Y-142570000D02*
X151525000Y-138570000D01*
X151525000Y-138570000D02*
X146925000Y-138570000D01*
X146925000Y-138570000D02*
X146925000Y-142570000D01*
X146925000Y-142570000D02*
X151525000Y-142570000D01*
X149890000Y-118720000D02*
X149890000Y-117480000D01*
X149890000Y-116800000D02*
X149890000Y-116780000D01*
X149890000Y-116780000D02*
X147420000Y-116780000D01*
X147380000Y-119440000D02*
X149890000Y-119440000D01*
X148912412Y-118120000D02*
G75*
G03X148912412Y-118120000I-332412J0D01*
G01*
X149131541Y-118110000D02*
G75*
G03X149131541Y-118110000I-551541J0D01*
G01*
X147710000Y-119490000D02*
X147710000Y-119680000D01*
X147710000Y-119680000D02*
X149490000Y-119680000D01*
X149490000Y-119680000D02*
X149490000Y-119450000D01*
X149490000Y-119450000D02*
X149500000Y-119450000D01*
X147710000Y-116550000D02*
X149490000Y-116550000D01*
X147720000Y-116540000D02*
X147720000Y-116780000D01*
X147720000Y-116780000D02*
X147710000Y-116780000D01*
X149480000Y-116540000D02*
X149480000Y-116780000D01*
X149480000Y-116780000D02*
X149490000Y-116780000D01*
X146990000Y-115810000D02*
X150990000Y-115810000D01*
X150990000Y-115810000D02*
X150990000Y-120410000D01*
X150990000Y-120410000D02*
X146990000Y-120410000D01*
X146990000Y-120410000D02*
X146990000Y-115810000D01*
M02*
