G04 #@! TF.FileFunction,Soldermask,Top*
%FSLAX46Y46*%
G04 Gerber Fmt 4.6, Leading zero omitted, Abs format (unit mm)*
G04 Created by KiCad (PCBNEW 4.0.6) date 08/04/17 15:07:46*
%MOMM*%
%LPD*%
G01*
G04 APERTURE LIST*
%ADD10C,0.100000*%
%ADD11R,1.543000X0.908000*%
%ADD12R,1.650000X1.900000*%
%ADD13R,1.700000X1.900000*%
%ADD14C,1.900000*%
%ADD15R,1.900000X1.650000*%
%ADD16R,1.960000X1.050000*%
%ADD17R,1.900000X1.700000*%
%ADD18R,1.500000X2.650000*%
%ADD19R,1.450000X1.500000*%
%ADD20R,1.050000X1.960000*%
%ADD21R,2.100000X2.100000*%
%ADD22O,2.100000X2.100000*%
G04 APERTURE END LIST*
D10*
D11*
X160782000Y-135255000D03*
X160782000Y-133985000D03*
X160782000Y-132715000D03*
X160782000Y-131445000D03*
X160782000Y-130175000D03*
X160782000Y-128905000D03*
X160782000Y-127635000D03*
X154432000Y-127635000D03*
X154432000Y-128905000D03*
X154432000Y-131445000D03*
X154432000Y-132715000D03*
X154432000Y-133985000D03*
X154432000Y-135255000D03*
X154432000Y-130175000D03*
D12*
X158750000Y-120035000D03*
X158750000Y-122535000D03*
D13*
X153035000Y-123270000D03*
X153035000Y-120570000D03*
D14*
X164338000Y-102616000D03*
X159458000Y-102616000D03*
D15*
X164485000Y-132080000D03*
X166985000Y-132080000D03*
D16*
X147875000Y-109540000D03*
X147875000Y-110490000D03*
X147875000Y-111440000D03*
X150575000Y-111440000D03*
X150575000Y-109540000D03*
D17*
X164385000Y-127000000D03*
X167085000Y-127000000D03*
X164385000Y-121920000D03*
X167085000Y-121920000D03*
X167085000Y-134620000D03*
X164385000Y-134620000D03*
D13*
X156210000Y-138985000D03*
X156210000Y-141685000D03*
D17*
X167085000Y-137160000D03*
X164385000Y-137160000D03*
D13*
X161290000Y-138985000D03*
X161290000Y-141685000D03*
D15*
X150475000Y-132080000D03*
X147975000Y-132080000D03*
D12*
X156210000Y-120035000D03*
X156210000Y-122535000D03*
D15*
X151999000Y-104521000D03*
X149499000Y-104521000D03*
X151999000Y-97282000D03*
X149499000Y-97282000D03*
X159492000Y-107061000D03*
X156992000Y-107061000D03*
X147975000Y-107315000D03*
X150475000Y-107315000D03*
X156992000Y-110109000D03*
X159492000Y-110109000D03*
D18*
X167210000Y-140970000D03*
X164260000Y-140970000D03*
D19*
X165735000Y-139420000D03*
D18*
X150700000Y-140970000D03*
X147750000Y-140970000D03*
D19*
X149225000Y-139420000D03*
D13*
X161925000Y-123270000D03*
X161925000Y-120570000D03*
D17*
X150575000Y-121920000D03*
X147875000Y-121920000D03*
X147875000Y-134620000D03*
X150575000Y-134620000D03*
X164385000Y-129540000D03*
X167085000Y-129540000D03*
X150575000Y-129540000D03*
X147875000Y-129540000D03*
X150575000Y-127000000D03*
X147875000Y-127000000D03*
X167085000Y-124460000D03*
X164385000Y-124460000D03*
X147875000Y-124460000D03*
X150575000Y-124460000D03*
D13*
X153670000Y-138985000D03*
X153670000Y-141685000D03*
X158750000Y-138985000D03*
X158750000Y-141685000D03*
D17*
X147875000Y-137160000D03*
X150575000Y-137160000D03*
D13*
X153035000Y-114855000D03*
X153035000Y-117555000D03*
D17*
X160227000Y-98933000D03*
X157527000Y-98933000D03*
X160227000Y-96901000D03*
X157527000Y-96901000D03*
X166196000Y-98806000D03*
X163496000Y-98806000D03*
X166069000Y-96901000D03*
X163369000Y-96901000D03*
X147875000Y-117475000D03*
X150575000Y-117475000D03*
X147875000Y-115570000D03*
X150575000Y-115570000D03*
X150575000Y-113030000D03*
X147875000Y-113030000D03*
D20*
X149545000Y-102315000D03*
X150495000Y-102315000D03*
X151445000Y-102315000D03*
X151445000Y-99615000D03*
X149545000Y-99615000D03*
D21*
X170053000Y-96012000D03*
D22*
X172593000Y-96012000D03*
X170053000Y-98552000D03*
X172593000Y-98552000D03*
X170053000Y-101092000D03*
X172593000Y-101092000D03*
X170053000Y-103632000D03*
X172593000Y-103632000D03*
X170053000Y-106172000D03*
X172593000Y-106172000D03*
X170053000Y-108712000D03*
X172593000Y-108712000D03*
X170053000Y-111252000D03*
X172593000Y-111252000D03*
X170053000Y-113792000D03*
X172593000Y-113792000D03*
X170053000Y-116332000D03*
X172593000Y-116332000D03*
X170053000Y-118872000D03*
X172593000Y-118872000D03*
X170053000Y-121412000D03*
X172593000Y-121412000D03*
X170053000Y-123952000D03*
X172593000Y-123952000D03*
X170053000Y-126492000D03*
X172593000Y-126492000D03*
X170053000Y-129032000D03*
X172593000Y-129032000D03*
X170053000Y-131572000D03*
X172593000Y-131572000D03*
X170053000Y-134112000D03*
X172593000Y-134112000D03*
X170053000Y-136652000D03*
X172593000Y-136652000D03*
X170053000Y-139192000D03*
X172593000Y-139192000D03*
X170053000Y-141732000D03*
X172593000Y-141732000D03*
M02*
