M48
;DRILL file {KiCad 4.0.6} date 08/04/17 13:25:40
;FORMAT={3:3/ absolute / metric / suppress leading zeros}
FMAT,2
METRIC,TZ
T1C0.400
T2C0.800
T3C1.000
%
G90
G05
M71
T1
X147066Y-99314
X147066Y-104775
X147875Y-109540
X147875Y-137160
X148590Y-100838
X149225Y-133350
X149225Y-137160
X149352Y-111506
X149499Y-97282
X149499Y-104521
X150622Y-120396
X150749Y-105410
X151765Y-108585
X151765Y-119380
X151892Y-117856
X151892Y-122809
X152146Y-113284
X152400Y-106426
X152400Y-110236
X152400Y-134620
X152527Y-127254
X152654Y-132969
X152908Y-108712
X153035Y-125476
X153035Y-128905
X153035Y-130175
X153670Y-97282
X153924Y-108839
X154432Y-135255
X154559Y-127254
X154940Y-131445
X154940Y-140462
X155067Y-110896
X155575Y-116840
X155702Y-97282
X155829Y-111684
X155956Y-115824
X155956Y-124206
X155956Y-132334
X156083Y-102743
X156210Y-99060
X156362Y-109830
X156591Y-106807
X156591Y-107442
X156845Y-132080
X156947Y-109347
X156972Y-102743
X157353Y-106807
X157353Y-107442
X157480Y-117856
X157480Y-138985
X157505Y-109779
X157861Y-102743
X158750Y-124206
X158852Y-108788
X158877Y-96901
X159004Y-132334
X159131Y-107188
X159492Y-109352
X159893Y-117983
X160020Y-107188
X160020Y-116459
X160020Y-131445
X160020Y-140335
X160147Y-108331
X160274Y-127508
X160655Y-113030
X160782Y-103505
X160782Y-104394
X161290Y-136525
X161925Y-125730
X161925Y-128905
X161925Y-130175
X162306Y-97790
X162560Y-127254
X162560Y-133350
X162560Y-135255
X163195Y-122809
X163195Y-139065
X164719Y-97663
X165227Y-117983
X165735Y-121285
X165735Y-133350
X166116Y-107442
X166243Y-100584
X166370Y-117856
X167005Y-118872
X167085Y-137160
X168275Y-123190
X168402Y-99822
T2
X159458Y-102616
X164338Y-102616
T3
X170053Y-96012
X170053Y-98552
X170053Y-101092
X170053Y-103632
X170053Y-106172
X170053Y-108712
X170053Y-111252
X170053Y-113792
X170053Y-116332
X170053Y-118872
X170053Y-121412
X170053Y-123952
X170053Y-126492
X170053Y-129032
X170053Y-131572
X170053Y-134112
X170053Y-136652
X170053Y-139192
X170053Y-141732
X172593Y-96012
X172593Y-98552
X172593Y-101092
X172593Y-103632
X172593Y-106172
X172593Y-108712
X172593Y-111252
X172593Y-113792
X172593Y-116332
X172593Y-118872
X172593Y-121412
X172593Y-123952
X172593Y-126492
X172593Y-129032
X172593Y-131572
X172593Y-134112
X172593Y-136652
X172593Y-139192
X172593Y-141732
T0
M30
